<?xml version="1.0" standalone="no"?>
<!DOCTYPE svg PUBLIC "-//W3C//DTD SVG 1.1//EN" "http://www.w3.org/Graphics/SVG/1.1/DTD/svg11.dtd" >
<svg xmlns="http://www.w3.org/2000/svg" xmlns:xlink="http://www.w3.org/1999/xlink" version="1.1">
<metadata>
Created by FontForge 20201107 at Thu Nov 20 10:53:21 2025
 By 
Copyright (c) 2020 by Sarid Ezra. All rights reserved.
</metadata>
<defs>
<font id="Ezra-BoldItalic" horiz-adv-x="1714" >
  <font-face 
    font-family="Ezra"
    font-weight="700"
    font-style="italic"
    font-stretch="normal"
    units-per-em="2048"
    panose-1="0 0 0 0 0 0 0 0 0 0"
    ascent="1536"
    descent="-512"
    x-height="1106"
    cap-height="1434"
    bbox="-264 -524 2748 1853"
    underline-thickness="102"
    underline-position="-255"
    unicode-range="U+000D-FB01"
  />
<missing-glyph horiz-adv-x="1024" 
 />
    <glyph glyph-name="fi" unicode="fi" horiz-adv-x="1460" 
d="M1323 0h-336l199 862h-447l-198 -862h-338l198 862h-186l47 209l215 33q-55 91 -33 188q21 91 115.5 160.5t226 104t275.5 34.5q126 0 233 -27.5t190 -90.5t111 -154l-284 -137q-43 75 -125.5 112t-177.5 37q-99 0 -177 -35t-90 -88q-8 -32 6.5 -61t47.5 -41h784z" />
    <glyph glyph-name=".notdef" horiz-adv-x="1024" 
 />
    <glyph glyph-name="uni0000" horiz-adv-x="0" 
 />
    <glyph glyph-name="uni0000" horiz-adv-x="0" 
 />
    <glyph glyph-name="uni000D" unicode="&#xd;" horiz-adv-x="512" 
 />
    <glyph glyph-name="space" unicode=" " horiz-adv-x="512" 
 />
    <glyph glyph-name="exclam" unicode="!" horiz-adv-x="466" 
d="M236 463l157 971h344l-288 -971h-213zM88 154q17 72 79 121t134 49t109 -49t20 -121q-15 -72 -76 -123t-133 -51t-111 51t-22 123z" />
    <glyph glyph-name="quotedbl" unicode="&#x22;" horiz-adv-x="835" 
d="M266 961l203 489h262l-285 -489h-180zM653 961l203 489h262l-284 -489h-181z" />
    <glyph glyph-name="numbersign" unicode="#" horiz-adv-x="1708" 
d="M666 0l274 371h-309l-275 -371h-258l277 371h-236l49 215h344l173 231h-351l49 213h459l299 404h254l-299 -404h311l299 404h256l-299 -404h187l-49 -213h-295l-170 -231h293l-50 -215h-403l-274 -371h-256zM788 586h312l170 231h-312z" />
    <glyph glyph-name="dollar" unicode="$" horiz-adv-x="1529" 
d="M1065 1536h168l-33 -145q157 -15 297.5 -66.5t226.5 -126.5l-215 -258q-56 61 -158 105t-218 59l-66 -289q58 -12 98.5 -21t95 -25.5t92 -33.5t77.5 -43.5t64.5 -57t40 -72.5t15.5 -91q0 -36 -10 -88q-24 -100 -88 -178t-156 -127t-198.5 -76t-227.5 -33l-20 -96h-170
l22 98q-178 14 -330 67.5t-237 135.5l217 266q56 -65 170.5 -111.5t247.5 -66.5l68 295q-54 12 -94.5 22t-91 26.5t-87 34t-73 44t-59.5 56t-37.5 70t-14.5 87.5q0 49 10 88q19 83 63.5 151t105.5 114.5t138 79t160 48.5t174 19zM905 848l62 262q-96 -6 -159.5 -39
t-76.5 -92q-11 -50 33.5 -79t140.5 -52zM999 520l-63 -268q106 5 175.5 35.5t82.5 87.5q12 55 -39 87.5t-156 57.5z" />
    <glyph glyph-name="percent" unicode="%" horiz-adv-x="1742" 
d="M662 879q-130 0 -197.5 65.5t-67.5 165.5q0 51 17.5 104t53 101t83.5 85.5t113.5 60t138.5 22.5q131 0 198.5 -65.5t67.5 -166.5q0 -65 -28.5 -130t-79 -119.5t-129.5 -88.5t-170 -34zM1698 1434h278l-1607 -1434h-281zM764 1317q-78 0 -128 -53t-50 -115q0 -44 28.5 -73
t85.5 -29q80 0 131.5 51.5t51.5 113.5q0 45 -30.5 75t-88.5 30zM1296 0q-131 0 -197.5 65t-66.5 166q0 65 28.5 130.5t78.5 120t128 88.5t169 34q132 0 200 -66t68 -167q0 -65 -28.5 -130t-79.5 -119t-130 -88t-170 -34zM1401 446q-84 0 -137.5 -55.5t-53.5 -122.5
q0 -48 31 -79t92 -31q86 0 140.5 55.5t54.5 122.5q0 48 -32 79t-95 31z" />
    <glyph glyph-name="ampersand" unicode="&#x26;" horiz-adv-x="1701" 
d="M1688 0l-355 -51q-46 49 -112 131q-127 -81 -270 -121.5t-281 -40.5q-148 0 -266.5 44t-191.5 134t-73 213q0 45 13 105q17 76 59.5 142t94.5 114t128 92.5t141 74t152 62.5q-35 107 -35 201q0 42 10 90q21 92 96.5 160.5t172.5 100.5t200 32q137 0 230.5 -60t93.5 -170
q0 -15 -8 -61q-16 -68 -53 -126t-92 -104t-113.5 -80.5t-132.5 -68.5q73 -138 190 -305q72 109 98 248h289q-57 -277 -221 -471q57 -74 116 -145t90 -106zM1010 1012q180 78 204 172q11 51 -15 79.5t-69 28.5q-45 0 -84.5 -29t-52.5 -83q-16 -63 17 -168zM1055 295
q-156 219 -246 401q-67 -29 -113.5 -53t-92 -56t-73.5 -69t-38 -80q-24 -103 53 -163t209 -60q156 0 301 80z" />
    <glyph glyph-name="quotesingle" unicode="'" horiz-adv-x="421" 
d="M463 1450h264l-281 -489h-180z" />
    <glyph glyph-name="parenleft" unicode="(" horiz-adv-x="598" 
d="M340 -82q-82 76 -123 199t-41 274q0 196 62.5 403t183 388.5t274.5 281.5l172 -73q-126 -93 -226.5 -267t-154 -371.5t-53.5 -377.5q0 -260 111 -383z" />
    <glyph glyph-name="parenright" unicode=")" horiz-adv-x="598" 
d="M221 -82l-170 74q126 92 226.5 265.5t153 371t52.5 377.5q0 261 -110 385l207 73q161 -151 161 -471q0 -196 -62.5 -403.5t-183 -389.5t-274.5 -282z" />
    <glyph glyph-name="asterisk" unicode="*" horiz-adv-x="663" 
d="M872 1368l15 -170l-172 -22l84 -119l-164 -107l-49 154l-119 -150l-115 105l131 115l-155 20l90 172l139 -70l12 138h176l-45 -136z" />
    <glyph glyph-name="plus" unicode="+" horiz-adv-x="1001" 
d="M193 606l51 223h323l68 287h246l-66 -287h324l-52 -223h-323l-72 -311h-248l72 311h-323z" />
    <glyph glyph-name="comma" unicode="," horiz-adv-x="614" 
d="M-80 -256l361 528h333l-469 -528h-225z" />
    <glyph glyph-name="hyphen" unicode="-" horiz-adv-x="1132" 
d="M193 606l51 223h1026l-51 -223h-1026z" />
    <glyph glyph-name="period" unicode="." horiz-adv-x="485" 
d="M106 154q17 72 79 121t134 49t110.5 -49t21.5 -121t-78 -123t-133 -51t-111.5 51t-22.5 123z" />
    <glyph glyph-name="slash" unicode="/" horiz-adv-x="1267" 
d="M1303 1434h243l-1251 -1434h-242z" />
    <glyph glyph-name="zero" unicode="0" horiz-adv-x="1556" 
d="M242 717q34 147 102.5 272.5t156 214t192 151t212.5 92.5t215 30q113 0 212 -35t175.5 -101t121 -172t44.5 -239q0 -100 -26 -213q-34 -147 -102.5 -272.5t-156 -214t-192 -151t-212.5 -92.5t-214 -30q-114 0 -213 35t-176 101t-121.5 172t-44.5 239q0 96 27 213z
M555 717q-14 -63 -14 -123q0 -147 87.5 -227t217.5 -80q75 0 150 27.5t142.5 79.5t120 135.5t76.5 187.5q17 76 17 125q0 147 -88 227t-220 80q-75 0 -149.5 -27.5t-142 -79.5t-120 -136t-77.5 -189z" />
    <glyph glyph-name="one" unicode="1" horiz-adv-x="845" 
d="M834 1456h208l-335 -1456h-347l236 1022l-209 -143l-106 180z" />
    <glyph glyph-name="two" unicode="2" horiz-adv-x="1220" 
d="M1051 1040q15 67 -35.5 105.5t-141.5 38.5q-108 0 -228.5 -55.5t-209.5 -159.5l-71 284q102 112 254 171t311 59q93 0 175 -21t146 -61.5t101 -105t37 -144.5q0 -31 -11 -88q-19 -82 -62.5 -153t-104 -126.5t-130.5 -104t-150 -94.5t-153.5 -89t-150 -97.5t-131.5 -109.5
h733l-66 -289h-1106q35 149 105 272.5t155 204.5t180.5 147t187.5 115t168.5 93.5t130 96.5t67.5 111z" />
    <glyph glyph-name="three" unicode="3" horiz-adv-x="1357" 
d="M645 676h-27l54 219q110 -1 197 17.5t137 50t76 67.5t26 72q0 46 -40.5 78t-109.5 32q-233 0 -426 -190l-104 197q124 126 274 187.5t295 61.5q222 0 343.5 -91.5t121.5 -225.5q0 -98 -67 -193.5t-193 -164.5q182 -108 182 -293q0 -96 -54.5 -191t-151 -172.5
t-244 -125.5t-318.5 -48q-112 0 -208 30.5t-174 99t-117 169.5l192 244q108 -230 400 -230q143 0 239 65.5t96 147.5q0 78 -99.5 132.5t-299.5 54.5z" />
    <glyph glyph-name="four" unicode="4" horiz-adv-x="1372" 
d="M1403 289h-199l-65 -289l-346 -2l65 291h-756l66 286l1071 865l229 -6l-198 -859h198zM520 575h406l92 402z" />
    <glyph glyph-name="five" unicode="5" horiz-adv-x="1370" 
d="M483 612l-209 19l287 803h944l-65 -289h-668l-80 -225q103 20 213 20q127 0 226 -30.5t159 -83.5t90.5 -120t30.5 -145q0 -84 -33.5 -170t-101 -164.5t-159 -139.5t-218 -97.5t-268.5 -36.5q-118 0 -215 32.5t-172 106t-103 182.5l281 140q13 -77 89 -115.5t177 -38.5
q170 0 277.5 81t107.5 179q0 73 -66.5 120.5t-197.5 47.5q-168 0 -326 -76z" />
    <glyph glyph-name="six" unicode="6" horiz-adv-x="1452" 
d="M741 -31q-134 0 -236.5 42t-164 116t-92.5 168.5t-31 206.5q0 129 39.5 264t117 259t181.5 222t244 156.5t293 58.5q92 0 176.5 -19.5t140.5 -47t100.5 -59t66 -54t26.5 -33.5l-197 -200q-4 7 -20.5 21.5t-50 35.5t-75 39.5t-103 31.5t-126.5 13q-147 0 -268 -99
t-187 -249q171 116 426 116q243 0 368.5 -107.5t125.5 -270.5q0 -84 -33 -170.5t-98 -165.5t-154 -140.5t-211 -98t-258 -36.5zM940 690q-183 0 -284 -66.5t-101 -154.5q0 -72 69.5 -122t192.5 -50q155 0 254.5 77t99.5 167q0 64 -58.5 106.5t-172.5 42.5z" />
    <glyph glyph-name="seven" unicode="7" horiz-adv-x="1288" 
d="M176 0l891 1145h-766l66 289h1216l-12 -56l-1014 -1378h-381z" />
    <glyph glyph-name="eight" unicode="8" horiz-adv-x="1449" 
d="M432 1092q40 169 213.5 272.5t419.5 103.5q217 0 343 -83t126 -222q0 -38 -8 -71q-23 -98 -95.5 -175.5t-183.5 -125.5q122 -43 189 -121.5t67 -182.5q0 -34 -10 -79q-46 -197 -258 -318t-516 -121q-268 0 -424 97.5t-156 261.5q0 27 11 80q30 132 141 231.5t280 151.5
q-147 80 -147 229q0 39 8 72zM936 911q132 0 212.5 55.5t80.5 123.5q0 55 -56.5 91t-164.5 36q-135 0 -215 -53.5t-80 -121.5q0 -55 57.5 -93t165.5 -38zM786 258q168 0 270.5 69.5t102.5 155.5q0 70 -72.5 118t-209.5 48q-169 0 -271 -69t-102 -156q0 -70 72 -118t210 -48z
" />
    <glyph glyph-name="nine" unicode="9" horiz-adv-x="1449" 
d="M1040 1462q107 0 195 -27.5t148.5 -76t102 -116t60.5 -145.5t19 -167q0 -107 -28.5 -220t-80.5 -219.5t-131 -201.5t-173.5 -166t-214 -112.5t-247.5 -41.5q-92 0 -176.5 19.5t-140.5 47t-100.5 59t-66 54t-26.5 33.5l195 201q4 -7 20.5 -21.5t50 -35.5t75 -39.5
t103 -31.5t126.5 -13q149 0 269.5 99t184.5 249q-169 -117 -426 -117q-124 0 -220.5 30.5t-155 83.5t-88 120t-29.5 145q0 106 53 213.5t147.5 196t240 144.5t314.5 56zM842 741q181 0 283 67t102 155q0 72 -69.5 122t-192.5 50q-156 0 -255.5 -76.5t-99.5 -167.5
q0 -65 58.5 -107.5t173.5 -42.5z" />
    <glyph glyph-name="colon" unicode=":" horiz-adv-x="434" 
d="M276 969q17 72 78 121t133 49q73 0 110.5 -49t20.5 -121q-17 -74 -77 -124t-133 -50q-71 0 -110 50.5t-22 123.5zM94 154q17 72 79 121t134 49t110 -49t21 -121t-78 -123t-133 -51t-111 51t-22 123z" />
    <glyph glyph-name="semicolon" unicode=";" horiz-adv-x="649" 
d="M406 930q17 73 78.5 122.5t133.5 49.5q74 0 111.5 -49.5t20.5 -122.5t-77.5 -123.5t-133.5 -50.5q-72 0 -110 51t-23 123zM10 -188l316 460h333l-423 -460h-226z" />
    <glyph glyph-name="less" unicode="&#x3c;" horiz-adv-x="675" 
d="M733 475l-61 -268l-475 414l39 167l665 414l-61 -266l-389 -231z" />
    <glyph glyph-name="equal" unicode="=" horiz-adv-x="927" 
d="M227 752l52 225h821l-53 -225h-820zM143 391l52 225h821l-51 -225h-822z" />
    <glyph glyph-name="greater" unicode="&#x3e;" horiz-adv-x="675" 
d="M805 788l-39 -167l-666 -414l62 268l389 230l-283 231l62 266z" />
    <glyph glyph-name="question" unicode="?" horiz-adv-x="1132" 
d="M999 1057q17 69 -19.5 105t-109.5 36q-90 0 -199.5 -54.5t-199.5 -152.5l-137 213q112 120 278.5 187t329.5 67q171 0 282 -76t111 -221q0 -45 -12 -94q-19 -83 -62 -147t-97.5 -104t-116.5 -72t-123 -60t-113.5 -59.5t-91.5 -78.5t-53 -108h-185q21 93 58 166
t80.5 117.5t91.5 79.5t94 60.5t85.5 51.5t68.5 62t40 82zM346 154q17 72 79 121t134 49q73 0 110.5 -49t20.5 -121q-17 -74 -77.5 -124t-133.5 -50q-72 0 -111 50.5t-22 123.5z" />
    <glyph glyph-name="at" unicode="@" horiz-adv-x="1478" 
d="M1067 991h152l-56 -235q-28 -133 -28 -187q0 -120 92 -120q89 0 153 102.5t64 232.5q0 57 -14 109.5t-46.5 101t-80.5 84t-122 57t-165 21.5q-122 0 -232 -39.5t-190 -106t-139.5 -151.5t-89 -178t-29.5 -184q0 -66 16 -124.5t50.5 -109.5t85 -88.5t123 -58.5t161.5 -21
q202 0 371 133l61 -118q-228 -158 -465 -158q-114 0 -207.5 27t-158.5 73.5t-109.5 111.5t-65 139.5t-20.5 158.5q0 115 38 233t114 225t179 191t243.5 134t296.5 50q142 0 251 -41t172.5 -110.5t95 -153.5t31.5 -178q0 -124 -49 -235.5t-142.5 -183.5t-209.5 -72
q-151 0 -201 94q-104 -129 -256 -129q-95 0 -142.5 63t-47.5 164q0 80 29 167.5t78 161t122.5 121.5t153.5 48q73 0 129 -37zM1006 741q1 60 -27 95.5t-78 35.5q-51 0 -97 -56.5t-70.5 -133.5t-24.5 -145q0 -50 16.5 -80.5t48.5 -30.5q39 0 75.5 28t65.5 77t50.5 99.5
t40.5 110.5z" />
    <glyph glyph-name="A" unicode="A" 
d="M16 0l1004 1454h348l332 -1454h-365l-49 209h-762l-143 -209h-365zM725 498h496l-125 534z" />
    <glyph glyph-name="B" unicode="B" horiz-adv-x="1546" 
d="M1032 0h-893l330 1434h770q172 0 261 -89.5t89 -226.5q0 -48 -12 -100q-27 -131 -131 -244q121 -97 121 -264q0 -46 -13 -100q-19 -79 -63 -151.5t-109.5 -131t-156.5 -93t-193 -34.5zM680 858h354q79 0 133.5 46.5t69.5 111.5q13 64 -19.5 111t-109.5 47h-354zM547 281
h479q79 0 133.5 47.5t69.5 113.5q15 65 -18 112.5t-111 47.5h-479z" />
    <glyph glyph-name="C" unicode="C" horiz-adv-x="1591" 
d="M242 717q34 146 110 272.5t174 215t214 152t231.5 94t224.5 30.5q209 0 362 -82.5t230 -233.5l-299 -227q-46 90 -144.5 151.5t-209.5 61.5q-106 0 -200.5 -37t-162 -99t-113.5 -138.5t-65 -159.5q-12 -55 -12 -109q0 -141 89 -233t263 -92q238 0 455 221l194 -230
q-153 -150 -345.5 -235.5t-395.5 -85.5q-118 0 -228 37t-199 107t-142.5 182.5t-53.5 250.5q0 79 23 187z" />
    <glyph glyph-name="D" unicode="D" horiz-adv-x="1720" 
d="M469 1434h799q142 -1 252 -45t177 -119t100.5 -170t33.5 -205q0 -89 -21 -178q-32 -136 -106.5 -261.5t-183 -227.5t-260.5 -164t-322 -64h-799zM1190 1147h-442l-199 -858h442q87 0 166.5 36.5t138 97.5t99 137t59.5 157q14 60 14 125q0 134 -69.5 219.5t-208.5 85.5z
" />
    <glyph glyph-name="E" unicode="E" horiz-adv-x="1443" 
d="M139 0l330 1434h1239l-66 -287h-897l-65 -285h764l-68 -289h-762l-65 -284h909l-67 -289h-1252z" />
    <glyph glyph-name="F" unicode="F" horiz-adv-x="1392" 
d="M139 0l330 1434h1239l-68 -287h-895l-81 -359h761l-67 -288h-760l-117 -500h-342z" />
    <glyph glyph-name="G" unicode="G" horiz-adv-x="1628" 
d="M1690 782l-181 -782h-139l-41 117q-227 -164 -487 -164q-118 0 -228 37t-199 107t-142.5 182.5t-53.5 250.5q0 79 23 187q34 146 110 272.5t174 215t214 152t231.5 94t224.5 30.5q209 0 362 -82.5t230 -233.5l-299 -227q-47 91 -145 152t-209 61q-107 0 -201.5 -37
t-162 -99t-113 -138.5t-64.5 -159.5q-12 -55 -12 -109q0 -141 89 -233t263 -92q155 0 250.5 83t126.5 205l-322 2l47 209h654z" />
    <glyph glyph-name="H" unicode="H" 
d="M139 0l330 1434h344l-133 -572h752l133 572h342l-330 -1434h-344l133 573h-752l-133 -573h-342z" />
    <glyph glyph-name="I" unicode="I" horiz-adv-x="622" 
d="M139 0l330 1434h344l-332 -1434h-342z" />
    <glyph glyph-name="J" unicode="J" horiz-adv-x="1148" 
d="M799 569l200 865h342l-219 -955q-25 -110 -79.5 -200t-124.5 -149.5t-154.5 -99.5t-168.5 -57.5t-169 -17.5q-125 0 -226 37t-145 98l166 313q47 -52 115 -81t141 -29q112 0 201 68.5t121 207.5z" />
    <glyph glyph-name="K" unicode="K" horiz-adv-x="1622" 
d="M1159 0l-385 569l-196 -157l-97 -412h-342l330 1434h344l-135 -584l737 584h434l-798 -641l553 -793h-445z" />
    <glyph glyph-name="L" unicode="L" horiz-adv-x="1378" 
d="M139 0l330 1434h344l-264 -1145h883l-68 -289h-1225z" />
    <glyph glyph-name="M" unicode="M" horiz-adv-x="2023" 
d="M139 0l330 1434h344l307 -961l754 961h342l-332 -1434h-342l193 836l-658 -836h-131l-270 836l-195 -836h-342z" />
    <glyph glyph-name="N" unicode="N" horiz-adv-x="1802" 
d="M139 0l330 1434h344l612 -988l228 988h344l-332 -1434h-344l-610 989l-230 -989h-342z" />
    <glyph glyph-name="O" unicode="O" horiz-adv-x="1765" 
d="M1849 717q-29 -124 -88 -234t-136.5 -192t-170 -147.5t-192 -106.5t-198.5 -62.5t-192 -21.5q-98 0 -191 22.5t-176.5 70.5t-146 115.5t-99 164t-36.5 209.5q0 74 23 182q34 148 111.5 275t178 215.5t219 151.5t238 92.5t232.5 29.5q123 0 237 -37t206.5 -107t148 -183
t55.5 -253q0 -76 -23 -184zM1501 717q12 59 12 106q0 80 -31 144.5t-83 104t-116 60.5t-134 21q-81 0 -165.5 -27.5t-163 -79.5t-139.5 -138t-85 -191q-12 -58 -12 -107q0 -80 31 -144t83 -103t116 -59.5t134 -20.5q81 0 165.5 27.5t163 79t139.5 137t85 190.5z" />
    <glyph glyph-name="P" unicode="P" horiz-adv-x="1402" 
d="M139 0l330 1434h752q92 0 163.5 -28t114.5 -76.5t64.5 -110.5t21.5 -134q0 -50 -14 -118q-21 -89 -69.5 -171.5t-118.5 -149t-168.5 -106.5t-208.5 -40h-408l-117 -500h-342zM664 788h372q75 0 130 53t71 126q16 72 -14 125t-105 53h-373z" />
    <glyph glyph-name="Q" unicode="Q" horiz-adv-x="1765" 
d="M1270 -209l-101 211q-148 -49 -297 -49q-98 0 -191 22.5t-176.5 70.5t-146 115.5t-99 164t-36.5 209.5q0 74 23 182q34 148 111.5 275t178 215.5t219 151.5t238 92.5t232.5 29.5q123 0 237 -37t206.5 -107t148 -183t55.5 -253q0 -76 -23 -184q-44 -190 -151.5 -338
t-259.5 -248l90 -188zM1501 717q12 59 12 106q0 80 -31 144.5t-83 104t-116 60.5t-134 21q-81 0 -165.5 -27.5t-163 -79.5t-139.5 -138t-85 -191q-12 -58 -12 -107q0 -80 31 -144t83 -103t116 -59.5t134 -20.5q42 0 88 6l-69 147l258 152l82 -176q150 120 194 305z" />
    <glyph glyph-name="R" unicode="R" horiz-adv-x="1595" 
d="M1151 0l-240 537l-305 2l-125 -539h-342l330 1434h840q181 0 273.5 -95t92.5 -241q0 -45 -14 -113q-31 -136 -130.5 -251.5t-244.5 -166.5l295 -567h-430zM672 825h411q87 0 147 47.5t75 112.5t-23 112.5t-125 47.5h-412z" />
    <glyph glyph-name="S" unicode="S" horiz-adv-x="1562" 
d="M1778 1262l-232 -279q-78 87 -227 140t-287 53q-107 0 -183.5 -37t-94.5 -111q-8 -38 15 -65.5t69.5 -45.5t109 -32t134 -28.5t143 -32t137.5 -45t117 -64t81.5 -94t30.5 -129.5q0 -44 -12 -97q-26 -114 -100 -201t-179.5 -138.5t-227 -77t-255.5 -25.5
q-214 0 -407.5 59.5t-298.5 159.5l235 287q83 -92 254.5 -151.5t323.5 -59.5q69 0 126 14t99 46t53 79q11 49 -28.5 83t-112.5 54.5t-163 39t-182.5 45.5t-169.5 64.5t-126 105.5t-49 159q0 44 12 96q27 114 96 200.5t166.5 137.5t209.5 76t237 25q199 0 387.5 -58
t298.5 -153z" />
    <glyph glyph-name="T" unicode="T" horiz-adv-x="1576" 
d="M346 1434h1548l-65 -285h-602l-266 -1149h-343l265 1149h-602z" />
    <glyph glyph-name="U" unicode="U" horiz-adv-x="1685" 
d="M274 586l195 848h344l-197 -848q-8 -33 -8 -72q0 -114 85.5 -177t211.5 -63q93 0 181 33.5t158.5 106.5t92.5 172l197 848h342l-195 -848q-29 -123 -92.5 -228.5t-148.5 -179.5t-187 -126.5t-209.5 -77.5t-214.5 -25q-116 0 -218.5 31t-182 89.5t-126 152t-46.5 210.5
q0 72 18 154z" />
    <glyph glyph-name="V" unicode="V" horiz-adv-x="1716" 
d="M1026 -20h-348l-332 1454h365l239 -1035l715 1035h365z" />
    <glyph glyph-name="W" unicode="W" horiz-adv-x="2326" 
d="M823 -20h-276l-201 1454h359l112 -957l563 957h228l123 -955l555 955h356l-873 -1454h-274l-127 911z" />
    <glyph glyph-name="X" unicode="X" horiz-adv-x="1583" 
d="M1567 0h-441l-231 453l-438 -453h-441l734 739l-353 695h406l223 -420l416 420h405l-673 -695z" />
    <glyph glyph-name="Y" unicode="Y" horiz-adv-x="1579" 
d="M346 1434h402l237 -580l508 580h399l-798 -859l-133 -575h-345l134 575z" />
    <glyph glyph-name="Z" unicode="Z" horiz-adv-x="1386" 
d="M1532 1145l-1018 -856h889l-68 -289h-1284l68 289v-2v2l1038 858h-823l67 287h1198l-67 -287l-2 -2h2z" />
    <glyph glyph-name="bracketleft" unicode="[" horiz-adv-x="516" 
d="M25 -119l358 1553h414l-33 -134l-184 -16l-291 -1253l178 -17l-29 -133h-413z" />
    <glyph glyph-name="backslash" unicode="\" horiz-adv-x="1259" 
d="M383 1434h238l587 -1434h-235z" />
    <glyph glyph-name="bracketright" unicode="]" horiz-adv-x="522" 
d="M797 1434l-359 -1553h-413l32 133l185 17l290 1253l-178 16l29 134h414z" />
    <glyph glyph-name="asciicircum" unicode="^" horiz-adv-x="862" 
d="M270 901l432 533h136l186 -533h-233l-78 285l-209 -285h-234z" />
    <glyph glyph-name="underscore" unicode="_" horiz-adv-x="1236" 
d="M47 -27l45 197h1133l-45 -197h-1133z" />
    <glyph glyph-name="grave" unicode="`" horiz-adv-x="364" 
d="M336 1397l127 116l184 -243l-76 -68z" />
    <glyph glyph-name="a" unicode="a" horiz-adv-x="1480" 
d="M1266 1106h336l-254 -1106h-295l8 176q-91 -103 -205 -155t-231 -52q-87 0 -166 29t-140 83t-97 137t-36 185q0 66 19 150q31 133 105.5 246t170 185.5t203 112.5t209.5 40q113 0 201.5 -49t134.5 -144zM545 553q-10 -39 -10 -86q0 -110 69 -170.5t172 -60.5
q118 0 222.5 82.5t140.5 234.5q10 41 10 92q0 109 -64.5 166t-162.5 57q-78 0 -154 -34.5t-138.5 -108t-84.5 -172.5z" />
    <glyph glyph-name="b" unicode="b" horiz-adv-x="1482" 
d="M135 0l354 1536h336l-137 -594q90 96 201 145.5t223 49.5q118 0 216.5 -50t160 -151t61.5 -234q0 -70 -18 -149q-30 -134 -104.5 -247t-170.5 -185t-203 -112t-210 -40q-118 0 -208.5 52t-133.5 155l-72 -176h-295zM1194 553q10 48 10 82q0 110 -70 171.5t-173 61.5
q-119 0 -222.5 -81.5t-138.5 -233.5q-12 -53 -12 -94q0 -109 64.5 -166t162.5 -57q123 0 233.5 84.5t145.5 232.5z" />
    <glyph glyph-name="c" unicode="c" horiz-adv-x="1292" 
d="M203 551q33 141 117 256.5t192 187t225.5 110t227.5 38.5q166 0 290 -64t187 -180l-287 -209q-73 141 -252 141q-83 0 -155 -31.5t-118.5 -81.5t-73 -110.5t-26.5 -120.5q0 -93 61.5 -154t182.5 -61q96 0 171.5 36t146.5 108l190 -209q-121 -116 -276 -183t-316 -67
q-95 0 -184.5 29.5t-161 85t-115 144t-43.5 196.5q0 70 17 139z" />
    <glyph glyph-name="d" unicode="d" horiz-adv-x="1505" 
d="M205 553q31 133 105.5 246t170 185.5t203 112.5t209.5 40q113 0 201.5 -49t134.5 -144l137 592h336l-268 -1157q-11 -53 -11 -72q0 -32 19 -45.5t67 -13.5h15l-56 -248q-105 0 -174 6.5t-126 24.5t-83.5 52.5t-27.5 88.5q-89 -101 -202 -152t-230 -51q-87 0 -166 29
t-140 83t-97 137t-36 185q0 66 19 150zM545 553q-10 -39 -10 -86q0 -110 69 -170.5t172 -60.5q118 0 222.5 82.5t140.5 234.5q10 41 10 92q0 109 -64.5 166t-162.5 57q-78 0 -154 -34.5t-138.5 -108t-84.5 -172.5z" />
    <glyph glyph-name="e" unicode="e" horiz-adv-x="1335" 
d="M203 551q33 141 117 256.5t192 187t225.5 110t227.5 38.5q202 0 330 -118.5t128 -332.5q0 -87 -20 -174l-866 2q-8 -111 51 -184.5t184 -73.5q191 0 332 144l178 -199q-121 -116 -276 -183t-316 -67q-95 0 -184.5 29.5t-161 85t-115 144t-43.5 196.5q0 70 17 139z
M608 723h518q-15 78 -65.5 128t-136.5 50q-99 0 -181 -49t-135 -129z" />
    <glyph glyph-name="f" unicode="f" horiz-adv-x="1019" 
d="M203 0l198 862h-186l47 209l215 33q-55 91 -33 188q19 83 92 147t172 96t205 32q143 0 252.5 -61t143.5 -179l-224 -156q-24 56 -86 89.5t-127 33.5q-50 0 -86 -22t-45 -64q-8 -32 6.5 -61t47.5 -41h426l-56 -244h-426l-198 -862h-338z" />
    <glyph glyph-name="g" unicode="g" horiz-adv-x="1478" 
d="M1362 1106h240l-226 -975q-36 -156 -126.5 -280.5t-217 -203t-278 -120t-316.5 -41.5q-101 0 -210.5 30t-194.5 78l129 308q67 -55 173.5 -87t221.5 -32q113 0 209.5 34.5t171.5 112t100 189.5l11 43q-89 -96 -200 -144.5t-224 -48.5q-87 0 -166 29t-140 83t-97 137
t-36 185q0 66 19 150q31 133 105.5 246t170 185.5t203 112.5t209.5 40q114 0 202.5 -50t133.5 -147zM545 553q-10 -39 -10 -86q0 -110 69 -170.5t172 -60.5q118 0 222.5 82.5t140.5 234.5q10 41 10 92q0 109 -64.5 166t-162.5 57q-78 0 -154 -34.5t-138.5 -108t-84.5 -172.5
z" />
    <glyph glyph-name="h" unicode="h" horiz-adv-x="1499" 
d="M471 0h-336l354 1536h336l-141 -608q78 90 186 145t238 55q393 0 393 -315q0 -78 -20 -162l-64 -272q-8 -33 -8 -64q0 -36 21.5 -52.5t72.5 -16.5h15l-56 -246h-17q-47 0 -73 0.5t-74.5 4t-77.5 10.5t-66.5 21t-58.5 34t-36 51.5t-15 71.5q0 29 9 67l67 297q21 96 21 141
q0 90 -47 133t-146 43q-115 0 -215.5 -86t-134.5 -235v2z" />
    <glyph glyph-name="i" unicode="i" horiz-adv-x="628" 
d="M444 1382q17 75 76 120.5t139 45.5t118.5 -45.5t21.5 -120.5q-17 -74 -76.5 -119.5t-138.5 -45.5q-80 0 -118.5 46t-21.5 119zM233 858l58 248h47q42 0 69 -1t78.5 -5.5t84 -16.5t66 -31t45 -52.5t1.5 -77.5l-125 -543q-10 -48 -10 -72q0 -32 19 -45.5t67 -13.5h14
l-57 -248q-83 0 -142 4t-112 15t-85 30t-50.5 50.5t-18.5 74.5q0 34 8 70l125 540q7 28 0.5 51t-34.5 23h-48z" />
    <glyph glyph-name="j" unicode="j" horiz-adv-x="679" 
d="M526 1382q17 75 76 120.5t139 45.5t119.5 -46t20.5 -120q-17 -74 -76.5 -119.5t-138.5 -45.5q-80 0 -118.5 46t-21.5 119zM231 76l238 1030h336l-244 -1061q-25 -110 -75 -198t-111 -143t-134.5 -92t-143 -52t-140.5 -15q-144 0 -221 49l131 287q68 -35 133 -35
q50 0 92 19.5t81 72.5t58 138z" />
    <glyph glyph-name="k" unicode="k" horiz-adv-x="1431" 
d="M135 0l346 1501h336l-174 -753l479 358h441l-617 -455q57 2 103 -17t77 -50t58.5 -69t55 -76.5t59 -70t78 -51.5t104.5 -20l-70 -313q-106 0 -190 28t-137 72t-95 97.5t-73 105.5t-61.5 94t-70.5 65.5t-90 18.5l-139 -103l-84 -362h-336z" />
    <glyph glyph-name="l" unicode="l" horiz-adv-x="628" 
d="M489 1536h336l-266 -1157q-12 -43 -12 -72q0 -31 19.5 -45t66.5 -14h14l-55 -248q-84 0 -142.5 3.5t-112.5 14.5t-86 30t-50.5 50.5t-18.5 75.5q0 34 8 70z" />
    <glyph glyph-name="m" unicode="m" horiz-adv-x="2101" 
d="M469 0h-336l180 780q8 29 2 53.5t-34 24.5h-48l58 248h47q32 0 53 -0.5t61 -3.5t67.5 -8t61.5 -16t55 -26.5t35.5 -39.5t14.5 -54q149 170 346 170q300 0 344 -215q136 215 381 215q178 0 263 -73.5t85 -223.5q0 -87 -22 -180l-64 -272q-8 -33 -8 -62q0 -38 21 -54.5
t73 -16.5h17l-58 -246h-17q-47 0 -73 0.5t-74 4t-77.5 10.5t-66.5 21t-58 34t-36 51.5t-15 71.5q0 34 8 67l78 330q18 80 18 135q0 149 -139 149q-92 0 -158.5 -69.5t-103.5 -200.5l-140 -604h-338l136 590q18 76 18 133q0 77 -35 114t-108 37q-102 0 -176 -83t-109 -238z
" />
    <glyph glyph-name="n" unicode="n" horiz-adv-x="1499" 
d="M469 0h-336l180 780q8 29 2 53.5t-34 24.5h-48l58 248h47h42.5t48.5 -1.5t54.5 -4.5t53 -9t52 -14t42.5 -21.5t34.5 -29.5t18.5 -39t2 -51q80 86 188 139t234 53q391 0 391 -315q0 -78 -20 -162l-62 -272q-10 -42 -10 -64q0 -36 22 -52.5t74 -16.5h15l-56 -246h-21
q-41 0 -63.5 0.5t-64.5 2.5t-68 7t-61.5 13.5t-57.5 23t-43 34t-31 48.5t-10 64q0 29 9 67l69 297q19 84 19 139q0 91 -46 134.5t-145 43.5q-114 0 -215 -87.5t-135 -233.5v2z" />
    <glyph glyph-name="o" unicode="o" horiz-adv-x="1435" 
d="M1487 555q-33 -142 -118 -257.5t-195 -185.5t-229.5 -107.5t-233.5 -37.5q-79 0 -153.5 17.5t-141.5 54.5t-117 89t-79.5 127t-29.5 163q0 54 17 137q33 142 118 257.5t195 185.5t229.5 107.5t233.5 37.5q99 0 190.5 -28.5t166 -82.5t119 -141.5t44.5 -196.5
q0 -74 -16 -139zM1149 555q8 31 8 66q0 100 -73 155t-173 55q-73 0 -147 -29t-136.5 -94t-82.5 -153q-8 -31 -8 -66q0 -100 72.5 -155t172.5 -55q74 0 148 29.5t136.5 94.5t82.5 152z" />
    <glyph glyph-name="p" unicode="p" horiz-adv-x="1482" 
d="M1532 553q-30 -134 -104.5 -247t-170.5 -185t-203 -112t-210 -40q-114 0 -203 49t-133 146l-150 -649l-338 2l287 1241q4 17 5 23t3.5 21.5t1 22.5t-4 16t-11 13t-20.5 4h-48l58 248h47q30 0 48 -0.5t54.5 -2t61.5 -6t58 -12t54 -20t40.5 -29.5t27.5 -41.5t4 -54.5
q90 97 202 147t224 50q118 0 216.5 -50t160 -151t61.5 -234q0 -70 -18 -149zM1194 553q10 48 10 82q0 110 -70 171.5t-173 61.5q-119 0 -222.5 -81.5t-138.5 -233.5q-12 -53 -12 -94q0 -109 64.5 -166t162.5 -57q123 0 233.5 84.5t145.5 232.5z" />
    <glyph glyph-name="q" unicode="q" horiz-adv-x="1480" 
d="M1325 1106h277l-355 -1536h-336l136 590q-89 -95 -199 -143t-223 -48q-87 0 -166 29t-140 83t-97 137t-36 185q0 66 19 150q31 133 105.5 246t170 185.5t203 112.5t209.5 40q114 0 202.5 -50t133.5 -147zM545 553q-10 -39 -10 -86q0 -110 69 -170.5t172 -60.5
q118 0 222.5 82.5t140.5 234.5q10 41 10 92q0 109 -64.5 166t-162.5 57q-78 0 -154 -34.5t-138.5 -108t-84.5 -172.5z" />
    <glyph glyph-name="r" unicode="r" horiz-adv-x="1093" 
d="M469 0h-336l180 780q8 29 2 53.5t-34 24.5h-48l58 248h47q42 0 69 -1t78.5 -5.5t84 -16.5t66 -31t45 -52.5t1.5 -77.5v-2q176 202 389 202q116 0 229 -61l-137 -254q-59 24 -143 24q-89 0 -174 -26.5t-155 -87.5t-89 -146z" />
    <glyph glyph-name="s" unicode="s" horiz-adv-x="1345" 
d="M1487 971l-201 -244q-68 62 -199.5 103.5t-250.5 41.5q-79 0 -132 -22t-63 -66q-7 -29 27.5 -49.5t95.5 -34t136.5 -27t152.5 -36t141 -53.5t104.5 -87t40.5 -130q0 -38 -8 -74q-21 -90 -82.5 -159.5t-150 -110t-191 -60.5t-215.5 -20q-179 0 -341 46.5t-247 125.5
l203 254q65 -72 204.5 -117t270.5 -45q87 0 144 21.5t67 64.5q7 32 -17.5 54t-71.5 33t-109 23.5t-128 23t-129.5 33t-114 52t-81.5 81.5t-31 120q0 43 11 86q21 90 77 158t136.5 107.5t173.5 59t196 19.5q169 0 329 -47.5t253 -124.5z" />
    <glyph glyph-name="t" unicode="t" horiz-adv-x="1081" 
d="M643 1343h211l-55 -237h446l-53 -244h-451l-98 -432q-10 -45 -10 -78q0 -114 137 -114q140 0 272 116l27 -243q-85 -74 -200 -120t-216 -46q-178 0 -279.5 67.5t-101.5 212.5q0 53 15 117l119 520l-191 -2l57 246h191z" />
    <glyph glyph-name="u" unicode="u" horiz-adv-x="1454" 
d="M233 457l152 649h336l-152 -649q-8 -40 -8 -58q0 -78 53.5 -118.5t133.5 -40.5q66 0 130.5 26.5t117.5 83t71 131.5l145 625h336l-168 -727q-10 -48 -10 -72q0 -32 19 -45.5t67 -13.5h14l-55 -248q-104 0 -173 6.5t-125.5 24t-83 51.5t-27.5 86q-85 -97 -198.5 -148
t-227.5 -51q-155 0 -259 91.5t-104 258.5q0 73 16 138z" />
    <glyph glyph-name="v" unicode="v" horiz-adv-x="1441" 
d="M891 -20h-350l-271 1126h369l149 -811l525 811h368z" />
    <glyph glyph-name="w" unicode="w" horiz-adv-x="1923" 
d="M723 -20h-277l-176 1126h357l88 -686l389 686h225l72 -686l405 686h357l-697 -1126h-276l-92 616z" />
    <glyph glyph-name="x" unicode="x" horiz-adv-x="1382" 
d="M1366 0h-432l-174 301l-311 -301h-433l594 559l-315 547h403l179 -295l313 295h403l-565 -547z" />
    <glyph glyph-name="y" unicode="y" horiz-adv-x="1437" 
d="M244 457l149 649h336l-149 -649q-9 -45 -9 -60q0 -78 52.5 -119.5t132.5 -41.5q103 0 196.5 64t122.5 173l146 633h338l-226 -975q-48 -209 -178.5 -356t-312.5 -218t-402 -71q-100 0 -210 30.5t-195 77.5l129 308q61 -52 168.5 -83.5t220.5 -31.5q193 0 298 84.5
t144 247.5l6 35q-84 -92 -193.5 -140.5t-219.5 -48.5q-73 0 -138 22.5t-115 65.5t-79 111.5t-29 154.5q0 69 17 138z" />
    <glyph glyph-name="z" unicode="z" horiz-adv-x="1216" 
d="M1315 831l-791 -557h719l-63 -274h-1145l63 274l809 557h-647l62 275h1056z" />
    <glyph glyph-name="braceleft" unicode="{" horiz-adv-x="616" 
d="M227 758q76 -4 126 17t73.5 60.5t35 91.5t17 111t14 118t31 113t62 95.5t114 66.5t179.5 25l-15 -151q-62 0 -101.5 -24.5t-58 -67.5t-28.5 -96t-19.5 -115t-24 -120t-50 -114.5t-90.5 -95.5q51 -54 51 -140q0 -72 -44 -212.5t-44 -186.5t26.5 -70t89.5 -24l-53 -152
q-148 0 -210 45.5t-62 126.5q0 69 54 220t54 204q0 54 -37.5 80.5t-128.5 22.5z" />
    <glyph glyph-name="bar" unicode="|" horiz-adv-x="311" 
d="M10 -188l373 1622h207l-375 -1622h-205z" />
    <glyph glyph-name="braceright" unicode="}" horiz-adv-x="616" 
d="M739 758l-41 -172q-76 4 -126 -17t-73 -60.5t-34.5 -92t-17 -111t-13 -118t-30.5 -113.5t-62 -95.5t-114 -66.5t-181 -25l14 152q62 0 101.5 24.5t57.5 67.5t28 96t19.5 115t24.5 120t50 114.5t90 95.5q-49 52 -49 137q0 72 44 213.5t44 187.5q0 95 -117 95l54 151
q149 0 210.5 -46t61.5 -128q0 -68 -53.5 -217.5t-53.5 -202.5q0 -55 37.5 -81.5t128.5 -22.5z" />
    <glyph glyph-name="asciitilde" unicode="~" horiz-adv-x="985" 
d="M348 514l-151 111q182 245 317 245q47 0 96 -27t95 -54t86 -27q77 0 167 106l150 -108q-182 -225 -324 -225q-47 0 -96 25t-93.5 50t-80.5 25q-77 0 -166 -121z" />
    <glyph glyph-name="exclamdown" unicode="&#xa1;" horiz-adv-x="395" 
d="M569 870q-15 -72 -77 -122t-134 -50q-73 0 -110.5 50t-20.5 122q17 73 77.5 123.5t133.5 50.5q72 0 110 -51t21 -123zM432 559l-158 -969h-344l291 969h211z" />
    <glyph glyph-name="cent" unicode="&#xa2;" horiz-adv-x="1175" 
d="M827 1374l236 -8l-37 -156q174 -29 328 -194l-236 -174q-64 89 -147 127l-146 -629q120 40 242 154l117 -201q-225 -162 -412 -191l-33 -139l-235 8l31 140q-175 37 -265 151t-90 268q0 60 15 125q44 193 201.5 347t389.5 198zM590 350l141 608q-134 -45 -213.5 -153.5
t-79.5 -224.5q0 -77 38.5 -138t113.5 -92z" />
    <glyph glyph-name="sterling" unicode="&#xa3;" horiz-adv-x="1222" 
d="M1368 1440l-59 -248q-45 0 -86 -12t-74 -31t-66 -52t-57 -63.5t-53 -79t-48 -85t-48 -93.5h225l-49 -221h-291q-117 -201 -242 -293h711l-62 -262h-1106l41 174q199 121 355 381h-277l49 221h344q110 220 164 306q130 203 295 286q143 72 334 72z" />
    <glyph glyph-name="yen" unicode="&#xa5;" horiz-adv-x="1576" 
d="M492 510l47 199h149l-342 725h402l237 -580l506 580h401l-675 -725h143l-47 -199h-236l-28 -125h235l-45 -199h-235l-43 -186h-345l43 186h-241l45 199h242l28 125h-241z" />
    <glyph glyph-name="dieresis" unicode="&#xa8;" horiz-adv-x="450" 
d="M324 1323q9 38 40.5 64t69.5 26q35 0 56 -26.5t12 -63.5q-7 -35 -41 -61.5t-68 -26.5q-38 0 -57.5 26t-11.5 62zM561 1323q7 37 41 63.5t72 26.5q33 0 51.5 -26t11.5 -64q-9 -35 -41 -61.5t-63 -26.5q-37 0 -59 26.5t-13 61.5z" />
    <glyph glyph-name="copyright" unicode="&#xa9;" horiz-adv-x="1308" 
d="M207 702q38 165 152.5 305.5t273.5 222t323 81.5q215 0 349.5 -134t134.5 -339q0 -58 -17 -138q-38 -165 -152 -305t-273 -221.5t-324 -81.5q-215 0 -349.5 134t-134.5 339q0 57 17 137zM297 700q-14 -68 -14 -114q0 -174 115 -288t298 -114q215 0 401 152t236 366
q15 73 15 115q0 174 -115.5 288t-298.5 114q-211 0 -397.5 -153t-239.5 -366zM981 506l37 -68q-152 -100 -285 -100t-218 85t-85 212q0 38 10 86q35 158 174.5 270.5t296.5 112.5q130 0 238 -103l-72 -63q-83 80 -186 80q-123 0 -230.5 -88t-136.5 -211q-8 -46 -8 -64
q0 -99 67 -165t171 -66q102 0 227 82z" />
    <glyph glyph-name="guillemotleft" unicode="&#xab;" horiz-adv-x="901" 
d="M543 672l22 98l602 596l-73 -313l-338 -332l184 -334l-72 -311zM207 668l22 98l600 596l-71 -313l-338 -332l184 -332l-72 -313z" />
    <glyph glyph-name="registered" unicode="&#xae;" horiz-adv-x="702" 
d="M324 1202q28 123 136.5 209t233.5 86q105 0 172.5 -66t67.5 -165q0 -18 -8 -64q-30 -124 -137 -213.5t-232 -89.5q-107 0 -174.5 66.5t-67.5 167.5q0 31 9 69zM375 1202q-25 -102 32.5 -178t159.5 -76q103 0 194.5 76.5t115.5 177.5q23 100 -34 175t-159 75
q-104 0 -195 -74t-114 -176zM631 1165l80 -133h-62l-74 129h-26l-29 -129h-49l82 348h106q53 -2 80 -31.5t17 -76.5q-9 -40 -44 -69.5t-81 -37.5zM592 1343l-33 -139h41q94 0 111 68q9 36 -12.5 53.5t-63.5 17.5h-43z" />
    <glyph glyph-name="degree" unicode="&#xb0;" horiz-adv-x="700" 
d="M549 821q-118 0 -179 67t-61 169q0 55 17 112t51 109t79.5 92.5t108 65t131.5 24.5q118 0 178 -65.5t60 -167.5q0 -69 -27.5 -140.5t-76 -131t-122.5 -97t-159 -37.5zM662 1305q-72 0 -121 -68t-49 -145q0 -49 23.5 -80t70.5 -31q69 0 117.5 69.5t48.5 145.5
q0 48 -22.5 78.5t-67.5 30.5z" />
    <glyph glyph-name="plusminus" unicode="&#xb1;" horiz-adv-x="1009" 
d="M670 1251h248l-72 -309h328l-52 -225h-327l-70 -297h-248l70 297h-328l51 225h328zM57 0l52 225h895l-54 -225h-893z" />
    <glyph glyph-name="acute" unicode="&#xb4;" horiz-adv-x="362" 
d="M309 1284l295 242l76 -115l-326 -194z" />
    <glyph glyph-name="periodcentered" unicode="&#xb7;" horiz-adv-x="446" 
d="M508 725q-12 -50 -53.5 -83.5t-89.5 -33.5q-50 0 -75.5 33t-15.5 84q12 48 53.5 82.5t90.5 34.5t75 -34.5t15 -82.5z" />
    <glyph glyph-name="cedilla" unicode="&#xb8;" horiz-adv-x="339" 
d="M174 59l107 -32l-82 -119q69 -25 69 -98q0 -62 -49.5 -114t-120.5 -52q-42 0 -80.5 16t-56.5 32l-18 15l75 94q10 -28 31.5 -42.5t44.5 -14.5q44 0 60 39q14 30 -12 57.5t-89 28.5z" />
    <glyph glyph-name="guillemotright" unicode="&#xbb;" horiz-adv-x="935" 
d="M367 1364l323 -598l-22 -98l-598 -596l71 313l338 332l-184 334zM731 1362l326 -596l-23 -98l-600 -596l72 313l340 332l-187 332z" />
    <glyph glyph-name="questiondown" unicode="&#xbf;" horiz-adv-x="1124" 
d="M1038 956q-15 -71 -76.5 -120.5t-134.5 -49.5t-110.5 49t-20.5 121q17 74 77.5 124t133.5 50q72 0 110 -50.5t21 -123.5zM387 53q-17 -69 19 -106t108 -37q89 0 200 55t201 154l136 -213q-112 -120 -279 -187t-330 -67q-171 0 -282 76t-111 221q0 44 12 94
q15 65 45 118.5t68.5 90.5t84 67.5t93.5 54t96 45.5t92 46t80 52t63 67.5t38 87.5h182q-21 -93 -58 -166t-80 -117.5t-91 -79.5t-94 -60.5t-85 -51.5t-68 -62t-40 -82z" />
    <glyph glyph-name="Agrave" unicode="&#xc0;" 
d="M1085 1724l127 117l185 -244l-76 -67zM16 0l1002 1454h350l330 -1454h-363l-49 209h-762l-143 -209h-365zM725 498h494l-123 534z" />
    <glyph glyph-name="Aacute" unicode="&#xc1;" 
d="M1059 1612l295 241l76 -114l-326 -195zM16 0l1002 1454h350l330 -1454h-363l-49 209h-762l-143 -209h-365zM725 498h494l-123 534z" />
    <glyph glyph-name="Acircumflex" unicode="&#xc2;" 
d="M1137 1567h-125l202 235h117l94 -235h-125l-51 135zM16 0l1002 1454h350l330 -1454h-363l-49 209h-762l-143 -209h-365zM725 498h494l-123 534z" />
    <glyph glyph-name="Atilde" unicode="&#xc3;" 
d="M1036 1593l-32 95q29 22 42 31.5t40.5 26t52.5 23.5t51 7q35 0 60 -14.5t44 -29t39 -14.5q41 0 125 60l29 -99q-37 -28 -87 -50.5t-89 -22.5q-32 0 -56.5 9t-37 19.5t-27.5 19.5t-29 9q-34 0 -125 -70zM16 0l1002 1454h350l330 -1454h-363l-49 209h-762l-143 -209h-365z
M725 498h494l-123 534z" />
    <glyph glyph-name="Adieresis" unicode="&#xc4;" 
d="M1032 1651q7 38 39.5 64t71.5 26q34 0 54 -26t11 -64q-7 -35 -39.5 -61.5t-66.5 -26.5q-38 0 -58.5 26t-11.5 62zM1268 1651q9 38 43 64t71 26q32 0 51.5 -26.5t10.5 -63.5q-7 -35 -39.5 -61.5t-63.5 -26.5q-37 0 -59 26.5t-14 61.5zM16 0l1002 1454h350l330 -1454h-363
l-49 209h-762l-143 -209h-365zM725 498h494l-123 534z" />
    <glyph glyph-name="Aring" unicode="&#xc5;" 
d="M1204 1483q-76 0 -114.5 39t-38.5 100q0 85 66.5 156t170.5 71q74 0 112 -38.5t38 -98.5q0 -85 -66 -157t-168 -72zM1264 1745q-43 0 -71 -30.5t-28 -65.5q0 -25 15.5 -41.5t46.5 -16.5q42 0 69 31t27 66q0 25 -15 41t-44 16zM16 0l1002 1454h350l330 -1454h-363l-49 209
h-762l-143 -209h-365zM725 498h494l-123 534z" />
    <glyph glyph-name="AE" unicode="&#xc6;" horiz-adv-x="2482" 
d="M16 0l1420 1434h1312l-67 -287h-895l-66 -285h762l-65 -289h-764l-66 -284h910l-66 -289h-1253l49 209h-627l-213 -209h-371zM895 498h397l117 503z" />
    <glyph glyph-name="Ccedilla" unicode="&#xc7;" horiz-adv-x="1591" 
d="M242 717q34 146 110 272.5t174 215t214 152t231.5 94t224.5 30.5q208 0 361.5 -83t230.5 -233l-299 -227q-46 90 -144.5 151.5t-209.5 61.5q-107 0 -201.5 -37t-162 -99t-113 -138.5t-64.5 -159.5q-12 -55 -12 -109q0 -142 88.5 -233.5t263.5 -91.5q238 0 455 221
l194 -230q-150 -146 -337.5 -231t-383.5 -88l-33 -47q70 -26 70 -98q0 -62 -49.5 -114t-120.5 -52q-42 0 -80.5 16t-56.5 32l-17 15l74 94q10 -28 31.5 -42.5t44.5 -14.5q43 0 59 39q14 30 -11.5 57.5t-86.5 28.5l57 92q-105 14 -198 57.5t-166.5 113t-116.5 172.5t-43 226
q0 92 23 187z" />
    <glyph glyph-name="Egrave" unicode="&#xc8;" horiz-adv-x="1443" 
d="M950 1724l127 117l183 -244l-76 -67zM139 0l330 1434h1239l-66 -287h-897l-65 -285h764l-68 -289h-762l-65 -284h907l-65 -289h-1252z" />
    <glyph glyph-name="Eacute" unicode="&#xc9;" horiz-adv-x="1443" 
d="M924 1612l295 241l73 -114l-323 -195zM139 0l330 1434h1239l-66 -287h-897l-65 -285h764l-68 -289h-762l-65 -284h907l-65 -289h-1252z" />
    <glyph glyph-name="Ecircumflex" unicode="&#xca;" horiz-adv-x="1443" 
d="M1001 1567h-127l203 235h119l94 -235h-127l-49 135zM139 0l330 1434h1239l-66 -287h-897l-65 -285h764l-68 -289h-762l-65 -284h907l-65 -289h-1252z" />
    <glyph glyph-name="Edieresis" unicode="&#xcb;" horiz-adv-x="1443" 
d="M895 1651q9 38 41.5 64t69.5 26q36 0 56 -26t11 -64q-7 -35 -40 -61.5t-68 -26.5q-36 0 -57 26t-13 62zM1133 1651q9 38 43 64t71 26q32 0 51.5 -26.5t10.5 -63.5q-7 -35 -39.5 -61.5t-63.5 -26.5q-38 0 -59.5 26t-13.5 62zM139 0l330 1434h1239l-66 -287h-897l-65 -285
h764l-68 -289h-762l-65 -284h907l-65 -289h-1252z" />
    <glyph glyph-name="Igrave" unicode="&#xcc;" horiz-adv-x="622" 
d="M539 1724l127 117l184 -244l-76 -67zM139 0l330 1434h344l-332 -1434h-342z" />
    <glyph glyph-name="Iacute" unicode="&#xcd;" horiz-adv-x="622" 
d="M512 1612l295 241l76 -114l-326 -195zM139 0l330 1434h344l-332 -1434h-342z" />
    <glyph glyph-name="Icircumflex" unicode="&#xce;" horiz-adv-x="622" 
d="M590 1567h-125l203 235h118l95 -235h-127l-52 135zM139 0l330 1434h344l-332 -1434h-342z" />
    <glyph glyph-name="Idieresis" unicode="&#xcf;" horiz-adv-x="622" 
d="M485 1651q9 38 41 64t70 26q34 0 54.5 -26t13.5 -64q-9 -35 -42 -61.5t-67 -26.5q-38 0 -58 26t-12 62zM721 1651q9 38 43.5 64t71.5 26q32 0 51 -26.5t10 -63.5q-7 -35 -39 -61.5t-63 -26.5q-37 0 -59 26.5t-15 61.5zM139 0l330 1434h344l-332 -1434h-342z" />
    <glyph glyph-name="Eth" unicode="&#xd0;" horiz-adv-x="1720" 
d="M469 1434h799q141 -1 251 -45t176.5 -119t100 -170t33.5 -205q0 -89 -21 -178q-25 -108 -76.5 -210.5t-130.5 -194t-177 -160t-224 -109.5t-264 -43h-797l156 674h-102l51 223h102zM1190 1147h-445l-57 -250h580l-51 -223h-580l-88 -385h442q116 0 215 63.5t160 158.5
t88 206q14 60 14 125q0 134 -69.5 219.5t-208.5 85.5z" />
    <glyph glyph-name="Ntilde" unicode="&#xd1;" horiz-adv-x="1802" 
d="M1081 1593l-32 95q29 22 42 31.5t40.5 26t52.5 23.5t51 7q35 0 59.5 -14.5t43 -29t38.5 -14.5q43 0 127 60l29 -99q-37 -28 -87.5 -50.5t-90.5 -22.5q-31 0 -55.5 9t-36.5 19.5t-26.5 19.5t-29.5 9q-39 0 -125 -70zM139 0l330 1434h344l612 -988l228 988h342l-330 -1434
h-344l-610 989l-230 -989h-342z" />
    <glyph glyph-name="Ograve" unicode="&#xd2;" horiz-adv-x="1765" 
d="M1112 1724l127 117l182 -244l-75 -67zM1849 717q-29 -124 -88 -234t-136.5 -192t-170 -147.5t-192 -106.5t-198.5 -62.5t-192 -21.5q-99 0 -192 22.5t-176.5 70t-145.5 115t-98.5 163t-36.5 208.5q0 77 23 185q34 148 111.5 275t178 215.5t219 151.5t238 92.5t232.5 29.5
q123 0 237 -37t206.5 -107t148 -183t55.5 -253q0 -76 -23 -184zM1501 717q12 56 12 106q0 80 -31.5 144.5t-83.5 104t-116 60.5t-133 21q-81 0 -166 -27.5t-163.5 -79.5t-139 -138t-84.5 -191q-12 -58 -12 -107q0 -80 31 -144t83 -103t116 -59.5t134 -20.5q80 0 164.5 27.5
t163.5 79t140 137t85 190.5z" />
    <glyph glyph-name="Oacute" unicode="&#xd3;" horiz-adv-x="1765" 
d="M1085 1612l295 241l74 -114l-324 -195zM1849 717q-29 -124 -88 -234t-136.5 -192t-170 -147.5t-192 -106.5t-198.5 -62.5t-192 -21.5q-99 0 -192 22.5t-176.5 70t-145.5 115t-98.5 163t-36.5 208.5q0 77 23 185q34 148 111.5 275t178 215.5t219 151.5t238 92.5
t232.5 29.5q123 0 237 -37t206.5 -107t148 -183t55.5 -253q0 -76 -23 -184zM1501 717q12 56 12 106q0 80 -31.5 144.5t-83.5 104t-116 60.5t-133 21q-81 0 -166 -27.5t-163.5 -79.5t-139 -138t-84.5 -191q-12 -58 -12 -107q0 -80 31 -144t83 -103t116 -59.5t134 -20.5
q80 0 164.5 27.5t163.5 79t140 137t85 190.5z" />
    <glyph glyph-name="Ocircumflex" unicode="&#xd4;" horiz-adv-x="1765" 
d="M1163 1567h-127l203 235h119l94 -235h-127l-49 135zM1849 717q-29 -124 -88 -234t-136.5 -192t-170 -147.5t-192 -106.5t-198.5 -62.5t-192 -21.5q-99 0 -192 22.5t-176.5 70t-145.5 115t-98.5 163t-36.5 208.5q0 77 23 185q34 148 111.5 275t178 215.5t219 151.5
t238 92.5t232.5 29.5q123 0 237 -37t206.5 -107t148 -183t55.5 -253q0 -76 -23 -184zM1501 717q12 56 12 106q0 80 -31.5 144.5t-83.5 104t-116 60.5t-133 21q-81 0 -166 -27.5t-163.5 -79.5t-139 -138t-84.5 -191q-12 -58 -12 -107q0 -80 31 -144t83 -103t116 -59.5
t134 -20.5q80 0 164.5 27.5t163.5 79t140 137t85 190.5z" />
    <glyph glyph-name="Otilde" unicode="&#xd5;" horiz-adv-x="1765" 
d="M1063 1593l-33 95q37 28 57 42t58 30t72 16q35 0 59.5 -14.5t43 -29t38.5 -14.5q43 0 127 60l28 -99q-37 -28 -87 -50.5t-91 -22.5q-31 0 -55 9t-36 19.5t-26.5 19.5t-29.5 9q-34 0 -125 -70zM1849 717q-29 -124 -88 -234t-136.5 -192t-170 -147.5t-192 -106.5
t-198.5 -62.5t-192 -21.5q-99 0 -192 22.5t-176.5 70t-145.5 115t-98.5 163t-36.5 208.5q0 77 23 185q34 148 111.5 275t178 215.5t219 151.5t238 92.5t232.5 29.5q123 0 237 -37t206.5 -107t148 -183t55.5 -253q0 -76 -23 -184zM1501 717q12 56 12 106q0 80 -31.5 144.5
t-83.5 104t-116 60.5t-133 21q-81 0 -166 -27.5t-163.5 -79.5t-139 -138t-84.5 -191q-12 -58 -12 -107q0 -80 31 -144t83 -103t116 -59.5t134 -20.5q80 0 164.5 27.5t163.5 79t140 137t85 190.5z" />
    <glyph glyph-name="Odieresis" unicode="&#xd6;" horiz-adv-x="1765" 
d="M1057 1651q9 38 41 64t69 26q36 0 56.5 -26t11.5 -64q-7 -35 -40.5 -61.5t-68.5 -26.5q-36 0 -56.5 26t-12.5 62zM1294 1651q9 38 43.5 64t71.5 26q32 0 51 -26.5t10 -63.5q-7 -35 -39 -61.5t-63 -26.5q-38 0 -60 26.5t-14 61.5zM1849 717q-29 -124 -88 -234t-136.5 -192
t-170 -147.5t-192 -106.5t-198.5 -62.5t-192 -21.5q-99 0 -192 22.5t-176.5 70t-145.5 115t-98.5 163t-36.5 208.5q0 77 23 185q34 148 111.5 275t178 215.5t219 151.5t238 92.5t232.5 29.5q123 0 237 -37t206.5 -107t148 -183t55.5 -253q0 -76 -23 -184zM1501 717
q12 56 12 106q0 80 -31.5 144.5t-83.5 104t-116 60.5t-133 21q-81 0 -166 -27.5t-163.5 -79.5t-139 -138t-84.5 -191q-12 -58 -12 -107q0 -80 31 -144t83 -103t116 -59.5t134 -20.5q80 0 164.5 27.5t163.5 79t140 137t85 190.5z" />
    <glyph glyph-name="multiply" unicode="&#xd7;" horiz-adv-x="925" 
d="M272 928l213 159l179 -208l286 217l135 -164l-282 -215l182 -213l-219 -156l-176 207l-285 -215l-135 164l281 213z" />
    <glyph glyph-name="Oslash" unicode="&#xd8;" horiz-adv-x="1765" 
d="M1849 717q-29 -124 -88 -234t-136.5 -192t-170 -147.5t-192 -106.5t-198.5 -62.5t-192 -21.5q-166 0 -311 65l-16 -18h-242l100 117q-180 155 -180 415q0 77 23 185q34 148 111.5 275t178 215.5t219 151.5t238 92.5t232.5 29.5q164 0 311 -66l16 19h244l-104 -117
q180 -159 180 -416q0 -76 -23 -184zM653 403l633 727q-71 23 -137 23q-81 0 -166 -27.5t-163.5 -79.5t-139 -138t-84.5 -191q-14 -55 -14 -111q0 -119 71 -203zM1501 717q12 56 12 104q0 127 -71 207l-633 -725q64 -20 139 -20q80 0 164.5 27.5t163.5 79t140 137t85 190.5z
" />
    <glyph glyph-name="Ugrave" unicode="&#xd9;" horiz-adv-x="1685" 
d="M1069 1724l129 117l182 -244l-75 -67zM274 586l195 848h344l-197 -848q-8 -33 -8 -72q0 -114 85.5 -177t211.5 -63q93 0 181 33.5t158.5 106.5t92.5 172l195 848h344l-195 -848q-29 -123 -92.5 -228.5t-148.5 -179.5t-187 -126.5t-209.5 -77.5t-214.5 -25
q-93 0 -177.5 19t-157 58t-125.5 95t-83 135.5t-30 173.5q0 74 18 156z" />
    <glyph glyph-name="Uacute" unicode="&#xda;" horiz-adv-x="1685" 
d="M1044 1612l295 241l74 -114l-323 -195zM274 586l195 848h344l-197 -848q-8 -33 -8 -72q0 -114 85.5 -177t211.5 -63q93 0 181 33.5t158.5 106.5t92.5 172l195 848h344l-195 -848q-29 -123 -92.5 -228.5t-148.5 -179.5t-187 -126.5t-209.5 -77.5t-214.5 -25
q-93 0 -177.5 19t-157 58t-125.5 95t-83 135.5t-30 173.5q0 74 18 156z" />
    <glyph glyph-name="Ucircumflex" unicode="&#xdb;" horiz-adv-x="1685" 
d="M1122 1567h-127l203 235h119l94 -235h-127l-49 135zM274 586l195 848h344l-197 -848q-8 -33 -8 -72q0 -114 85.5 -177t211.5 -63q93 0 181 33.5t158.5 106.5t92.5 172l195 848h344l-195 -848q-29 -123 -92.5 -228.5t-148.5 -179.5t-187 -126.5t-209.5 -77.5t-214.5 -25
q-93 0 -177.5 19t-157 58t-125.5 95t-83 135.5t-30 173.5q0 74 18 156z" />
    <glyph glyph-name="Udieresis" unicode="&#xdc;" horiz-adv-x="1685" 
d="M1016 1651q9 38 41 64t69 26q36 0 56.5 -26t11.5 -64q-7 -35 -41 -61.5t-68 -26.5q-36 0 -56.5 26t-12.5 62zM1253 1651q9 38 42.5 64t70.5 26q33 0 53 -26.5t11 -63.5q-7 -35 -39.5 -61.5t-65.5 -26.5q-37 0 -58.5 26.5t-13.5 61.5zM274 586l195 848h344l-197 -848
q-8 -33 -8 -72q0 -114 85.5 -177t211.5 -63q93 0 181 33.5t158.5 106.5t92.5 172l195 848h344l-195 -848q-29 -123 -92.5 -228.5t-148.5 -179.5t-187 -126.5t-209.5 -77.5t-214.5 -25q-93 0 -177.5 19t-157 58t-125.5 95t-83 135.5t-30 173.5q0 74 18 156z" />
    <glyph glyph-name="Yacute" unicode="&#xdd;" horiz-adv-x="1579" 
d="M991 1612l295 241l76 -114l-326 -195zM346 1434h402l237 -580l506 580h401l-798 -859l-133 -575h-345l134 575z" />
    <glyph glyph-name="Thorn" unicode="&#xde;" horiz-adv-x="1462" 
d="M139 0l330 1434h346l-57 -250h430q185 0 281 -99.5t96 -250.5q0 -58 -15 -117q-20 -89 -69 -171.5t-121.5 -149t-173.5 -106.5t-215 -40h-428l-60 -250h-344zM608 539h396q94 0 155.5 71t61.5 154q0 58 -34.5 94.5t-101.5 36.5h-395z" />
    <glyph glyph-name="germandbls" unicode="&#xdf;" horiz-adv-x="1482" 
d="M444 0h-344l234 1006q28 121 96 217t158 153.5t190 87t203 29.5q119 0 217 -37t159.5 -113.5t61.5 -179.5q0 -34 -10 -86q-12 -54 -39 -97t-58.5 -70t-61.5 -49.5t-53 -45t-28 -45.5q-4 -18 14.5 -34t50.5 -30.5t71 -31.5t79.5 -40.5t74 -52.5t54.5 -73.5t21 -97.5
q0 -38 -8 -74q-21 -95 -77 -170t-132.5 -120.5t-162.5 -69t-175 -23.5q-132 0 -236.5 49.5t-144.5 140.5l209 187q22 -33 73.5 -54.5t108.5 -21.5q62 0 107.5 27t58.5 84q9 38 -7 69t-48 53t-72.5 42t-80.5 41t-71.5 44.5t-47 57.5t-5.5 76q11 46 38.5 84t60 64t65 51
t59 56.5t35.5 69.5q19 83 -23.5 133.5t-115.5 50.5q-85 0 -162.5 -70.5t-109.5 -207.5z" />
    <glyph glyph-name="agrave" unicode="&#xe0;" horiz-adv-x="1372" 
d="M840 1397l127 116l182 -243l-76 -68zM1266 1106h336l-256 -1106h-293l8 176q-91 -103 -205 -155t-231 -52q-119 0 -217 49t-160 149.5t-62 235.5q0 66 19 150q24 107 77.5 202t123.5 163.5t152 118.5t168 75t167 25q113 0 201.5 -49t134.5 -146zM543 553q-11 -57 -11 -84
q0 -110 70.5 -171.5t173.5 -61.5q118 0 222 82.5t139 234.5q12 52 12 94q0 107 -64.5 164t-162.5 57q-123 0 -233.5 -84t-145.5 -231z" />
    <glyph glyph-name="aacute" unicode="&#xe1;" horiz-adv-x="1372" 
d="M813 1284l295 242l74 -115l-324 -194zM1266 1106h336l-256 -1106h-293l8 176q-91 -103 -205 -155t-231 -52q-119 0 -217 49t-160 149.5t-62 235.5q0 66 19 150q24 107 77.5 202t123.5 163.5t152 118.5t168 75t167 25q113 0 201.5 -49t134.5 -146zM543 553
q-11 -57 -11 -84q0 -110 70.5 -171.5t173.5 -61.5q118 0 222 82.5t139 234.5q12 52 12 94q0 107 -64.5 164t-162.5 57q-123 0 -233.5 -84t-145.5 -231z" />
    <glyph glyph-name="acircumflex" unicode="&#xe2;" horiz-adv-x="1372" 
d="M891 1239h-127l203 236h118l95 -236h-127l-49 135zM1266 1106h336l-256 -1106h-293l8 176q-91 -103 -205 -155t-231 -52q-119 0 -217 49t-160 149.5t-62 235.5q0 66 19 150q24 107 77.5 202t123.5 163.5t152 118.5t168 75t167 25q113 0 201.5 -49t134.5 -146zM543 553
q-11 -57 -11 -84q0 -110 70.5 -171.5t173.5 -61.5q118 0 222 82.5t139 234.5q12 52 12 94q0 107 -64.5 164t-162.5 57q-123 0 -233.5 -84t-145.5 -231z" />
    <glyph glyph-name="atilde" unicode="&#xe3;" horiz-adv-x="1372" 
d="M791 1266l-33 94q29 22 42 31.5t40.5 26t52.5 23.5t51 7q28 0 49.5 -9t32.5 -19.5t26.5 -19.5t32.5 -9q44 0 127 59l29 -98q-37 -29 -87 -51.5t-91 -22.5q-31 0 -55.5 9t-36.5 19.5t-26.5 19.5t-29.5 9q-35 0 -124 -69zM1266 1106h336l-256 -1106h-293l8 176
q-91 -103 -205 -155t-231 -52q-119 0 -217 49t-160 149.5t-62 235.5q0 66 19 150q24 107 77.5 202t123.5 163.5t152 118.5t168 75t167 25q113 0 201.5 -49t134.5 -146zM543 553q-11 -57 -11 -84q0 -110 70.5 -171.5t173.5 -61.5q118 0 222 82.5t139 234.5q12 52 12 94
q0 107 -64.5 164t-162.5 57q-123 0 -233.5 -84t-145.5 -231z" />
    <glyph glyph-name="adieresis" unicode="&#xe4;" horiz-adv-x="1372" 
d="M784 1323q9 38 41.5 64t69.5 26q36 0 56.5 -26t11.5 -64q-7 -35 -40.5 -61.5t-68.5 -26.5q-36 0 -57 26t-13 62zM1022 1323q9 38 42.5 64t70.5 26q33 0 52.5 -26.5t10.5 -63.5q-7 -35 -39 -61.5t-65 -26.5q-37 0 -58.5 26.5t-13.5 61.5zM1266 1106h336l-256 -1106h-293
l8 176q-91 -103 -205 -155t-231 -52q-119 0 -217 49t-160 149.5t-62 235.5q0 66 19 150q24 107 77.5 202t123.5 163.5t152 118.5t168 75t167 25q113 0 201.5 -49t134.5 -146zM543 553q-11 -57 -11 -84q0 -110 70.5 -171.5t173.5 -61.5q118 0 222 82.5t139 234.5q12 52 12 94
q0 107 -64.5 164t-162.5 57q-123 0 -233.5 -84t-145.5 -231z" />
    <glyph glyph-name="aring" unicode="&#xe5;" horiz-adv-x="1372" 
d="M963 1188q-76 0 -115 39t-39 100q0 85 67 156t171 71q74 0 111.5 -38.5t37.5 -98.5q0 -85 -65.5 -157t-167.5 -72zM1022 1448q-43 0 -70.5 -30.5t-27.5 -65.5q0 -25 16 -41.5t47 -16.5q40 0 67 31t27 66q0 25 -15 41t-44 16zM1266 1106h336l-256 -1106h-293l8 176
q-91 -103 -205 -155t-231 -52q-119 0 -217 49t-160 149.5t-62 235.5q0 66 19 150q24 107 77.5 202t123.5 163.5t152 118.5t168 75t167 25q113 0 201.5 -49t134.5 -146zM543 553q-11 -57 -11 -84q0 -110 70.5 -171.5t173.5 -61.5q118 0 222 82.5t139 234.5q12 52 12 94
q0 107 -64.5 164t-162.5 57q-123 0 -233.5 -84t-145.5 -231z" />
    <glyph glyph-name="ae" unicode="&#xe6;" horiz-adv-x="2136" 
d="M399 752l-12 256q102 55 253.5 91t297.5 36q278 0 393 -129q102 67 216 102t220 35q201 0 329 -118.5t128 -332.5q0 -87 -20 -174l-867 2q-6 -111 53 -184.5t183 -73.5q191 0 332 144l178 -199q-121 -117 -275.5 -183.5t-316.5 -66.5q-175 0 -316 93t-178 259
q-74 -148 -230 -232t-357 -87q-145 -3 -219 61.5t-74 167.5q0 79 43 161.5t117.5 151.5t189 111t244.5 37l178 -4q21 -2 46.5 0t47.5 6.5t40.5 18.5t25.5 36v2q14 61 -36 89t-145 28q-116 0 -258 -33t-211 -71zM1409 723h518q-15 78 -65.5 128t-137.5 50q-99 0 -179.5 -49
t-135.5 -129zM989 477q-65 -39 -155 -39l-168 2q-75 1 -124.5 -37.5t-49.5 -83.5q0 -33 29.5 -52.5t88.5 -18.5q44 3 96.5 15t111.5 36t105.5 68t63.5 100z" />
    <glyph glyph-name="ccedilla" unicode="&#xe7;" horiz-adv-x="1292" 
d="M203 551q32 140 116 256t192 187.5t226 110t228 38.5q166 0 289.5 -64t185.5 -180l-285 -209q-73 141 -252 141q-83 0 -155 -31.5t-118.5 -81.5t-73 -110.5t-26.5 -120.5q0 -93 61.5 -154t182.5 -61q96 0 171.5 36t146.5 108l190 -209q-119 -112 -266 -178t-301 -70
l-35 -51q70 -26 70 -98q0 -62 -49.5 -114t-120.5 -52q-42 0 -81 16t-57 32l-18 15l76 94q10 -28 31 -42.5t44 -14.5q44 0 60 39q14 30 -12.5 57.5t-87.5 28.5l61 96q-83 13 -156 47.5t-130 89.5t-90.5 135t-33.5 175q0 70 17 139z" />
    <glyph glyph-name="egrave" unicode="&#xe8;" horiz-adv-x="1335" 
d="M819 1397l129 116l182 -243l-75 -68zM203 551q32 140 116 256t192 187.5t226 110t228 38.5q202 0 329 -119t127 -332q0 -84 -20 -174l-864 2q-8 -111 51 -184.5t184 -73.5q192 0 330 144l180 -199q-123 -117 -277 -183.5t-315 -66.5q-95 0 -184.5 29.5t-161 85t-115 144
t-43.5 196.5q0 70 17 139zM608 723h518q-15 78 -65.5 128t-136.5 50q-99 0 -181 -49t-135 -129z" />
    <glyph glyph-name="eacute" unicode="&#xe9;" horiz-adv-x="1335" 
d="M793 1284l297 242l73 -115l-325 -194zM203 551q32 140 116 256t192 187.5t226 110t228 38.5q202 0 329 -119t127 -332q0 -84 -20 -174l-864 2q-8 -111 51 -184.5t184 -73.5q192 0 330 144l180 -199q-123 -117 -277 -183.5t-315 -66.5q-95 0 -184.5 29.5t-161 85t-115 144
t-43.5 196.5q0 70 17 139zM608 723h518q-15 78 -65.5 128t-136.5 50q-99 0 -181 -49t-135 -129z" />
    <glyph glyph-name="ecircumflex" unicode="&#xea;" horiz-adv-x="1335" 
d="M872 1239h-127l203 236h119l94 -236h-127l-49 135zM203 551q32 140 116 256t192 187.5t226 110t228 38.5q202 0 329 -119t127 -332q0 -84 -20 -174l-864 2q-8 -111 51 -184.5t184 -73.5q192 0 330 144l180 -199q-123 -117 -277 -183.5t-315 -66.5q-95 0 -184.5 29.5
t-161 85t-115 144t-43.5 196.5q0 70 17 139zM608 723h518q-15 78 -65.5 128t-136.5 50q-99 0 -181 -49t-135 -129z" />
    <glyph glyph-name="edieresis" unicode="&#xeb;" horiz-adv-x="1335" 
d="M766 1323q9 38 41 64t70 26q35 0 55.5 -26.5t11.5 -63.5q-7 -35 -40.5 -61.5t-67.5 -26.5q-38 0 -58 26t-12 62zM1001 1323q9 38 43.5 64t71.5 26q32 0 51.5 -26.5t12.5 -63.5q-9 -35 -41.5 -61.5t-63.5 -26.5q-37 0 -59 26.5t-15 61.5zM203 551q32 140 116 256
t192 187.5t226 110t228 38.5q202 0 329 -119t127 -332q0 -84 -20 -174l-864 2q-8 -111 51 -184.5t184 -73.5q192 0 330 144l180 -199q-123 -117 -277 -183.5t-315 -66.5q-95 0 -184.5 29.5t-161 85t-115 144t-43.5 196.5q0 70 17 139zM608 723h518q-15 78 -65.5 128
t-136.5 50q-99 0 -181 -49t-135 -129z" />
    <glyph glyph-name="igrave" unicode="&#xec;" horiz-adv-x="628" 
d="M467 1397l127 116l184 -243l-76 -68zM233 858l58 248h47q42 0 69 -1t78.5 -5.5t84 -16.5t66 -31t45 -52.5t1.5 -77.5l-125 -543q-10 -48 -10 -72q0 -32 19 -45.5t67 -13.5h14l-57 -248q-83 0 -142 4t-112 15t-85 30t-50.5 50.5t-18.5 74.5q0 34 8 70l125 540q7 28 0.5 51
t-34.5 23h-48z" />
    <glyph glyph-name="iacute" unicode="&#xed;" horiz-adv-x="628" 
d="M440 1284l295 242l76 -115l-326 -194zM233 858l58 248h47q42 0 69 -1t78.5 -5.5t84 -16.5t66 -31t45 -52.5t1.5 -77.5l-125 -543q-10 -48 -10 -72q0 -32 19 -45.5t67 -13.5h14l-57 -248q-83 0 -142 4t-112 15t-85 30t-50.5 50.5t-18.5 74.5q0 34 8 70l125 540
q7 28 0.5 51t-34.5 23h-48z" />
    <glyph glyph-name="icircumflex" unicode="&#xee;" horiz-adv-x="628" 
d="M520 1239h-127l203 236h119l94 -236h-127l-51 135zM233 858l58 248h47q42 0 69 -1t78.5 -5.5t84 -16.5t66 -31t45 -52.5t1.5 -77.5l-125 -543q-10 -48 -10 -72q0 -32 19 -45.5t67 -13.5h14l-57 -248q-83 0 -142 4t-112 15t-85 30t-50.5 50.5t-18.5 74.5q0 34 8 70
l125 540q7 28 0.5 51t-34.5 23h-48z" />
    <glyph glyph-name="idieresis" unicode="&#xef;" horiz-adv-x="628" 
d="M414 1323q9 38 40.5 64t69.5 26q34 0 54.5 -26t13.5 -64q-9 -35 -42 -61.5t-67 -26.5q-38 0 -57.5 26t-11.5 62zM649 1323q9 38 43.5 64t71.5 26q32 0 51 -26.5t10 -63.5q-7 -35 -39 -61.5t-63 -26.5q-37 0 -59 26.5t-15 61.5zM233 858l58 248h47q42 0 69 -1t78.5 -5.5
t84 -16.5t66 -31t45 -52.5t1.5 -77.5l-125 -543q-10 -48 -10 -72q0 -32 19 -45.5t67 -13.5h14l-57 -248q-83 0 -142 4t-112 15t-85 30t-50.5 50.5t-18.5 74.5q0 34 8 70l125 540q7 28 0.5 51t-34.5 23h-48z" />
    <glyph glyph-name="ntilde" unicode="&#xf1;" horiz-adv-x="1499" 
d="M852 1266l-31 94q34 27 55 42t58.5 30.5t71.5 15.5q28 0 50.5 -9t33.5 -19.5t26.5 -19.5t32.5 -9q44 0 127 59l27 -98q-37 -28 -87.5 -51t-89.5 -23q-32 0 -56.5 9t-36.5 19.5t-27 19.5t-29 9q-36 0 -125 -69zM469 0h-338l176 758q5 22 7 34.5t2 30.5t-9 26.5t-26 8.5
h-48l58 248h47h42t48.5 -1.5t54.5 -4.5t53 -9t51.5 -14t42.5 -21.5t34 -29.5t18 -39.5t2 -50.5q79 86 188.5 139t235.5 53q391 0 391 -315q0 -78 -20 -162l-64 -272q-8 -33 -8 -62q0 -38 21 -54.5t73 -16.5h17l-58 -246h-17q-47 0 -73 0.5t-74.5 4t-77.5 10.5t-66.5 21
t-58.5 34t-36 51.5t-15 71.5q0 29 9 67l69 297q19 84 19 139q0 91 -46 134.5t-145 43.5q-114 0 -216 -87.5t-134 -233.5v2z" />
    <glyph glyph-name="ograve" unicode="&#xf2;" horiz-adv-x="1435" 
d="M870 1397l127 116l185 -243l-76 -68zM1487 555q-33 -142 -118 -257.5t-195 -185.5t-229.5 -107.5t-233.5 -37.5q-99 0 -190.5 28.5t-166 82.5t-119.5 141.5t-45 196.5q0 70 17 139q32 142 117 257.5t195 185.5t230 107.5t234 37.5q79 0 153.5 -17.5t141 -54.5t116.5 -89
t79.5 -127t29.5 -163q0 -59 -16 -137zM1149 555q8 31 8 66q0 100 -73 155t-173 55q-74 0 -148 -29t-136.5 -94t-81.5 -153q-8 -31 -8 -66q0 -100 72.5 -155t172.5 -55q73 0 147 29.5t137 94.5t83 152z" />
    <glyph glyph-name="oacute" unicode="&#xf3;" horiz-adv-x="1435" 
d="M844 1284l295 242l75 -115l-325 -194zM1487 555q-33 -142 -118 -257.5t-195 -185.5t-229.5 -107.5t-233.5 -37.5q-99 0 -190.5 28.5t-166 82.5t-119.5 141.5t-45 196.5q0 70 17 139q32 142 117 257.5t195 185.5t230 107.5t234 37.5q79 0 153.5 -17.5t141 -54.5t116.5 -89
t79.5 -127t29.5 -163q0 -59 -16 -137zM1149 555q8 31 8 66q0 100 -73 155t-173 55q-74 0 -148 -29t-136.5 -94t-81.5 -153q-8 -31 -8 -66q0 -100 72.5 -155t172.5 -55q73 0 147 29.5t137 94.5t83 152z" />
    <glyph glyph-name="ocircumflex" unicode="&#xf4;" horiz-adv-x="1435" 
d="M922 1239h-125l202 236h119l92 -236h-125l-51 135zM1487 555q-33 -142 -118 -257.5t-195 -185.5t-229.5 -107.5t-233.5 -37.5q-99 0 -190.5 28.5t-166 82.5t-119.5 141.5t-45 196.5q0 70 17 139q32 142 117 257.5t195 185.5t230 107.5t234 37.5q79 0 153.5 -17.5
t141 -54.5t116.5 -89t79.5 -127t29.5 -163q0 -59 -16 -137zM1149 555q8 31 8 66q0 100 -73 155t-173 55q-74 0 -148 -29t-136.5 -94t-81.5 -153q-8 -31 -8 -66q0 -100 72.5 -155t172.5 -55q73 0 147 29.5t137 94.5t83 152z" />
    <glyph glyph-name="otilde" unicode="&#xf5;" horiz-adv-x="1435" 
d="M821 1266l-33 94q37 28 57 42t58 30t72 16q45 0 83 -28.5t60 -28.5q44 0 127 59l27 -98q-37 -29 -87 -51.5t-89 -22.5q-32 0 -56.5 9t-37 19.5t-27.5 19.5t-29 9q-36 0 -125 -69zM1487 555q-33 -142 -118 -257.5t-195 -185.5t-229.5 -107.5t-233.5 -37.5
q-99 0 -190.5 28.5t-166 82.5t-119.5 141.5t-45 196.5q0 70 17 139q32 142 117 257.5t195 185.5t230 107.5t234 37.5q79 0 153.5 -17.5t141 -54.5t116.5 -89t79.5 -127t29.5 -163q0 -59 -16 -137zM1149 555q8 31 8 66q0 100 -73 155t-173 55q-74 0 -148 -29t-136.5 -94
t-81.5 -153q-8 -31 -8 -66q0 -100 72.5 -155t172.5 -55q73 0 147 29.5t137 94.5t83 152z" />
    <glyph glyph-name="odieresis" unicode="&#xf6;" horiz-adv-x="1435" 
d="M817 1323q7 38 39.5 64t71.5 26q34 0 54 -26t13 -64q-9 -35 -41.5 -61.5t-66.5 -26.5q-38 0 -58.5 26t-11.5 62zM1053 1323q9 38 43 64t71 26q32 0 51.5 -26.5t10.5 -63.5q-7 -35 -39.5 -61.5t-63.5 -26.5q-37 0 -59 26.5t-14 61.5zM1487 555q-33 -142 -118 -257.5
t-195 -185.5t-229.5 -107.5t-233.5 -37.5q-99 0 -190.5 28.5t-166 82.5t-119.5 141.5t-45 196.5q0 70 17 139q32 142 117 257.5t195 185.5t230 107.5t234 37.5q79 0 153.5 -17.5t141 -54.5t116.5 -89t79.5 -127t29.5 -163q0 -59 -16 -137zM1149 555q8 31 8 66q0 100 -73 155
t-173 55q-74 0 -148 -29t-136.5 -94t-81.5 -153q-8 -31 -8 -66q0 -100 72.5 -155t172.5 -55q73 0 147 29.5t137 94.5t83 152z" />
    <glyph glyph-name="divide" unicode="&#xf7;" horiz-adv-x="927" 
d="M575 1047q12 57 59 95t103 38t85 -38t16 -95q-12 -56 -58.5 -94t-103.5 -38q-56 0 -85 38.5t-16 93.5zM219 721h823l-32 -139h-824zM383 217q12 55 59.5 93t102.5 38q57 0 85.5 -37.5t16.5 -93.5q-14 -56 -60.5 -94.5t-101.5 -38.5t-84.5 38.5t-17.5 94.5z" />
    <glyph glyph-name="oslash" unicode="&#xf8;" horiz-adv-x="1435" 
d="M1487 555q-33 -142 -118 -257.5t-195 -185.5t-229.5 -107.5t-233.5 -37.5q-118 0 -219 37l-146 -164h-242l226 258q-140 127 -140 318q0 70 17 139q32 142 117 257.5t195 185.5t230 107.5t234 37.5q122 0 223 -39l148 170h243l-231 -264q137 -127 137 -318
q0 -59 -16 -137zM571 375l394 452q-36 4 -54 4q-74 0 -148 -29t-136.5 -94t-81.5 -153q-8 -33 -8 -68q0 -66 34 -112zM1149 555q8 33 8 66q0 62 -33 110l-391 -448q32 -4 49 -4q73 0 147 29.5t137 94.5t83 152z" />
    <glyph glyph-name="ugrave" unicode="&#xf9;" horiz-adv-x="1454" 
d="M879 1397l127 116l184 -243l-76 -68zM233 457l150 649h336l-150 -649q-8 -40 -8 -58q0 -78 53.5 -118.5t133.5 -40.5q66 0 130.5 26.5t117.5 83t71 131.5l145 625h336l-168 -727q-10 -48 -10 -72q0 -32 19 -45.5t67 -13.5h14l-55 -248q-104 0 -173 6.5t-125.5 24
t-83 51.5t-27.5 86q-85 -97 -198.5 -148t-227.5 -51q-155 0 -259 91.5t-104 258.5q0 73 16 138z" />
    <glyph glyph-name="uacute" unicode="&#xfa;" horiz-adv-x="1454" 
d="M852 1284l295 242l76 -115l-326 -194zM233 457l150 649h336l-150 -649q-8 -40 -8 -58q0 -78 53.5 -118.5t133.5 -40.5q66 0 130.5 26.5t117.5 83t71 131.5l145 625h336l-168 -727q-10 -48 -10 -72q0 -32 19 -45.5t67 -13.5h14l-55 -248q-104 0 -173 6.5t-125.5 24
t-83 51.5t-27.5 86q-85 -97 -198.5 -148t-227.5 -51q-155 0 -259 91.5t-104 258.5q0 73 16 138z" />
    <glyph glyph-name="ucircumflex" unicode="&#xfb;" horiz-adv-x="1454" 
d="M932 1239h-127l203 236h118l95 -236h-127l-52 135zM233 457l150 649h336l-150 -649q-8 -40 -8 -58q0 -78 53.5 -118.5t133.5 -40.5q66 0 130.5 26.5t117.5 83t71 131.5l145 625h336l-168 -727q-10 -48 -10 -72q0 -32 19 -45.5t67 -13.5h14l-55 -248q-104 0 -173 6.5
t-125.5 24t-83 51.5t-27.5 86q-85 -97 -198.5 -148t-227.5 -51q-155 0 -259 91.5t-104 258.5q0 73 16 138z" />
    <glyph glyph-name="udieresis" unicode="&#xfc;" horiz-adv-x="1454" 
d="M825 1323q9 38 41 64t70 26q34 0 54.5 -26t13.5 -64q-9 -35 -42 -61.5t-67 -26.5q-38 0 -58 26t-12 62zM1061 1323q9 38 43.5 64t71.5 26q32 0 51 -26.5t10 -63.5q-7 -35 -39 -61.5t-63 -26.5q-37 0 -59 26.5t-15 61.5zM233 457l150 649h336l-150 -649q-8 -40 -8 -58
q0 -78 53.5 -118.5t133.5 -40.5q66 0 130.5 26.5t117.5 83t71 131.5l145 625h336l-168 -727q-10 -48 -10 -72q0 -32 19 -45.5t67 -13.5h14l-55 -248q-104 0 -173 6.5t-125.5 24t-83 51.5t-27.5 86q-85 -97 -198.5 -148t-227.5 -51q-155 0 -259 91.5t-104 258.5q0 73 16 138z
" />
    <glyph glyph-name="yacute" unicode="&#xfd;" horiz-adv-x="1437" 
d="M844 1284l297 242l73 -115l-325 -194zM244 457l149 649h336l-149 -649q-9 -45 -9 -60q0 -78 52.5 -119.5t132.5 -41.5q103 0 196.5 64t122.5 173l146 633h338l-226 -975q-49 -209 -179 -356t-312 -218t-402 -71q-100 0 -210 30.5t-195 77.5l129 308q61 -52 168.5 -83.5
t220.5 -31.5q194 0 298.5 84.5t141.5 247.5l8 35q-84 -92 -193.5 -140.5t-219.5 -48.5q-73 0 -138 22.5t-115 65.5t-79 111.5t-29 154.5q0 69 17 138z" />
    <glyph glyph-name="thorn" unicode="&#xfe;" horiz-adv-x="1482" 
d="M1532 553q-30 -134 -104.5 -247t-170.5 -185t-203 -112t-210 -40q-113 0 -202.5 49t-133.5 146l-109 -471l-338 2l379 1636h338l-90 -391q90 97 201 147t223 50q118 0 216.5 -50t160 -151t61.5 -234q0 -70 -18 -149zM1194 553q10 48 10 82q0 110 -70 171.5t-173 61.5
q-119 0 -222.5 -81.5t-138.5 -233.5q-12 -53 -12 -94q0 -109 64.5 -166t162.5 -57q123 0 233.5 84.5t145.5 232.5z" />
    <glyph glyph-name="ydieresis" unicode="&#xff;" horiz-adv-x="1437" 
d="M817 1323q9 38 41.5 64t69.5 26q35 0 55.5 -26.5t11.5 -63.5q-7 -35 -40.5 -61.5t-67.5 -26.5q-36 0 -57 26t-13 62zM1055 1323q7 38 40.5 64t71.5 26q33 0 52 -26t12 -64q-7 -35 -39.5 -61.5t-65.5 -26.5q-37 0 -58.5 26.5t-12.5 61.5zM244 457l149 649h336l-149 -649
q-9 -45 -9 -60q0 -78 52.5 -119.5t132.5 -41.5q103 0 196.5 64t122.5 173l146 633h338l-226 -975q-49 -209 -179 -356t-312 -218t-402 -71q-100 0 -210 30.5t-195 77.5l129 308q61 -52 168.5 -83.5t220.5 -31.5q194 0 298.5 84.5t141.5 247.5l8 35q-84 -92 -193.5 -140.5
t-219.5 -48.5q-73 0 -138 22.5t-115 65.5t-79 111.5t-29 154.5q0 69 17 138z" />
    <glyph glyph-name="Dcroat" unicode="&#x110;" horiz-adv-x="1720" 
d="M469 1434h799q141 -1 251 -45t176.5 -119t100 -170t33.5 -205q0 -89 -21 -178q-25 -108 -76.5 -210.5t-130.5 -194t-177 -160t-224 -109.5t-264 -43h-797l156 674h-102l51 223h102zM1190 1147h-445l-57 -250h580l-51 -223h-580l-88 -385h442q116 0 215 63.5t160 158.5
t88 206q14 60 14 125q0 134 -69.5 219.5t-208.5 85.5z" />
    <glyph glyph-name="dcroat" unicode="&#x111;" horiz-adv-x="1480" 
d="M205 553q24 107 77.5 202t123.5 163.5t152 118.5t168 75t167 25q113 0 201.5 -49t132.5 -144l63 275h-504l52 223h505l21 94h336l-21 -94h183l-52 -223h-184l-192 -840q-11 -53 -11 -72q0 -32 19 -45.5t67 -13.5h15l-58 -248q-105 0 -173.5 6.5t-125 24.5t-83 52.5
t-27.5 88.5q-89 -101 -203 -152t-229 -51q-119 0 -217 49t-160 149.5t-62 235.5q0 66 19 150zM543 553q-11 -57 -11 -84q0 -110 70.5 -171.5t173.5 -61.5q117 0 220 80t139 229l4 16q10 52 10 84q0 109 -64.5 166t-162.5 57q-123 0 -233.5 -84t-145.5 -231z" />
    <glyph glyph-name="dotlessi" unicode="&#x131;" horiz-adv-x="628" 
d="M233 858l58 248h47q42 0 69 -1t78.5 -5.5t84 -16.5t66 -31t45 -52.5t1.5 -77.5l-125 -543q-10 -48 -10 -72q0 -32 19 -45.5t67 -13.5h14l-57 -248q-83 0 -142 4t-112 15t-85 30t-50.5 50.5t-18.5 74.5q0 34 8 70l125 540q7 28 0.5 51t-34.5 23h-48z" />
    <glyph glyph-name="Lslash" unicode="&#x141;" horiz-adv-x="1378" 
d="M139 0l111 479l-100 -33l-23 201l174 55l168 732h344l-141 -615l213 70l22 -201l-289 -92l-69 -307h881l-66 -289h-1225z" />
    <glyph glyph-name="lslash" unicode="&#x142;" horiz-adv-x="604" 
d="M489 1536h336l-174 -750l156 52l27 -197l-234 -78l-43 -184q-10 -48 -10 -72q0 -32 19 -45.5t67 -13.5h14l-55 -248q-84 0 -142.5 3.5t-112.5 14.5t-86 30t-50.5 50.5t-18.5 75.5q0 34 8 70l46 196l-154 -51l-27 197l232 78z" />
    <glyph glyph-name="OE" unicode="&#x152;" horiz-adv-x="2504" 
d="M1450 289h909l-67 -289h-1399q-102 0 -197 19t-182.5 61.5t-152.5 104t-103.5 153.5t-38.5 203q0 73 23 176q34 148 111.5 270.5t177 203.5t220 137t239 81t235.5 25h1386l-67 -287h-895l-66 -285h762l-66 -289h-763zM1116 328l180 778h-147q-67 0 -133 -12t-134.5 -41
t-124.5 -72t-99.5 -111t-63.5 -153q-12 -53 -12 -99q0 -63 22.5 -113.5t60 -83t88.5 -54t104.5 -30.5t111.5 -9h147z" />
    <glyph glyph-name="oe" unicode="&#x153;" horiz-adv-x="2285" 
d="M2052 406l178 -199q-121 -117 -275.5 -183.5t-316.5 -66.5q-122 0 -232.5 47.5t-180.5 136.5q-113 -88 -248 -133t-262 -45q-99 0 -190.5 28.5t-166 82.5t-119 141.5t-44.5 196.5q0 74 16 139q32 142 116.5 257.5t194.5 185.5t229.5 107.5t233.5 37.5q128 0 242.5 -46.5
t185.5 -134.5q112 90 245 137.5t257 47.5q202 0 329.5 -119t127.5 -332q0 -80 -21 -174l-864 2q-8 -111 50.5 -184.5t182.5 -73.5q191 0 332 144zM1556 723h519q-15 78 -65 128t-136 50q-100 0 -181.5 -49t-136.5 -129zM1153 551q8 31 8 63q0 100 -74 156.5t-174 56.5
q-73 0 -147 -29.5t-136.5 -94.5t-82.5 -152q-8 -31 -8 -64q0 -101 73.5 -157t173.5 -56q73 0 147 29.5t137 94.5t83 153z" />
    <glyph glyph-name="Scaron" unicode="&#x160;" horiz-adv-x="1562" 
d="M1077 1544l-94 236h127l51 -135l111 135h127l-203 -236h-119zM1778 1262l-232 -279q-78 87 -227 140t-287 53q-107 0 -183.5 -37t-94.5 -111q-8 -38 15 -65.5t69.5 -45.5t109 -32t134 -28.5t143 -32t137.5 -45t117 -64t81.5 -94t30.5 -129.5q0 -44 -12 -97
q-26 -114 -100 -201t-179.5 -138.5t-227 -77t-255.5 -25.5q-215 0 -409 59.5t-297 159.5l233 287q83 -91 255.5 -151t322.5 -60q70 0 127.5 14t99 46t51.5 79q10 43 -19.5 75t-86 50.5t-131.5 37.5t-156 35t-159 45t-139.5 66t-99.5 99t-38 143q0 44 12 96q26 114 95 200.5
t166.5 137.5t210 76t237.5 25q199 0 387.5 -58t298.5 -153z" />
    <glyph glyph-name="scaron" unicode="&#x161;" horiz-adv-x="1345" 
d="M893 1217l-92 235h125l51 -135l113 135h124l-200 -235h-121zM1485 971l-199 -244q-68 62 -199.5 103.5t-250.5 41.5q-79 0 -132 -22t-63 -66q-7 -29 27.5 -49.5t95.5 -34t136.5 -27t152.5 -36t141 -53.5t104.5 -87t40.5 -130q0 -38 -8 -74q-21 -90 -82.5 -159.5
t-150 -110t-191 -60.5t-215.5 -20q-179 0 -341 46.5t-249 125.5l205 254q65 -72 204 -117t271 -45q86 0 143.5 21.5t67.5 64.5q7 32 -17.5 54t-71.5 33t-109 23.5t-128 23t-129.5 33t-114 52t-81.5 81.5t-31 120q0 43 11 86q21 90 77 158t136 107.5t173 59t197 19.5
q168 0 327.5 -47.5t252.5 -124.5z" />
    <glyph glyph-name="Ydieresis" unicode="&#x178;" horiz-adv-x="1579" 
d="M965 1651q7 38 39.5 64t70.5 26q35 0 55 -26.5t11 -63.5q-7 -35 -40 -61.5t-67 -26.5q-38 0 -58 26t-11 62zM1200 1651q9 38 43.5 64t71.5 26q32 0 51 -26.5t10 -63.5q-7 -35 -39 -61.5t-63 -26.5q-37 0 -59 26.5t-15 61.5zM346 1434h402l237 -580l506 580h401l-798 -859
l-133 -575h-345l134 575z" />
    <glyph glyph-name="Zcaron" unicode="&#x17d;" horiz-adv-x="1386" 
d="M991 1544l-94 236h127l49 -135l113 135h127l-203 -236h-119zM1532 1145l-1020 -856h889l-66 -289h-1284l68 289l1038 858h-823l67 287h1196l-65 -287l-2 -2h2z" />
    <glyph glyph-name="zcaron" unicode="&#x17e;" horiz-adv-x="1216" 
d="M829 1217l-94 235h127l49 -135l113 135h127l-203 -235h-119zM1315 831l-791 -557h719l-63 -274h-1145l63 274l809 557h-649l64 275h1054z" />
    <glyph glyph-name="circumflex" unicode="&#x2c6;" horiz-adv-x="440" 
d="M424 1239h-127l203 236h118l95 -236h-127l-49 135z" />
    <glyph glyph-name="caron" unicode="&#x2c7;" horiz-adv-x="440" 
d="M440 1217l-94 235h127l51 -135l111 135h127l-203 -235h-119z" />
    <glyph glyph-name="ring" unicode="&#x2da;" horiz-adv-x="432" 
d="M494 1188q-75 0 -114.5 39.5t-39.5 99.5q0 85 67 156t173 71q73 0 111 -39t38 -98q0 -85 -66 -157t-169 -72zM553 1448q-42 0 -69 -30.5t-27 -65.5q0 -25 15.5 -41.5t45.5 -16.5q40 0 67 31t27 66q0 25 -15 41t-44 16z" />
    <glyph glyph-name="tilde" unicode="&#x2dc;" horiz-adv-x="587" 
d="M399 1266l-32 94q40 31 57 43t55 28.5t72 16.5q28 0 50.5 -9t33.5 -19.5t26.5 -19.5t32.5 -9q44 0 127 59l27 -98q-35 -28 -85.5 -51t-90.5 -23q-32 0 -56.5 9t-37 19.5t-27.5 19.5t-29 9q-38 0 -123 -69z" />
    <glyph glyph-name="endash" unicode="&#x2013;" horiz-adv-x="849" 
d="M172 514l49 211h744l-50 -211h-743z" />
    <glyph glyph-name="emdash" unicode="&#x2014;" horiz-adv-x="1308" 
d="M168 500l51 221h1202l-51 -221h-1202z" />
    <glyph glyph-name="quoteleft" unicode="&#x2018;" horiz-adv-x="481" 
d="M762 1434l-227 -461h-259l310 461h176z" />
    <glyph glyph-name="quoteright" unicode="&#x2019;" horiz-adv-x="481" 
d="M276 973l228 461h258l-309 -461h-177z" />
    <glyph glyph-name="quotesinglbase" unicode="&#x201a;" horiz-adv-x="483" 
d="M14 -170l226 461h258l-310 -461h-174z" />
    <glyph glyph-name="quotedblleft" unicode="&#x201c;" horiz-adv-x="856" 
d="M764 1434l-227 -461h-261l310 461h178zM1135 1434l-230 -461h-258l307 461h181z" />
    <glyph glyph-name="quotedblright" unicode="&#x201d;" horiz-adv-x="856" 
d="M647 973l230 461h258l-310 -461h-178zM276 973l230 461h258l-307 -461h-181z" />
    <glyph glyph-name="quotedblbase" unicode="&#x201e;" horiz-adv-x="845" 
d="M14 -170l226 461h258l-310 -461h-174zM377 -170l225 461h258l-309 -461h-174z" />
    <glyph glyph-name="dagger" unicode="&#x2020;" horiz-adv-x="837" 
d="M637 1434h225l-80 -351h254l-53 -225h-254l-235 -1024h-228l238 1024h-254l53 225h252z" />
    <glyph glyph-name="bullet" unicode="&#x2022;" horiz-adv-x="499" 
d="M219 717q17 77 90 136.5t154 59.5q77 0 123.5 -60t27.5 -136q-19 -79 -92 -139t-151 -60q-80 0 -126 60t-26 139z" />
    <glyph glyph-name="guilsinglleft" unicode="&#x2039;" horiz-adv-x="567" 
d="M207 668l22 98l600 596l-71 -313l-338 -332l184 -332l-72 -313z" />
    <glyph glyph-name="guilsinglright" unicode="&#x203a;" horiz-adv-x="567" 
d="M367 1362l325 -596l-22 -98l-600 -596l71 313l340 332l-186 332z" />
    <glyph glyph-name="Euro" unicode="&#x20ac;" horiz-adv-x="1429" 
d="M238 963h233q118 221 331 361t486 140q115 0 217.5 -38t177.5 -107l-206 -236q-36 39 -97.5 66t-138.5 27q-135 0 -245.5 -57.5t-188.5 -155.5h287l-41 -183h-346q-19 -55 -29 -121h346l-43 -182h-287q31 -99 116 -158t220 -59q158 0 277 90l100 -235
q-110 -75 -218.5 -110.5t-244.5 -35.5q-141 0 -251.5 39.5t-180.5 110t-109 161t-47 197.5h-231l43 182h199q8 57 28 121h-200z" />
    <glyph glyph-name="trademark" unicode="&#x2122;" horiz-adv-x="837" 
d="M842 1434l61 -187l148 187h75l-90 -387h-90l41 180l-84 -107h-59l-35 107l-41 -180h-88l88 387h74zM698 1352h-120l-70 -305h-90l69 305h-122l18 82h336z" />
    <glyph glyph-name="minus" unicode="&#x2212;" horiz-adv-x="999" 
d="M193 604l51 225h895l-54 -225h-892z" />
    <glyph glyph-name="a.salt" horiz-adv-x="1372" 
d="M399 752l-10 256q103 55 254.5 91t298.5 36q94 0 173 -16.5t144 -52t101.5 -97t36.5 -144.5q0 -49 -15 -108l-79 -338q-11 -53 -11 -72q0 -32 19 -45.5t67 -13.5h15l-58 -248q-89 0 -150.5 4.5t-116 17t-85.5 35t-46 59.5t-9 89q-88 -101 -222.5 -157.5t-295.5 -57.5
q-145 -3 -219 61.5t-74 167.5q0 79 43 161.5t117.5 151.5t189 111t244.5 37l180 -4q20 -2 45 0t47 6t40.5 17.5t25.5 35.5l2 4q14 61 -37 89t-146 28q-116 0 -258 -33t-211 -71zM989 477q-65 -39 -155 -39l-168 2q-75 1 -123.5 -37.5t-48.5 -83.5q0 -33 29 -52.5t87 -18.5
q35 2 75 9.5t89.5 24.5t90.5 40.5t75 62t47 84.5z" />
    <glyph glyph-name="d.salt" horiz-adv-x="1480" 
d="M1366 1536h336l-354 -1536h-295l8 176q-91 -103 -205 -155t-231 -52q-87 0 -166 29t-140 83t-97 137t-36 185q0 66 19 150q31 133 105.5 246t170 185.5t203 112.5t209.5 40q113 0 201.5 -49t134.5 -146zM545 553q-10 -39 -10 -86q0 -110 69 -170.5t172 -60.5
q118 0 222.5 82.5t140.5 234.5q10 41 10 92q0 109 -64.5 166t-162.5 57q-78 0 -154 -34.5t-138.5 -108t-84.5 -172.5z" />
    <glyph glyph-name="g.salt" horiz-adv-x="1390" 
d="M1352 696q-23 -101 -85.5 -183.5t-147 -134.5t-181 -80t-193.5 -28q-135 0 -241 56q-17 -10 -23 -31q-9 -39 32 -58t113.5 -23t162.5 -4.5t182.5 -10t168.5 -31.5t124.5 -76.5t48.5 -138.5q0 -47 -10 -86q-21 -93 -95 -168.5t-178.5 -123.5t-227 -73.5t-247.5 -25.5
q-151 0 -273 35t-201 112.5t-79 186.5q0 39 8 75q29 122 197 197q-10 30 -10 61q0 35 8 66q16 69 66.5 129t111.5 98q-47 68 -47 170q0 41 14 113q24 101 86.5 183.5t147 134.5t180.5 80t192 28q160 0 267 -70q32 47 46 105.5t1 113.5l289 -24q3 -202 -222 -326
q27 -59 27 -139q0 -51 -12 -109zM625 707q-19 -86 37 -134.5t147 -48.5t169 48.5t97 134.5q21 87 -34.5 135.5t-147.5 48.5t-169.5 -48.5t-98.5 -135.5zM381 -39q-68 -22 -76 -65q-12 -51 32.5 -87t118.5 -52.5t165 -16.5q132 0 236.5 34t117.5 91q8 32 -27 48t-102.5 19.5
t-142.5 3t-166.5 5t-155.5 20.5z" />
    <glyph glyph-name="h.salt" horiz-adv-x="1464" 
d="M471 0h-336l354 1536h336l-141 -608q78 90 186 145t238 55q393 0 393 -315q0 -78 -20 -162l-152 -651h-338l129 557q21 96 21 141q0 90 -47 133t-146 43q-115 0 -215.5 -86t-134.5 -235v2z" />
    <glyph glyph-name="i.salt" horiz-adv-x="563" 
d="M422 1382q19 75 78.5 120.5t138.5 45.5q80 0 118 -45.5t21 -120.5q-17 -74 -77.5 -119.5t-139.5 -45.5t-117.5 45.5t-21.5 119.5zM449 0h-336l256 1106h336z" />
    <glyph glyph-name="j.salt" horiz-adv-x="561" 
d="M422 1382q19 75 78.5 120.5t138.5 45.5q80 0 118 -45.5t21 -120.5q-19 -74 -78.5 -119.5t-138.5 -45.5t-117.5 45.5t-21.5 119.5zM31 -365l340 1471h336l-340 -1471h-336z" />
    <glyph glyph-name="k.salt" horiz-adv-x="1531" 
d="M135 0l346 1501h336l-174 -753l479 358h441l-555 -410l528 -696h-467l-354 481l-160 -119l-84 -362h-336z" />
    <glyph glyph-name="l.salt" horiz-adv-x="604" 
d="M135 0l354 1536h336l-354 -1536h-336z" />
    <glyph glyph-name="m.salt" horiz-adv-x="2064" 
d="M471 0h-336l254 1106h295l-2 -156q150 178 352 178q300 0 344 -215q136 215 381 215q178 0 263 -73.5t85 -223.5q0 -87 -22 -180l-150 -651h-338l138 590q18 80 18 135q0 149 -139 149q-92 0 -158.5 -69.5t-103.5 -200.5l-140 -604h-338l136 590q18 76 18 133
q0 77 -35 114t-108 37q-102 0 -176 -83t-109 -238z" />
    <glyph glyph-name="n.salt" horiz-adv-x="1460" 
d="M600 553v2l-129 -555h-336l254 1106h295l-2 -176q80 89 189.5 143.5t238.5 54.5q391 0 391 -315q0 -78 -20 -162l-150 -651h-338l129 557q19 84 19 139q0 91 -46 134.5t-145 43.5q-114 0 -215 -87.5t-135 -233.5z" />
    <glyph glyph-name="p.salt" horiz-adv-x="1484" 
d="M1534 553q-30 -134 -104.5 -247t-170.5 -185t-203 -112t-210 -40q-114 0 -203 49t-133 146l-150 -649l-337 2l366 1589h295l-8 -180q91 104 205.5 157.5t232.5 53.5t216.5 -50t160 -151t61.5 -234q0 -70 -18 -149zM1196 553q10 48 10 82q0 110 -70 171.5t-173 61.5
q-119 0 -222.5 -81.5t-138.5 -233.5q-12 -53 -12 -94q0 -109 64.5 -166t162.5 -57q123 0 233.5 84.5t145.5 232.5z" />
    <glyph glyph-name="r.salt" horiz-adv-x="1095" 
d="M604 571l-133 -571h-336l254 1106h295l-4 -193q179 209 395 209q115 0 228 -61l-138 -254q-58 24 -143 24q-89 0 -174 -26.5t-155 -87.5t-89 -146z" />
    <glyph glyph-name="u.salt" horiz-adv-x="1427" 
d="M233 457l152 649h336l-152 -649q-8 -40 -8 -58q0 -78 53.5 -118.5t133.5 -40.5q103 0 197 64t122 173l145 629h336l-256 -1106h-336l35 156q-84 -90 -193 -137.5t-218 -47.5q-155 0 -259 93t-104 260q0 55 16 133z" />
    <glyph glyph-name="y.salt" horiz-adv-x="1468" 
d="M1683 1106l-776 -1110q-164 -234 -352 -367t-354 -133q-99 0 -188.5 29.5t-125.5 60.5l140 277q22 -17 86.5 -41.5t119.5 -24.5q149 0 328 183h-18l-269 1126h367l150 -811l524 811h368z" />
    </font>
</defs>
</svg>
