<?xml version="1.0" standalone="no"?>
<!DOCTYPE svg PUBLIC "-//W3C//DTD SVG 1.1//EN" "http://www.w3.org/Graphics/SVG/1.1/DTD/svg11.dtd" >
<svg xmlns="http://www.w3.org/2000/svg" xmlns:xlink="http://www.w3.org/1999/xlink" version="1.1">
<metadata>
Created by FontForge 20201107 at Thu Nov 20 10:53:20 2025
 By 
Copyright (c) 2020 by Sarid Ezra. All rights reserved.
</metadata>
<defs>
<font id="Ezra-Italic" horiz-adv-x="1740" >
  <font-face 
    font-family="Ezra"
    font-weight="400"
    font-style="italic"
    font-stretch="normal"
    units-per-em="2048"
    panose-1="0 0 0 0 0 0 0 0 0 0"
    ascent="1536"
    descent="-512"
    x-height="1106"
    cap-height="1434"
    bbox="-221 -514 2726 1812"
    underline-thickness="102"
    underline-position="-255"
    unicode-range="U+000D-FB01"
  />
<missing-glyph horiz-adv-x="1024" 
 />
    <glyph glyph-name="fi" unicode="fi" horiz-adv-x="1220" 
d="M1063 0h-180l221 954h-492l-221 -954h-186l221 954h-166l25 117l186 29q-31 64 -31 125q0 20 9 65q19 81 93.5 145.5t178 98t213.5 33.5q146 0 258.5 -63.5t148.5 -188.5l-161 -84q-32 92 -110.5 137t-176.5 45q-103 0 -186 -47t-101 -123q-17 -78 39 -137h674z" />
    <glyph glyph-name=".notdef" horiz-adv-x="1024" 
 />
    <glyph glyph-name="uni0000" horiz-adv-x="0" 
 />
    <glyph glyph-name="uni0000" horiz-adv-x="0" 
 />
    <glyph glyph-name="uni000D" unicode="&#xd;" horiz-adv-x="512" 
 />
    <glyph glyph-name="space" unicode=" " horiz-adv-x="671" 
 />
    <glyph glyph-name="exclam" unicode="!" horiz-adv-x="366" 
d="M197 340l219 1094h190l-284 -1094h-125zM98 96q9 45 47 76t82 31q46 0 69.5 -30.5t12.5 -76.5q-11 -43 -48 -74.5t-81 -31.5t-68.5 31.5t-13.5 74.5z" />
    <glyph glyph-name="quotedbl" unicode="&#x22;" horiz-adv-x="710" 
d="M301 1020l188 432h181l-260 -432h-109zM602 1020l189 432h178l-258 -432h-109z" />
    <glyph glyph-name="numbersign" unicode="#" horiz-adv-x="1642" 
d="M715 0l280 395h-413l-279 -395h-156l281 395h-262l33 140h329l236 331h-375l33 138h440l305 430h152l-303 -430h411l306 430h153l-305 -430h213l-31 -138h-280l-236 -331h320l-31 -140h-387l-281 -395h-153zM682 535h412l235 331h-411z" />
    <glyph glyph-name="dollar" unicode="$" horiz-adv-x="1546" 
d="M1092 1536h125l-33 -139q169 -9 311.5 -59.5t212.5 -129.5l-139 -133q-52 62 -168.5 103.5t-255.5 50.5l-109 -471q64 -9 107.5 -17t101.5 -21.5t96.5 -28.5t80 -38.5t66 -51.5t40.5 -66.5t16 -85.5q0 -32 -10 -80q-22 -96 -87.5 -172.5t-159.5 -125.5t-204 -77t-231 -35
l-21 -86h-124l20 84q-195 8 -351 65t-220 152l149 125q45 -72 173.5 -118t287.5 -54l111 483q-61 9 -104 16.5t-98 20.5t-92.5 27.5t-77 37t-63 49.5t-38.5 64.5t-15 81.5q0 28 10 76q24 101 88 180t155 127.5t196 75t221 31.5zM915 774l105 455q-167 -8 -286.5 -70.5
t-147.5 -179.5q-9 -40 4 -71t39.5 -51.5t74.5 -37t95.5 -26t115.5 -19.5zM997 592l-106 -465q113 6 207 33t162.5 81.5t85.5 129.5q10 44 -4 78.5t-42 56t-81 39t-101 27t-121 20.5z" />
    <glyph glyph-name="percent" unicode="%" horiz-adv-x="1681" 
d="M627 879q-131 0 -198 65t-67 166q0 65 28.5 130.5t78.5 120t128 88.5t169 34q132 0 200 -66.5t68 -167.5q0 -65 -28.5 -130t-79 -118.5t-129.5 -87.5t-170 -34zM1661 1434h170l-1505 -1434h-168zM737 1362q-104 0 -170.5 -71t-66.5 -154q0 -60 39 -99t114 -39
q107 0 175.5 70.5t68.5 153.5q0 60 -40.5 99.5t-119.5 39.5zM1262 0q-131 0 -198 65t-67 166q0 65 28.5 130.5t78.5 120t128 88.5t169 34q132 0 200 -66t68 -167q0 -65 -28.5 -130t-79 -119t-129.5 -88t-170 -34zM1372 485q-106 0 -172.5 -71t-66.5 -156q0 -61 38.5 -100
t116.5 -39q109 0 177.5 70.5t68.5 154.5q0 61 -41 101t-121 40z" />
    <glyph glyph-name="ampersand" unicode="&#x26;" horiz-adv-x="1681" 
d="M1642 0l-241 -12q-62 59 -146 151q-133 -102 -289 -154.5t-307 -52.5q-139 0 -250 42t-179 129t-68 206q0 49 12 105q14 63 44.5 118.5t76 100.5t93.5 81.5t114 70.5t119.5 58t126.5 52q-41 115 -41 215q0 46 8 82q21 90 89 156.5t154 97.5t177 31q121 0 202.5 -55.5
t81.5 -159.5q0 -33 -8 -64q-12 -53 -42 -100.5t-68 -82.5t-94 -69.5t-107 -59t-121 -52.5q107 -199 309 -443q125 157 150 365l176 14q-41 -292 -223 -500q62 -71 124.5 -138.5t94.5 -99.5zM920 961q70 28 118 51t94.5 52t74 62.5t36.5 71.5q14 66 -28 102.5t-113 36.5
q-72 0 -134.5 -39.5t-80.5 -111.5q-20 -90 33 -225zM805 766q-74 -30 -124.5 -52.5t-110.5 -56t-98.5 -66.5t-69.5 -78t-42 -95q-8 -31 -8 -66q0 -116 97.5 -181t248.5 -65q113 0 232.5 39t220.5 115q-223 260 -346 506z" />
    <glyph glyph-name="quotesingle" unicode="'" horiz-adv-x="374" 
d="M477 1452h178l-245 -432h-109z" />
    <glyph glyph-name="parenleft" unicode="(" horiz-adv-x="542" 
d="M362 -82q-163 150 -163 473q0 196 62.5 403t183 388.5t274.5 281.5l69 -73q-125 -93 -225.5 -267t-153.5 -371.5t-53 -377.5q0 -261 111 -383z" />
    <glyph glyph-name="parenright" unicode=")" horiz-adv-x="542" 
d="M143 -82l-69 74q126 92 227 265.5t154 371t53 377.5q0 259 -111 385l105 73q162 -152 162 -471q0 -196 -62.5 -403.5t-183.5 -389.5t-275 -282z" />
    <glyph glyph-name="asterisk" unicode="*" horiz-adv-x="669" 
d="M868 1358l11 -127l-193 -27l94 -135l-125 -80l-55 170l-129 -166l-88 78l152 133l-177 21l68 131l154 -78l16 156h133l-53 -154z" />
    <glyph glyph-name="plus" unicode="+" horiz-adv-x="952" 
d="M223 643l35 150h324l71 305h154l-72 -305h326l-35 -150h-324l-75 -330h-156l76 330h-324z" />
    <glyph glyph-name="comma" unicode="," horiz-adv-x="458" 
d="M-39 -213l260 412h197l-332 -412h-125z" />
    <glyph glyph-name="hyphen" unicode="-" horiz-adv-x="1083" 
d="M223 643l35 150h934l-35 -150h-934z" />
    <glyph glyph-name="period" unicode="." horiz-adv-x="399" 
d="M117 96q10 45 48 76t83 31q44 0 67 -30.5t13 -76.5q-11 -43 -48 -74.5t-81 -31.5t-68.5 31.5t-13.5 74.5z" />
    <glyph glyph-name="slash" unicode="/" horiz-adv-x="1228" 
d="M1325 1434h158l-1250 -1434h-157z" />
    <glyph glyph-name="zero" unicode="0" horiz-adv-x="1591" 
d="M264 717q34 146 102 270.5t155 212t191 149.5t211.5 91.5t213.5 29.5q112 0 210 -34t173.5 -99.5t119 -170t43.5 -236.5q0 -112 -24 -213q-34 -147 -102 -271.5t-155 -212t-190.5 -149.5t-210.5 -91.5t-213 -29.5q-112 0 -210.5 34.5t-175 100.5t-120.5 170.5t-44 235.5
q0 103 26 213zM444 717q-20 -84 -20 -164q0 -131 57 -226t147.5 -139.5t202.5 -44.5q99 0 198.5 37t189.5 106.5t160 181t102 249.5q20 87 20 168q0 99 -32.5 178t-88.5 128t-128.5 75t-155.5 26q-79 0 -159 -22.5t-157.5 -70t-143 -114.5t-116 -162t-76.5 -206z" />
    <glyph glyph-name="one" unicode="1" horiz-adv-x="739" 
d="M825 1456h86l-336 -1456h-188l272 1176l-288 -203l-64 104z" />
    <glyph glyph-name="two" unicode="2" horiz-adv-x="1177" 
d="M1147 1059q25 108 -51.5 170.5t-206.5 62.5q-111 0 -225 -51t-195 -149l-63 151q100 111 241 168t285 57q177 0 296.5 -82.5t119.5 -228.5q0 -31 -11 -84q-21 -92 -76 -172t-130 -140.5t-162.5 -115.5t-181.5 -108t-179.5 -106t-164 -121.5t-126.5 -143.5h820l-39 -166
h-850h-168q23 99 71 186.5t111 154.5t138.5 127t155 109t158 94.5t151 90t130.5 89t98.5 98t53.5 110.5z" />
    <glyph glyph-name="three" unicode="3" horiz-adv-x="1333" 
d="M670 721h-25l33 137q137 -3 246.5 21t174 65.5t98.5 90.5t34 100q0 73 -66.5 123.5t-181.5 50.5q-113 0 -229.5 -48.5t-210.5 -142.5l-94 101q123 126 271 187.5t290 61.5q196 0 305.5 -87t109.5 -214q0 -108 -81.5 -210t-233.5 -164q113 -49 169 -129.5t56 -176.5
q0 -74 -32 -149t-94 -142t-145.5 -119.5t-196 -83t-236.5 -30.5q-171 0 -303.5 74.5t-188.5 224.5l150 121q37 -83 100.5 -138t137.5 -78.5t159 -23.5q97 0 183 28.5t143.5 74t91 102.5t33.5 115q0 52 -27 97t-81 81.5t-146.5 58t-212.5 21.5z" />
    <glyph glyph-name="four" unicode="4" horiz-adv-x="1331" 
d="M1356 360h-154l-82 -360l-188 -2l82 362h-873l39 166l1180 910l90 -2l-209 -908h154zM406 526h647l139 602z" />
    <glyph glyph-name="five" unicode="5" horiz-adv-x="1372" 
d="M436 664l-121 18l269 752h921l-39 -168h-764l-143 -398q177 56 350 56q236 0 359 -104.5t123 -262.5q0 -82 -32.5 -166.5t-97.5 -161t-153.5 -137t-210 -96t-256.5 -35.5q-114 0 -209 31.5t-167.5 103.5t-100.5 178l180 78q18 -107 109 -160t221 -53q117 0 218 35.5
t166.5 91.5t102.5 124t37 136q0 106 -88.5 175t-263.5 69q-202 0 -410 -106z" />
    <glyph glyph-name="six" unicode="6" horiz-adv-x="1490" 
d="M770 -31q-109 0 -197.5 28t-150 76.5t-103.5 116.5t-61.5 146.5t-19.5 167.5q0 128 39.5 262t117.5 257t182.5 220t246 155t296.5 58q115 0 210 -24t153 -61.5t92 -72t49 -67.5l-143 -111q-12 22 -37.5 47.5t-72 55.5t-124.5 49.5t-172 19.5q-111 0 -214 -44t-181.5 -118
t-137 -167.5t-91.5 -196.5q216 192 581 192q121 0 215 -30t150.5 -82.5t85 -119t28.5 -144.5q0 -107 -52 -214.5t-144.5 -197t-235.5 -145.5t-309 -56zM993 795q-130 0 -238.5 -34t-176.5 -89t-105 -121.5t-37 -134.5q0 -113 97.5 -189.5t279.5 -76.5q115 0 214.5 36.5
t164 95t101 128.5t36.5 139q0 106 -85 176t-251 70z" />
    <glyph glyph-name="seven" unicode="7" horiz-adv-x="1335" 
d="M231 0l1072 1268h-951l37 166h1217l-13 -56l-1149 -1378h-213z" />
    <glyph glyph-name="eight" unicode="8" horiz-adv-x="1456" 
d="M455 1102q38 163 206 262.5t406 99.5q211 0 332 -79.5t121 -213.5q0 -31 -9 -69q-25 -102 -102 -180t-195 -123q130 -42 199.5 -120.5t69.5 -186.5q0 -36 -10 -84q-29 -130 -133 -229.5t-265 -154.5t-354 -55q-259 0 -409 96.5t-150 258.5q0 36 10 84q32 138 147.5 239.5
t292.5 151.5q-166 77 -166 233q0 33 9 70zM932 883q181 0 292 76t111 171q0 76 -78.5 127.5t-226.5 51.5q-184 0 -294.5 -74.5t-110.5 -169.5q0 -76 79.5 -129t227.5 -53zM762 143q122 0 224.5 29t168 75.5t101.5 103t36 114.5q0 99 -102.5 166t-298.5 67
q-123 0 -226.5 -28.5t-169 -74.5t-101.5 -102t-36 -114q0 -100 104 -168t300 -68z" />
    <glyph glyph-name="nine" unicode="9" horiz-adv-x="1490" 
d="M1049 1456q135 0 239 -42t167 -116.5t94.5 -169t31.5 -206.5q0 -128 -39.5 -262.5t-118 -257.5t-183 -220t-246 -155t-296.5 -58q-115 0 -209.5 24t-152.5 62t-92 72.5t-49 67.5l143 110q12 -23 37 -48t71 -55t124 -49.5t173 -19.5q111 0 213.5 44t181.5 118t138 167.5
t92 196.5q-216 -192 -582 -192q-121 0 -215 30t-150.5 82.5t-85 119.5t-28.5 145q0 85 32.5 171.5t97 165.5t152 140.5t207 98t253.5 36.5zM825 631q130 0 238 34.5t175.5 89.5t104.5 122t37 135q0 112 -96.5 188t-277.5 76q-115 0 -214.5 -36.5t-164.5 -95t-101.5 -128.5
t-36.5 -139q0 -106 85 -176t251 -70z" />
    <glyph glyph-name="colon" unicode=":" horiz-adv-x="358" 
d="M299 969q10 44 48.5 74t82.5 30t67 -30t13 -74q-11 -45 -48 -77t-81 -32t-68.5 32.5t-13.5 76.5zM113 96q10 45 48 76t83 31q44 0 67.5 -30.5t14.5 -76.5q-11 -43 -49 -74.5t-82 -31.5t-67.5 31.5t-14.5 74.5z" />
    <glyph glyph-name="semicolon" unicode=";" horiz-adv-x="493" 
d="M367 874q10 44 48.5 74.5t82.5 30.5t67.5 -30.5t14.5 -74.5q-11 -44 -49 -75t-82 -31t-67.5 31t-14.5 75zM41 -160l225 359h197l-299 -359h-123z" />
    <glyph glyph-name="less" unicode="&#x3c;" horiz-adv-x="667" 
d="M694 436l-41 -174l-430 375l31 135l604 375l-41 -174l-452 -268z" />
    <glyph glyph-name="equal" unicode="=" horiz-adv-x="933" 
d="M254 774l35 150h782l-35 -150h-782zM184 469l35 149h782l-34 -149h-783z" />
    <glyph glyph-name="greater" unicode="&#x3e;" horiz-adv-x="667" 
d="M770 772l-31 -135l-604 -375l41 174l453 269l-330 268l41 174z" />
    <glyph glyph-name="question" unicode="?" horiz-adv-x="1193" 
d="M1176 1065q8 31 8 61q0 87 -66.5 130.5t-173.5 43.5q-129 0 -271 -61.5t-233 -165.5l-84 131q112 121 280.5 187.5t336.5 66.5q113 0 201 -31t143 -100t55 -168q0 -51 -10 -92q-17 -75 -50 -135t-74.5 -100t-90.5 -73t-100.5 -58t-103 -49.5t-99 -53.5t-87.5 -63.5
t-70.5 -85.5t-45.5 -115h-127q22 104 66.5 182t98.5 125t115.5 83.5t122 66.5t112 63.5t91.5 86.5t56 124zM422 96q11 44 49 75.5t82 31.5t67.5 -31t14.5 -76q-11 -44 -49 -75t-82 -31q-43 0 -67 31t-15 75z" />
    <glyph glyph-name="at" unicode="@" horiz-adv-x="1480" 
d="M1085 979h109l-51 -221q-31 -135 -31 -203q0 -137 109 -137q66 0 124 54.5t90.5 141.5t32.5 181q0 61 -14.5 117t-48 107.5t-83.5 89.5t-126 60.5t-170 22.5q-158 0 -295.5 -65.5t-227 -169t-140 -228.5t-50.5 -248q0 -88 27 -163.5t80.5 -135t141.5 -93.5t202 -34
q128 0 253 55t218 154l55 -84q-256 -227 -551 -227q-136 0 -241.5 40.5t-169.5 111t-96.5 159.5t-32.5 193q0 115 37.5 233t111.5 225.5t174.5 192t237.5 134.5t289 50q110 0 200 -26.5t150 -72t101 -107t59 -129.5t18 -142q0 -122 -46.5 -232t-134.5 -180.5t-196 -70.5
q-160 0 -194 121q-104 -158 -263 -158q-85 0 -127.5 59t-42.5 154q0 106 45.5 218t130.5 191.5t183 79.5q90 0 145 -55zM1032 745q6 70 -28 112t-95 42q-59 0 -111.5 -62.5t-81 -148t-28.5 -162.5q0 -59 19.5 -95t60.5 -36q49 0 93 33t76.5 89.5t54.5 110.5t40 115v2z" />
    <glyph glyph-name="A" unicode="A" horiz-adv-x="1628" 
d="M39 0l1024 1454h176l352 -1454h-192l-62 248h-931l-177 -248h-190zM524 416h772l-200 801z" />
    <glyph glyph-name="B" unicode="B" horiz-adv-x="1478" 
d="M954 0h-792l330 1434h675q85 0 150.5 -24t105.5 -65.5t60 -94t20 -113.5q0 -38 -10 -90q-18 -77 -62 -148.5t-110 -124.5q75 -40 113.5 -111.5t38.5 -158.5q0 -47 -13 -101q-18 -78 -61 -149t-106 -128.5t-151.5 -91.5t-187.5 -34zM532 817h476q116 0 196.5 67t102.5 160
q20 93 -29 161.5t-164 68.5h-477zM381 166h594q116 0 197.5 73t105.5 173q8 40 8 61q0 79 -50 131.5t-146 52.5h-594z" />
    <glyph glyph-name="C" unicode="C" horiz-adv-x="1544" 
d="M264 717q34 146 107.5 271t167 211.5t204 148.5t221 91t214.5 29q182 0 325.5 -80t212.5 -227l-160 -125q-54 115 -172 185.5t-245 70.5q-134 0 -254 -49t-206 -131t-145.5 -183.5t-84.5 -211.5q-17 -69 -17 -148q0 -88 26 -163.5t78.5 -135t139 -93.5t198.5 -34
q134 0 279.5 72.5t253.5 187.5l104 -129q-138 -144 -324 -226.5t-358 -82.5q-89 0 -173.5 21.5t-159.5 67.5t-131.5 111t-89.5 157.5t-33 201.5q0 97 22 193z" />
    <glyph glyph-name="D" unicode="D" horiz-adv-x="1650" 
d="M492 1434h720q107 -2 195 -30.5t148.5 -77.5t102.5 -116t61.5 -144t19.5 -163q0 -83 -23 -186q-25 -108 -75 -210t-126 -193t-169.5 -160t-213.5 -110.5t-251 -43.5h-719zM1159 1266h-524l-252 -1096h522q119 0 226.5 47t185 125t131.5 174.5t78 200.5q18 77 18 151
q0 82 -23.5 153t-69 126.5t-120.5 87t-172 31.5z" />
    <glyph glyph-name="E" unicode="E" horiz-adv-x="1409" 
d="M162 0l330 1434h1159l-37 -166h-979l-107 -467h850l-37 -166h-852l-108 -469h991l-39 -166h-1171z" />
    <glyph glyph-name="F" unicode="F" horiz-adv-x="1355" 
d="M162 0l330 1434h1157l-39 -166h-975l-125 -541h848l-37 -168h-848l-129 -559h-182z" />
    <glyph glyph-name="G" unicode="G" horiz-adv-x="1583" 
d="M1624 782l-180 -782h-117l-2 170q-112 -98 -242 -151.5t-254 -53.5q-89 0 -173.5 21.5t-159.5 67.5t-131.5 111t-89.5 157.5t-33 201.5q0 97 22 193q34 146 107.5 271t167 211.5t204 148.5t221 91t214.5 29q182 0 325.5 -80t212.5 -227l-164 -123q-55 114 -170.5 183
t-242.5 69q-134 0 -254 -49t-206 -130.5t-145.5 -182.5t-84.5 -211q-17 -69 -17 -148q0 -88 26 -163.5t78.5 -135t139 -93.5t198.5 -34q188 0 334.5 129t190.5 314l12 49h-352l35 147h530z" />
    <glyph glyph-name="H" unicode="H" horiz-adv-x="1613" 
d="M162 0l330 1434h182l-146 -633h928l148 633h182l-332 -1434h-182l145 635h-928l-145 -635h-182z" />
    <glyph glyph-name="I" unicode="I" horiz-adv-x="505" 
d="M162 0l330 1434h182l-330 -1434h-182z" />
    <glyph glyph-name="J" unicode="J" horiz-adv-x="1081" 
d="M854 504l215 930h182l-221 -955q-26 -111 -75.5 -200.5t-111 -149t-136.5 -99.5t-149 -57.5t-150 -17.5q-109 0 -199 37t-131 98l96 174q43 -57 115 -90t155 -33q137 0 252 90.5t158 272.5z" />
    <glyph glyph-name="K" unicode="K" horiz-adv-x="1536" 
d="M1243 0l-510 633l-303 -254l-86 -379h-182l330 1434h182l-180 -785l950 785h244l-805 -676l614 -758h-254z" />
    <glyph glyph-name="L" unicode="L" horiz-adv-x="1345" 
d="M162 0l330 1434h182l-293 -1268h965l-37 -166h-1147z" />
    <glyph glyph-name="M" unicode="M" horiz-adv-x="1921" 
d="M162 0l330 1434h182l352 -1149l883 1149h182l-332 -1434h-182l250 1079l-832 -1079h-69l-334 1079l-248 -1079h-182z" />
    <glyph glyph-name="N" unicode="N" horiz-adv-x="1671" 
d="M162 0l330 1434h182l715 -1170l270 1170h182l-330 -1434h-182l-715 1171l-270 -1171h-182z" />
    <glyph glyph-name="O" unicode="O" 
d="M1802 717q-34 -146 -109 -271t-171.5 -212t-210 -149t-227.5 -91t-222 -29q-93 0 -181 22t-167 68t-138 112t-93.5 159.5t-34.5 203.5q0 94 22 187q34 147 108.5 272t171 211.5t210.5 148t228 90.5t222 29q117 0 225 -36t196 -103.5t141 -178t53 -247.5q0 -88 -23 -186z
M1622 717q16 68 16 141q0 85 -26.5 156.5t-71.5 122t-105 86t-127.5 52.5t-138.5 17q-104 0 -214 -36.5t-211.5 -105t-181 -181.5t-111.5 -252q-19 -81 -19 -144q0 -104 40.5 -188.5t108 -136.5t150.5 -79.5t172 -27.5q104 0 214 36.5t212 105.5t181.5 182t111.5 252z" />
    <glyph glyph-name="P" unicode="P" horiz-adv-x="1368" 
d="M162 0l330 1434h704q85 0 150.5 -27t105.5 -74t60 -106.5t20 -128.5q0 -49 -14 -117q-20 -87 -66 -167t-112.5 -144.5t-158.5 -103t-194 -38.5h-522l-121 -528h-182zM504 696h514q118 0 203 84.5t112 200.5q10 45 10 80q0 89 -49 147t-145 58h-514z" />
    <glyph glyph-name="Q" unicode="Q" 
d="M1257 -250l-116 262q-143 -47 -279 -47q-93 0 -181 22t-167 68t-138 112t-93.5 159.5t-34.5 203.5q0 94 22 187q34 147 108.5 272t171 211.5t210.5 148t228 90.5t222 29q117 0 225 -36t196 -103.5t141 -178t53 -247.5q0 -88 -23 -186q-51 -219 -185.5 -381.5
t-316.5 -257.5l105 -234zM1622 717q16 68 16 141q0 85 -26.5 156.5t-71.5 122t-105 86t-127.5 52.5t-138.5 17q-104 0 -214 -36.5t-211.5 -105t-181 -181.5t-111.5 -252q-19 -81 -19 -144q0 -104 40.5 -188.5t108 -136.5t150.5 -79.5t172 -27.5q73 0 170 23l-86 188l148 97
l100 -224q141 74 244.5 198.5t142.5 293.5z" />
    <glyph glyph-name="R" unicode="R" horiz-adv-x="1527" 
d="M1264 0l-283 600h-500l-137 -600h-182l330 1434h763q169 0 255.5 -89t86.5 -225q0 -50 -12 -102q-32 -139 -139 -252t-262 -150l305 -616h-225zM520 770h561q122 0 206 73t108 173q6 30 6 59q0 82 -51.5 136.5t-153.5 54.5h-561z" />
    <glyph glyph-name="S" unicode="S" horiz-adv-x="1429" 
d="M1612 1268l-142 -144q-54 76 -182.5 123t-269.5 47q-78 0 -148.5 -15t-132 -46t-105 -84t-59.5 -123q-13 -54 8.5 -93t68.5 -61.5t111.5 -37.5t139 -27t150 -25t145.5 -35t124 -54t86 -86t32 -126q0 -35 -13 -92q-25 -109 -96.5 -194t-171 -135.5t-213.5 -76.5t-235 -26
q-193 0 -352 60t-220 165l146 137q49 -86 186.5 -138t294.5 -52q110 0 207 26.5t171 87t95 146.5q17 74 -21 121.5t-113 70.5t-169.5 38.5t-193 34t-180 48t-133.5 90t-52 150.5q0 49 10 90q21 90 69.5 163.5t114.5 123.5t147.5 84t167.5 49.5t177 15.5q175 0 327.5 -54.5
t223.5 -145.5z" />
    <glyph glyph-name="T" unicode="T" horiz-adv-x="1546" 
d="M369 1434h1472l-37 -162h-645l-295 -1272h-182l295 1272h-645z" />
    <glyph glyph-name="U" unicode="U" horiz-adv-x="1599" 
d="M289 555l203 879h182l-203 -879q-12 -53 -12 -100q0 -101 52 -174t135 -107.5t185 -34.5q88 0 175 27t163.5 77t134 131t80.5 181l203 879h182l-202 -879q-34 -146 -116 -263.5t-190 -190.5t-229.5 -111.5t-243.5 -38.5q-105 0 -197.5 28.5t-164.5 83t-114 142.5t-42 198
q0 68 19 152z" />
    <glyph glyph-name="V" unicode="V" horiz-adv-x="1630" 
d="M897 -20h-176l-352 1454h192l303 -1217l867 1217h190z" />
    <glyph glyph-name="W" unicode="W" horiz-adv-x="2195" 
d="M698 -20h-149l-180 1454h194l131 -1168l672 1168h125l133 -1168l668 1168h194l-850 -1454h-151l-135 1112z" />
    <glyph glyph-name="X" unicode="X" horiz-adv-x="1435" 
d="M1397 0h-236l-309 584l-578 -584h-235l733 735l-369 699h222l297 -551l551 551h221l-693 -699z" />
    <glyph glyph-name="Y" unicode="Y" horiz-adv-x="1449" 
d="M371 1434h211l315 -689l633 689h211l-789 -842l-137 -592h-182l137 592z" />
    <glyph glyph-name="Z" unicode="Z" horiz-adv-x="1335" 
d="M1487 1268l-1159 -1102h970l-36 -166h-1188l39 166h2l1171 1102h-901l37 166h1106l-39 -166h-2z" />
    <glyph glyph-name="bracketleft" unicode="[" horiz-adv-x="466" 
d="M47 -119l359 1553h317l-18 -80l-177 -21l-313 -1351l168 -21l-18 -80h-318z" />
    <glyph glyph-name="backslash" unicode="\" horiz-adv-x="1224" 
d="M406 1434h157l588 -1434h-156z" />
    <glyph glyph-name="bracketright" unicode="]" horiz-adv-x="473" 
d="M723 1434l-358 -1553h-318l19 80l178 21l311 1351l-168 21l19 80h317z" />
    <glyph glyph-name="asciicircum" unicode="^" horiz-adv-x="819" 
d="M305 956l387 478h113l168 -478h-166l-90 336l-246 -336h-166z" />
    <glyph glyph-name="underscore" unicode="_" horiz-adv-x="1136" 
d="M70 -29l30 138h987l-32 -138h-985z" />
    <glyph glyph-name="grave" unicode="`" horiz-adv-x="350" 
d="M356 1391l88 75l160 -219l-47 -45z" />
    <glyph glyph-name="a" unicode="a" horiz-adv-x="1411" 
d="M1331 1106h178l-254 -1106h-147l18 207q-94 -118 -217.5 -178t-251.5 -60q-121 0 -221.5 50t-163.5 151t-63 236q0 71 18 147q25 107 79 202t125.5 163.5t155 118.5t170 75t169.5 25q126 0 222 -60t136 -176zM408 553q-15 -61 -15 -117q0 -148 93.5 -231.5t230.5 -83.5
q101 0 197 45.5t176 146t112 240.5q17 80 17 129q0 146 -86 223.5t-218 77.5q-77 0 -155.5 -28.5t-149 -80.5t-124.5 -135.5t-78 -185.5z" />
    <glyph glyph-name="b" unicode="b" horiz-adv-x="1415" 
d="M158 0l354 1536h178l-147 -639q95 119 219 179.5t252 60.5q120 0 220 -50t163 -151t63 -236q0 -70 -18 -147q-30 -134 -105.5 -247t-172.5 -185t-206.5 -112t-214.5 -40q-130 0 -226 61t-134 181l-78 -211h-147zM1262 553q14 57 14 115q0 148 -93.5 231.5t-230.5 83.5
q-75 0 -149 -27t-140.5 -78.5t-118.5 -135.5t-77 -189q-16 -75 -16 -129q0 -147 86 -225t217 -78q77 0 156 28.5t149 81t124.5 136.5t78.5 186z" />
    <glyph glyph-name="c" unicode="c" horiz-adv-x="1323" 
d="M227 553q32 140 115.5 255t191.5 185.5t226 108t229 37.5q153 0 277 -62.5t184 -177.5l-158 -115q-43 97 -134 142t-206 45q-124 0 -230.5 -47t-175.5 -122t-108 -165t-39 -180q0 -138 91.5 -229t269.5 -91q258 0 426 185l104 -115q-117 -112 -273 -177t-300 -65
q-97 0 -186 28.5t-161 82t-115.5 141t-43.5 195.5q0 73 16 141z" />
    <glyph glyph-name="d" unicode="d" horiz-adv-x="1445" 
d="M227 553q25 107 79 202t125.5 163.5t155 118.5t170 75t169.5 25q126 0 222 -60t136 -176l146 635h180l-289 -1247q-8 -33 -8 -64q0 -36 21 -51.5t73 -15.5h14l-35 -158q-143 0 -208 47.5t-52 159.5q-93 -118 -217 -178t-252 -60q-121 0 -221.5 50t-163.5 151t-63 236
q0 71 18 147zM408 553q-15 -61 -15 -117q0 -148 93.5 -231.5t230.5 -83.5q75 0 149 26.5t140.5 77.5t118.5 135t77 189l2 6q15 67 15 125q0 147 -86.5 225t-217.5 78q-77 0 -155.5 -28.5t-149 -80.5t-124.5 -135.5t-78 -185.5z" />
    <glyph glyph-name="e" unicode="e" horiz-adv-x="1355" 
d="M227 553q32 140 115.5 255t191.5 185.5t226 108t229 37.5q200 0 318 -120.5t118 -318.5q0 -70 -14 -139l-999 2q-13 -57 -13 -102q0 -140 91.5 -233t269.5 -93q261 0 428 184l102 -112q-117 -112 -273 -177t-300 -65q-97 0 -186 28.5t-161 82t-115.5 141t-43.5 195.5
q0 73 16 141zM467 700h788q2 49 -16.5 98.5t-53.5 92.5t-95 69.5t-134 26.5q-165 0 -292.5 -80.5t-196.5 -206.5z" />
    <glyph glyph-name="f" unicode="f" horiz-adv-x="970" 
d="M205 0l221 954h-166l25 117l186 29q-31 64 -31 125q0 20 9 65q19 79 85.5 142t156.5 96t186 33q127 0 225 -61.5t133 -182.5l-131 -76q-28 76 -100 117t-158 41t-154 -41.5t-86 -114.5q-17 -78 39 -137h488l-33 -152h-488l-221 -954h-186z" />
    <glyph glyph-name="g" unicode="g" horiz-adv-x="1411" 
d="M1384 1106h125l-217 -942q-74 -322 -290.5 -500t-540.5 -178q-101 0 -211 30t-195 78l95 162q174 -108 376 -108q100 0 191 31t170 92.5t138 161.5t89 229l8 41q-93 -116 -215.5 -175t-249.5 -59q-121 0 -221.5 50t-163.5 151t-63 236q0 71 18 147q25 107 79 202
t125.5 163.5t155 118.5t170 75t169.5 25q126 0 222 -60t136 -176zM408 553q-15 -61 -15 -117q0 -148 93.5 -231.5t230.5 -83.5q101 0 197 45.5t176 146t112 240.5q17 80 17 129q0 146 -86 223.5t-218 77.5q-77 0 -155.5 -28.5t-149 -80.5t-124.5 -135.5t-78 -185.5z" />
    <glyph glyph-name="h" unicode="h" horiz-adv-x="1439" 
d="M336 0h-178l354 1536h178l-143 -627q175 219 452 219q197 0 306.5 -85.5t109.5 -251.5q0 -72 -16 -140l-84 -362q-8 -33 -8 -64q0 -36 21.5 -52.5t72.5 -16.5h14l-35 -156q-264 0 -264 182q0 30 10 78l70 297q27 118 27 188q0 115 -67 173.5t-224 58.5q-159 0 -285.5 -90
t-163.5 -248z" />
    <glyph glyph-name="i" unicode="i" horiz-adv-x="524" 
d="M442 1352q10 51 49.5 81.5t92.5 30.5q52 0 76.5 -30.5t13.5 -81.5q-12 -51 -51.5 -82t-90.5 -31q-53 0 -77.5 31t-12.5 82zM547 922l-146 -633q-10 -45 -10 -66q0 -34 21 -49.5t73 -15.5h15l-35 -158q-131 0 -195.5 39t-64.5 131q0 45 10 86l137 592q12 62 6 79
q-8 21 -34 21h-48l37 158h47q44 0 81.5 -11t66 -33t39.5 -58t0 -82z" />
    <glyph glyph-name="j" unicode="j" horiz-adv-x="585" 
d="M524 1352q12 51 51.5 81.5t92.5 30.5q52 0 76.5 -30.5t13.5 -81.5q-12 -51 -51.5 -82t-92.5 -31q-52 0 -76.5 31t-13.5 82zM258 68l240 1038h180l-242 -1049q-23 -96 -61.5 -171t-83 -122t-99 -77t-105.5 -42t-105 -12q-119 0 -203 48l84 153q76 -31 141 -31
q192 0 254 265z" />
    <glyph glyph-name="k" unicode="k" horiz-adv-x="1382" 
d="M158 0l334 1450h180l-203 -879l729 535h250l-614 -447q53 -3 96 -21t72.5 -47t53.5 -66t43 -77t37.5 -80t41 -75.5t49 -63t65.5 -43.5t88 -16l-37 -174q-70 0 -127 19.5t-96 52t-71 75t-56 89t-46.5 93t-47 88.5t-53 74t-69 50t-91.5 16l-266 -193l-84 -360h-178z" />
    <glyph glyph-name="l" unicode="l" horiz-adv-x="526" 
d="M512 1536h180l-289 -1247q-10 -42 -10 -64q0 -36 21.5 -51.5t72.5 -15.5h15l-35 -158q-131 0 -195.5 39t-64.5 131q0 45 10 86z" />
    <glyph glyph-name="m" unicode="m" horiz-adv-x="2002" 
d="M334 0h-178l198 866q9 31 4 56.5t-34 25.5h-48l37 158h47q86 0 142 -39.5t49 -116.5q157 178 389 178q273 0 307 -233q74 111 182.5 172t245.5 61q310 0 310 -294q0 -85 -23 -183l-82 -362q-10 -42 -10 -64q0 -36 22 -52.5t74 -16.5h14l-34 -156q-265 0 -265 180
q0 23 11 80l88 377q18 83 18 149q0 191 -186 191q-124 0 -227.5 -76.5t-149.5 -210.5q-4 -26 -8 -39l-150 -651l-180 2l145 635q21 96 21 149q0 191 -189 191q-137 0 -246.5 -89.5t-146.5 -248.5z" />
    <glyph glyph-name="n" unicode="n" horiz-adv-x="1437" 
d="M334 0h-178l198 866q9 31 4 56.5t-34 25.5h-48l37 158h47q90 0 146 -43t45 -127q84 90 199 141t247 51q199 0 308.5 -84.5t109.5 -250.5q0 -65 -18 -142l-84 -362q-8 -33 -8 -64q0 -36 21.5 -52.5t72.5 -16.5h14l-35 -156q-262 0 -262 178q0 43 10 82l68 297
q27 118 27 188q0 115 -67 173.5t-224 58.5t-285 -92.5t-164 -245.5z" />
    <glyph glyph-name="o" unicode="o" horiz-adv-x="1458" 
d="M1485 553q-26 -114 -86 -211t-138 -164.5t-170.5 -115.5t-186 -70.5t-181.5 -22.5q-77 0 -150.5 17t-139 53.5t-114.5 88t-77.5 125.5t-28.5 161q0 74 16 139q26 114 86 211t138 164.5t170.5 115.5t186 70.5t181.5 22.5q97 0 186.5 -28.5t162.5 -82t117 -141t44 -195.5
q0 -59 -16 -137zM1305 553q12 55 12 100q0 103 -54 178t-135 109.5t-174 34.5q-80 0 -164 -27t-161.5 -77.5t-137 -133t-83.5 -184.5q-13 -57 -13 -98q0 -78 31.5 -141.5t84 -102.5t116.5 -59.5t133 -20.5q80 0 164 27t161 77.5t136.5 133t83.5 184.5z" />
    <glyph glyph-name="p" unicode="p" horiz-adv-x="1415" 
d="M1442 553q-30 -134 -105.5 -247t-172.5 -185t-206.5 -112t-214.5 -40q-129 0 -225.5 60.5t-134.5 179.5l-152 -653h-178l297 1292q4 17 5 23t3.5 21.5t1 22.5t-4 16t-11 13t-20.5 4h-48l37 158h47q44 0 81.5 -11t66 -33t39.5 -58t0 -82l-6 -27q94 119 219 180.5t254 61.5
q120 0 220 -50t163 -151t63 -236q0 -70 -18 -147zM1262 553q14 57 14 115q0 148 -93.5 231.5t-230.5 83.5q-75 0 -149 -27t-140.5 -78.5t-118.5 -135.5t-77 -189q-16 -75 -16 -129q0 -147 86 -225t217 -78q77 0 156 28.5t149 81t124.5 136.5t78.5 186z" />
    <glyph glyph-name="q" unicode="q" horiz-adv-x="1411" 
d="M1374 1106h135l-354 -1536h-178l145 633q-93 -116 -215.5 -175t-249.5 -59q-121 0 -221.5 50t-163.5 151t-63 236q0 71 18 147q25 107 79 202t125.5 163.5t155 118.5t170 75t169.5 25q126 0 222 -60t136 -176zM408 553q-15 -61 -15 -117q0 -148 93.5 -231.5t230.5 -83.5
q75 0 149 27t140.5 78.5t118.5 135.5t77 189l2 2q15 68 15 125q0 148 -86.5 226.5t-217.5 78.5q-77 0 -155.5 -28.5t-149 -80.5t-124.5 -135.5t-78 -185.5z" />
    <glyph glyph-name="r" unicode="r" horiz-adv-x="915" 
d="M334 0h-178l198 866q9 31 4 56.5t-34 25.5h-48l37 158h47q44 0 81.5 -11t66 -33t39.5 -58t0 -82l-2 -9q88 96 191.5 152.5t211.5 56.5q84 0 158 -35l-78 -151q-43 16 -96 16q-86 0 -181.5 -37t-170.5 -105.5t-93 -147.5z" />
    <glyph glyph-name="s" unicode="s" horiz-adv-x="1306" 
d="M1413 967l-127 -129q-49 61 -174.5 102t-259.5 41q-133 0 -229.5 -45.5t-118.5 -138.5q-11 -50 25.5 -82t104.5 -48.5t152.5 -29t171 -29.5t159 -43.5t118 -78.5t45.5 -126q0 -34 -8 -67q-20 -87 -82 -154.5t-150.5 -108t-190 -61t-210.5 -20.5q-173 0 -314.5 48
t-195.5 132l139 125q42 -68 165.5 -110t266.5 -42q96 0 177 19.5t141.5 64t75.5 109.5q13 56 -22.5 91.5t-102.5 52.5t-151.5 29t-171 27.5t-158.5 39.5t-118 75t-46 125q0 35 8 68q26 114 115.5 191t204 109t249.5 32q162 0 305 -46t207 -122z" />
    <glyph glyph-name="t" unicode="t" horiz-adv-x="1019" 
d="M590 1313l123 2l-49 -209h497l-33 -150l-499 -2l-133 -581q-15 -69 -15 -103q0 -157 178 -157q139 0 271 116l55 -118q-191 -166 -377 -166q-156 0 -234.5 70t-78.5 202q0 70 16 135l140 602h-191l35 152h190z" />
    <glyph glyph-name="u" unicode="u" horiz-adv-x="1423" 
d="M256 457l152 649h178l-150 -649q-10 -39 -10 -88q0 -120 82 -185t205 -65q148 0 278 91t168 253l150 643h178l-189 -817q-8 -33 -8 -64q0 -36 20.5 -51.5t71.5 -15.5h17l-37 -158q-132 0 -196.5 40t-63.5 134q-91 -100 -214.5 -153.5t-248.5 -53.5q-169 0 -283 95
t-114 268q0 64 14 127z" />
    <glyph glyph-name="v" unicode="v" horiz-adv-x="1386" 
d="M778 -20h-180l-303 1126h199l235 -948l674 948h201z" />
    <glyph glyph-name="w" unicode="w" horiz-adv-x="1892" 
d="M625 -20h-156l-176 1126h192l123 -891l535 891h117l122 -893l537 893h190l-696 -1126h-156l-127 817z" />
    <glyph glyph-name="x" unicode="x" horiz-adv-x="1277" 
d="M1239 0h-233l-271 422l-463 -422h-233l614 553l-354 553h221l275 -424l473 424h219l-608 -553z" />
    <glyph glyph-name="y" unicode="y" horiz-adv-x="1404" 
d="M272 457l150 649h178l-149 -649q-11 -45 -11 -90q0 -123 82 -190.5t205 -67.5q92 0 180 36t161 114.5t101 186.5l154 660h178l-217 -942q-74 -323 -285.5 -500.5t-533.5 -177.5q-102 0 -213 30.5t-193 77.5l95 162q67 -43 166.5 -70.5t193.5 -27.5q113 0 203 25t152 68
t109.5 108.5t76 136.5t49.5 162q-91 -97 -211 -148t-242 -51q-108 0 -196 40t-143.5 124.5t-55.5 202.5q0 56 16 131z" />
    <glyph glyph-name="z" unicode="z" horiz-adv-x="1216" 
d="M1327 942l-993 -778h860l-37 -164h-1100l39 164l1008 778h-778l39 164h1001z" />
    <glyph glyph-name="braceleft" unicode="{" horiz-adv-x="585" 
d="M244 733q76 -1 125.5 23t72.5 66t33.5 96t14 114t9 120.5t24 115t52.5 96.5t101.5 67t165.5 25l-21 -108q-68 0 -110 -28t-59 -75.5t-24.5 -106.5t-13 -126t-17 -128.5t-44.5 -119t-88 -92.5q47 -44 47 -121q0 -62 -31 -153t-61.5 -176t-30.5 -132q0 -94 119 -94
l-29 -109q-235 0 -235 152q0 47 21 114t46.5 123.5t46.5 120.5t21 105q0 54 -37.5 81.5t-124.5 26.5z" />
    <glyph glyph-name="bar" unicode="|" horiz-adv-x="264" 
d="M33 -188l373 1622h112l-373 -1622h-112z" />
    <glyph glyph-name="braceright" unicode="}" horiz-adv-x="585" 
d="M680 733l-29 -123q-78 1 -128 -23t-73 -66t-33 -96t-12.5 -114t-7 -120.5t-22.5 -115t-52 -96.5t-102 -67t-166 -25l21 109q67 0 108 28t58 75.5t24 106.5t13.5 125.5t18 128t44.5 119t88 93.5q-47 42 -47 121q0 61 31.5 151.5t62.5 175.5t31 133q0 95 -121 95l29 108
q128 0 181.5 -40t53.5 -113q0 -70 -64.5 -235.5t-64.5 -225.5q0 -54 36.5 -82t121.5 -27z" />
    <glyph glyph-name="asciitilde" unicode="~" horiz-adv-x="966" 
d="M317 565l-96 70q151 199 275 199q40 0 83.5 -18.5t76 -41t73.5 -41t76 -18.5q81 0 166 100l92 -67q-147 -181 -272 -181q-41 0 -85 18t-76 39.5t-72 39.5t-73 18q-84 0 -168 -117z" />
    <glyph glyph-name="exclamdown" unicode="&#xa1;" horiz-adv-x="301" 
d="M471 938q-9 -44 -47.5 -75.5t-81.5 -31.5q-44 0 -67.5 31t-14.5 76q11 45 48.5 75.5t82.5 30.5q43 0 66.5 -31t13.5 -75zM371 694l-219 -1093h-191l287 1093h123z" />
    <glyph glyph-name="cent" unicode="&#xa2;" horiz-adv-x="1107" 
d="M848 1368l145 -4l-39 -164q175 -11 314 -166l-154 -121q-75 113 -194 131l-183 -786q147 16 285 148l72 -136q-208 -153 -392 -168l-32 -141l-146 6l33 144q-176 28 -266 140t-90 269q0 59 16 131q22 95 72 183.5t123 163t175.5 127t219.5 69.5zM594 268l176 766
q-122 -25 -216.5 -102.5t-141.5 -175t-47 -197.5q0 -107 57.5 -185.5t171.5 -105.5z" />
    <glyph glyph-name="sterling" unicode="&#xa3;" horiz-adv-x="1222" 
d="M1296 1440l-34 -150q-48 0 -91.5 -15.5t-78 -38.5t-70.5 -65t-61.5 -79.5t-58 -98.5t-53.5 -105t-54 -116q-11 -25 -17 -37h244l-33 -145h-282q-75 -146 -154 -253t-182 -177h815l-37 -160h-1063l27 119q134 80 231.5 197.5t181.5 273.5h-313l33 145h354q15 31 43 92
q43 92 65.5 137.5t65.5 123t75 118t83 93t101.5 78t118 44.5t144.5 19z" />
    <glyph glyph-name="yen" unicode="&#xa5;" horiz-adv-x="1447" 
d="M453 543l32 143h238l-354 748h211l315 -689l633 689h211l-701 -748h230l-33 -143h-297l-35 -152h297l-33 -145h-297l-57 -246h-182l57 246h-305l35 145h303l37 152h-305z" />
    <glyph glyph-name="dieresis" unicode="&#xa8;" horiz-adv-x="407" 
d="M342 1309q8 29 31.5 48t52.5 19q27 0 42 -19t9 -48q-6 -26 -31 -46t-51 -20q-29 0 -44 19.5t-9 46.5zM537 1309q6 28 31.5 47.5t54.5 19.5q24 0 38.5 -19.5t8.5 -47.5q-6 -26 -30 -46t-48 -20q-28 0 -44.5 20t-10.5 46z" />
    <glyph glyph-name="copyright" unicode="&#xa9;" horiz-adv-x="1327" 
d="M227 692q37 161 149 298t268 216.5t317 79.5q210 0 342.5 -131.5t132.5 -331.5q0 -57 -17 -133q-37 -162 -149.5 -299.5t-268 -217t-317.5 -79.5q-210 0 -341.5 131.5t-131.5 331.5q0 60 16 135zM295 690q-14 -57 -14 -119q0 -177 117.5 -293t303.5 -116q143 0 281 71.5
t237 193.5t132 265q14 72 14 117q0 178 -118 294t-304 116q-143 0 -281 -71.5t-236 -193.5t-132 -264zM991 471l29 -53q-142 -96 -279 -96q-136 0 -221.5 86t-85.5 217q0 38 10 86q37 159 178.5 273t301.5 114q132 0 231 -99l-55 -49q-80 80 -195 80q-132 0 -247 -94.5
t-146 -226.5q-8 -33 -8 -72q0 -107 71.5 -177.5t184.5 -70.5q109 0 231 82z" />
    <glyph glyph-name="guillemotleft" unicode="&#xab;" horiz-adv-x="790" 
d="M471 680l16 76l525 518l-45 -189l-375 -366l205 -369l-43 -188zM231 680l19 74l522 518l-43 -187l-375 -368l205 -369l-43 -186z" />
    <glyph glyph-name="registered" unicode="&#xae;" horiz-adv-x="712" 
d="M346 1204q28 117 130.5 199t219.5 82q99 0 161.5 -62t62.5 -157q0 -27 -7 -62q-28 -117 -128.5 -200.5t-219.5 -83.5q-101 0 -164 63t-63 158q0 17 8 63zM389 1204q-23 -99 32 -171t154 -72q100 0 187.5 72.5t111.5 170.5q22 98 -33 170t-153 72q-101 0 -189 -71
t-110 -171zM639 1165l80 -133h-51l-74 129h-45l-31 -129h-39l82 348h107q53 -2 79.5 -31.5t16.5 -76.5q-9 -40 -44 -69.5t-81 -37.5zM592 1350l-35 -152h57q42 0 73 19.5t38 54.5q9 37 -12 57.5t-62 20.5h-59z" />
    <glyph glyph-name="degree" unicode="&#xb0;" horiz-adv-x="657" 
d="M547 913q-100 0 -151.5 56.5t-51.5 144.5q0 80 39 159t117 134t174 55q99 0 149.5 -56.5t50.5 -143.5q0 -81 -38.5 -160t-115.5 -134t-173 -55zM651 1362q-83 0 -137.5 -71t-54.5 -152q0 -55 27.5 -89t84.5 -34q81 0 136 72t55 153q0 53 -28.5 87t-82.5 34z" />
    <glyph glyph-name="plusminus" unicode="&#xb1;" horiz-adv-x="962" 
d="M674 1169h155l-75 -327h327l-34 -150h-328l-74 -315h-156l74 315h-327l34 150h328zM80 0l35 150h800l-34 -150h-801z" />
    <glyph glyph-name="acute" unicode="&#xb4;" horiz-adv-x="350" 
d="M328 1264l262 221l51 -78l-287 -186z" />
    <glyph glyph-name="periodcentered" unicode="&#xb7;" horiz-adv-x="360" 
d="M315 725q3 14 15.5 24.5t25.5 10.5q14 0 21.5 -11t3.5 -24q-3 -14 -14.5 -23.5t-26.5 -9.5q-14 0 -21.5 10t-3.5 23z" />
    <glyph glyph-name="cedilla" unicode="&#xb8;" horiz-adv-x="331" 
d="M166 51l65 -22l-67 -111q78 -20 78 -92q0 -53 -43.5 -99t-102.5 -46q-24 0 -45 6t-34.5 14.5t-24 17.5t-14.5 15l-5 6l50 63q7 -23 30.5 -38t48.5 -15q49 0 60 47q9 31 -15 57t-81 27z" />
    <glyph glyph-name="guillemotright" unicode="&#xbb;" horiz-adv-x="800" 
d="M369 1274l282 -520l-18 -74l-520 -520l43 188l372 369l-202 368zM616 1272l283 -518l-16 -74l-523 -518l43 186l375 369l-205 368z" />
    <glyph glyph-name="questiondown" unicode="&#xbf;" horiz-adv-x="1185" 
d="M1018 977q-11 -44 -49 -75.5t-82 -31.5t-67.5 31.5t-12.5 75.5q9 44 47 75t82 31t68 -31t14 -75zM260 10q-26 -117 41.5 -177t192.5 -60q129 0 270.5 61.5t230.5 165.5l86 -131q-111 -119 -279.5 -186.5t-334.5 -67.5q-114 0 -202.5 31t-143.5 100t-55 168q0 53 10 94
q22 94 69 165t105.5 114t125.5 77.5t133 66.5t123.5 70t101.5 98.5t63 141.5h127q-22 -104 -66.5 -182t-99 -125t-115.5 -83.5t-121.5 -67t-112.5 -64t-92 -86t-57 -123.5z" />
    <glyph glyph-name="Agrave" unicode="&#xc0;" horiz-adv-x="1628" 
d="M1069 1718l88 76l160 -219l-47 -45zM37 0l1024 1454h176l352 -1454h-190l-62 248h-931l-177 -248h-192zM524 416h770l-200 801z" />
    <glyph glyph-name="Aacute" unicode="&#xc1;" horiz-adv-x="1628" 
d="M1040 1591l263 221l51 -77l-287 -187zM37 0l1024 1454h176l352 -1454h-190l-62 248h-931l-177 -248h-192zM524 416h770l-200 801z" />
    <glyph glyph-name="Acircumflex" unicode="&#xc2;" horiz-adv-x="1628" 
d="M1083 1567h-77l168 205h96l76 -205h-80l-60 131zM37 0l1024 1454h176l352 -1454h-190l-62 248h-931l-177 -248h-192zM524 416h770l-200 801z" />
    <glyph glyph-name="Atilde" unicode="&#xc3;" horiz-adv-x="1628" 
d="M995 1583l-18 57q30 24 46 35.5t47.5 25t62.5 13.5q32 0 74 -29.5t71 -29.5q48 0 113 49l16 -64q-28 -23 -69.5 -41t-77.5 -18q-41 0 -84.5 29.5t-67.5 29.5q-45 0 -113 -57zM37 0l1024 1454h176l352 -1454h-190l-62 248h-931l-177 -248h-192zM524 416h770l-200 801z" />
    <glyph glyph-name="Adieresis" unicode="&#xc4;" horiz-adv-x="1628" 
d="M1028 1636q6 29 30.5 48.5t53.5 19.5q26 0 41 -20t8 -48q-4 -26 -29.5 -45.5t-50.5 -19.5q-29 0 -44 19t-9 46zM1221 1636q7 29 32.5 48.5t55.5 19.5q24 0 38 -20t7 -48q-6 -26 -29 -45.5t-47 -19.5q-29 0 -45.5 19t-11.5 46zM37 0l1024 1454h176l352 -1454h-190l-62 248
h-931l-177 -248h-192zM524 416h770l-200 801z" />
    <glyph glyph-name="Aring" unicode="&#xc5;" horiz-adv-x="1628" 
d="M37 0l1024 1454h4q-41 30 -41 88q0 69 55.5 128t141.5 59q61 0 91.5 -32t30.5 -81q0 -47 -28 -94t-76 -72l350 -1450h-190l-62 248h-931l-177 -248h-192zM1202 1659q-43 0 -71.5 -31.5t-28.5 -68.5q0 -27 15.5 -43.5t47.5 -16.5q43 0 71 31.5t28 68.5q0 26 -15.5 43
t-46.5 17zM524 416h770l-200 801z" />
    <glyph glyph-name="AE" unicode="&#xc6;" horiz-adv-x="2482" 
d="M39 0l1509 1434h1178l-39 -166h-977l-108 -467h852l-39 -166h-852l-107 -469h989l-39 -166h-1171l57 248h-778l-264 -248h-211zM694 416h637l174 755z" />
    <glyph glyph-name="Ccedilla" unicode="&#xc7;" horiz-adv-x="1544" 
d="M264 717q33 146 106 271t167 211.5t204.5 148.5t220.5 91t214 29q182 0 326.5 -80t213.5 -227l-160 -125q-54 115 -172 185.5t-245 70.5q-135 0 -255 -49t-206 -131t-145 -183.5t-84 -211.5q-19 -78 -19 -150q0 -88 26.5 -163.5t79.5 -134.5t139 -92.5t197 -33.5
q134 0 280.5 72.5t254.5 187.5l104 -129q-140 -145 -325.5 -227t-382.5 -82l-29 -47q78 -20 78 -92q0 -54 -42 -99.5t-101 -45.5q-24 0 -45 6t-34.5 14.5t-24 17.5t-15.5 15l-4 6l47 63q9 -23 33 -38t49 -15q46 0 57 47q9 32 -14 57.5t-80 26.5l53 90q-99 14 -186 56
t-156 109t-109 167.5t-40 220.5q0 88 24 193z" />
    <glyph glyph-name="Egrave" unicode="&#xc8;" horiz-adv-x="1409" 
d="M958 1718l89 76l161 -219l-49 -45zM160 0l332 1434h1159l-39 -166h-977l-109 -467h852l-39 -166h-850l-108 -469h989l-39 -166h-1171z" />
    <glyph glyph-name="Eacute" unicode="&#xc9;" horiz-adv-x="1409" 
d="M930 1591l262 221l53 -77l-287 -187zM160 0l332 1434h1159l-39 -166h-977l-109 -467h852l-39 -166h-850l-108 -469h989l-39 -166h-1171z" />
    <glyph glyph-name="Ecircumflex" unicode="&#xca;" horiz-adv-x="1409" 
d="M975 1567h-80l170 205h96l74 -205h-80l-59 131zM160 0l332 1434h1159l-39 -166h-977l-109 -467h852l-39 -166h-850l-108 -469h989l-39 -166h-1171z" />
    <glyph glyph-name="Edieresis" unicode="&#xcb;" horiz-adv-x="1409" 
d="M918 1636q6 29 30 48.5t53 19.5q27 0 42.5 -19.5t9.5 -48.5q-6 -26 -31 -45.5t-51 -19.5q-29 0 -44 19t-9 46zM1112 1636q6 29 31.5 48.5t54.5 19.5q24 0 38.5 -19.5t8.5 -48.5q-6 -26 -30 -45.5t-48 -19.5q-28 0 -44.5 19.5t-10.5 45.5zM160 0l332 1434h1159l-39 -166
h-977l-109 -467h852l-39 -166h-850l-108 -469h989l-39 -166h-1171z" />
    <glyph glyph-name="Igrave" unicode="&#xcc;" horiz-adv-x="505" 
d="M508 1718l88 76l160 -219l-47 -45zM160 0l332 1434h182l-332 -1434h-182z" />
    <glyph glyph-name="Iacute" unicode="&#xcd;" horiz-adv-x="505" 
d="M479 1591l262 221l52 -77l-287 -187zM160 0l332 1434h182l-332 -1434h-182z" />
    <glyph glyph-name="Icircumflex" unicode="&#xce;" horiz-adv-x="505" 
d="M522 1567h-78l168 205h97l75 -205h-79l-60 131zM160 0l332 1434h182l-332 -1434h-182z" />
    <glyph glyph-name="Idieresis" unicode="&#xcf;" horiz-adv-x="505" 
d="M467 1636q6 29 30.5 48.5t53.5 19.5q26 0 41 -20t8 -48q-6 -26 -30.5 -45.5t-49.5 -19.5q-29 0 -44 19t-9 46zM659 1636q7 29 33 48.5t56 19.5q24 0 38 -20t7 -48q-6 -26 -29 -45.5t-47 -19.5q-29 0 -46.5 19.5t-11.5 45.5zM160 0l332 1434h182l-332 -1434h-182z" />
    <glyph glyph-name="Eth" unicode="&#xd0;" horiz-adv-x="1650" 
d="M492 1434h718q133 -2 236.5 -45t166.5 -117t94.5 -167t31.5 -202q0 -83 -23 -186q-25 -108 -75 -210t-126 -193t-169.5 -160t-213.5 -110.5t-251 -43.5h-721l170 737h-103l35 148h103zM1157 1266h-522l-88 -381h649l-35 -148h-649l-131 -567h522q119 0 226.5 47t185 125
t131.5 174.5t78 200.5q18 77 18 151q0 83 -23 153.5t-68.5 126t-121 87t-172.5 31.5z" />
    <glyph glyph-name="Ntilde" unicode="&#xd1;" horiz-adv-x="1671" 
d="M1018 1583l-21 57q33 25 48 35.5t47 24.5t61 14q34 0 76 -29.5t71 -29.5q48 0 113 49l17 -64q-28 -23 -70 -41t-78 -18q-41 0 -84.5 29.5t-67.5 29.5q-44 0 -112 -57zM160 0l332 1434h182l715 -1170l270 1170h182l-332 -1434h-182l-715 1171l-270 -1171h-182z" />
    <glyph glyph-name="Ograve" unicode="&#xd2;" 
d="M1126 1718l88 76l160 -219l-47 -45zM1802 717q-34 -146 -109 -271t-171.5 -212t-210 -149t-227.5 -91t-222 -29q-93 0 -181.5 22t-167.5 68t-138.5 112t-94 159.5t-34.5 203.5q0 94 22 187q34 147 109 272t171.5 211.5t210.5 148t227.5 90.5t221.5 29q93 0 181.5 -22
t167.5 -68t138.5 -111.5t94.5 -159t35 -204.5q0 -88 -23 -186zM1620 717q18 77 18 143q0 104 -40.5 188.5t-108 136.5t-150.5 79.5t-172 27.5q-104 0 -213.5 -36.5t-211 -105t-180.5 -181.5t-111 -252q-19 -81 -19 -144q0 -104 40 -188.5t107.5 -136.5t150 -79.5
t171.5 -27.5q104 0 214.5 36.5t212.5 105.5t181 182t111 252z" />
    <glyph glyph-name="Oacute" unicode="&#xd3;" 
d="M1096 1591l262 221l53 -77l-287 -187zM1802 717q-34 -146 -109 -271t-171.5 -212t-210 -149t-227.5 -91t-222 -29q-93 0 -181.5 22t-167.5 68t-138.5 112t-94 159.5t-34.5 203.5q0 94 22 187q34 147 109 272t171.5 211.5t210.5 148t227.5 90.5t221.5 29q93 0 181.5 -22
t167.5 -68t138.5 -111.5t94.5 -159t35 -204.5q0 -88 -23 -186zM1620 717q18 77 18 143q0 104 -40.5 188.5t-108 136.5t-150.5 79.5t-172 27.5q-104 0 -213.5 -36.5t-211 -105t-180.5 -181.5t-111 -252q-19 -81 -19 -144q0 -104 40 -188.5t107.5 -136.5t150 -79.5
t171.5 -27.5q104 0 214.5 36.5t212.5 105.5t181 182t111 252z" />
    <glyph glyph-name="Ocircumflex" unicode="&#xd4;" 
d="M1141 1567h-80l170 205h96l74 -205h-78l-61 131zM1802 717q-34 -146 -109 -271t-171.5 -212t-210 -149t-227.5 -91t-222 -29q-93 0 -181.5 22t-167.5 68t-138.5 112t-94 159.5t-34.5 203.5q0 94 22 187q34 147 109 272t171.5 211.5t210.5 148t227.5 90.5t221.5 29
q93 0 181.5 -22t167.5 -68t138.5 -111.5t94.5 -159t35 -204.5q0 -88 -23 -186zM1620 717q18 77 18 143q0 104 -40.5 188.5t-108 136.5t-150.5 79.5t-172 27.5q-104 0 -213.5 -36.5t-211 -105t-180.5 -181.5t-111 -252q-19 -81 -19 -144q0 -104 40 -188.5t107.5 -136.5
t150 -79.5t171.5 -27.5q104 0 214.5 36.5t212.5 105.5t181 182t111 252z" />
    <glyph glyph-name="Otilde" unicode="&#xd5;" 
d="M1053 1583l-21 57q28 22 46 35t49.5 26t60.5 13q32 0 75 -29.5t72 -29.5q48 0 113 49l16 -64q-28 -23 -69.5 -41t-77.5 -18q-41 0 -84.5 29.5t-67.5 29.5q-44 0 -112 -57zM1802 717q-34 -146 -109 -271t-171.5 -212t-210 -149t-227.5 -91t-222 -29q-93 0 -181.5 22
t-167.5 68t-138.5 112t-94 159.5t-34.5 203.5q0 94 22 187q34 147 109 272t171.5 211.5t210.5 148t227.5 90.5t221.5 29q93 0 181.5 -22t167.5 -68t138.5 -111.5t94.5 -159t35 -204.5q0 -88 -23 -186zM1620 717q18 77 18 143q0 104 -40.5 188.5t-108 136.5t-150.5 79.5
t-172 27.5q-104 0 -213.5 -36.5t-211 -105t-180.5 -181.5t-111 -252q-19 -81 -19 -144q0 -104 40 -188.5t107.5 -136.5t150 -79.5t171.5 -27.5q104 0 214.5 36.5t212.5 105.5t181 182t111 252z" />
    <glyph glyph-name="Odieresis" unicode="&#xd6;" 
d="M1083 1636q7 29 31.5 48.5t52.5 19.5q27 0 42.5 -19.5t9.5 -48.5q-6 -26 -31 -45.5t-51 -19.5q-28 0 -44 19.5t-10 45.5zM1278 1636q6 29 32 48.5t56 19.5q24 0 37.5 -19.5t7.5 -48.5q-6 -26 -29.5 -45.5t-48.5 -19.5q-28 0 -44.5 19.5t-10.5 45.5zM1802 717
q-34 -146 -109 -271t-171.5 -212t-210 -149t-227.5 -91t-222 -29q-93 0 -181.5 22t-167.5 68t-138.5 112t-94 159.5t-34.5 203.5q0 94 22 187q34 147 109 272t171.5 211.5t210.5 148t227.5 90.5t221.5 29q93 0 181.5 -22t167.5 -68t138.5 -111.5t94.5 -159t35 -204.5
q0 -88 -23 -186zM1620 717q18 77 18 143q0 104 -40.5 188.5t-108 136.5t-150.5 79.5t-172 27.5q-104 0 -213.5 -36.5t-211 -105t-180.5 -181.5t-111 -252q-19 -81 -19 -144q0 -104 40 -188.5t107.5 -136.5t150 -79.5t171.5 -27.5q104 0 214.5 36.5t212.5 105.5t181 182
t111 252z" />
    <glyph glyph-name="multiply" unicode="&#xd7;" horiz-adv-x="839" 
d="M297 940l137 109l176 -224l289 232l84 -111l-287 -229l178 -225l-139 -105l-176 221l-287 -229l-84 110l285 228z" />
    <glyph glyph-name="Oslash" unicode="&#xd8;" 
d="M1802 717q-34 -146 -109 -271t-171.5 -212t-210 -149t-227.5 -91t-222 -29q-183 0 -334 80l-39 -45h-157l98 113q-184 156 -184 417q0 83 22 187q34 147 109 272t171.5 211.5t210.5 148t227.5 90.5t221.5 29q185 0 334 -79l39 45h158l-99 -113q185 -157 185 -418
q0 -78 -23 -186zM561 264l848 973q-107 55 -242 55q-104 0 -213.5 -36.5t-211 -105t-180.5 -181.5t-111 -252q-19 -81 -19 -144q0 -190 129 -309zM1620 717q16 68 16 143q0 192 -127 309l-850 -972q112 -56 242 -56q104 0 214.5 36.5t212.5 105.5t181 182t111 252z" />
    <glyph glyph-name="Ugrave" unicode="&#xd9;" horiz-adv-x="1599" 
d="M1055 1718l88 76l160 -219l-48 -45zM289 555l203 879h182l-203 -879q-12 -55 -12 -100q0 -101 52 -174t135 -107.5t185 -34.5q87 0 173.5 27t163 77t134 131t80.5 181l205 879h180l-202 -879q-33 -146 -115 -263.5t-190 -190.5t-229.5 -111.5t-242.5 -38.5
q-105 0 -197.5 28.5t-164.5 83t-114 142.5t-42 198q0 68 19 152z" />
    <glyph glyph-name="Uacute" unicode="&#xda;" horiz-adv-x="1599" 
d="M1026 1591l262 221l51 -77l-286 -187zM289 555l203 879h182l-203 -879q-12 -55 -12 -100q0 -101 52 -174t135 -107.5t185 -34.5q87 0 173.5 27t163 77t134 131t80.5 181l205 879h180l-202 -879q-33 -146 -115 -263.5t-190 -190.5t-229.5 -111.5t-242.5 -38.5
q-105 0 -197.5 28.5t-164.5 83t-114 142.5t-42 198q0 68 19 152z" />
    <glyph glyph-name="Ucircumflex" unicode="&#xdb;" horiz-adv-x="1599" 
d="M1069 1567h-78l168 205h96l76 -205h-80l-59 131zM289 555l203 879h182l-203 -879q-12 -55 -12 -100q0 -101 52 -174t135 -107.5t185 -34.5q87 0 173.5 27t163 77t134 131t80.5 181l205 879h180l-202 -879q-33 -146 -115 -263.5t-190 -190.5t-229.5 -111.5t-242.5 -38.5
q-105 0 -197.5 28.5t-164.5 83t-114 142.5t-42 198q0 68 19 152z" />
    <glyph glyph-name="Udieresis" unicode="&#xdc;" horiz-adv-x="1599" 
d="M1014 1636q6 29 30.5 48.5t53.5 19.5q26 0 41 -20t8 -48q-6 -26 -30.5 -45.5t-49.5 -19.5q-29 0 -44 19t-9 46zM1206 1636q7 29 32.5 48.5t55.5 19.5q24 0 38 -20t7 -48q-6 -26 -29 -45.5t-46 -19.5q-29 0 -46.5 19.5t-11.5 45.5zM289 555l203 879h182l-203 -879
q-12 -55 -12 -100q0 -101 52 -174t135 -107.5t185 -34.5q87 0 173.5 27t163 77t134 131t80.5 181l205 879h180l-202 -879q-33 -146 -115 -263.5t-190 -190.5t-229.5 -111.5t-242.5 -38.5q-105 0 -197.5 28.5t-164.5 83t-114 142.5t-42 198q0 68 19 152z" />
    <glyph glyph-name="Yacute" unicode="&#xdd;" horiz-adv-x="1449" 
d="M950 1591l262 221l54 -77l-287 -187zM369 1434h213l313 -689l633 689h213l-789 -842l-137 -592h-182l137 592z" />
    <glyph glyph-name="Thorn" unicode="&#xde;" horiz-adv-x="1486" 
d="M162 0l330 1434h188l-62 -265h578q182 0 275.5 -97t93.5 -245q0 -50 -13 -110q-20 -87 -68 -167t-118.5 -144.5t-169 -103t-209.5 -38.5h-577l-62 -264h-186zM449 432h567q104 0 187.5 56t125 136.5t41.5 163.5q0 92 -56.5 152.5t-166.5 60.5h-567z" />
    <glyph glyph-name="germandbls" unicode="&#xdf;" horiz-adv-x="1468" 
d="M305 -2l-180 4l231 1010q29 123 90.5 219t140.5 152.5t166 85t177 28.5q103 0 188.5 -35.5t139 -105.5t53.5 -162q0 -28 -11 -78q-11 -48 -39 -90.5t-60.5 -72t-64.5 -53.5t-55.5 -47t-27.5 -42q-4 -18 18 -34.5t61 -32.5t87 -34.5t97 -45t89.5 -58.5t66 -81t25.5 -107
q0 -36 -8 -72q-23 -98 -81.5 -174.5t-138 -121.5t-167.5 -68t-180 -23q-127 0 -228.5 40.5t-142.5 109.5l121 114q29 -41 110 -68.5t176 -27.5q58 0 110.5 11.5t100 36t81 67t46.5 98.5q14 60 -5 107t-60 77t-93.5 55t-105.5 45.5t-96 42.5t-65 54t-13 72q9 39 36.5 73
t61 60t68 52.5t62.5 62t38 77.5q22 99 -44 164.5t-173 65.5q-56 0 -111 -21t-107.5 -62.5t-94 -113.5t-62.5 -166z" />
    <glyph glyph-name="agrave" unicode="&#xe0;" horiz-adv-x="1376" 
d="M868 1391l88 75l160 -219l-47 -45zM1331 1106h178l-256 -1106h-147l20 207q-95 -118 -219 -178t-252 -60q-120 0 -220 50t-163 151.5t-63 237.5q0 77 16 145q25 107 79 202t125.5 163.5t155 118.5t171 75t170.5 25q126 0 222 -60t134 -176zM408 553q-15 -61 -15 -117
q0 -148 93.5 -231.5t230.5 -83.5q101 0 197 45.5t176 146t112 240.5q17 80 17 127q0 147 -86.5 225t-217.5 78q-77 0 -156 -28.5t-149.5 -80.5t-124.5 -135.5t-77 -185.5z" />
    <glyph glyph-name="aacute" unicode="&#xe1;" horiz-adv-x="1376" 
d="M838 1264l264 221l51 -78l-287 -186zM1331 1106h178l-256 -1106h-147l20 207q-95 -118 -219 -178t-252 -60q-120 0 -220 50t-163 151.5t-63 237.5q0 77 16 145q25 107 79 202t125.5 163.5t155 118.5t171 75t170.5 25q126 0 222 -60t134 -176zM408 553q-15 -61 -15 -117
q0 -148 93.5 -231.5t230.5 -83.5q101 0 197 45.5t176 146t112 240.5q17 80 17 127q0 147 -86.5 225t-217.5 78q-77 0 -156 -28.5t-149.5 -80.5t-124.5 -135.5t-77 -185.5z" />
    <glyph glyph-name="acircumflex" unicode="&#xe2;" horiz-adv-x="1376" 
d="M883 1239h-80l170 205h96l74 -205h-78l-61 131zM1331 1106h178l-256 -1106h-147l20 207q-95 -118 -219 -178t-252 -60q-120 0 -220 50t-163 151.5t-63 237.5q0 77 16 145q25 107 79 202t125.5 163.5t155 118.5t171 75t170.5 25q126 0 222 -60t134 -176zM408 553
q-15 -61 -15 -117q0 -148 93.5 -231.5t230.5 -83.5q101 0 197 45.5t176 146t112 240.5q17 80 17 127q0 147 -86.5 225t-217.5 78q-77 0 -156 -28.5t-149.5 -80.5t-124.5 -135.5t-77 -185.5z" />
    <glyph glyph-name="atilde" unicode="&#xe3;" horiz-adv-x="1376" 
d="M795 1255l-19 58q28 23 45.5 35t48.5 25t60 13q34 0 76 -29.5t71 -29.5q48 0 113 49l16 -63q-28 -23 -70 -41.5t-77 -18.5q-41 0 -84.5 30t-67.5 30q-43 0 -112 -58zM1331 1106h178l-256 -1106h-147l20 207q-95 -118 -219 -178t-252 -60q-120 0 -220 50t-163 151.5
t-63 237.5q0 77 16 145q25 107 79 202t125.5 163.5t155 118.5t171 75t170.5 25q126 0 222 -60t134 -176zM408 553q-15 -61 -15 -117q0 -148 93.5 -231.5t230.5 -83.5q101 0 197 45.5t176 146t112 240.5q17 80 17 127q0 147 -86.5 225t-217.5 78q-77 0 -156 -28.5
t-149.5 -80.5t-124.5 -135.5t-77 -185.5z" />
    <glyph glyph-name="adieresis" unicode="&#xe4;" horiz-adv-x="1376" 
d="M825 1309q7 29 31.5 48t52.5 19q27 0 42.5 -19t9.5 -48q-6 -26 -31 -46t-51 -20q-27 0 -43 19.5t-11 46.5zM1020 1309q6 29 32 48t56 19q24 0 37.5 -19t7.5 -48q-6 -26 -29.5 -46t-46.5 -20q-29 0 -46 20t-11 46zM1331 1106h178l-256 -1106h-147l20 207
q-95 -118 -219 -178t-252 -60q-120 0 -220 50t-163 151.5t-63 237.5q0 77 16 145q25 107 79 202t125.5 163.5t155 118.5t171 75t170.5 25q126 0 222 -60t134 -176zM408 553q-15 -61 -15 -117q0 -148 93.5 -231.5t230.5 -83.5q101 0 197 45.5t176 146t112 240.5q17 80 17 127
q0 147 -86.5 225t-217.5 78q-77 0 -156 -28.5t-149.5 -80.5t-124.5 -135.5t-77 -185.5z" />
    <glyph glyph-name="aring" unicode="&#xe5;" horiz-adv-x="1376" 
d="M963 1180q-63 0 -95 32.5t-32 81.5q0 69 54.5 127t141.5 58q61 0 92 -32.5t31 -80.5q0 -69 -54 -127.5t-138 -58.5zM1014 1409q-43 0 -72 -31t-29 -67q0 -27 16 -43.5t48 -16.5q43 0 70.5 31t27.5 68q0 25 -15.5 42t-45.5 17zM1331 1106h178l-256 -1106h-147l20 207
q-95 -118 -219 -178t-252 -60q-120 0 -220 50t-163 151.5t-63 237.5q0 77 16 145q25 107 79 202t125.5 163.5t155 118.5t171 75t170.5 25q126 0 222 -60t134 -176zM408 553q-15 -61 -15 -117q0 -148 93.5 -231.5t230.5 -83.5q101 0 197 45.5t176 146t112 240.5q17 80 17 127
q0 147 -86.5 225t-217.5 78q-77 0 -156 -28.5t-149.5 -80.5t-124.5 -135.5t-77 -185.5z" />
    <glyph glyph-name="ae" unicode="&#xe6;" horiz-adv-x="2263" 
d="M457 862l-33 146q101 54 238.5 87t269.5 33q102 0 184.5 -19.5t146.5 -66.5t89 -118q115 104 260.5 159.5t281.5 55.5q200 0 318.5 -119.5t118.5 -317.5q0 -68 -15 -141l-997 2q-12 -52 -12 -106q0 -140 90 -231t268 -91q263 0 430 184l103 -112q-118 -112 -275 -177
t-301 -65q-119 0 -224.5 41t-183 129.5t-94.5 210.5q-99 -158 -287 -254t-389 -102q-152 -6 -229.5 58t-77.5 167q0 75 40 153t110 143.5t177.5 106t229.5 37.5l287 -4q167 -6 193 68q14 66 -2.5 115t-58 77t-97 41t-125.5 13q-111 0 -231.5 -29.5t-202.5 -73.5zM1372 700
h791q2 67 -29 131t-102 110t-168 46q-166 0 -293.5 -80t-198.5 -207zM1124 514q3 15 6 27q-66 -46 -194 -43l-272 4q-143 1 -239.5 -75t-96.5 -161q0 -56 49 -89t147 -27q78 4 170.5 32.5t179.5 74.5t156.5 114t93.5 143z" />
    <glyph glyph-name="ccedilla" unicode="&#xe7;" horiz-adv-x="1323" 
d="M225 553q33 141 116.5 255.5t191.5 185t225.5 108t228.5 37.5q154 0 277.5 -62.5t185.5 -177.5l-158 -115q-45 97 -135.5 142t-206.5 45q-124 0 -230.5 -47t-175.5 -122t-108 -165t-39 -180q0 -138 91.5 -229t269.5 -91q258 0 426 185l106 -115q-119 -114 -275.5 -178
t-320.5 -64l-30 -47q79 -19 79 -92q0 -53 -43 -99t-102 -46q-24 0 -45 6t-34.5 14.5t-24 17.5t-14.5 15l-5 6l49 63q7 -23 31 -38t49 -15q47 0 58 47q9 32 -14.5 57.5t-80.5 26.5l54 92q-83 12 -156 46t-131 87.5t-91.5 133t-33.5 174.5q0 61 16 139z" />
    <glyph glyph-name="egrave" unicode="&#xe8;" horiz-adv-x="1355" 
d="M856 1391l88 75l162 -219l-49 -45zM225 553q33 141 116.5 255.5t191.5 185t225.5 108t228.5 37.5q200 0 318 -119.5t118 -317.5q0 -72 -14 -141l-997 2q-13 -57 -13 -104q0 -67 21.5 -124.5t64.5 -102.5t113 -71t160 -26q263 0 430 184l102 -112q-116 -112 -273.5 -177
t-299.5 -65q-97 0 -186 28.5t-162 82.5t-116.5 141.5t-43.5 196.5q0 74 16 139zM465 700h790q2 67 -29 131t-102 110t-168 46q-165 0 -292.5 -80t-198.5 -207z" />
    <glyph glyph-name="eacute" unicode="&#xe9;" horiz-adv-x="1355" 
d="M827 1264l263 221l53 -78l-287 -186zM225 553q33 141 116.5 255.5t191.5 185t225.5 108t228.5 37.5q200 0 318 -119.5t118 -317.5q0 -72 -14 -141l-997 2q-13 -57 -13 -104q0 -67 21.5 -124.5t64.5 -102.5t113 -71t160 -26q263 0 430 184l102 -112q-116 -112 -273.5 -177
t-299.5 -65q-97 0 -186 28.5t-162 82.5t-116.5 141.5t-43.5 196.5q0 74 16 139zM465 700h790q2 67 -29 131t-102 110t-168 46q-165 0 -292.5 -80t-198.5 -207z" />
    <glyph glyph-name="ecircumflex" unicode="&#xea;" horiz-adv-x="1355" 
d="M872 1239h-79l170 205h96l74 -205h-80l-60 131zM225 553q33 141 116.5 255.5t191.5 185t225.5 108t228.5 37.5q200 0 318 -119.5t118 -317.5q0 -72 -14 -141l-997 2q-13 -57 -13 -104q0 -67 21.5 -124.5t64.5 -102.5t113 -71t160 -26q263 0 430 184l102 -112
q-116 -112 -273.5 -177t-299.5 -65q-97 0 -186 28.5t-162 82.5t-116.5 141.5t-43.5 196.5q0 74 16 139zM465 700h790q2 67 -29 131t-102 110t-168 46q-165 0 -292.5 -80t-198.5 -207z" />
    <glyph glyph-name="edieresis" unicode="&#xeb;" horiz-adv-x="1355" 
d="M815 1309q6 29 30 48t54 19q27 0 42 -19t9 -48q-6 -26 -31 -46t-51 -20q-29 0 -44 19.5t-9 46.5zM1010 1309q6 28 31.5 47.5t54.5 19.5q24 0 38.5 -19.5t8.5 -47.5q-6 -26 -30 -46t-48 -20q-28 0 -44.5 20t-10.5 46zM225 553q33 141 116.5 255.5t191.5 185t225.5 108
t228.5 37.5q200 0 318 -119.5t118 -317.5q0 -72 -14 -141l-997 2q-13 -57 -13 -104q0 -67 21.5 -124.5t64.5 -102.5t113 -71t160 -26q263 0 430 184l102 -112q-116 -112 -273.5 -177t-299.5 -65q-97 0 -186 28.5t-162 82.5t-116.5 141.5t-43.5 196.5q0 74 16 139zM465 700
h790q2 67 -29 131t-102 110t-168 46q-165 0 -292.5 -80t-198.5 -207z" />
    <glyph glyph-name="igrave" unicode="&#xec;" horiz-adv-x="524" 
d="M442 1391l88 75l160 -219l-47 -45zM547 922l-146 -633q-10 -45 -10 -66q0 -34 21 -49.5t73 -15.5h15l-35 -158q-131 0 -195.5 39t-64.5 131q0 45 10 86l137 592q12 62 6 79q-8 21 -34 21h-48l37 158h47q44 0 81.5 -11t66 -33t39.5 -58t0 -82z" />
    <glyph glyph-name="iacute" unicode="&#xed;" horiz-adv-x="524" 
d="M414 1264l262 221l51 -78l-287 -186zM547 922l-146 -633q-10 -45 -10 -66q0 -34 21 -49.5t73 -15.5h15l-35 -158q-131 0 -195.5 39t-64.5 131q0 45 10 86l137 592q12 62 6 79q-8 21 -34 21h-48l37 158h47q44 0 81.5 -11t66 -33t39.5 -58t0 -82z" />
    <glyph glyph-name="icircumflex" unicode="&#xee;" horiz-adv-x="524" 
d="M457 1239h-78l168 205h96l76 -205h-80l-59 131zM547 922l-146 -633q-10 -45 -10 -66q0 -34 21 -49.5t73 -15.5h15l-35 -158q-131 0 -195.5 39t-64.5 131q0 45 10 86l137 592q12 62 6 79q-8 21 -34 21h-48l37 158h47q44 0 81.5 -11t66 -33t39.5 -58t0 -82z" />
    <glyph glyph-name="idieresis" unicode="&#xef;" horiz-adv-x="524" 
d="M401 1309q6 29 30 48t54 19q26 0 41.5 -19.5t8.5 -47.5q-4 -26 -29.5 -46t-50.5 -20q-29 0 -44.5 19.5t-9.5 46.5zM594 1309q7 29 32.5 48t55.5 19q24 0 38 -19.5t7 -47.5q-6 -26 -29.5 -46t-46.5 -20q-29 0 -46 20t-11 46zM547 922l-146 -633q-10 -45 -10 -66
q0 -34 21 -49.5t73 -15.5h15l-35 -158q-131 0 -195.5 39t-64.5 131q0 45 10 86l137 592q12 62 6 79q-8 21 -34 21h-48l37 158h47q44 0 81.5 -11t66 -33t39.5 -58t0 -82z" />
    <glyph glyph-name="ntilde" unicode="&#xf1;" horiz-adv-x="1437" 
d="M823 1255l-18 58q29 23 45.5 35t48 25t62.5 13q32 0 74.5 -29.5t72.5 -29.5q45 0 113 49l16 -63q-78 -60 -147 -60q-41 0 -85 30t-69 30q-44 0 -113 -58zM334 0h-180l200 866q9 29 4 55.5t-34 26.5h-48l37 158h47q88 0 145 -43.5t44 -126.5q86 90 200.5 141t247.5 51
q197 0 306.5 -85.5t109.5 -251.5q0 -72 -16 -140l-84 -362q-10 -42 -10 -64q0 -36 22 -52.5t74 -16.5h14l-35 -156q-264 0 -264 182q0 30 10 78l70 297q27 118 27 186q0 116 -67 175t-224 59q-103 0 -196.5 -40.5t-161.5 -118t-91 -179.5z" />
    <glyph glyph-name="ograve" unicode="&#xf2;" horiz-adv-x="1458" 
d="M907 1391l88 75l162 -219l-49 -45zM1485 553q-27 -114 -87 -211t-138.5 -164.5t-171 -115.5t-186 -70.5t-181.5 -22.5q-97 0 -186.5 28.5t-162.5 82t-117 141t-44 195.5q0 59 16 137q27 114 87 211t138.5 164.5t171 115.5t186 70.5t181.5 22.5q97 0 186.5 -28.5
t162.5 -82t117 -141t44 -195.5q0 -59 -16 -137zM1305 553q12 53 12 100q0 78 -31.5 140.5t-84 101.5t-116.5 59.5t-133 20.5q-63 0 -129 -16.5t-132 -51t-122 -83.5t-99 -119t-62 -152q-13 -57 -13 -100q0 -78 31.5 -140.5t83.5 -101.5t116 -59.5t132 -20.5q80 0 164 27
t161.5 77.5t137.5 133t84 184.5z" />
    <glyph glyph-name="oacute" unicode="&#xf3;" horiz-adv-x="1458" 
d="M879 1264l262 221l53 -78l-287 -186zM1485 553q-27 -114 -87 -211t-138.5 -164.5t-171 -115.5t-186 -70.5t-181.5 -22.5q-97 0 -186.5 28.5t-162.5 82t-117 141t-44 195.5q0 59 16 137q27 114 87 211t138.5 164.5t171 115.5t186 70.5t181.5 22.5q97 0 186.5 -28.5
t162.5 -82t117 -141t44 -195.5q0 -59 -16 -137zM1305 553q12 53 12 100q0 78 -31.5 140.5t-84 101.5t-116.5 59.5t-133 20.5q-63 0 -129 -16.5t-132 -51t-122 -83.5t-99 -119t-62 -152q-13 -57 -13 -100q0 -78 31.5 -140.5t83.5 -101.5t116 -59.5t132 -20.5q80 0 164 27
t161.5 77.5t137.5 133t84 184.5z" />
    <glyph glyph-name="ocircumflex" unicode="&#xf4;" horiz-adv-x="1458" 
d="M924 1239h-80l170 205h96l74 -205h-80l-60 131zM1485 553q-27 -114 -87 -211t-138.5 -164.5t-171 -115.5t-186 -70.5t-181.5 -22.5q-97 0 -186.5 28.5t-162.5 82t-117 141t-44 195.5q0 59 16 137q27 114 87 211t138.5 164.5t171 115.5t186 70.5t181.5 22.5
q97 0 186.5 -28.5t162.5 -82t117 -141t44 -195.5q0 -59 -16 -137zM1305 553q12 53 12 100q0 78 -31.5 140.5t-84 101.5t-116.5 59.5t-133 20.5q-63 0 -129 -16.5t-132 -51t-122 -83.5t-99 -119t-62 -152q-13 -57 -13 -100q0 -78 31.5 -140.5t83.5 -101.5t116 -59.5
t132 -20.5q80 0 164 27t161.5 77.5t137.5 133t84 184.5z" />
    <glyph glyph-name="otilde" unicode="&#xf5;" horiz-adv-x="1458" 
d="M834 1255l-19 58q29 23 45.5 35t48 25t62.5 13q32 0 74 -29.5t71 -29.5q48 0 113 49l18 -63q-78 -60 -147 -60q-41 0 -85 30t-69 30q-43 0 -112 -58zM1485 553q-27 -114 -87 -211t-138.5 -164.5t-171 -115.5t-186 -70.5t-181.5 -22.5q-97 0 -186.5 28.5t-162.5 82
t-117 141t-44 195.5q0 59 16 137q27 114 87 211t138.5 164.5t171 115.5t186 70.5t181.5 22.5q97 0 186.5 -28.5t162.5 -82t117 -141t44 -195.5q0 -59 -16 -137zM1305 553q12 53 12 100q0 78 -31.5 140.5t-84 101.5t-116.5 59.5t-133 20.5q-63 0 -129 -16.5t-132 -51
t-122 -83.5t-99 -119t-62 -152q-13 -57 -13 -100q0 -78 31.5 -140.5t83.5 -101.5t116 -59.5t132 -20.5q80 0 164 27t161.5 77.5t137.5 133t84 184.5z" />
    <glyph glyph-name="odieresis" unicode="&#xf6;" horiz-adv-x="1458" 
d="M866 1309q6 29 30 48t54 19q27 0 42 -19t9 -48q-6 -26 -30.5 -46t-50.5 -20q-29 0 -44.5 19.5t-9.5 46.5zM1061 1309q6 28 31.5 47.5t54.5 19.5q24 0 38.5 -19.5t8.5 -47.5q-6 -26 -30 -46t-48 -20q-28 0 -44.5 20t-10.5 46zM1485 553q-27 -114 -87 -211t-138.5 -164.5
t-171 -115.5t-186 -70.5t-181.5 -22.5q-97 0 -186.5 28.5t-162.5 82t-117 141t-44 195.5q0 59 16 137q27 114 87 211t138.5 164.5t171 115.5t186 70.5t181.5 22.5q97 0 186.5 -28.5t162.5 -82t117 -141t44 -195.5q0 -59 -16 -137zM1305 553q12 53 12 100q0 78 -31.5 140.5
t-84 101.5t-116.5 59.5t-133 20.5q-63 0 -129 -16.5t-132 -51t-122 -83.5t-99 -119t-62 -152q-13 -57 -13 -100q0 -78 31.5 -140.5t83.5 -101.5t116 -59.5t132 -20.5q80 0 164 27t161.5 77.5t137.5 133t84 184.5z" />
    <glyph glyph-name="divide" unicode="&#xf7;" horiz-adv-x="935" 
d="M618 1067q9 41 44 68.5t75 27.5t61.5 -27.5t12.5 -68.5q-9 -40 -43.5 -68t-75.5 -28q-40 0 -61.5 28t-12.5 68zM1004 618h-785l12 58h785zM416 186q9 40 44 67.5t75 27.5t60 -27.5t11 -67.5q-9 -41 -43 -69.5t-74 -28.5t-61 28.5t-12 69.5z" />
    <glyph glyph-name="oslash" unicode="&#xf8;" horiz-adv-x="1458" 
d="M1485 553q-27 -114 -87 -211t-138.5 -164.5t-171 -115.5t-186 -70.5t-181.5 -22.5q-131 0 -238 45l-155 -180h-158l209 240q-168 128 -168 342q0 59 16 137q27 114 87 211t138.5 164.5t171 115.5t186 70.5t181.5 22.5q143 0 262 -58l166 189h158l-221 -254
q145 -122 145 -324q0 -59 -16 -137zM502 217l628 721q-81 37 -178 37q-63 0 -129 -16.5t-132 -51t-122 -83.5t-99 -119t-62 -152q-13 -60 -13 -100q0 -146 107 -236zM1305 553q12 53 12 100q0 131 -86 217l-623 -712q70 -27 150 -27t164 27t161.5 77.5t137.5 133t84 184.5z
" />
    <glyph glyph-name="ugrave" unicode="&#xf9;" horiz-adv-x="1423" 
d="M891 1391l88 75l160 -219l-47 -45zM256 457l150 649h180l-150 -649q-10 -39 -10 -88q0 -120 82 -185t205 -65q148 0 278 91t168 253l148 643h180l-189 -817q-10 -45 -10 -66q0 -34 21 -49.5t73 -15.5h15l-35 -158q-133 0 -198 40t-64 134q-91 -100 -214.5 -153.5
t-248.5 -53.5q-108 0 -196.5 39.5t-144.5 123.5t-56 200q0 55 16 127z" />
    <glyph glyph-name="uacute" unicode="&#xfa;" horiz-adv-x="1423" 
d="M862 1264l262 221l52 -78l-287 -186zM256 457l150 649h180l-150 -649q-10 -39 -10 -88q0 -120 82 -185t205 -65q148 0 278 91t168 253l148 643h180l-189 -817q-10 -45 -10 -66q0 -34 21 -49.5t73 -15.5h15l-35 -158q-133 0 -198 40t-64 134q-91 -100 -214.5 -153.5
t-248.5 -53.5q-108 0 -196.5 39.5t-144.5 123.5t-56 200q0 55 16 127z" />
    <glyph glyph-name="ucircumflex" unicode="&#xfb;" horiz-adv-x="1423" 
d="M905 1239h-78l168 205h97l75 -205h-80l-59 131zM256 457l150 649h180l-150 -649q-10 -39 -10 -88q0 -120 82 -185t205 -65q148 0 278 91t168 253l148 643h180l-189 -817q-10 -45 -10 -66q0 -34 21 -49.5t73 -15.5h15l-35 -158q-133 0 -198 40t-64 134
q-91 -100 -214.5 -153.5t-248.5 -53.5q-108 0 -196.5 39.5t-144.5 123.5t-56 200q0 55 16 127z" />
    <glyph glyph-name="udieresis" unicode="&#xfc;" horiz-adv-x="1423" 
d="M850 1309q6 29 30 48t54 19q26 0 41 -19.5t8 -47.5q-4 -26 -29.5 -46t-50.5 -20q-29 0 -44 19.5t-9 46.5zM1042 1309q7 29 32.5 48t55.5 19q24 0 38.5 -19.5t7.5 -47.5q-6 -26 -29.5 -46t-46.5 -20q-29 0 -46.5 20t-11.5 46zM256 457l150 649h180l-150 -649
q-10 -39 -10 -88q0 -120 82 -185t205 -65q148 0 278 91t168 253l148 643h180l-189 -817q-10 -45 -10 -66q0 -34 21 -49.5t73 -15.5h15l-35 -158q-133 0 -198 40t-64 134q-91 -100 -214.5 -153.5t-248.5 -53.5q-108 0 -196.5 39.5t-144.5 123.5t-56 200q0 55 16 127z" />
    <glyph glyph-name="yacute" unicode="&#xfd;" horiz-adv-x="1404" 
d="M852 1264l262 221l53 -78l-286 -186zM270 457l150 649h180l-149 -649q-11 -45 -11 -90q0 -124 81.5 -191t205.5 -67q92 0 181 37.5t162.5 118t100.5 188.5l150 653h180l-217 -942q-76 -324 -287 -501t-534 -177q-101 0 -211 30t-195 78l95 162q68 -43 167.5 -70.5
t192.5 -27.5q113 0 203.5 25.5t152.5 68t109.5 108t76 136.5t50.5 162q-91 -97 -211.5 -148t-241.5 -51q-109 0 -197.5 40t-144 124.5t-55.5 202.5q0 56 16 131z" />
    <glyph glyph-name="thorn" unicode="&#xfe;" horiz-adv-x="1415" 
d="M1442 553q-30 -134 -105.5 -247t-172.5 -185t-206.5 -112t-214.5 -40q-129 0 -225.5 60.5t-134.5 179.5l-119 -516h-180l379 1638h180l-102 -436q95 119 219.5 180.5t253.5 61.5q120 0 220 -50t163 -151t63 -236q0 -70 -18 -147zM1262 553q14 57 14 115
q0 148 -93.5 231.5t-230.5 83.5q-75 0 -149 -27t-140.5 -78.5t-118.5 -135.5t-77 -189q-16 -75 -16 -129q0 -147 86 -225t217 -78q77 0 156 28.5t149 81t124.5 136.5t78.5 186z" />
    <glyph glyph-name="ydieresis" unicode="&#xff;" horiz-adv-x="1404" 
d="M840 1309q6 29 30 48t54 19q27 0 42 -19t9 -48q-6 -26 -31 -46t-51 -20q-29 0 -44 19.5t-9 46.5zM1034 1309q6 28 31.5 47.5t54.5 19.5q24 0 38.5 -19.5t8.5 -47.5q-6 -26 -29.5 -46t-47.5 -20q-28 0 -45 20t-11 46zM270 457l150 649h180l-149 -649q-11 -45 -11 -90
q0 -124 81.5 -191t205.5 -67q92 0 181 37.5t162.5 118t100.5 188.5l150 653h180l-217 -942q-76 -324 -287 -501t-534 -177q-101 0 -211 30t-195 78l95 162q68 -43 167.5 -70.5t192.5 -27.5q113 0 203.5 25.5t152.5 68t109.5 108t76 136.5t50.5 162q-91 -97 -211.5 -148
t-241.5 -51q-109 0 -197.5 40t-144 124.5t-55.5 202.5q0 56 16 131z" />
    <glyph glyph-name="Dcroat" unicode="&#x110;" horiz-adv-x="1650" 
d="M492 1434h718q133 -2 236.5 -45t166.5 -117t94.5 -167t31.5 -202q0 -83 -23 -186q-25 -108 -75 -210t-126 -193t-169.5 -160t-213.5 -110.5t-251 -43.5h-721l170 737h-103l35 148h103zM1157 1266h-522l-88 -381h649l-35 -148h-649l-131 -567h522q119 0 226.5 47t185 125
t131.5 174.5t78 200.5q18 77 18 151q0 83 -23 153.5t-68.5 126t-121 87t-172.5 31.5z" />
    <glyph glyph-name="dcroat" unicode="&#x111;" horiz-adv-x="1411" 
d="M225 553q25 107 79 202t125.5 163.5t155 118.5t171 75t170.5 25q126 0 221 -60t135 -176l80 346h-576l35 148h576l33 141h178l-33 -141h178l-33 -148h-178l-221 -958q-10 -42 -10 -64q0 -36 21.5 -51.5t72.5 -15.5h14l-35 -158q-143 0 -207.5 47.5t-52.5 159.5
q-93 -119 -216.5 -178.5t-252.5 -59.5q-120 0 -220 50t-163 151.5t-63 237.5q0 77 16 145zM408 553q-15 -61 -15 -117q0 -148 93.5 -231.5t230.5 -83.5q101 0 196 45t175.5 144.5t113.5 238.5v6q15 67 15 125q0 147 -85.5 225t-216.5 78q-77 0 -156 -28.5t-149.5 -80.5
t-124.5 -135.5t-77 -185.5z" />
    <glyph glyph-name="dotlessi" unicode="&#x131;" horiz-adv-x="524" 
d="M547 922l-146 -633q-10 -45 -10 -66q0 -34 21 -49.5t73 -15.5h15l-35 -158q-131 0 -195.5 39t-64.5 131q0 45 10 86l137 592q12 62 6 79q-8 21 -34 21h-48l37 158h47q44 0 81.5 -11t66 -33t39.5 -58t0 -82z" />
    <glyph glyph-name="Lslash" unicode="&#x141;" horiz-adv-x="1345" 
d="M160 0l112 483l-137 -49l-20 125l190 70l187 805h182l-170 -732l321 117l21 -125l-375 -137l-90 -391h965l-39 -166h-1147z" />
    <glyph glyph-name="lslash" unicode="&#x142;" horiz-adv-x="493" 
d="M512 1536h178l-184 -801l211 99l35 -119l-281 -131l-70 -295q-8 -33 -8 -64q0 -36 21 -51.5t73 -15.5h15l-35 -158q-132 0 -197 40t-65 132q0 32 10 84l55 236l-213 -99l-34 119l282 131z" />
    <glyph glyph-name="OE" unicode="&#x152;" horiz-adv-x="2484" 
d="M1298 166h990l-39 -166h-1348q-100 0 -193 19.5t-178 62t-148 104.5t-100.5 153.5t-37.5 201.5q0 86 20 176q34 146 110.5 268t175 203.5t217 138t236 82t232.5 25.5h1333l-39 -166h-977l-108 -467h852l-39 -166h-850zM1118 176l250 1081h-174q-111 0 -223 -31
t-217.5 -93t-186 -169.5t-112.5 -246.5q-17 -80 -17 -133q0 -84 29 -154t77.5 -116.5t114 -78.5t137.5 -46t148 -13h174z" />
    <glyph glyph-name="oe" unicode="&#x153;" horiz-adv-x="2439" 
d="M2271 319l103 -112q-117 -112 -273.5 -177t-300.5 -65q-155 0 -286 71t-187 202q-117 -130 -281 -200.5t-319 -70.5q-77 0 -150.5 17.5t-139 54t-114.5 88.5t-77.5 126t-28.5 161q0 74 16 139q26 113 86 210.5t138 164.5t170.5 115.5t186 71t181.5 22.5q156 0 288 -70.5
t190 -200.5q117 131 280 202t318 71q200 0 318 -119.5t118 -317.5q0 -68 -15 -141l-997 2q-12 -52 -12 -104q0 -140 91 -232t267 -92q263 0 430 184zM1548 700h791q2 49 -16.5 98.5t-53.5 92.5t-95 69.5t-134 26.5q-165 0 -293.5 -80.5t-198.5 -206.5zM1309 553
q12 55 12 100q0 78 -31 140.5t-83 100.5t-116 58.5t-133 20.5q-80 0 -163.5 -26.5t-160.5 -76.5t-136.5 -132.5t-83.5 -184.5q-13 -60 -13 -102q0 -78 31 -140.5t83 -100.5t116 -58.5t133 -20.5q63 0 130 16t133.5 50.5t122 83.5t98.5 119t61 153z" />
    <glyph glyph-name="Scaron" unicode="&#x160;" horiz-adv-x="1429" 
d="M1024 1552l-74 205h78l62 -133l120 133h80l-170 -205h-96zM1610 1268l-140 -144q-54 76 -182.5 123t-269.5 47q-105 0 -194.5 -25.5t-160.5 -88t-92 -154.5q-13 -54 8.5 -93t68.5 -61.5t112 -37.5t139.5 -27t150.5 -25t145.5 -35t123.5 -54t86.5 -86t32.5 -126
q0 -38 -13 -92q-25 -109 -96.5 -194t-171.5 -135.5t-214 -76.5t-236 -26q-193 0 -352 60t-220 165l148 137q49 -86 186.5 -138t292.5 -52q82 0 158.5 15.5t142 46.5t111.5 82t61 116q17 74 -21 121.5t-113 70.5t-169 38.5t-192 34t-179.5 48t-133.5 90t-52 150.5q0 49 10 90
q21 90 69.5 163.5t114.5 123.5t147.5 84t167.5 49.5t177 15.5q176 0 327.5 -54.5t221.5 -145.5z" />
    <glyph glyph-name="scaron" unicode="&#x161;" horiz-adv-x="1306" 
d="M887 1225l-76 205h80l61 -134l121 134h80l-170 -205h-96zM1413 967l-127 -129q-51 61 -176 102t-258 41q-134 0 -230 -45.5t-118 -138.5q-11 -50 25.5 -82t104.5 -48t152.5 -28.5t171 -29.5t159 -43.5t118 -78.5t45.5 -127q0 -34 -8 -67q-26 -115 -126.5 -195
t-230.5 -114.5t-278 -34.5q-171 0 -312.5 48t-195.5 132l139 125q40 -68 163.5 -110t266.5 -42q96 0 177 19.5t141.5 64t75.5 109.5q13 56 -22.5 91.5t-102.5 52.5t-151.5 29t-171 27.5t-158.5 39.5t-118 75t-46 125q0 35 8 68q26 114 116 191t205 109t250 32q162 0 305 -46
t207 -122z" />
    <glyph glyph-name="Ydieresis" unicode="&#x178;" horiz-adv-x="1449" 
d="M938 1636q8 29 31.5 48.5t52.5 19.5q27 0 42 -19.5t9 -48.5q-6 -26 -31 -45.5t-51 -19.5q-29 0 -44 19t-9 46zM1133 1636q6 29 31.5 48.5t54.5 19.5q24 0 38.5 -19.5t8.5 -48.5q-6 -26 -30 -45.5t-48 -19.5q-28 0 -44.5 19.5t-10.5 45.5zM369 1434h213l313 -689l633 689
h213l-789 -842l-137 -592h-182l137 592z" />
    <glyph glyph-name="Zcaron" unicode="&#x17d;" horiz-adv-x="1335" 
d="M977 1552l-74 205h78l61 -133l121 133h80l-168 -205h-98zM1487 1268l-1161 -1102h972l-38 -166h-1186l39 166l1171 1102h-901l39 166h1104l-39 -166h-2h2z" />
    <glyph glyph-name="zcaron" unicode="&#x17e;" horiz-adv-x="1216" 
d="M842 1225l-74 205h78l61 -134l121 134h80l-170 -205h-96zM1327 942l-995 -778h862l-37 -164h-1100l37 164l1010 778h-778l36 164h1002z" />
    <glyph glyph-name="circumflex" unicode="&#x2c6;" horiz-adv-x="409" 
d="M399 1239h-80l170 205h97l73 -205h-77l-62 131z" />
    <glyph glyph-name="caron" unicode="&#x2c7;" horiz-adv-x="409" 
d="M438 1225l-73 205h77l62 -134l121 134h80l-168 -205h-99z" />
    <glyph glyph-name="ring" unicode="&#x2da;" horiz-adv-x="411" 
d="M481 1180q-63 0 -95 32.5t-32 81.5q0 69 55 127t142 58q61 0 92 -32.5t31 -80.5q0 -69 -54.5 -127.5t-138.5 -58.5zM532 1409q-43 0 -71.5 -31t-28.5 -67q0 -27 16 -43.5t48 -16.5q43 0 70.5 31t27.5 68q0 25 -16 42t-46 17z" />
    <glyph glyph-name="tilde" unicode="&#x2dc;" horiz-adv-x="579" 
d="M397 1255l-18 58q29 23 45.5 35t47.5 25t60 13q34 0 76.5 -29.5t71.5 -29.5q48 0 113 49l16 -63q-28 -23 -70 -41.5t-77 -18.5q-41 0 -84.5 30t-67.5 30q-44 0 -113 -58z" />
    <glyph glyph-name="endash" unicode="&#x2013;" horiz-adv-x="851" 
d="M201 547l32 135h701l-33 -135h-700z" />
    <glyph glyph-name="emdash" unicode="&#x2014;" horiz-adv-x="1339" 
d="M199 530l32 148h1190l-35 -148h-1187z" />
    <glyph glyph-name="quoteleft" unicode="&#x2018;" horiz-adv-x="425" 
d="M682 1434l-197 -400h-172l269 400h100z" />
    <glyph glyph-name="quoteright" unicode="&#x2019;" horiz-adv-x="425" 
d="M313 1034l197 400h172l-268 -400h-101z" />
    <glyph glyph-name="quotesinglbase" unicode="&#x201a;" horiz-adv-x="425" 
d="M33 -180l196 399h172l-268 -399h-100z" />
    <glyph glyph-name="quotedblleft" unicode="&#x201c;" horiz-adv-x="714" 
d="M684 1434l-199 -400h-172l269 400h102zM971 1434l-197 -400h-172l268 400h101z" />
    <glyph glyph-name="quotedblright" unicode="&#x201d;" horiz-adv-x="714" 
d="M602 1034l197 400h172l-269 -400h-100zM313 1034l199 400h172l-268 -400h-103z" />
    <glyph glyph-name="quotedblbase" unicode="&#x201e;" horiz-adv-x="700" 
d="M33 -180l196 399h172l-268 -399h-100zM307 -180l197 399h172l-268 -399h-101z" />
    <glyph glyph-name="dagger" unicode="&#x2020;" horiz-adv-x="839" 
d="M674 1434h153l-86 -371h269l-35 -152h-268l-252 -1087h-152l250 1087h-268l37 152h266z" />
    <glyph glyph-name="bullet" unicode="&#x2022;" horiz-adv-x="481" 
d="M242 717q14 65 75.5 115.5t128.5 50.5q64 0 102.5 -50.5t24.5 -115.5q-15 -67 -77 -117.5t-127 -50.5q-68 0 -106 50.5t-21 117.5z" />
    <glyph glyph-name="guilsinglleft" unicode="&#x2039;" horiz-adv-x="552" 
d="M231 680l19 74l522 518l-43 -187l-375 -368l205 -369l-43 -186z" />
    <glyph glyph-name="guilsinglright" unicode="&#x203a;" horiz-adv-x="552" 
d="M369 1272l284 -518l-18 -74l-522 -518l43 186l374 369l-204 368z" />
    <glyph glyph-name="Euro" unicode="&#x20ac;" horiz-adv-x="1476" 
d="M254 936h225q56 111 137 205t185 167t235.5 114.5t274.5 41.5q115 0 217.5 -38t177.5 -107l-133 -145q-46 49 -123 82.5t-174 33.5q-196 0 -351.5 -97.5t-250.5 -256.5h395l-31 -135h-428q-31 -81 -41 -187h426l-32 -137h-388q28 -149 137.5 -240.5t299.5 -91.5
q199 0 348 111l70 -141q-110 -75 -218.5 -110.5t-244.5 -35.5q-141 0 -251.5 39.5t-180.5 110t-109 161t-47 197.5h-232l33 137h203q8 87 41 187h-201z" />
    <glyph glyph-name="trademark" unicode="&#x2122;" horiz-adv-x="835" 
d="M821 1434l64 -201l155 201h60l-86 -371h-70l49 213l-108 -139h-45l-45 137l-50 -211h-67l86 371h57zM705 1372h-121l-72 -309h-70l72 309h-123l15 62h313z" />
    <glyph glyph-name="minus" unicode="&#x2212;" horiz-adv-x="952" 
d="M223 641l35 150h801l-35 -150h-801z" />
    <glyph glyph-name="a.salt" horiz-adv-x="1376" 
d="M457 862l-33 146q100 54 238.5 87t271.5 33q90 0 166 -16.5t137 -51t96 -94.5t35 -139q0 -45 -12 -98l-103 -440q-8 -33 -8 -64q0 -36 20.5 -51.5t71.5 -15.5h15l-35 -158q-131 0 -195.5 39t-64.5 131q0 45 10 86l4 23q-106 -129 -277.5 -206t-349.5 -83
q-152 -6 -229.5 58t-77.5 167q0 75 40 153t110 143.5t178 106t231 37.5l285 -4q167 -6 193 68q14 66 -2.5 115t-58 77t-97 41t-125.5 13q-110 0 -229.5 -29.5t-204.5 -73.5zM1133 541q-70 -46 -195 -43l-274 4q-142 1 -239 -75t-97 -161q0 -56 49.5 -89t148.5 -27
q79 5 173 34.5t182.5 77t157 118.5t89.5 148z" />
    <glyph glyph-name="d.salt" horiz-adv-x="1411" 
d="M1430 1536h180l-355 -1536h-147l18 207q-94 -118 -217.5 -178t-251.5 -60q-121 0 -221.5 50t-163.5 151t-63 236q0 71 18 147q25 107 79 202t125.5 163.5t155 118.5t170 75t169.5 25q126 0 222 -60t136 -176zM408 553q-15 -61 -15 -117q0 -148 93.5 -231.5t230.5 -83.5
q101 0 197 45.5t176 146t112 240.5q17 80 17 129q0 146 -86 223.5t-218 77.5q-77 0 -155.5 -28.5t-149 -80.5t-124.5 -135.5t-78 -185.5z" />
    <glyph glyph-name="g.salt" horiz-adv-x="1388" 
d="M1325 696q-23 -101 -84.5 -183.5t-144.5 -134.5t-177.5 -80t-189.5 -28q-159 0 -268 74q-55 -23 -64 -57q-10 -43 33.5 -67t121.5 -32.5t174 -13t194.5 -15t180.5 -32.5t133.5 -71.5t51.5 -125.5q0 -32 -8 -63q-19 -84 -88.5 -152t-169 -111t-216 -66t-235.5 -23
q-148 0 -268 32t-198 103.5t-78 171.5q0 17 8 63q33 141 239 221q-61 58 -39 158q12 55 54.5 94.5t95.5 61.5q-55 77 -55 184q0 58 14 115q23 101 84.5 183.5t144.5 134.5t177.5 80t189.5 28t177.5 -29.5t137.5 -85.5q89 79 78 234l170 16q3 -225 -186 -342q24 -59 24 -129
q0 -56 -14 -113zM504 707q-8 -31 -8 -64q0 -102 79 -158.5t195 -56.5q85 0 165 30t143.5 95t84.5 154q8 31 8 63q0 102 -79 159.5t-193 57.5q-134 0 -249 -74t-146 -206zM395 43q-173 -64 -192 -156q-17 -68 39 -117.5t151.5 -71.5t212.5 -22q180 0 327.5 51.5t168.5 137.5
q12 52 -30.5 81.5t-126 40t-174 14.5t-199 13.5t-177.5 28.5z" />
    <glyph glyph-name="h.salt" horiz-adv-x="1406" 
d="M336 0h-178l354 1536h178l-143 -627q175 219 452 219q197 0 306.5 -85.5t109.5 -251.5q0 -72 -16 -140l-152 -651h-180l129 557q27 118 27 188q0 115 -67 173.5t-224 58.5q-159 0 -285.5 -90t-163.5 -248z" />
    <glyph glyph-name="i.salt" horiz-adv-x="483" 
d="M438 1352q10 51 49.5 81.5t92.5 30.5t77.5 -30.5t12.5 -81.5t-51 -82t-91 -31q-53 0 -77.5 31t-12.5 82zM330 0h-178l256 1106h178z" />
    <glyph glyph-name="j.salt" horiz-adv-x="481" 
d="M438 1352q10 51 49.5 81.5t92.5 30.5q52 0 76.5 -30.5t13.5 -81.5q-12 -51 -51 -82t-91 -31q-53 0 -77.5 31t-12.5 82zM88 -297l324 1403h180l-326 -1403h-178z" />
    <glyph glyph-name="k.salt" horiz-adv-x="1417" 
d="M158 0l334 1450h180l-203 -879l729 535h250l-584 -424l535 -682h-258l-434 567l-287 -207l-84 -360h-178z" />
    <glyph glyph-name="l.salt" horiz-adv-x="493" 
d="M158 0l354 1536h178l-354 -1536h-178z" />
    <glyph glyph-name="m.salt" horiz-adv-x="1966" 
d="M336 0h-178l254 1106h147l-4 -156q157 178 387 178q273 0 307 -233q74 111 182.5 172t245.5 61q310 0 310 -294q0 -85 -23 -183l-149 -651h-181l148 637q18 83 18 149q0 191 -186 191q-124 0 -227.5 -76.5t-149.5 -210.5q-4 -26 -8 -39l-150 -651l-180 2l145 635
q21 96 21 149q0 191 -188 191q-137 0 -247 -89.5t-147 -248.5z" />
    <glyph glyph-name="n.salt" horiz-adv-x="1400" 
d="M483 639l-147 -639h-178l254 1106h147l-8 -170q84 90 200 141t248 51q199 0 308.5 -84.5t109.5 -250.5q0 -65 -18 -142l-150 -651h-182l129 557q27 118 27 188q0 115 -67 173.5t-224 58.5t-285 -92.5t-164 -245.5z" />
    <glyph glyph-name="p.salt" horiz-adv-x="1417" 
d="M1444 553q-30 -134 -105.5 -247t-172.5 -185t-206.5 -112t-214.5 -40q-129 0 -225.5 60.5t-134.5 179.5l-152 -653h-178l357 1550h147l-20 -217q95 123 220.5 185.5t256.5 62.5q120 0 220 -50t163 -151t63 -236q0 -70 -18 -147zM1264 553q14 57 14 115q0 148 -93.5 231.5
t-230.5 83.5q-75 0 -149 -27t-140.5 -78.5t-118.5 -135.5t-77 -189q-16 -75 -16 -129q0 -147 86 -225t217 -78q77 0 156 28.5t149 81t124.5 136.5t78.5 186z" />
    <glyph glyph-name="r.salt" horiz-adv-x="917" 
d="M336 0h-178l254 1106h147l-14 -195q88 97 191.5 154t211.5 57q86 0 160 -35l-78 -151q-43 16 -94 16q-87 0 -182.5 -37t-170.5 -105.5t-94 -147.5z" />
    <glyph glyph-name="u.salt" horiz-adv-x="1388" 
d="M256 457l152 649h178l-150 -649q-10 -39 -10 -88q0 -120 82 -185t205 -65q148 0 278 91t168 253l150 643h178l-254 -1106h-180l39 164q-91 -96 -211.5 -146.5t-241.5 -50.5q-109 0 -198 39.5t-145 123.5t-56 200q0 55 16 127z" />
    <glyph glyph-name="y.salt" horiz-adv-x="1411" 
d="M1604 1106l-793 -1083q-379 -527 -657 -527q-75 0 -140 27.5t-104 60.5l106 148q83 -66 168 -66q160 0 414 314l-303 1126h199l235 -948l676 948h199z" />
    </font>
</defs>
</svg>
