<?xml version="1.0" standalone="no"?>
<!DOCTYPE svg PUBLIC "-//W3C//DTD SVG 1.1//EN" "http://www.w3.org/Graphics/SVG/1.1/DTD/svg11.dtd" >
<svg xmlns="http://www.w3.org/2000/svg" xmlns:xlink="http://www.w3.org/1999/xlink" version="1.1">
<metadata>
Created by FontForge 20201107 at Thu Nov 20 10:53:22 2025
 By 
Copyright (c) 2020 by Sarid Ezra. All rights reserved.
</metadata>
<defs>
<font id="Ezra-Bold" horiz-adv-x="1714" >
  <font-face 
    font-family="Ezra"
    font-weight="700"
    font-stretch="normal"
    units-per-em="2048"
    panose-1="0 0 0 0 0 0 0 0 0 0"
    ascent="1536"
    descent="-512"
    x-height="1106"
    cap-height="1434"
    bbox="-170 -524 2431 1853"
    underline-thickness="102"
    underline-position="-255"
    unicode-range="U+000D-FB01"
  />
<missing-glyph horiz-adv-x="1024" 
 />
    <glyph glyph-name="fi" unicode="fi" horiz-adv-x="1460" 
d="M1323 0h-336v862h-446v-862h-338v862h-187l-2 209l207 33q-76 91 -76 188q0 90 79 160t202 104.5t266 34.5q197 0 361.5 -68.5t238.5 -203.5l-256 -137q-59 75 -150 112t-186 37q-98 0 -167.5 -35t-69.5 -88q0 -32 21 -61t57 -41h782v-1106z" />
    <glyph glyph-name=".notdef" horiz-adv-x="1024" 
 />
    <glyph glyph-name="uni0000" horiz-adv-x="0" 
 />
    <glyph glyph-name="uni0000" horiz-adv-x="0" 
 />
    <glyph glyph-name="uni000D" unicode="&#xd;" horiz-adv-x="512" 
 />
    <glyph glyph-name="space" unicode=" " horiz-adv-x="512" 
 />
    <glyph glyph-name="exclam" unicode="!" horiz-adv-x="466" 
d="M129 463l-68 971h347l-68 -971h-211zM53 154q0 72 50 121t122 49t121 -49t49 -121t-49 -123t-121 -51t-122 51t-50 123z" />
    <glyph glyph-name="quotedbl" unicode="&#x22;" horiz-adv-x="835" 
d="M43 961l90 489h264l-174 -489h-180zM430 961l90 489h262l-172 -489h-180z" />
    <glyph glyph-name="numbersign" unicode="#" horiz-adv-x="1708" 
d="M666 0l190 371h-311l-189 -371h-258l191 371h-236v215h344l119 231h-350v213h459l206 404h254l-206 -404h311l205 404h258l-207 -404h186v-213h-295l-116 -231h292v-215h-403l-188 -371h-256zM653 586h312l116 231h-311z" />
    <glyph glyph-name="dollar" unicode="$" horiz-adv-x="1529" 
d="M711 1536h168v-145q161 -15 313 -66.5t256 -126.5l-156 -258q-69 61 -181.5 105t-231.5 59v-289q68 -13 115.5 -24t112 -30.5t109 -40.5t92 -54t76.5 -72t47.5 -93t18.5 -118q0 -100 -45.5 -178t-125.5 -127t-180.5 -76t-219.5 -33v-96h-168v98q-183 14 -348.5 67.5
t-268.5 135.5l158 266q69 -64 195 -111t264 -67v295q-64 13 -112 25t-108.5 31.5t-104 41.5t-88 54.5t-72 71t-45 91t-17.5 113.5q0 83 29 151t78.5 114.5t119.5 79t149.5 48.5t170.5 19v139zM711 848v262q-94 -6 -150.5 -39t-56.5 -92q0 -50 52 -79t155 -52zM879 520v-268
q104 5 166.5 35.5t62.5 87.5q0 55 -58.5 87.5t-170.5 57.5z" />
    <glyph glyph-name="percent" unicode="%" horiz-adv-x="1742" 
d="M459 879q-154 0 -240 90t-86 213t86 212t240 89q155 0 242 -90t87 -213t-87 -212t-242 -89zM1366 1434h281l-1278 -1434h-281zM461 1317q-68 0 -106 -40t-38 -95t38 -95t106 -40t106.5 40t38.5 95t-38.5 95t-106.5 40zM1296 0q-154 0 -239.5 90t-85.5 213t85.5 212
t239.5 89q155 0 242.5 -90t87.5 -213t-87.5 -212t-242.5 -89zM1296 446q-72 0 -111.5 -43t-39.5 -102t39.5 -101t111.5 -42q74 0 115 42.5t41 100.5q0 59 -41 102t-115 43z" />
    <glyph glyph-name="ampersand" unicode="&#x26;" horiz-adv-x="1701" 
d="M1688 0l-342 -51q-58 49 -144 131q-109 -81 -242.5 -121.5t-271.5 -40.5q-125 0 -238.5 33.5t-201.5 94.5t-140.5 156.5t-52.5 211.5q0 76 27.5 142t69 114t107 92.5t123 74t136.5 62.5q-90 170 -90 291q0 92 59.5 160.5t149 100.5t192.5 32q100 0 184.5 -30.5
t140.5 -98.5t56 -162q0 -68 -23.5 -126t-67.5 -104t-94.5 -80.5t-117.5 -68.5q104 -137 262 -305q47 110 41 248h289q9 -274 -113 -471q75 -74 150.5 -145t113.5 -106zM776 1012q164 80 164 172q0 51 -33 79.5t-76 28.5q-45 0 -77.5 -29t-32.5 -83q0 -69 55 -168zM649 696
q-60 -29 -101.5 -53t-80 -56t-57.5 -69t-19 -80q0 -103 91 -163t223 -60q154 0 282 80q-211 222 -338 401z" />
    <glyph glyph-name="quotesingle" unicode="'" horiz-adv-x="421" 
d="M129 1450h262l-168 -489h-180z" />
    <glyph glyph-name="parenleft" unicode="(" horiz-adv-x="598" 
d="M358 -82q-148 113 -226.5 321.5t-78.5 450.5t78.5 451.5t226.5 322.5l189 -73q-113 -101 -173.5 -292t-60.5 -411q0 -218 60.5 -407.5t173.5 -288.5z" />
    <glyph glyph-name="parenright" unicode=")" horiz-adv-x="598" 
d="M242 -82l-189 74q113 99 173.5 288t60.5 408q0 220 -60.5 411t-173.5 292l189 73q147 -113 225 -322.5t78 -451.5t-78 -450.5t-225 -321.5z" />
    <glyph glyph-name="asterisk" unicode="*" horiz-adv-x="663" 
d="M557 1368l53 -170l-166 -22l111 -119l-139 -107l-86 154l-82 -150l-142 105l107 115l-160 20l49 172l156 -70l-18 138h176l-17 -136z" />
    <glyph glyph-name="plus" unicode="+" horiz-adv-x="1001" 
d="M53 606v223h324v287h246v-287h325v-223h-325v-311h-246v311h-324z" />
    <glyph glyph-name="comma" unicode="," horiz-adv-x="614" 
d="M-20 -256l239 528h334l-350 -528h-223z" />
    <glyph glyph-name="hyphen" unicode="-" horiz-adv-x="1132" 
d="M53 606v223h1024v-223h-1024z" />
    <glyph glyph-name="period" unicode="." horiz-adv-x="485" 
d="M72 154q0 72 50 121t122 49t121 -49t49 -121t-49 -123t-121 -51t-122 51t-50 123z" />
    <glyph glyph-name="slash" unicode="/" horiz-adv-x="1267" 
d="M973 1434h241l-919 -1434h-242z" />
    <glyph glyph-name="zero" unicode="0" horiz-adv-x="1556" 
d="M76 717q0 147 39.5 272.5t107 214t157.5 151t191.5 92.5t208.5 30q134 0 257.5 -48.5t223.5 -140.5t160 -240t60 -331t-60 -331t-160 -240t-223.5 -140.5t-257.5 -48.5q-107 0 -208.5 30t-191.5 92.5t-157.5 151t-107 214t-39.5 272.5zM389 717q0 -104 33 -187.5
t88.5 -135.5t125 -79.5t144.5 -27.5t143.5 27.5t124 79.5t88.5 135.5t33 187.5q0 105 -33 189t-88.5 136t-124 79.5t-143.5 27.5t-144 -27.5t-125 -79.5t-89 -136t-33 -189z" />
    <glyph glyph-name="one" unicode="1" horiz-adv-x="845" 
d="M498 1456h209v-1456h-347v1022l-176 -143l-149 180z" />
    <glyph glyph-name="two" unicode="2" horiz-adv-x="1220" 
d="M811 1040q0 67 -59 105.5t-150 38.5q-108 0 -216 -55.5t-173 -159.5l-137 284q77 112 215 171t297 59q105 0 201 -27t173.5 -78t124 -132.5t46.5 -182.5q0 -82 -27.5 -153t-75.5 -126t-107 -104t-128.5 -95t-133.5 -89t-127.5 -97.5t-105.5 -109.5h735v-289h-1106
q0 118 26 219.5t69.5 175t100 136t119 109t125 87t119 76.5t100 71t69.5 77t26 89z" />
    <glyph glyph-name="three" unicode="3" horiz-adv-x="1357" 
d="M487 676h-24l2 219q195 -3 293 53t98 131q0 55 -49.5 94t-128.5 39q-233 0 -383 -190l-148 197q95 126 230 187.5t280 61.5q127 0 232 -32.5t172.5 -86.5t104 -122.5t36.5 -141.5q0 -82 -46.5 -158.5t-137.5 -133.5q128 -67 194 -165t66 -206q0 -87 -43.5 -168.5
t-123 -146.5t-206.5 -104.5t-280 -39.5q-173 0 -325 74.5t-243 224.5l136 244q161 -230 452 -230q130 0 210.5 55.5t80.5 129.5q0 87 -114.5 151t-334.5 64z" />
    <glyph glyph-name="four" unicode="4" horiz-adv-x="1372" 
d="M1337 289h-198v-289l-346 -2v291h-758v286l870 865l234 -6v-859h198v-286zM387 575h406v402z" />
    <glyph glyph-name="five" unicode="5" horiz-adv-x="1370" 
d="M342 612l-213 19l100 803h945v-289h-666l-29 -225q100 20 209 20q118 0 218 -26.5t170.5 -72t119.5 -106.5t72.5 -129.5t23.5 -142.5q0 -96 -42 -186t-120.5 -163t-205.5 -117t-283 -44q-181 0 -331.5 80t-231.5 241l248 140q32 -77 116 -115.5t185 -38.5
q154 0 242.5 67.5t88.5 157.5q0 83 -80.5 143t-228.5 60q-74 0 -156.5 -19.5t-150.5 -56.5z" />
    <glyph glyph-name="six" unicode="6" horiz-adv-x="1452" 
d="M748 -31q-131 0 -241.5 41t-188.5 112t-133 165t-81 200.5t-26 219.5q0 114 27 223t83 205.5t135 169t190 115t241 42.5q113 0 220 -28.5t176.5 -68t110.5 -70.5t52 -46l-150 -200q-7 10 -38 30.5t-82.5 46.5t-129 45t-157.5 19q-147 0 -245.5 -99.5t-129.5 -248.5
q143 116 399 116q144 0 259.5 -40.5t187 -108.5t109.5 -152.5t38 -177.5q0 -96 -40.5 -186t-116.5 -163t-197.5 -117t-271.5 -44zM780 690q-161 0 -243 -50t-84 -124q-3 -82 82 -150.5t213 -68.5q141 0 222 63t81 146q0 76 -71 130t-200 54z" />
    <glyph glyph-name="seven" unicode="7" horiz-adv-x="1288" 
d="M176 0l627 1145h-766v289h1216v-56l-696 -1378h-381z" />
    <glyph glyph-name="eight" unicode="8" horiz-adv-x="1449" 
d="M180 1092q0 169 150.5 272.5t396.5 103.5t396.5 -103.5t150.5 -272.5q0 -98 -54.5 -175.5t-154.5 -125.5q158 -51 246 -151t88 -232q0 -197 -185 -318t-487 -121t-487 121t-185 318q0 132 87.5 231.5t244.5 151.5q-98 48 -152.5 125.5t-54.5 175.5zM727 911
q119 0 186.5 46t67.5 108t-67 107t-187 45q-122 0 -190 -45t-68 -107t69 -108t189 -46zM727 258q152 0 238 58.5t86 138.5q0 79 -85.5 136.5t-238.5 57.5q-154 0 -240 -57.5t-86 -136.5q0 -80 86 -138.5t240 -58.5z" />
    <glyph glyph-name="nine" unicode="9" horiz-adv-x="1449" 
d="M702 1462q131 0 241.5 -41t188.5 -111.5t133 -165t81 -200.5t26 -219q0 -114 -27 -223t-83 -206t-135 -169.5t-190 -115t-241 -42.5q-113 0 -220 28.5t-176.5 68t-110.5 70.5t-52 46l150 201q7 -10 38 -30.5t82.5 -46.5t129 -45t157.5 -19q76 0 141 28t111 76.5t77 110.5
t46 133q-145 -117 -399 -117q-144 0 -259.5 40.5t-187 108.5t-109.5 152.5t-38 177.5q0 96 40.5 186t116.5 163t197.5 117t271.5 44zM670 741q164 0 246.5 52.5t82.5 128.5q0 82 -85 147.5t-212 65.5q-141 0 -222 -63t-81 -146q0 -76 71 -130.5t200 -54.5z" />
    <glyph glyph-name="colon" unicode=":" horiz-adv-x="434" 
d="M53 969q0 72 50 121t122 49t121 -49t49 -121q0 -74 -49 -124t-121 -50t-122 50.5t-50 123.5zM59 154q0 72 50 121t122 49t121 -49t49 -121t-49 -123t-121 -51t-122 51t-50 123z" />
    <glyph glyph-name="semicolon" unicode=";" horiz-adv-x="649" 
d="M193 930q0 73 50 122.5t122 49.5t121 -49.5t49 -122.5q0 -72 -49 -123t-121 -51t-122 51t-50 123zM53 -188l211 460h332l-317 -460h-226z" />
    <glyph glyph-name="less" unicode="&#x3c;" horiz-adv-x="675" 
d="M625 475v-268l-572 414v167l572 414v-266l-338 -231z" />
    <glyph glyph-name="equal" unicode="=" horiz-adv-x="927" 
d="M53 752v225h821v-225h-821zM53 391v225h821v-225h-821z" />
    <glyph glyph-name="greater" unicode="&#x3e;" horiz-adv-x="675" 
d="M625 788v-167l-572 -414v268l336 230l-336 231v266z" />
    <glyph glyph-name="question" unicode="?" horiz-adv-x="1132" 
d="M756 1057q0 69 -45 105t-117 36q-90 0 -188 -54.5t-164 -152.5l-187 213q83 120 234.5 187t316.5 67q94 0 177.5 -24t150 -70.5t105 -123t38.5 -173.5q0 -83 -28.5 -147t-73.5 -104t-100 -72t-110 -60t-100 -59.5t-73.5 -78.5t-28.5 -108h-184q0 93 20.5 166t53.5 117.5
t73.5 79.5t80.5 60.5t73.5 51.5t54.5 62t21 82zM311 154q0 72 51 121t123 49t121 -49t49 -121q0 -74 -49 -124t-121 -50t-123 50.5t-51 123.5z" />
    <glyph glyph-name="at" unicode="@" horiz-adv-x="1478" 
d="M838 991h151v-235q0 -35 0.5 -56.5t3 -57.5t7.5 -59t15 -51t24 -44.5t35.5 -27.5t49.5 -11q69 0 110.5 66.5t41.5 164.5q0 65 -18 129.5t-59 127.5t-100.5 111.5t-149.5 78.5t-199 30q-131 0 -237 -45.5t-172 -121t-101 -169t-35 -194.5q0 -102 35 -195.5t101 -169.5
t172 -121t237 -45q97 0 185.5 34.5t154.5 98.5l88 -118q-191 -158 -428 -158q-135 0 -250.5 37.5t-197 102t-139 150.5t-85 183t-27.5 199t27.5 199t85 182.5t139 150t197 102t250.5 37.5q134 0 248 -37t191 -98.5t131.5 -142t79.5 -165t25 -169.5q0 -154 -79.5 -258
t-221.5 -104q-153 0 -223 94q-76 -129 -227 -129q-82 0 -141.5 50t-86 126t-26.5 166q0 97 30.5 182.5t96 143t153.5 57.5q75 0 138 -37v16zM836 739q-12 61 -49 97t-87 36q-59 0 -92 -71.5t-33 -167.5q0 -86 26.5 -146.5t74.5 -60.5q39 0 69 28t48 76.5t28 99t15 109.5z
" />
    <glyph glyph-name="A" unicode="A" 
d="M16 0l668 1454h348l668 -1454h-365l-98 209h-760l-96 -209h-365zM610 498h496l-248 534z" />
    <glyph glyph-name="B" unicode="B" horiz-adv-x="1546" 
d="M1032 0h-893v1434h768q105 0 190 -35.5t137.5 -94.5t80.5 -132.5t28 -153.5q0 -135 -77 -244q94 -62 143 -159.5t49 -204.5q0 -79 -27.5 -151.5t-79 -131t-134.5 -93t-185 -34.5zM481 858h357q77 0 120 46.5t43 111.5q0 64 -43 111t-120 47h-357v-316zM481 281h480
q79 0 122 47.5t43 113.5q0 65 -43 112.5t-122 47.5h-480v-321z" />
    <glyph glyph-name="C" unicode="C" horiz-adv-x="1591" 
d="M76 717q0 146 46.5 272.5t125 215t179.5 152t210.5 94t218.5 30.5q208 0 379.5 -83t282.5 -233l-244 -227q-68 90 -181.5 151.5t-224.5 61.5q-106 0 -191.5 -37t-139 -99t-81.5 -138.5t-28 -159.5t28 -159.5t81.5 -138.5t139 -99t191.5 -37q240 0 404 221l248 -230
q-118 -150 -291.5 -235.5t-376.5 -85.5q-109 0 -217.5 30.5t-209.5 94t-178.5 152t-124 215t-46.5 272.5z" />
    <glyph glyph-name="D" unicode="D" horiz-adv-x="1720" 
d="M139 1434h799q137 -2 254 -43t199 -109.5t140 -160t86 -194t28 -210.5t-28 -210.5t-86 -194t-140 -160t-199 -109.5t-254 -43h-799v1434zM926 1147h-445v-858h445q87 0 158 36.5t114.5 98t66.5 136.5t23 157q0 65 -14 127t-44 117t-72 96.5t-102 65.5t-130 24z" />
    <glyph glyph-name="E" unicode="E" horiz-adv-x="1443" 
d="M139 0v1434h1239v-287h-897v-285h764v-289h-764v-284h910v-289h-1252z" />
    <glyph glyph-name="F" unicode="F" horiz-adv-x="1392" 
d="M139 0v1434h1237v-287h-895v-359h762v-288h-762v-500h-342z" />
    <glyph glyph-name="G" unicode="G" horiz-adv-x="1628" 
d="M1509 782v-782h-139l-70 117q-188 -164 -448 -164q-109 0 -217.5 30.5t-209.5 94t-178.5 152t-124 215t-46.5 272.5t46.5 272.5t125 215t179.5 152t210.5 94t218.5 30.5q208 0 379.5 -83t282.5 -233l-246 -227q-68 91 -180.5 152t-223.5 61q-106 0 -191.5 -37t-139 -99
t-81.5 -138.5t-28 -159.5t28 -159.5t81.5 -138.5t139 -99t191.5 -37q80 0 141.5 24t97.5 65.5t54 91.5t19 107l-324 2v209h653z" />
    <glyph glyph-name="H" unicode="H" 
d="M139 0v1434h342v-572h752v572h344v-1434h-344v573h-752v-573h-342z" />
    <glyph glyph-name="I" unicode="I" horiz-adv-x="622" 
d="M139 0v1434h342v-1434h-342z" />
    <glyph glyph-name="J" unicode="J" horiz-adv-x="1148" 
d="M35 90l94 313q58 -52 133.5 -81t149.5 -29q111 0 183.5 68.5t72.5 207.5v865h342v-955q0 -110 -33.5 -200t-89.5 -149.5t-131 -99.5t-155 -57.5t-165 -17.5q-124 0 -233 36.5t-168 98.5z" />
    <glyph glyph-name="K" unicode="K" horiz-adv-x="1622" 
d="M1159 0l-516 569l-162 -157v-412h-342v1434h342v-584l602 584h435l-650 -641l736 -793h-445z" />
    <glyph glyph-name="L" unicode="L" horiz-adv-x="1378" 
d="M139 0v1434h342v-1145h883v-289h-1225z" />
    <glyph glyph-name="M" unicode="M" horiz-adv-x="2023" 
d="M139 0v1434h342l531 -961l530 961h342v-1434h-342v836l-465 -836h-131l-465 836v-836h-342z" />
    <glyph glyph-name="N" unicode="N" horiz-adv-x="1802" 
d="M139 0v1434h342l840 -988v988h344v-1434h-344l-840 989v-989h-342z" />
    <glyph glyph-name="O" unicode="O" horiz-adv-x="1765" 
d="M1683 717q0 -148 -48 -275.5t-127.5 -215.5t-183.5 -151t-216 -92.5t-225 -29.5t-225 29.5t-216 92.5t-184 151t-128 215.5t-48 275.5t48 275.5t128 215.5t184 151t216 92.5t225 29.5t225 -29.5t216 -92.5t183.5 -151t127.5 -215.5t48 -275.5zM1335 717q0 85 -27 157.5
t-72 123t-103.5 86t-122 52.5t-127.5 17t-127.5 -17t-122.5 -52.5t-104 -86t-72 -123t-27 -157.5q0 -105 41 -190.5t107.5 -137t145 -79t159.5 -27.5t159.5 27.5t144.5 79t107 137t41 190.5z" />
    <glyph glyph-name="P" unicode="P" horiz-adv-x="1402" 
d="M139 0v1434h750q110 0 199.5 -40t145 -106.5t85 -149t29.5 -171.5t-29.5 -171.5t-85 -149t-145 -106.5t-199.5 -40h-408v-500h-342zM481 788h373q75 0 117.5 53t42.5 126q0 72 -42.5 125t-117.5 53h-373v-357z" />
    <glyph glyph-name="Q" unicode="Q" horiz-adv-x="1765" 
d="M1317 -209l-148 211q-140 -49 -286 -49q-113 0 -225 29.5t-216 92.5t-184 151t-128 215.5t-48 275.5t48 275.5t128 215.5t184 151t216 92.5t225 29.5t225 -29.5t216 -92.5t183.5 -151t127.5 -215.5t48 -275.5q0 -190 -73.5 -337.5t-200.5 -246.5l131 -190zM1335 717
q0 85 -27 157.5t-72 123t-103.5 86t-122 52.5t-127.5 17t-127.5 -17t-122.5 -52.5t-104 -86t-72 -123t-27 -157.5q0 -105 41 -190.5t107.5 -137t145 -79t159.5 -27.5q43 0 86 6l-103 147l224 152l122 -176q123 120 123 305z" />
    <glyph glyph-name="R" unicode="R" horiz-adv-x="1595" 
d="M1151 0l-365 539h-305v-539h-342v1434h838q110 0 199 -38t144.5 -102t84.5 -143.5t29 -165.5q0 -136 -73 -251.5t-206 -166.5l426 -567h-430zM481 825h412q87 0 135.5 47.5t48.5 112.5t-48.5 112.5t-135.5 47.5h-412v-320z" />
    <glyph glyph-name="S" unicode="S" horiz-adv-x="1562" 
d="M1487 1262l-166 -279q-99 87 -260.5 140t-300.5 53q-107 0 -174.5 -37t-67.5 -111q0 -24 10.5 -44t38.5 -36.5t49.5 -27t73 -23t77.5 -18t92 -18.5q81 -16 124.5 -25.5t121 -31t121.5 -42t101 -57t87.5 -78t52.5 -101.5t22 -131q0 -114 -54 -201t-148 -138.5t-210 -77
t-250 -25.5q-214 0 -421.5 59.5t-333.5 159.5l168 287q103 -92 288.5 -151.5t337.5 -59.5q69 0 123 14t88.5 46t34.5 79q0 37 -27 66t-73.5 46.5t-108.5 34.5t-132 29.5t-143.5 32t-143.5 41t-132 57t-108.5 80t-73.5 111.5t-27 149q0 114 49 200.5t135.5 137.5t193 76
t231.5 25q199 0 400 -58t335 -153z" />
    <glyph glyph-name="T" unicode="T" horiz-adv-x="1576" 
d="M14 1434h1551v-285h-604v-1149h-343v1149h-604v285z" />
    <glyph glyph-name="U" unicode="U" horiz-adv-x="1685" 
d="M139 586v848h342v-848q0 -75 31 -135.5t82.5 -98.5t115 -58t132.5 -20q93 0 173 33.5t133.5 106.5t53.5 172v848h344v-848q0 -123 -39.5 -228.5t-107 -179.5t-157.5 -126.5t-191.5 -77.5t-208.5 -25t-208.5 25t-191 77.5t-157 126.5t-107 179.5t-39.5 228.5z" />
    <glyph glyph-name="V" unicode="V" horiz-adv-x="1716" 
d="M1032 -20h-348l-668 1454h365l477 -1035l477 1035h365z" />
    <glyph glyph-name="W" unicode="W" horiz-adv-x="2326" 
d="M827 -20h-274l-537 1454h357l334 -957l342 957h229l342 -957l334 957h356l-536 -1454h-275l-336 911z" />
    <glyph glyph-name="X" unicode="X" horiz-adv-x="1583" 
d="M1567 0h-441l-335 453l-334 -453h-441l564 739l-514 695h405l320 -420l321 420h404l-515 -695z" />
    <glyph glyph-name="Y" unicode="Y" horiz-adv-x="1579" 
d="M16 1434h400l372 -580l373 580h400l-600 -859v-575h-345v575z" />
    <glyph glyph-name="Z" unicode="Z" horiz-adv-x="1386" 
d="M1268 1145l-822 -858l889 2v-289h-1284v289l2 -2v2l840 858h-823v287h1198v-287l-2 -2h2z" />
    <glyph glyph-name="bracketleft" unicode="[" horiz-adv-x="516" 
d="M53 -119v1553h412v-134l-182 -16v-1253l182 -17v-133h-412z" />
    <glyph glyph-name="backslash" unicode="\" horiz-adv-x="1259" 
d="M53 1434h236l919 -1434h-235z" />
    <glyph glyph-name="bracketright" unicode="]" horiz-adv-x="522" 
d="M465 1434v-1553h-412v133l183 17v1253l-183 16v134h412z" />
    <glyph glyph-name="asciicircum" unicode="^" horiz-adv-x="862" 
d="M61 901l312 533h133l311 -533h-235l-144 285l-141 -285h-236z" />
    <glyph glyph-name="underscore" unicode="_" horiz-adv-x="1236" 
d="M53 -27v197h1133v-197h-1133z" />
    <glyph glyph-name="grave" unicode="`" horiz-adv-x="364" 
d="M12 1397l103 116l237 -243l-59 -68z" />
    <glyph glyph-name="a" unicode="a" horiz-adv-x="1372" 
d="M225 752l-69 256q90 55 233 91t289 36q86 0 162.5 -13t147 -44t120.5 -78t80 -119.5t29 -163.5l-3 -332v-6q0 -75 19.5 -103t87.5 -28h14v-248q-89 0 -151.5 4.5t-120 17t-93.5 35t-59.5 59.5t-29.5 89q-63 -101 -185.5 -157.5t-283.5 -57.5q-169 -3 -262 84.5t-93 214.5
q0 74 32.5 144.5t92.5 127.5t157.5 90t215.5 29l180 -4q20 -2 44.5 0t46 6t36.5 17.5t17 35.5v4q0 61 -57 89t-152 28q-114 0 -249 -33t-196 -71zM879 477q-53 -39 -148 -39l-168 2q-66 1 -105.5 -30.5t-39.5 -73.5q0 -38 35 -63.5t100 -24.5q34 2 72.5 9.5t84 24.5
t81.5 40.5t61 62t27 84.5v8z" />
    <glyph glyph-name="b" unicode="b" horiz-adv-x="1482" 
d="M135 0v1536h336v-594q67 96 167 145.5t212 49.5q103 0 201.5 -40t177.5 -112.5t127.5 -185.5t48.5 -246q0 -134 -48.5 -247t-127.5 -185t-177.5 -112t-201.5 -40q-117 0 -219.5 52.5t-169.5 154.5l-31 -176h-295zM1065 553q0 75 -26 136t-69.5 99.5t-97.5 59t-112 20.5
q-56 0 -106.5 -19.5t-92 -57t-66 -99t-24.5 -139.5q0 -152 85.5 -234.5t203.5 -82.5q123 0 214 84.5t91 232.5z" />
    <glyph glyph-name="c" unicode="c" horiz-adv-x="1292" 
d="M76 551q0 113 37.5 211t100 166.5t143.5 118t169 73t176 23.5q165 0 303 -64t228 -180l-238 -209q-105 141 -284 141q-142 0 -221.5 -83.5t-79.5 -196.5t79.5 -196t221.5 -83q97 0 163.5 35.5t120.5 108.5l238 -209q-94 -117 -233 -183.5t-300 -66.5q-87 0 -175 23.5
t-169 73.5t-143 118.5t-99.5 167t-37.5 211.5z" />
    <glyph glyph-name="d" unicode="d" horiz-adv-x="1480" 
d="M1012 1536h336v-1536h-295l-33 176q-67 -103 -169 -155t-220 -52q-81 0 -161 24.5t-150.5 74.5t-124.5 118.5t-85.5 163.5t-31.5 203q0 107 31.5 202t85.5 163.5t124.5 118.5t150.5 75t161 25q113 0 213 -49t168 -146v594zM416 553q0 -76 26.5 -137.5t70 -100t97.5 -59
t111 -20.5q118 0 203.5 82.5t85.5 234.5q0 78 -24.5 139.5t-66 99t-92 57t-106.5 19.5q-57 0 -111 -20.5t-97.5 -59t-70 -99.5t-26.5 -136z" />
    <glyph glyph-name="e" unicode="e" horiz-adv-x="1335" 
d="M76 551q0 113 37.5 211t100 166.5t143.5 118t169 73t176 23.5q116 0 219.5 -41.5t184 -118t128 -197t48.5 -268.5l-864 2q16 -110 92.5 -184t200.5 -74q193 0 299 144l223 -199q-94 -117 -233 -183.5t-300 -66.5q-87 0 -175 23.5t-169 73.5t-143 118.5t-99.5 167
t-37.5 211.5zM442 723h516q-32 78 -93.5 128t-147.5 50q-101 0 -171 -49t-104 -129z" />
    <glyph glyph-name="f" unicode="f" horiz-adv-x="1019" 
d="M203 0v862h-187l-2 209l207 33q-76 91 -76 188q0 83 58.5 147t150.5 96t199 32q141 0 264 -61t184 -179l-186 -156q-37 56 -106 89.5t-134 33.5q-50 0 -81 -22t-31 -64q0 -32 21 -61t57 -41h424l2 -244h-426v-862h-338z" />
    <glyph glyph-name="g" unicode="g" horiz-adv-x="1478" 
d="M1106 1106h240v-975q0 -156 -62 -280.5t-170 -203t-250 -120t-307 -41.5q-101 0 -218.5 30.5t-211.5 77.5l57 308q79 -55 193 -87t229 -32q176 0 290.5 85t113.5 251v43q-67 -96 -166.5 -144.5t-212.5 -48.5q-81 0 -161 24.5t-150.5 74.5t-124.5 118.5t-85.5 163.5
t-31.5 203q0 107 31.5 202t85.5 163.5t124.5 118.5t150.5 75t161 25q114 0 214 -50t169 -147zM416 553q0 -76 26.5 -137.5t70 -100t97.5 -59t111 -20.5q118 0 203.5 82.5t85.5 234.5q0 78 -24.5 139.5t-66 99t-92 57t-106.5 19.5q-57 0 -111 -20.5t-97.5 -59t-70 -99.5
t-26.5 -136z" />
    <glyph glyph-name="h" unicode="h" horiz-adv-x="1499" 
d="M471 0h-336v1536h336v-608q57 90 152 145t225 55q481 0 481 -477v-272q0 -72 24.5 -102.5t92.5 -30.5h14l2 -246q-168 0 -242 14q-229 44 -229 246l2 297q0 164 -58 240.5t-190 76.5q-115 0 -194.5 -86t-79.5 -235v2v-555z" />
    <glyph glyph-name="i" unicode="i" horiz-adv-x="563" 
d="M104 1382q0 75 48.5 120.5t128.5 45.5t129 -45.5t49 -120.5q0 -74 -49.5 -119.5t-128.5 -45.5t-128 45.5t-49 119.5zM449 0h-336v1106h336v-1106z" />
    <glyph glyph-name="j" unicode="j" horiz-adv-x="679" 
d="M207 1382q0 75 49 120.5t129 45.5t128 -45.5t48 -120.5q0 -74 -48.5 -119.5t-127.5 -45.5t-128.5 45.5t-49.5 119.5zM213 295l2 811h336v-1061q0 -110 -29.5 -198t-77.5 -143t-113 -92t-131 -52t-137 -15q-143 0 -233 49l66 287q72 -35 141 -35q77 0 127.5 53.5
t50.5 176.5z" />
    <glyph glyph-name="k" unicode="k" horiz-adv-x="1431" 
d="M135 0v1501h336v-753l395 358h443l-512 -455q57 2 107 -17t88 -50t74 -69t72.5 -76.5t75 -70t90 -51.5t109.5 -20l2 -313q-106 0 -196.5 28t-153.5 72t-117 97.5t-97.5 105.5t-84 94t-86 65.5t-94.5 18.5l-115 -103v-362h-336z" />
    <glyph glyph-name="l" unicode="l" horiz-adv-x="604" 
d="M135 0v1536h336v-1536h-336z" />
    <glyph glyph-name="m" unicode="m" horiz-adv-x="2101" 
d="M469 0h-336v776q-1 24 -4.5 39.5t-15 29t-31.5 13.5h-47v248h49q38 0 63.5 -1t73 -4.5t82 -13.5t71 -25t60 -42t31.5 -62q49 77 127 123.5t180 46.5q298 0 393 -215q37 97 118 156t212 59q225 0 331.5 -118t106.5 -359v-272q0 -73 24 -103t93 -30h14v-246q-166 0 -240 14
q-229 43 -229 246v330q0 145 -44 214.5t-142 69.5q-92 0 -142.5 -70t-56.5 -202v-602h-338v590q0 144 -46 214t-146 70t-155 -83.5t-54 -237.5l-2 2v-555z" />
    <glyph glyph-name="n" unicode="n" horiz-adv-x="1499" 
d="M469 0h-336v776q-1 24 -4.5 39.5t-15 29t-31.5 13.5h-47v248h49q34 0 55.5 -0.5t65 -3.5t73 -9t67.5 -18.5t61.5 -30t41.5 -45.5t21 -63q60 86 156.5 139t222.5 53q481 0 481 -477v-272q0 -73 24 -103t93 -30h14l2 -246q-168 0 -242 14q-229 44 -229 246v297
q0 164 -57.5 240.5t-188.5 76.5q-114 0 -194.5 -87.5t-79.5 -233.5l-2 2v-555z" />
    <glyph glyph-name="o" unicode="o" horiz-adv-x="1435" 
d="M1358 555q0 -114 -38 -212t-102 -166t-147 -116.5t-172.5 -71t-179.5 -22.5t-180 22.5t-173 71t-147 116.5t-102.5 166t-38.5 212t38.5 212t102.5 166t147 116.5t173 71t180 22.5t179.5 -22.5t172.5 -71t147 -116.5t102 -166t38 -212zM1022 555q0 67 -27.5 121t-72 87
t-97 50.5t-106.5 17.5t-106.5 -17.5t-97 -50.5t-72 -87t-27.5 -121q0 -87 47.5 -152t115 -94.5t140.5 -29.5t140.5 29.5t115 94.5t47.5 152z" />
    <glyph glyph-name="p" unicode="p" horiz-adv-x="1482" 
d="M1405 553q0 -134 -48.5 -247t-127.5 -185t-177.5 -112t-201.5 -40q-113 0 -213 49t-168 146v-649l-336 2v1241q0 30 -1.5 47t-13.5 35t-36 18h-47v248h49q34 0 55.5 -0.5t65 -3.5t73 -9t67 -18t61 -29t42 -44.5t21.5 -61.5q67 97 167.5 147t213.5 50q103 0 201.5 -40
t177.5 -112.5t127.5 -185.5t48.5 -246zM1065 553q0 75 -26 136t-69.5 99.5t-97.5 59t-112 20.5q-56 0 -106.5 -19.5t-92 -57t-66 -99t-24.5 -139.5q0 -152 85.5 -234.5t203.5 -82.5q123 0 214 84.5t91 232.5z" />
    <glyph glyph-name="q" unicode="q" horiz-adv-x="1480" 
d="M1069 1106h277v-1536h-336v590q-67 -95 -166.5 -143t-212.5 -48q-81 0 -161 24.5t-150.5 74.5t-124.5 118.5t-85.5 163.5t-31.5 203q0 107 31.5 202t85.5 163.5t124.5 118.5t150.5 75t161 25q114 0 214 -50t167 -147zM416 553q0 -76 26.5 -137.5t70 -100t97.5 -59
t111 -20.5q118 0 203.5 82.5t85.5 234.5q0 78 -24.5 139.5t-66 99t-92 57t-106.5 19.5q-57 0 -111 -20.5t-97.5 -59t-70 -99.5t-26.5 -136z" />
    <glyph glyph-name="r" unicode="r" horiz-adv-x="1093" 
d="M469 0h-336v776q-1 24 -4.5 39.5t-15 29t-31.5 13.5h-47v248h49q35 0 57 -0.5t67 -4t75 -10t68.5 -20t61.5 -32.5t39.5 -49t16.5 -68v-2q131 202 344 202q114 0 242 -61l-78 -254q-64 24 -150 24q-89 0 -168 -26.5t-134.5 -87.5t-55.5 -146v-571z" />
    <glyph glyph-name="s" unicode="s" horiz-adv-x="1345" 
d="M1262 971l-144 -244q-82 62 -223 103.5t-260 41.5q-79 0 -126.5 -22t-47.5 -66q0 -31 44.5 -52.5t115 -35.5t156 -28.5t171.5 -41t156.5 -65t115 -107.5t44.5 -161q0 -91 -45.5 -160t-124.5 -109.5t-176.5 -60.5t-210.5 -20q-179 0 -352.5 46.5t-276.5 125.5l143 254
q81 -72 231 -117t283 -45q86 0 138.5 21.5t52.5 64.5q0 34 -34 56.5t-89.5 34t-126.5 25t-144.5 26.5t-144.5 41t-126.5 66t-89.5 104t-34 153q0 72 27 130.5t73.5 98t111.5 66t137.5 38t154.5 11.5q168 0 340 -47.5t281 -124.5z" />
    <glyph glyph-name="t" unicode="t" horiz-adv-x="1081" 
d="M334 1343h209v-237h448v-244h-448v-432q0 -41 6.5 -71.5t24 -60t53.5 -45t90 -15.5q138 0 244 116l83 -243q-68 -74 -172.5 -120t-205.5 -46t-182.5 22t-144.5 68t-97.5 124t-34.5 183v520l-191 -2v246h191z" />
    <glyph glyph-name="u" unicode="u" horiz-adv-x="1454" 
d="M129 457v649h336v-649q0 -104 66 -160.5t161 -56.5q105 0 184.5 64.5t79.5 176.5v625h336v-727q0 -75 19.5 -103t87.5 -28h14l2 -248q-211 0 -316.5 34t-131.5 136q-64 -97 -166 -149t-215 -52q-88 0 -168.5 31.5t-145.5 90.5t-104 154t-39 212z" />
    <glyph glyph-name="v" unicode="v" horiz-adv-x="1441" 
d="M895 -20h-350l-529 1126h367l338 -811l336 811h368z" />
    <glyph glyph-name="w" unicode="w" horiz-adv-x="1923" 
d="M727 -20h-276l-435 1126h355l247 -686l230 686h225l230 -686l247 686h357l-437 -1126h-276l-233 616z" />
    <glyph glyph-name="x" unicode="x" horiz-adv-x="1382" 
d="M1366 0h-432l-244 301l-241 -301h-433l465 559l-442 547h403l246 -295l246 295h405l-440 -547z" />
    <glyph glyph-name="y" unicode="y" horiz-adv-x="1437" 
d="M139 457v649h336v-649q0 -106 66 -162.5t161 -56.5q65 0 123 25.5t98.5 80t43.5 127.5v635h336v-975q0 -157 -55 -280.5t-154.5 -203t-235 -120.5t-299.5 -41q-100 0 -217.5 30.5t-212.5 77.5l57 308q73 -52 188 -83.5t228 -31.5q194 0 279.5 84.5t85.5 247.5v35
q-64 -91 -163 -140t-208 -49q-87 0 -167.5 31.5t-146 91t-104.5 155t-39 214.5z" />
    <glyph glyph-name="z" unicode="z" horiz-adv-x="1216" 
d="M1122 831l-661 -557h719v-274h-1145v274l682 557h-649v275h1054v-275z" />
    <glyph glyph-name="braceleft" unicode="{" horiz-adv-x="616" 
d="M53 758q112 -6 153.5 37.5t41.5 128.5q0 40 -12.5 134.5t-12.5 141.5q0 57 13 99.5t46.5 80t99 57t161.5 19.5l20 -151q-84 0 -114.5 -42t-30.5 -122q0 -33 6 -108t6 -115q0 -170 -92 -246q92 -76 92 -248q0 -40 -5 -115t-5 -106q0 -80 30 -122t113 -42l-20 -152
q-96 0 -161.5 19.5t-99 57t-46.5 79.5t-13 98q0 48 12.5 144t12.5 137q0 84 -41.5 127t-153.5 37v172z" />
    <glyph glyph-name="bar" unicode="|" horiz-adv-x="311" 
d="M53 -188v1622h205v-1622h-205z" />
    <glyph glyph-name="braceright" unicode="}" horiz-adv-x="616" 
d="M563 758v-172q-112 6 -154 -37.5t-42 -128.5q0 -41 12 -135.5t12 -141.5q0 -56 -13 -98.5t-46 -80t-98.5 -57.5t-161.5 -20l-19 152q83 0 113.5 42.5t30.5 121.5q0 31 -5.5 106t-5.5 115q0 171 93 248q-95 79 -95 246q0 40 7.5 116t7.5 109q0 79 -31.5 120.5t-114.5 41.5
l19 151q96 0 161.5 -19.5t98.5 -57t46 -80t13 -99.5q0 -47 -11 -141.5t-11 -134.5q0 -41 8 -70.5t28.5 -53.5t60 -34.5t97.5 -7.5z" />
    <glyph glyph-name="asciitilde" unicode="~" horiz-adv-x="985" 
d="M229 514l-176 111q126 245 260 245q47 0 102.5 -27t107.5 -54t91 -27q81 0 146 106l172 -108q-129 -225 -270 -225q-47 0 -101.5 25t-105 50t-86.5 25q-79 0 -140 -121z" />
    <glyph glyph-name="exclamdown" unicode="&#xa1;" horiz-adv-x="395" 
d="M369 870q0 -72 -50 -122t-122 -50t-121 50t-49 122t49 123t121 51t122 -51t50 -123zM303 559l68 -969h-346l67 969h211z" />
    <glyph glyph-name="cent" unicode="&#xa2;" horiz-adv-x="1175" 
d="M510 1374l238 -8v-156q178 -29 370 -194l-194 -174q-80 87 -176 127v-629q107 39 204 154l164 -201q-188 -162 -368 -191v-139l-238 8v140q-150 29 -258 114t-158.5 195.5t-50.5 234.5q0 92 30 179t86.5 161t147 128.5t203.5 76.5v174zM510 350v608q-103 -38 -159 -122.5
t-56 -182.5t56 -181.5t159 -121.5z" />
    <glyph glyph-name="sterling" unicode="&#xa3;" horiz-adv-x="1222" 
d="M1036 1440l-4 -248q-62 0 -111.5 -23.5t-81.5 -57.5t-60.5 -94.5t-45 -111t-37.5 -129.5h226l2 -221h-291q-70 -204 -174 -293h710v-262h-1106v174q173 122 267 381h-275l-2 221h342q60 219 93 302q81 201 222 285q128 77 326 77z" />
    <glyph glyph-name="yen" unicode="&#xa5;" horiz-adv-x="1576" 
d="M375 510v199h149l-508 725h400l372 -580l373 580h400l-508 -725h143v-199h-235v-125h235v-199h-235v-186h-345v186h-241v199h241v125h-241z" />
    <glyph glyph-name="dieresis" unicode="&#xa8;" horiz-adv-x="450" 
d="M18 1323q0 38 26.5 64t64.5 26q35 0 61.5 -26.5t26.5 -63.5q0 -35 -27 -61.5t-61 -26.5q-38 0 -64.5 26t-26.5 62zM254 1323q0 38 28.5 64t65.5 26q32 0 58 -26.5t26 -63.5q0 -35 -26.5 -61.5t-57.5 -26.5q-37 0 -65.5 26.5t-28.5 61.5z" />
    <glyph glyph-name="copyright" unicode="&#xa9;" horiz-adv-x="1308" 
d="M45 702q0 165 82 305.5t222 222t304 81.5q124 0 236.5 -48.5t194 -130.5t130 -195t48.5 -237q0 -165 -82 -305t-223 -221.5t-306 -81.5q-164 0 -304 82t-221 222.5t-81 305.5zM135 700q0 -140 69.5 -259t189 -188t259.5 -69q141 0 260.5 69.5t188.5 189t69 259.5
t-69.5 259t-189.5 188.5t-261 69.5q-139 0 -257.5 -70.5t-187.5 -189.5t-71 -259zM864 506l51 -68q-127 -100 -260 -100q-158 0 -270.5 113t-112.5 270q0 158 113.5 270.5t271.5 112.5q130 0 261 -103l-58 -63q-99 80 -205 80q-123 0 -210 -88t-87 -211q0 -121 88 -208
t211 -87q101 0 207 82z" />
    <glyph glyph-name="guillemotleft" unicode="&#xab;" horiz-adv-x="901" 
d="M389 672v98l463 596v-313l-262 -332l262 -334v-311zM53 668v98l463 596v-313l-262 -332l262 -332v-313z" />
    <glyph glyph-name="registered" unicode="&#xae;" horiz-adv-x="702" 
d="M45 1202q0 123 89 209t214 86q123 0 211 -87t88 -208q0 -124 -87 -213.5t-212 -89.5q-127 0 -215 89t-88 214zM96 1202q0 -102 75 -178t177 -76q103 0 177.5 76.5t74.5 177.5q0 100 -75 175t-177 75q-103 0 -177.5 -74.5t-74.5 -175.5zM362 1165l111 -133h-61l-105 129
h-26v-129h-48v348h107q53 -2 87 -31.5t34 -76.5q0 -40 -28 -69.5t-71 -37.5zM281 1343v-139h41q96 0 96 68q0 71 -94 71h-43z" />
    <glyph glyph-name="degree" unicode="&#xb0;" horiz-adv-x="700" 
d="M358 821q-97 0 -167.5 47.5t-103 118.5t-32.5 154t32.5 154t103 118t167.5 47q142 0 221.5 -94.5t79.5 -224.5t-79.5 -225t-221.5 -95zM360 1305q-59 0 -93 -48.5t-34 -113.5q0 -66 33.5 -114t93.5 -48q57 0 89 49t32 115q0 65 -31.5 112.5t-89.5 47.5z" />
    <glyph glyph-name="plusminus" unicode="&#xb1;" horiz-adv-x="1009" 
d="M381 1251h248v-309h327v-225h-327v-297h-248v297h-328v225h328v309zM57 0v225h893v-225h-893z" />
    <glyph glyph-name="acute" unicode="&#xb4;" horiz-adv-x="362" 
d="M12 1284l240 242l100 -115l-278 -194z" />
    <glyph glyph-name="periodcentered" unicode="&#xb7;" horiz-adv-x="446" 
d="M340 725q0 -51 -33.5 -84t-83.5 -33t-82 33t-32 84q0 48 32.5 82.5t81.5 34.5t83 -34.5t34 -82.5z" />
    <glyph glyph-name="cedilla" unicode="&#xb8;" horiz-adv-x="339" 
d="M160 59l114 -32l-53 -119q47 -18 71.5 -52.5t24.5 -74.5q0 -54 -37.5 -95.5t-99.5 -41.5q-42 0 -84 16t-63 32l-21 15l54 94q34 -57 90 -57q19 0 32.5 10.5t16.5 28.5q5 30 -27.5 57.5t-93.5 28.5z" />
    <glyph glyph-name="guillemotright" unicode="&#xbb;" horiz-adv-x="935" 
d="M53 1364l461 -598v-98l-461 -596v313l260 332l-260 334v313zM418 1362l463 -596v-98l-463 -596v313l262 332l-262 332v313z" />
    <glyph glyph-name="questiondown" unicode="&#xbf;" horiz-adv-x="1124" 
d="M819 956q0 -72 -51 -121t-123 -49t-121 49t-49 121q0 74 49 124t121 50t123 -50.5t51 -123.5zM375 53q0 -69 44.5 -106t115.5 -37q90 0 188 55.5t164 153.5l186 -213q-83 -120 -234.5 -187t-316.5 -67q-94 0 -177.5 24t-150 70.5t-105 123t-38.5 173.5q0 83 28.5 147
t73.5 104t100 72t110 60t100 59.5t73.5 78.5t28.5 108h185q0 -93 -20.5 -166t-53.5 -117.5t-73 -79.5t-80 -60.5t-73 -51.5t-54 -62t-21 -82z" />
    <glyph glyph-name="Agrave" unicode="&#xc0;" 
d="M686 1724l102 117l238 -244l-59 -67zM16 0l666 1454h350l666 -1454h-363l-98 209h-760l-96 -209h-365zM610 498h494l-246 534z" />
    <glyph glyph-name="Aacute" unicode="&#xc1;" 
d="M686 1612l240 241l100 -114l-278 -195zM16 0l666 1454h350l666 -1454h-363l-98 209h-760l-96 -209h-365zM610 498h494l-246 534z" />
    <glyph glyph-name="Acircumflex" unicode="&#xc2;" 
d="M776 1567h-127l148 235h118l150 -235h-127l-82 135zM16 0l666 1454h350l666 -1454h-363l-98 209h-760l-96 -209h-365zM610 498h494l-246 534z" />
    <glyph glyph-name="Atilde" unicode="&#xc3;" 
d="M670 1593l-56 95q29 27 46.5 41.5t51.5 30.5t68 16q45 0 89.5 -29t66.5 -29q42 0 113 60l51 -99q-30 -28 -75 -50.5t-85 -22.5q-41 0 -72 14t-53 28.5t-39 14.5q-36 0 -106 -70zM16 0l666 1454h350l666 -1454h-363l-98 209h-760l-96 -209h-365zM610 498h494l-246 534z
" />
    <glyph glyph-name="Adieresis" unicode="&#xc4;" 
d="M651 1651q0 38 25.5 64t62.5 26q36 0 62 -26t26 -64q0 -35 -26.5 -61.5t-61.5 -26.5q-36 0 -62 26t-26 62zM887 1651q0 38 27.5 64t66.5 26q32 0 57 -26.5t25 -63.5q0 -35 -25.5 -61.5t-56.5 -26.5q-38 0 -66 26.5t-28 61.5zM16 0l666 1454h350l666 -1454h-363l-98 209
h-760l-96 -209h-365zM610 498h494l-246 534z" />
    <glyph glyph-name="Aring" unicode="&#xc5;" 
d="M862 1483q-91 0 -141.5 53.5t-50.5 128.5t50.5 129.5t141.5 54.5q87 0 137 -55t50 -129t-50 -128t-137 -54zM860 1745q-36 0 -57 -23.5t-21 -54.5t21 -53.5t57 -22.5q35 0 54.5 22.5t19.5 53.5q0 32 -19.5 55t-54.5 23zM16 0l666 1454h350l666 -1454h-363l-98 209h-760
l-96 -209h-365zM610 498h494l-246 534z" />
    <glyph glyph-name="AE" unicode="&#xc6;" horiz-adv-x="2482" 
d="M16 0l1090 1434h1311v-287h-895v-285h762v-289h-762v-284h909v-289h-1253v209h-625l-166 -209h-371zM780 498h398v503z" />
    <glyph glyph-name="Ccedilla" unicode="&#xc7;" horiz-adv-x="1591" 
d="M76 717q0 122 33 231t90 191.5t132.5 148.5t162.5 107.5t178.5 63.5t181.5 22q209 0 381 -82.5t283 -233.5l-244 -227q-68 90 -181.5 151.5t-224.5 61.5q-106 0 -191.5 -37t-139 -99t-81.5 -138.5t-28 -159.5t28 -159.5t81.5 -138.5t139 -99t191.5 -37q240 0 404 221
l248 -230q-115 -146 -283 -231t-365 -88l-20 -47q47 -18 71.5 -52.5t24.5 -74.5q0 -54 -37.5 -95.5t-99.5 -41.5q-42 0 -84 16t-63 32l-21 15l53 94q34 -57 90 -57q19 0 33 10.5t17 28.5q5 30 -27.5 57.5t-93.5 28.5l37 92q-102 13 -198 50.5t-183 103t-152.5 151t-104 202
t-38.5 249.5z" />
    <glyph glyph-name="Egrave" unicode="&#xc8;" horiz-adv-x="1443" 
d="M551 1724l102 117l238 -244l-60 -67zM139 0v1434h1239v-287h-897v-285h764v-289h-764v-284h910v-289h-1252z" />
    <glyph glyph-name="Eacute" unicode="&#xc9;" horiz-adv-x="1443" 
d="M551 1612l240 241l100 -114l-279 -195zM139 0v1434h1239v-287h-897v-285h764v-289h-764v-284h910v-289h-1252z" />
    <glyph glyph-name="Ecircumflex" unicode="&#xca;" horiz-adv-x="1443" 
d="M641 1567h-127l148 235h118l150 -235h-127l-82 135zM139 0v1434h1239v-287h-897v-285h764v-289h-764v-284h910v-289h-1252z" />
    <glyph glyph-name="Edieresis" unicode="&#xcb;" horiz-adv-x="1443" 
d="M514 1651q0 38 26.5 64t63.5 26q35 0 61.5 -26.5t26.5 -63.5q0 -35 -27 -61.5t-61 -26.5q-37 0 -63.5 26.5t-26.5 61.5zM752 1651q0 38 27.5 64t64.5 26q33 0 58.5 -26.5t25.5 -63.5q0 -35 -25.5 -61.5t-58.5 -26.5q-37 0 -64.5 26.5t-27.5 61.5zM139 0v1434h1239v-287
h-897v-285h764v-289h-764v-284h910v-289h-1252z" />
    <glyph glyph-name="Igrave" unicode="&#xcc;" horiz-adv-x="622" 
d="M139 1724l103 117l239 -244l-61 -67zM139 0v1434h342v-1434h-342z" />
    <glyph glyph-name="Iacute" unicode="&#xcd;" horiz-adv-x="622" 
d="M139 1612l240 241l102 -114l-280 -195zM139 0v1434h342v-1434h-342z" />
    <glyph glyph-name="Icircumflex" unicode="&#xce;" horiz-adv-x="622" 
d="M229 1567h-127l150 235h119l147 -235h-127l-80 135zM139 0v1434h342v-1434h-342z" />
    <glyph glyph-name="Idieresis" unicode="&#xcf;" horiz-adv-x="622" 
d="M104 1651q0 38 26.5 64t64.5 26q35 0 61.5 -26.5t26.5 -63.5q0 -35 -27 -61.5t-61 -26.5q-38 0 -64.5 26t-26.5 62zM340 1651q0 38 28.5 64t65.5 26q32 0 57 -26.5t25 -63.5q0 -35 -25.5 -61.5t-56.5 -26.5q-37 0 -65.5 26.5t-28.5 61.5zM139 0v1434h342v-1434h-342z" />
    <glyph glyph-name="Eth" unicode="&#xd0;" horiz-adv-x="1720" 
d="M139 1434h797q137 -2 254 -43t199.5 -109.5t141 -160t86.5 -194t28 -210.5t-28 -210.5t-86.5 -194t-141 -160t-199.5 -109.5t-254 -43h-797v674h-102v223h102v537zM924 1147h-443v-250h580v-223h-580v-385h443q88 0 159 36.5t115 98t67 136.5t23 157t-23 158t-67 137.5
t-115 98t-159 36.5z" />
    <glyph glyph-name="Ntilde" unicode="&#xd1;" horiz-adv-x="1802" 
d="M713 1593l-54 95q30 29 46 42.5t50 29.5t68 16q36 0 64.5 -14.5t51 -29t42.5 -14.5q42 0 113 60l49 -99q-30 -28 -74.5 -50.5t-85.5 -22.5q-40 0 -70.5 14t-52.5 28.5t-39 14.5q-35 0 -108 -70zM139 0v1434h342l840 -988v988h344v-1434h-344l-840 989v-989h-342z" />
    <glyph glyph-name="Ograve" unicode="&#xd2;" horiz-adv-x="1765" 
d="M713 1724l102 117l238 -244l-60 -67zM1683 717q0 -148 -48 -275.5t-127.5 -215.5t-183.5 -151t-216 -92.5t-225 -29.5t-225.5 29.5t-216.5 92.5t-184.5 151t-128.5 215.5t-48 275.5t48 275.5t128.5 215.5t184.5 151t216.5 92.5t225.5 29.5t225 -29.5t216 -92.5
t183.5 -151t127.5 -215.5t48 -275.5zM1335 717q0 85 -27 157.5t-72 123t-103.5 86t-122 52.5t-127.5 17t-127.5 -17t-122.5 -52.5t-104 -86t-72 -123t-27 -157.5q0 -105 41 -190.5t107.5 -137t145 -79t159.5 -27.5t159.5 27.5t144.5 79t107 137t41 190.5z" />
    <glyph glyph-name="Oacute" unicode="&#xd3;" horiz-adv-x="1765" 
d="M713 1612l239 241l101 -114l-279 -195zM1683 717q0 -148 -48 -275.5t-127.5 -215.5t-183.5 -151t-216 -92.5t-225 -29.5t-225.5 29.5t-216.5 92.5t-184.5 151t-128.5 215.5t-48 275.5t48 275.5t128.5 215.5t184.5 151t216.5 92.5t225.5 29.5t225 -29.5t216 -92.5
t183.5 -151t127.5 -215.5t48 -275.5zM1335 717q0 85 -27 157.5t-72 123t-103.5 86t-122 52.5t-127.5 17t-127.5 -17t-122.5 -52.5t-104 -86t-72 -123t-27 -157.5q0 -105 41 -190.5t107.5 -137t145 -79t159.5 -27.5t159.5 27.5t144.5 79t107 137t41 190.5z" />
    <glyph glyph-name="Ocircumflex" unicode="&#xd4;" horiz-adv-x="1765" 
d="M803 1567h-127l147 235h119l150 -235h-127l-82 135zM1683 717q0 -148 -48 -275.5t-127.5 -215.5t-183.5 -151t-216 -92.5t-225 -29.5t-225.5 29.5t-216.5 92.5t-184.5 151t-128.5 215.5t-48 275.5t48 275.5t128.5 215.5t184.5 151t216.5 92.5t225.5 29.5t225 -29.5
t216 -92.5t183.5 -151t127.5 -215.5t48 -275.5zM1335 717q0 85 -27 157.5t-72 123t-103.5 86t-122 52.5t-127.5 17t-127.5 -17t-122.5 -52.5t-104 -86t-72 -123t-27 -157.5q0 -105 41 -190.5t107.5 -137t145 -79t159.5 -27.5t159.5 27.5t144.5 79t107 137t41 190.5z" />
    <glyph glyph-name="Otilde" unicode="&#xd5;" horiz-adv-x="1765" 
d="M694 1593l-53 95q30 29 46 42.5t50.5 29.5t69.5 16q45 0 89.5 -29t66.5 -29q41 0 112 60l49 -99q-30 -29 -74 -51t-83 -22q-41 0 -72 14t-53 28.5t-39 14.5q-36 0 -109 -70zM1683 717q0 -148 -48 -275.5t-127.5 -215.5t-183.5 -151t-216 -92.5t-225 -29.5t-225.5 29.5
t-216.5 92.5t-184.5 151t-128.5 215.5t-48 275.5t48 275.5t128.5 215.5t184.5 151t216.5 92.5t225.5 29.5t225 -29.5t216 -92.5t183.5 -151t127.5 -215.5t48 -275.5zM1335 717q0 85 -27 157.5t-72 123t-103.5 86t-122 52.5t-127.5 17t-127.5 -17t-122.5 -52.5t-104 -86
t-72 -123t-27 -157.5q0 -105 41 -190.5t107.5 -137t145 -79t159.5 -27.5t159.5 27.5t144.5 79t107 137t41 190.5z" />
    <glyph glyph-name="Odieresis" unicode="&#xd6;" horiz-adv-x="1765" 
d="M676 1651q0 38 26.5 64t63.5 26q35 0 61.5 -26.5t26.5 -63.5q0 -35 -27 -61.5t-61 -26.5q-37 0 -63.5 26.5t-26.5 61.5zM913 1651q0 38 28 64t65 26q33 0 58.5 -26.5t25.5 -63.5q0 -35 -25.5 -61.5t-58.5 -26.5q-37 0 -65 26.5t-28 61.5zM1683 717q0 -148 -48 -275.5
t-127.5 -215.5t-183.5 -151t-216 -92.5t-225 -29.5t-225.5 29.5t-216.5 92.5t-184.5 151t-128.5 215.5t-48 275.5t48 275.5t128.5 215.5t184.5 151t216.5 92.5t225.5 29.5t225 -29.5t216 -92.5t183.5 -151t127.5 -215.5t48 -275.5zM1335 717q0 85 -27 157.5t-72 123
t-103.5 86t-122 52.5t-127.5 17t-127.5 -17t-122.5 -52.5t-104 -86t-72 -123t-27 -157.5q0 -105 41 -190.5t107.5 -137t145 -79t159.5 -27.5t159.5 27.5t144.5 79t107 137t41 190.5z" />
    <glyph glyph-name="multiply" unicode="&#xd7;" horiz-adv-x="925" 
d="M57 928l176 159l228 -208l237 217l172 -164l-233 -215l231 -213l-182 -156l-225 207l-234 -215l-174 164l232 213z" />
    <glyph glyph-name="Oslash" unicode="&#xd8;" horiz-adv-x="1765" 
d="M1683 717q0 -148 -48 -275.5t-127.5 -215.5t-183.5 -151t-216 -92.5t-225 -29.5q-169 0 -326 65l-12 -18h-242l74 117q-137 99 -217 251.5t-80 348.5q0 148 48 275.5t128.5 215.5t184.5 151t216.5 92.5t225.5 29.5q164 0 327 -66l11 19h243l-75 -117q136 -101 215 -252
t79 -348zM561 403l465 727q-77 23 -143 23q-64 0 -127.5 -17t-122.5 -52.5t-104 -86t-72 -123t-27 -157.5q0 -193 131 -314zM1335 717q0 190 -131 311l-465 -725q67 -20 144 -20q81 0 159.5 27.5t144.5 79t107 137t41 190.5z" />
    <glyph glyph-name="Ugrave" unicode="&#xd9;" horiz-adv-x="1685" 
d="M672 1724l100 117l240 -244l-60 -67zM139 586v848h342v-848q0 -75 31 -135.5t82.5 -98.5t115 -58t132.5 -20q93 0 173 33.5t133.5 106.5t53.5 172v848h342v-848q0 -123 -39 -228.5t-106.5 -179.5t-157.5 -126.5t-191 -77.5t-208 -25t-208.5 25t-191 77.5t-157 126.5
t-107 179.5t-39.5 228.5z" />
    <glyph glyph-name="Uacute" unicode="&#xda;" horiz-adv-x="1685" 
d="M672 1612l239 241l101 -114l-281 -195zM139 586v848h342v-848q0 -75 31 -135.5t82.5 -98.5t115 -58t132.5 -20q93 0 173 33.5t133.5 106.5t53.5 172v848h342v-848q0 -123 -39 -228.5t-106.5 -179.5t-157.5 -126.5t-191 -77.5t-208 -25t-208.5 25t-191 77.5t-157 126.5
t-107 179.5t-39.5 228.5z" />
    <glyph glyph-name="Ucircumflex" unicode="&#xdb;" horiz-adv-x="1685" 
d="M760 1567h-125l147 235h119l148 -235h-125l-82 135zM139 586v848h342v-848q0 -75 31 -135.5t82.5 -98.5t115 -58t132.5 -20q93 0 173 33.5t133.5 106.5t53.5 172v848h342v-848q0 -123 -39 -228.5t-106.5 -179.5t-157.5 -126.5t-191 -77.5t-208 -25t-208.5 25t-191 77.5
t-157 126.5t-107 179.5t-39.5 228.5z" />
    <glyph glyph-name="Udieresis" unicode="&#xdc;" horiz-adv-x="1685" 
d="M635 1651q0 38 26 64t64 26q35 0 61.5 -26.5t26.5 -63.5q0 -35 -27 -61.5t-61 -26.5q-38 0 -64 26t-26 62zM872 1651q0 38 28 64t65 26q33 0 58.5 -26.5t25.5 -63.5q0 -35 -25.5 -61.5t-58.5 -26.5q-37 0 -65 26.5t-28 61.5zM139 586v848h342v-848q0 -75 31 -135.5
t82.5 -98.5t115 -58t132.5 -20q93 0 173 33.5t133.5 106.5t53.5 172v848h342v-848q0 -123 -39 -228.5t-106.5 -179.5t-157.5 -126.5t-191 -77.5t-208 -25t-208.5 25t-191 77.5t-157 126.5t-107 179.5t-39.5 228.5z" />
    <glyph glyph-name="Yacute" unicode="&#xdd;" horiz-adv-x="1579" 
d="M618 1612l240 241l100 -114l-278 -195zM16 1434h400l372 -580l373 580h400l-600 -859v-575h-345v575z" />
    <glyph glyph-name="Thorn" unicode="&#xde;" horiz-adv-x="1462" 
d="M139 0v1434h344v-250h430q114 0 206 -40t148.5 -106.5t86.5 -149t30 -171.5t-30 -171.5t-86.5 -149t-148.5 -106.5t-206 -40h-430v-250h-344zM483 539h396q82 0 127 52.5t45 125.5q0 72 -45.5 125t-126.5 53h-396v-356z" />
    <glyph glyph-name="germandbls" unicode="&#xdf;" horiz-adv-x="1482" 
d="M444 0h-344v1006q0 98 30 179.5t81.5 137.5t120.5 95t145.5 57t157.5 18q100 0 193.5 -28t168 -79t119.5 -131.5t45 -177.5q0 -54 -17.5 -97t-42 -70t-49 -49.5t-42 -45t-17.5 -45.5q0 -17 19.5 -32.5t51.5 -28.5t73 -30.5t83.5 -36t83.5 -47.5t73 -63.5t51.5 -85
t19.5 -110.5q0 -95 -39 -170t-104.5 -120.5t-146 -69t-169.5 -23.5q-132 0 -247.5 49.5t-176.5 140.5l164 187q29 -33 86 -54.5t115 -21.5q62 0 101.5 27t39.5 84q0 52 -43.5 91.5t-105 66t-123 54.5t-105 71t-43.5 100q0 46 19 84t45.5 64t53.5 51t46 56.5t19 69.5
q0 83 -54.5 133.5t-128.5 50.5q-84 0 -145.5 -71t-61.5 -207v-979z" />
    <glyph glyph-name="agrave" unicode="&#xe0;" horiz-adv-x="1372" 
d="M516 1397l100 116l240 -243l-59 -68zM225 752l-69 256q90 55 233 91t289 36q86 0 162.5 -13t147 -44t120.5 -78t80 -119.5t29 -163.5l-3 -332v-6q0 -75 19.5 -103t87.5 -28h14v-248q-89 0 -151.5 4.5t-120 17t-93.5 35t-59.5 59.5t-29.5 89q-65 -102 -186.5 -158
t-282.5 -57q-169 -3 -262 84.5t-93 214.5q0 74 32.5 144.5t92.5 127.5t157.5 90t215.5 29l178 -4q21 -2 46 0t46 6t36.5 17.5t17.5 35.5v4q0 61 -57 89t-152 28q-116 0 -250 -33t-195 -71zM879 477q-56 -39 -148 -39l-168 2q-66 1 -105.5 -30.5t-39.5 -73.5q0 -38 35 -63.5
t100 -24.5q44 3 93.5 15t103 36t89.5 68t40 100v10z" />
    <glyph glyph-name="aacute" unicode="&#xe1;" horiz-adv-x="1372" 
d="M516 1284l240 242l100 -115l-281 -194zM225 752l-69 256q90 55 233 91t289 36q86 0 162.5 -13t147 -44t120.5 -78t80 -119.5t29 -163.5l-3 -332v-6q0 -75 19.5 -103t87.5 -28h14v-248q-89 0 -151.5 4.5t-120 17t-93.5 35t-59.5 59.5t-29.5 89q-65 -102 -186.5 -158
t-282.5 -57q-169 -3 -262 84.5t-93 214.5q0 74 32.5 144.5t92.5 127.5t157.5 90t215.5 29l178 -4q21 -2 46 0t46 6t36.5 17.5t17.5 35.5v4q0 61 -57 89t-152 28q-116 0 -250 -33t-195 -71zM879 477q-56 -39 -148 -39l-168 2q-66 1 -105.5 -30.5t-39.5 -73.5q0 -38 35 -63.5
t100 -24.5q44 3 93.5 15t103 36t89.5 68t40 100v10z" />
    <glyph glyph-name="acircumflex" unicode="&#xe2;" horiz-adv-x="1372" 
d="M604 1239h-125l148 236h118l148 -236h-125l-82 135zM225 752l-69 256q90 55 233 91t289 36q86 0 162.5 -13t147 -44t120.5 -78t80 -119.5t29 -163.5l-3 -332v-6q0 -75 19.5 -103t87.5 -28h14v-248q-89 0 -151.5 4.5t-120 17t-93.5 35t-59.5 59.5t-29.5 89
q-65 -102 -186.5 -158t-282.5 -57q-169 -3 -262 84.5t-93 214.5q0 74 32.5 144.5t92.5 127.5t157.5 90t215.5 29l178 -4q21 -2 46 0t46 6t36.5 17.5t17.5 35.5v4q0 61 -57 89t-152 28q-116 0 -250 -33t-195 -71zM879 477q-56 -39 -148 -39l-168 2q-66 1 -105.5 -30.5
t-39.5 -73.5q0 -38 35 -63.5t100 -24.5q44 3 93.5 15t103 36t89.5 68t40 100v10z" />
    <glyph glyph-name="atilde" unicode="&#xe3;" horiz-adv-x="1372" 
d="M498 1266l-54 94q30 29 46 42.5t50 29.5t68 16q36 0 64.5 -14t51 -28.5t42.5 -14.5q44 0 113 59l49 -98q-31 -29 -75 -51.5t-85 -22.5q-40 0 -70.5 14t-52.5 28.5t-39 14.5q-36 0 -108 -69zM225 752l-69 256q90 55 233 91t289 36q86 0 162.5 -13t147 -44t120.5 -78
t80 -119.5t29 -163.5l-3 -332v-6q0 -75 19.5 -103t87.5 -28h14v-248q-89 0 -151.5 4.5t-120 17t-93.5 35t-59.5 59.5t-29.5 89q-65 -102 -186.5 -158t-282.5 -57q-169 -3 -262 84.5t-93 214.5q0 74 32.5 144.5t92.5 127.5t157.5 90t215.5 29l178 -4q21 -2 46 0t46 6
t36.5 17.5t17.5 35.5v4q0 61 -57 89t-152 28q-116 0 -250 -33t-195 -71zM879 477q-56 -39 -148 -39l-168 2q-66 1 -105.5 -30.5t-39.5 -73.5q0 -38 35 -63.5t100 -24.5q44 3 93.5 15t103 36t89.5 68t40 100v10z" />
    <glyph glyph-name="adieresis" unicode="&#xe4;" horiz-adv-x="1372" 
d="M479 1323q0 38 26 64t64 26q35 0 61.5 -26.5t26.5 -63.5q0 -35 -27 -61.5t-61 -26.5q-38 0 -64 26t-26 62zM717 1323q0 38 27.5 64t64.5 26q33 0 58.5 -26.5t25.5 -63.5q0 -35 -25.5 -61.5t-58.5 -26.5q-37 0 -64.5 26.5t-27.5 61.5zM225 752l-69 256q90 55 233 91
t289 36q86 0 162.5 -13t147 -44t120.5 -78t80 -119.5t29 -163.5l-3 -332v-6q0 -75 19.5 -103t87.5 -28h14v-248q-89 0 -151.5 4.5t-120 17t-93.5 35t-59.5 59.5t-29.5 89q-65 -102 -186.5 -158t-282.5 -57q-169 -3 -262 84.5t-93 214.5q0 74 32.5 144.5t92.5 127.5t157.5 90
t215.5 29l178 -4q21 -2 46 0t46 6t36.5 17.5t17.5 35.5v4q0 61 -57 89t-152 28q-116 0 -250 -33t-195 -71zM879 477q-56 -39 -148 -39l-168 2q-66 1 -105.5 -30.5t-39.5 -73.5q0 -38 35 -63.5t100 -24.5q44 3 93.5 15t103 36t89.5 68t40 100v10z" />
    <glyph glyph-name="aring" unicode="&#xe5;" horiz-adv-x="1372" 
d="M688 1188q-90 0 -140 53.5t-50 128.5t50 129.5t140 54.5q89 0 137.5 -53.5t48.5 -128.5t-49 -129.5t-137 -54.5zM688 1448q-37 0 -57.5 -23t-20.5 -55t20 -54t58 -22q35 0 54.5 22.5t19.5 53.5q0 32 -19.5 55t-54.5 23zM225 752l-69 256q90 55 233 91t289 36
q86 0 162.5 -13t147 -44t120.5 -78t80 -119.5t29 -163.5l-3 -332v-6q0 -75 19.5 -103t87.5 -28h14v-248q-89 0 -151.5 4.5t-120 17t-93.5 35t-59.5 59.5t-29.5 89q-65 -102 -186.5 -158t-282.5 -57q-169 -3 -262 84.5t-93 214.5q0 74 32.5 144.5t92.5 127.5t157.5 90
t215.5 29l178 -4q21 -2 46 0t46 6t36.5 17.5t17.5 35.5v4q0 61 -57 89t-152 28q-116 0 -250 -33t-195 -71zM879 477q-56 -39 -148 -39l-168 2q-66 1 -105.5 -30.5t-39.5 -73.5q0 -38 35 -63.5t100 -24.5q44 3 93.5 15t103 36t89.5 68t40 100v10z" />
    <glyph glyph-name="ae" unicode="&#xe6;" horiz-adv-x="2136" 
d="M225 752l-69 256q88 55 231 91t289 36q279 0 422 -129q87 67 193 102t212 35q116 0 219.5 -41.5t184 -118t128 -197t48.5 -268.5l-864 2q16 -110 92.5 -184t201.5 -74q191 0 297 144l226 -199q-94 -116 -234 -183t-301 -67q-113 0 -223.5 39t-205.5 120.5t-144 192.5
q-41 -148 -178 -232t-338 -87q-169 -3 -262 84.5t-93 214.5q0 74 32.5 144.5t92.5 127.5t157.5 90t215.5 29l178 -4q21 -2 46 0t46 6.5t36.5 18.5t17.5 36v2q0 61 -57 89t-152 28q-116 0 -250 -33t-195 -71zM1243 723h518q-34 78 -95.5 128t-147.5 50q-101 0 -171 -49
t-104 -129zM879 477q-56 -39 -148 -39l-168 2q-66 1 -105.5 -30.5t-39.5 -73.5q0 -38 35 -63.5t100 -24.5q44 3 93.5 15t103 36t89.5 68t40 100v10z" />
    <glyph glyph-name="ccedilla" unicode="&#xe7;" horiz-adv-x="1292" 
d="M76 551q0 113 37.5 211t99.5 166.5t143 118t169 73t175 23.5q166 0 304.5 -64t228.5 -180l-238 -209q-108 141 -284 141q-142 0 -221.5 -83.5t-79.5 -196.5t79.5 -196t221.5 -83q96 0 163.5 36t120.5 108l238 -209q-92 -112 -223.5 -178t-284.5 -70l-23 -51
q48 -18 72.5 -52.5t24.5 -74.5q0 -54 -37.5 -95.5t-99.5 -41.5q-42 0 -84 16t-63 32l-21 15l51 94q34 -57 90 -57q45 0 51 39q5 30 -27.5 57.5t-93.5 28.5l39 96q-101 15 -193.5 60t-168.5 116.5t-121 177.5t-45 232z" />
    <glyph glyph-name="egrave" unicode="&#xe8;" horiz-adv-x="1335" 
d="M498 1397l100 116l240 -243l-62 -68zM76 551q0 113 37.5 211t99.5 166.5t143 118t169 73t175 23.5q116 0 220 -41.5t184.5 -118t128.5 -197t49 -268.5l-864 2q16 -110 92.5 -184t200.5 -74q193 0 299 144l223 -199q-94 -117 -233.5 -183.5t-301.5 -66.5
q-87 0 -174.5 23.5t-168.5 73.5t-143 118.5t-99 167t-37 211.5zM440 723h518q-32 77 -94 127.5t-149 50.5q-99 0 -170 -49t-105 -129z" />
    <glyph glyph-name="eacute" unicode="&#xe9;" horiz-adv-x="1335" 
d="M498 1284l237 242l103 -115l-281 -194zM76 551q0 113 37.5 211t99.5 166.5t143 118t169 73t175 23.5q116 0 220 -41.5t184.5 -118t128.5 -197t49 -268.5l-864 2q16 -110 92.5 -184t200.5 -74q193 0 299 144l223 -199q-94 -117 -233.5 -183.5t-301.5 -66.5
q-87 0 -174.5 23.5t-168.5 73.5t-143 118.5t-99 167t-37 211.5zM440 723h518q-32 77 -94 127.5t-149 50.5q-99 0 -170 -49t-105 -129z" />
    <glyph glyph-name="ecircumflex" unicode="&#xea;" horiz-adv-x="1335" 
d="M586 1239h-127l149 236h119l147 -236h-126l-80 135zM76 551q0 113 37.5 211t99.5 166.5t143 118t169 73t175 23.5q116 0 220 -41.5t184.5 -118t128.5 -197t49 -268.5l-864 2q16 -110 92.5 -184t200.5 -74q193 0 299 144l223 -199q-94 -117 -233.5 -183.5t-301.5 -66.5
q-87 0 -174.5 23.5t-168.5 73.5t-143 118.5t-99 167t-37 211.5zM440 723h518q-32 77 -94 127.5t-149 50.5q-99 0 -170 -49t-105 -129z" />
    <glyph glyph-name="edieresis" unicode="&#xeb;" horiz-adv-x="1335" 
d="M461 1323q0 38 26 64t64 26q35 0 61.5 -26.5t26.5 -63.5q0 -35 -27 -61.5t-61 -26.5q-38 0 -64 26t-26 62zM696 1323q0 37 28.5 63.5t66.5 26.5q32 0 57.5 -26.5t25.5 -63.5q0 -35 -26 -61.5t-57 -26.5q-37 0 -66 26.5t-29 61.5zM76 551q0 113 37.5 211t99.5 166.5
t143 118t169 73t175 23.5q116 0 220 -41.5t184.5 -118t128.5 -197t49 -268.5l-864 2q16 -110 92.5 -184t200.5 -74q193 0 299 144l223 -199q-94 -117 -233.5 -183.5t-301.5 -66.5q-87 0 -174.5 23.5t-168.5 73.5t-143 118.5t-99 167t-37 211.5zM440 723h518
q-32 77 -94 127.5t-149 50.5q-99 0 -170 -49t-105 -129z" />
    <glyph glyph-name="igrave" unicode="&#xec;" horiz-adv-x="604" 
d="M133 1397l100 116l240 -243l-61 -68zM471 0h-338v1106h338v-1106z" />
    <glyph glyph-name="iacute" unicode="&#xed;" horiz-adv-x="604" 
d="M133 1284l238 242l102 -115l-280 -194zM471 0h-338v1106h338v-1106z" />
    <glyph glyph-name="icircumflex" unicode="&#xee;" horiz-adv-x="604" 
d="M221 1239h-127l150 236h118l148 -236h-127l-80 135zM471 0h-338v1106h338v-1106z" />
    <glyph glyph-name="idieresis" unicode="&#xef;" horiz-adv-x="604" 
d="M96 1323q0 38 26 64t64 26q35 0 61.5 -26.5t26.5 -63.5q0 -35 -27 -61.5t-61 -26.5q-38 0 -64 26t-26 62zM332 1323q0 38 28.5 64t65.5 26q32 0 58 -26.5t26 -63.5q0 -35 -26.5 -61.5t-57.5 -26.5q-37 0 -65.5 26.5t-28.5 61.5zM471 0h-338v1106h338v-1106z" />
    <glyph glyph-name="ntilde" unicode="&#xf1;" horiz-adv-x="1499" 
d="M561 1266l-55 94q34 31 48 43t49 28.5t69 16.5q45 0 89 -28.5t66 -28.5q44 0 113 59l51 -98q-30 -28 -75.5 -51t-84.5 -23q-32 0 -58.5 9t-40.5 19.5t-31 19.5t-31 9q-37 0 -109 -69zM469 0h-338v758q2 16 0.5 33.5t-5 32.5t-15 24.5t-29.5 9.5h-47v248h47h43t49 -1.5
t55.5 -4.5t54.5 -9t54.5 -14t48 -21.5t41.5 -29.5t27.5 -39t13.5 -51q60 86 156 139t223 53q481 0 481 -477v-272q0 -73 24 -103t93 -30h14v-246q-166 0 -240 14q-229 43 -229 246v297q0 164 -57.5 240.5t-188.5 76.5q-114 0 -195 -87.5t-81 -233.5v2v-555z" />
    <glyph glyph-name="ograve" unicode="&#xf2;" horiz-adv-x="1435" 
d="M547 1397l102 116l238 -243l-60 -68zM1358 555q0 -114 -38 -212t-102 -166t-147 -116.5t-172.5 -71t-179.5 -22.5t-180 22.5t-173 71t-147 116.5t-102.5 166t-38.5 212t38.5 212t102.5 166t147 116.5t173 71t180 22.5t179.5 -22.5t172.5 -71t147 -116.5t102 -166t38 -212
zM1022 555q0 67 -27.5 121t-72 87t-97 50.5t-106.5 17.5t-106.5 -17.5t-97 -50.5t-72 -87t-27.5 -121q0 -87 47.5 -152t115 -94.5t140.5 -29.5t140.5 29.5t115 94.5t47.5 152z" />
    <glyph glyph-name="oacute" unicode="&#xf3;" horiz-adv-x="1435" 
d="M547 1284l239 242l101 -115l-279 -194zM1358 555q0 -114 -38 -212t-102 -166t-147 -116.5t-172.5 -71t-179.5 -22.5t-180 22.5t-173 71t-147 116.5t-102.5 166t-38.5 212t38.5 212t102.5 166t147 116.5t173 71t180 22.5t179.5 -22.5t172.5 -71t147 -116.5t102 -166
t38 -212zM1022 555q0 67 -27.5 121t-72 87t-97 50.5t-106.5 17.5t-106.5 -17.5t-97 -50.5t-72 -87t-27.5 -121q0 -87 47.5 -152t115 -94.5t140.5 -29.5t140.5 29.5t115 94.5t47.5 152z" />
    <glyph glyph-name="ocircumflex" unicode="&#xf4;" horiz-adv-x="1435" 
d="M637 1239h-127l147 236h119l150 -236h-127l-82 135zM1358 555q0 -114 -38 -212t-102 -166t-147 -116.5t-172.5 -71t-179.5 -22.5t-180 22.5t-173 71t-147 116.5t-102.5 166t-38.5 212t38.5 212t102.5 166t147 116.5t173 71t180 22.5t179.5 -22.5t172.5 -71t147 -116.5
t102 -166t38 -212zM1022 555q0 67 -27.5 121t-72 87t-97 50.5t-106.5 17.5t-106.5 -17.5t-97 -50.5t-72 -87t-27.5 -121q0 -87 47.5 -152t115 -94.5t140.5 -29.5t140.5 29.5t115 94.5t47.5 152z" />
    <glyph glyph-name="otilde" unicode="&#xf5;" horiz-adv-x="1435" 
d="M530 1266l-55 94q29 27 46.5 41.5t51.5 30.5t68 16q45 0 89.5 -28.5t66.5 -28.5q43 0 112 59l52 -98q-30 -28 -75.5 -51t-84.5 -23q-41 0 -72 14t-53 28.5t-39 14.5q-38 0 -107 -69zM1358 555q0 -114 -38 -212t-102 -166t-147 -116.5t-172.5 -71t-179.5 -22.5t-180 22.5
t-173 71t-147 116.5t-102.5 166t-38.5 212t38.5 212t102.5 166t147 116.5t173 71t180 22.5t179.5 -22.5t172.5 -71t147 -116.5t102 -166t38 -212zM1022 555q0 67 -27.5 121t-72 87t-97 50.5t-106.5 17.5t-106.5 -17.5t-97 -50.5t-72 -87t-27.5 -121q0 -87 47.5 -152
t115 -94.5t140.5 -29.5t140.5 29.5t115 94.5t47.5 152z" />
    <glyph glyph-name="odieresis" unicode="&#xf6;" horiz-adv-x="1435" 
d="M512 1323q0 38 25.5 64t62.5 26q36 0 62 -26t26 -64q0 -35 -26.5 -61.5t-61.5 -26.5q-36 0 -62 26t-26 62zM748 1323q0 38 27.5 64t66.5 26q32 0 57 -26.5t25 -63.5q0 -35 -25.5 -61.5t-56.5 -26.5q-38 0 -66 26.5t-28 61.5zM1358 555q0 -114 -38 -212t-102 -166
t-147 -116.5t-172.5 -71t-179.5 -22.5t-180 22.5t-173 71t-147 116.5t-102.5 166t-38.5 212t38.5 212t102.5 166t147 116.5t173 71t180 22.5t179.5 -22.5t172.5 -71t147 -116.5t102 -166t38 -212zM1022 555q0 67 -27.5 121t-72 87t-97 50.5t-106.5 17.5t-106.5 -17.5
t-97 -50.5t-72 -87t-27.5 -121q0 -87 47.5 -152t115 -94.5t140.5 -29.5t140.5 29.5t115 94.5t47.5 152z" />
    <glyph glyph-name="divide" unicode="&#xf7;" horiz-adv-x="927" 
d="M334 1047q0 57 37.5 95t93.5 38q57 0 94 -38t37 -95q0 -56 -37 -94t-94 -38q-55 0 -93 38t-38 94zM53 721h821v-139h-821v139zM334 217q0 55 38 93t93 38q57 0 94 -37.5t37 -93.5t-37.5 -94.5t-93.5 -38.5q-55 0 -93 38.5t-38 94.5z" />
    <glyph glyph-name="oslash" unicode="&#xf8;" horiz-adv-x="1435" 
d="M1358 555q0 -114 -38 -212t-102 -166t-147 -116.5t-172.5 -71t-179.5 -22.5q-118 0 -230 37l-106 -164h-242l166 258q-106 78 -167.5 193.5t-61.5 263.5q0 114 38.5 212t102.5 166t147 116.5t173 71t180 22.5q121 0 231 -39l109 170h244l-170 -264q225 -166 225 -455z
M483 375l291 452q-36 4 -55 4q-54 0 -106.5 -17.5t-97 -50.5t-72 -87t-27.5 -121q0 -106 67 -180zM1022 555q0 103 -66 176l-288 -448q32 -4 51 -4q73 0 140.5 29.5t115 94.5t47.5 152z" />
    <glyph glyph-name="ugrave" unicode="&#xf9;" horiz-adv-x="1454" 
d="M555 1397l102 116l240 -243l-61 -68zM129 457v649h336v-649q0 -104 66 -160.5t161 -56.5q105 0 184.5 64.5t79.5 176.5v625h336v-727q0 -75 19.5 -103t87.5 -28h14l2 -248q-212 0 -318 34t-132 134q-63 -97 -164 -148t-215 -51q-87 0 -167.5 31t-146 90t-104.5 154
t-39 213z" />
    <glyph glyph-name="uacute" unicode="&#xfa;" horiz-adv-x="1454" 
d="M555 1284l240 242l102 -115l-281 -194zM129 457v649h336v-649q0 -104 66 -160.5t161 -56.5q105 0 184.5 64.5t79.5 176.5v625h336v-727q0 -75 19.5 -103t87.5 -28h14l2 -248q-212 0 -318 34t-132 134q-63 -97 -164 -148t-215 -51q-87 0 -167.5 31t-146 90t-104.5 154
t-39 213z" />
    <glyph glyph-name="ucircumflex" unicode="&#xfb;" horiz-adv-x="1454" 
d="M645 1239h-127l150 236h118l148 -236h-127l-80 135zM129 457v649h336v-649q0 -104 66 -160.5t161 -56.5q105 0 184.5 64.5t79.5 176.5v625h336v-727q0 -75 19.5 -103t87.5 -28h14l2 -248q-212 0 -318 34t-132 134q-63 -97 -164 -148t-215 -51q-87 0 -167.5 31t-146 90
t-104.5 154t-39 213z" />
    <glyph glyph-name="udieresis" unicode="&#xfc;" horiz-adv-x="1454" 
d="M520 1323q0 38 26 64t64 26q35 0 61.5 -26.5t26.5 -63.5q0 -35 -27 -61.5t-61 -26.5q-38 0 -64 26t-26 62zM756 1323q0 38 28.5 64t65.5 26q32 0 57 -26.5t25 -63.5q0 -35 -25.5 -61.5t-56.5 -26.5q-37 0 -65.5 26.5t-28.5 61.5zM129 457v649h336v-649q0 -104 66 -160.5
t161 -56.5q105 0 184.5 64.5t79.5 176.5v625h336v-727q0 -75 19.5 -103t87.5 -28h14l2 -248q-212 0 -318 34t-132 134q-63 -97 -164 -148t-215 -51q-87 0 -167.5 31t-146 90t-104.5 154t-39 213z" />
    <glyph glyph-name="yacute" unicode="&#xfd;" horiz-adv-x="1437" 
d="M549 1284l239 242l101 -115l-281 -194zM137 457v649h336v-649q0 -107 66.5 -164t162.5 -57q105 0 185 66t80 179v625h336v-975q0 -157 -55 -280.5t-154.5 -203t-235 -120.5t-299.5 -41q-101 0 -217.5 30t-212.5 78l57 308q71 -52 186.5 -83.5t229.5 -31.5
q194 0 279.5 84.5t85.5 247.5v35q-64 -91 -163 -140t-208 -49q-88 0 -169 31.5t-146.5 91t-104.5 155t-39 214.5z" />
    <glyph glyph-name="thorn" unicode="&#xfe;" horiz-adv-x="1482" 
d="M1405 553q0 -134 -48.5 -247t-127.5 -185t-177.5 -112t-201.5 -40q-113 0 -213 49t-168 146v-471l-336 2v1636h336v-391q69 97 169 147t212 50q103 0 201.5 -40t177.5 -112.5t127.5 -185.5t48.5 -246zM1065 553q0 75 -26 136t-69.5 99.5t-97.5 59t-112 20.5
q-56 0 -106.5 -19.5t-92 -57t-66 -99t-24.5 -139.5q0 -152 85.5 -234.5t203.5 -82.5q123 0 214 84.5t91 232.5z" />
    <glyph glyph-name="ydieresis" unicode="&#xff;" horiz-adv-x="1437" 
d="M512 1323q0 38 26 64t64 26q35 0 61.5 -26.5t26.5 -63.5q0 -35 -27 -61.5t-61 -26.5q-38 0 -64 26t-26 62zM750 1323q0 38 27.5 64t64.5 26q32 0 58 -26.5t26 -63.5q0 -35 -26.5 -61.5t-57.5 -26.5q-37 0 -64.5 26.5t-27.5 61.5zM137 457v649h336v-649q0 -107 66.5 -164
t162.5 -57q105 0 185 66t80 179v625h336v-975q0 -157 -55 -280.5t-154.5 -203t-235 -120.5t-299.5 -41q-101 0 -217.5 30t-212.5 78l57 308q71 -52 186.5 -83.5t229.5 -31.5q194 0 279.5 84.5t85.5 247.5v35q-64 -91 -163 -140t-208 -49q-88 0 -169 31.5t-146.5 91
t-104.5 155t-39 214.5z" />
    <glyph glyph-name="Dcroat" unicode="&#x110;" horiz-adv-x="1720" 
d="M139 1434h797q137 -2 254 -43t199.5 -109.5t141 -160t86.5 -194t28 -210.5t-28 -210.5t-86.5 -194t-141 -160t-199.5 -109.5t-254 -43h-797v674h-102v223h102v537zM924 1147h-443v-250h580v-223h-580v-385h443q88 0 159 36.5t115 98t67 136.5t23 157t-23 158t-67 137.5
t-115 98t-159 36.5z" />
    <glyph glyph-name="dcroat" unicode="&#x111;" horiz-adv-x="1480" 
d="M1010 1536h336v-94h184v-223h-184v-1219h-293l-33 176q-67 -103 -169 -155t-220 -52q-81 0 -161 24.5t-150.5 74.5t-124.5 118.5t-85.5 163.5t-31.5 203q0 107 31.5 202t85.5 163.5t124.5 118.5t150.5 75t161 25q113 0 212.5 -49t166.5 -146v277h-506v223h506v94z
M416 553q0 -148 91 -232.5t214 -84.5q118 0 203.5 82.5t85.5 234.5q0 78 -24.5 139.5t-66 99t-92 57t-106.5 19.5q-58 0 -112 -20.5t-97.5 -59t-69.5 -99.5t-26 -136z" />
    <glyph glyph-name="dotlessi" unicode="&#x131;" horiz-adv-x="604" 
d="M471 0h-336v1106h336v-1106z" />
    <glyph glyph-name="Lslash" unicode="&#x141;" horiz-adv-x="1378" 
d="M139 0v479l-94 -33l-68 201l162 55v732h342v-615l199 70l68 -201l-267 -92v-307h883v-289h-1225z" />
    <glyph glyph-name="lslash" unicode="&#x142;" horiz-adv-x="604" 
d="M135 0v440l-143 -51l-72 197l215 78v872h336v-750l143 52l72 -197l-215 -78v-563h-336z" />
    <glyph glyph-name="OE" unicode="&#x152;" horiz-adv-x="2504" 
d="M1384 289h908v-289h-1399q-117 0 -230 25t-220 81t-188 137t-130 203.5t-49 270.5q0 124 34 230.5t94.5 183.5t139 136t171 95t187.5 54t191 18h1386v-287h-895v-285h762v-289h-762v-284zM1040 328v778h-147q-67 0 -130 -12t-124.5 -41t-107 -72t-73.5 -111t-28 -153
t28 -153t73.5 -111t107 -72t124.5 -41t130 -12h147z" />
    <glyph glyph-name="oe" unicode="&#x153;" horiz-adv-x="2285" 
d="M1958 406l225 -199q-94 -117 -233 -183.5t-301 -66.5q-123 0 -245 47.5t-212 136.5q-93 -87 -217.5 -132.5t-251.5 -45.5q-90 0 -179.5 22.5t-172.5 71t-147 116.5t-102 166t-38 212t38 212t102 166t147 116.5t172.5 71t179.5 22.5q127 0 251.5 -46.5t217.5 -134.5
q91 90 213 137.5t246 47.5q116 0 220 -41.5t184 -118t128 -197t49 -268.5l-866 2q19 -111 94.5 -184.5t200.5 -73.5q191 0 297 144zM1391 723h518q-34 78 -96 128t-148 50q-99 0 -169.5 -49t-104.5 -129zM1026 551q0 87 -47.5 152t-115 94.5t-140.5 29.5t-140.5 -29.5
t-115 -94.5t-47.5 -152q0 -88 47.5 -153t115 -94.5t140.5 -29.5t140.5 29.5t115 94.5t47.5 153z" />
    <glyph glyph-name="Scaron" unicode="&#x160;" horiz-adv-x="1562" 
d="M721 1544l-148 236h127l80 -135l82 135h127l-149 -236h-119zM1487 1262l-168 -279q-97 87 -258.5 140t-300.5 53q-107 0 -175.5 -37t-68.5 -111q0 -40 33.5 -69t89.5 -47t129 -33t153.5 -31t161.5 -36.5t154 -55t129 -80t89.5 -118t33.5 -163.5q0 -114 -54 -201
t-148 -138.5t-210 -77t-250 -25.5q-214 0 -421.5 59.5t-335.5 159.5l170 287q103 -92 288.5 -151.5t337.5 -59.5q69 0 123 14t88.5 46t34.5 79q0 37 -27 66t-73.5 46.5t-108.5 34.5t-132 29.5t-143.5 32t-143.5 41t-132 57t-108.5 80t-73.5 111.5t-27 149q0 114 49 200.5
t135.5 137.5t193 76t231.5 25q199 0 400 -58t335 -153z" />
    <glyph glyph-name="scaron" unicode="&#x161;" horiz-adv-x="1345" 
d="M612 1217l-147 235h127l80 -135l82 135h127l-150 -235h-119zM1262 971l-144 -244q-82 62 -223 103.5t-260 41.5q-79 0 -126.5 -22t-47.5 -66q0 -31 44.5 -52.5t115 -35.5t156 -28.5t171.5 -41t156.5 -65t115 -107.5t44.5 -161q0 -91 -45.5 -160t-124.5 -109.5
t-176.5 -60.5t-210.5 -20q-180 0 -353 46.5t-278 125.5l145 254q81 -72 231 -117t283 -45q86 0 138.5 21.5t52.5 64.5q0 34 -34 56.5t-89.5 34t-126.5 25t-144.5 26.5t-144.5 41t-126.5 66t-89.5 104t-34 153q0 72 27 130.5t73.5 98t111.5 66t137.5 38t154.5 11.5
q168 0 340 -47.5t281 -124.5z" />
    <glyph glyph-name="Ydieresis" unicode="&#x178;" horiz-adv-x="1579" 
d="M584 1651q0 38 25.5 64t62.5 26q36 0 62 -26t26 -64q0 -35 -26.5 -61.5t-61.5 -26.5q-36 0 -62 26t-26 62zM819 1651q0 38 27.5 64t66.5 26q32 0 57 -26.5t25 -63.5q0 -35 -25.5 -61.5t-56.5 -26.5q-38 0 -66 26.5t-28 61.5zM16 1434h400l372 -580l373 580h400l-600 -859
v-575h-345v575z" />
    <glyph glyph-name="Zcaron" unicode="&#x17d;" horiz-adv-x="1386" 
d="M635 1544l-150 236h127l82 -135l80 135h127l-147 -236h-119zM1268 1145l-822 -856h889v-289h-1284v289h2h-2l842 858h-823v287h1198v-287l-2 -2h2z" />
    <glyph glyph-name="zcaron" unicode="&#x17e;" horiz-adv-x="1216" 
d="M549 1217l-150 235h127l82 -135l80 135h127l-147 -235h-119zM1122 831l-661 -557h719v-274h-1145v274l680 557h-647v275h1054v-275z" />
    <glyph glyph-name="circumflex" unicode="&#x2c6;" horiz-adv-x="440" 
d="M139 1239h-127l148 236h119l149 -236h-127l-82 135z" />
    <glyph glyph-name="caron" unicode="&#x2c7;" horiz-adv-x="440" 
d="M160 1217l-148 235h127l80 -135l82 135h127l-149 -235h-119z" />
    <glyph glyph-name="ring" unicode="&#x2da;" horiz-adv-x="432" 
d="M221 1188q-91 0 -141.5 53.5t-50.5 128.5t50.5 129.5t141.5 54.5q87 0 137 -55t50 -129t-50 -128t-137 -54zM219 1448q-36 0 -57 -23.5t-21 -54.5t21 -53.5t57 -22.5q35 0 54.5 22.5t19.5 53.5q0 32 -19.5 55t-54.5 23z" />
    <glyph glyph-name="tilde" unicode="&#x2dc;" horiz-adv-x="587" 
d="M106 1266l-53 94q30 29 46 42.5t50 29.5t68 16q36 0 64.5 -14t51 -28.5t42.5 -14.5q43 0 112 59l50 -98q-30 -28 -75.5 -51t-84.5 -23q-40 0 -70.5 14t-52.5 28.5t-39 14.5q-37 0 -109 -69z" />
    <glyph glyph-name="endash" unicode="&#x2013;" horiz-adv-x="849" 
d="M53 514v211h744v-211h-744z" />
    <glyph glyph-name="emdash" unicode="&#x2014;" horiz-adv-x="1308" 
d="M53 500v221h1202v-221h-1202z" />
    <glyph glyph-name="quoteleft" unicode="&#x2018;" horiz-adv-x="481" 
d="M430 1434l-119 -461h-258l201 461h176z" />
    <glyph glyph-name="quoteright" unicode="&#x2019;" horiz-adv-x="481" 
d="M53 973l119 461h258l-203 -461h-174z" />
    <glyph glyph-name="quotesinglbase" unicode="&#x201a;" horiz-adv-x="483" 
d="M53 -170l119 461h260l-205 -461h-174z" />
    <glyph glyph-name="quotedblleft" unicode="&#x201c;" horiz-adv-x="856" 
d="M434 1434l-123 -461h-258l201 461h180zM803 1434l-123 -461h-258l203 461h178z" />
    <glyph glyph-name="quotedblright" unicode="&#x201d;" horiz-adv-x="856" 
d="M422 973l123 461h258l-203 -461h-178zM53 973l123 461h258l-203 -461h-178z" />
    <glyph glyph-name="quotedblbase" unicode="&#x201e;" horiz-adv-x="845" 
d="M53 -170l119 461h260l-205 -461h-174zM416 -170l119 461h260l-205 -461h-174z" />
    <glyph glyph-name="dagger" unicode="&#x2020;" horiz-adv-x="837" 
d="M305 1434h227v-351h254v-225h-254v-1024h-227v1024h-252v225h252v351z" />
    <glyph glyph-name="bullet" unicode="&#x2022;" horiz-adv-x="499" 
d="M53 717q0 77 59 136.5t140 59.5q77 0 137 -60t60 -136q0 -79 -60 -139t-137 -60q-81 0 -140 59.5t-59 139.5z" />
    <glyph glyph-name="guilsinglleft" unicode="&#x2039;" horiz-adv-x="567" 
d="M53 668v98l463 596v-313l-262 -332l262 -332v-313z" />
    <glyph glyph-name="guilsinglright" unicode="&#x203a;" horiz-adv-x="567" 
d="M53 1362l463 -596v-98l-463 -596v313l262 332l-262 332v313z" />
    <glyph glyph-name="Euro" unicode="&#x20ac;" horiz-adv-x="1429" 
d="M14 963h234q33 106 93 195t146 158.5t205 108.5t258 39q237 0 428 -145l-151 -236q-109 93 -258 93q-134 0 -231.5 -58t-151.5 -155h286v-183h-346q-4 -40 -4 -61q0 -24 4 -60h346v-182h-288q56 -100 153 -158.5t232 -58.5q153 0 258 90l153 -235q-93 -75 -192.5 -110.5
t-237.5 -35.5q-140 0 -259.5 39.5t-206 110t-146.5 161t-92 197.5h-232v182h199q0 9 -1 29t-1 29q0 23 4 63h-201v183z" />
    <glyph glyph-name="trademark" unicode="&#x2122;" horiz-adv-x="837" 
d="M512 1434l104 -187l103 187h76v-387h-90v180l-60 -107h-59l-60 107v-180h-88v387h74zM387 1352h-121v-305h-90v305h-123v82h334v-82z" />
    <glyph glyph-name="minus" unicode="&#x2212;" horiz-adv-x="999" 
d="M53 604v225h893v-225h-893z" />
    <glyph glyph-name="a.salt" horiz-adv-x="1480" 
d="M1012 1106h336v-1106h-295l-33 176q-67 -103 -169 -155t-220 -52q-81 0 -161 24.5t-150.5 74.5t-124.5 118.5t-85.5 163.5t-31.5 203q0 107 31.5 202t85.5 163.5t124.5 118.5t150.5 75t161 25q113 0 213 -49t168 -146v164zM416 553q0 -76 26.5 -137.5t70 -100t97.5 -59
t111 -20.5q118 0 203.5 82.5t85.5 234.5q0 78 -24.5 139.5t-66 99t-92 57t-106.5 19.5q-57 0 -111 -20.5t-97.5 -59t-70 -99.5t-26.5 -136z" />
    <glyph glyph-name="d.salt" horiz-adv-x="1505" 
d="M78 553q0 107 31.5 202t85.5 163.5t124.5 118.5t150.5 75t161 25q113 0 212.5 -49t166.5 -144v592h336v-1157q0 -75 19 -103t87 -28h14l2 -248q-213 0 -319 34.5t-131 137.5q-67 -101 -168.5 -152t-218.5 -51q-81 0 -161 24.5t-150.5 74.5t-124.5 118.5t-85.5 163.5
t-31.5 203zM416 553q0 -76 26.5 -137.5t70 -100t97.5 -59t111 -20.5q118 0 203.5 82.5t85.5 234.5q0 78 -24.5 139.5t-66 99t-92 57t-106.5 19.5q-57 0 -111 -20.5t-97.5 -59t-70 -99.5t-26.5 -136z" />
    <glyph glyph-name="g.salt" horiz-adv-x="1390" 
d="M1190 696q0 -101 -43.5 -183.5t-115.5 -134.5t-161.5 -80t-185.5 -28q-136 0 -254 56q-16 -10 -16 -31q0 -33 31.5 -51.5t84.5 -24.5t122 -7.5t145.5 -4t152.5 -9.5t145 -28.5t122 -56.5t84.5 -97.5t31.5 -148.5q0 -93 -56 -168.5t-149.5 -123.5t-210 -73.5t-241.5 -25.5
q-124 0 -236.5 25.5t-203.5 74t-145 128.5t-54 181q0 123 151 197q-32 53 -32 127q0 69 37 128.5t90 98.5q-99 114 -99 283q0 101 43.5 183.5t115.5 134.5t162 80t187 28q158 0 283 -70q22 49 22 105q0 61 -26 114l295 -24q10 -48 10 -80q0 -146 -156 -246q70 -107 70 -248z
M463 707q0 -86 67 -134.5t158 -48.5t158 48.5t67 134.5q0 87 -66.5 135.5t-158.5 48.5t-158.5 -48.5t-66.5 -135.5zM391 -39q-63 -22 -63 -65q0 -51 52.5 -87t130.5 -52.5t169 -16.5q132 0 229 34t97 91q0 32 -38.5 48t-107 19.5t-143.5 3t-167 5t-159 20.5z" />
    <glyph glyph-name="h.salt" horiz-adv-x="1464" 
d="M471 0h-336v1536h336v-608q57 90 152 145t225 55q481 0 481 -477v-651h-338l2 557q0 164 -58 240.5t-190 76.5q-115 0 -194.5 -86t-79.5 -235v2v-555z" />
    <glyph glyph-name="i.salt" horiz-adv-x="628" 
d="M125 1382q0 75 49 120.5t129 45.5t128 -45.5t48 -120.5q0 -74 -48.5 -119.5t-127.5 -45.5t-128.5 45.5t-49.5 119.5zM35 858v248h49q35 0 57 -0.5t67 -4t75 -10t68.5 -20t61.5 -32.5t39.5 -49t16.5 -68v-543q0 -75 19 -103t87 -28h15l2 -248q-79 0 -137 3.5t-113 13
t-91 26.5t-64 44t-41 66t-13 91v542q-4 72 -51 72h-47z" />
    <glyph glyph-name="j.salt" horiz-adv-x="561" 
d="M104 1382q0 75 48.5 120.5t128.5 45.5t129 -45.5t49 -120.5q0 -74 -49.5 -119.5t-128.5 -45.5t-128 45.5t-49 119.5zM115 -365v1471h336v-1471h-336z" />
    <glyph glyph-name="k.salt" horiz-adv-x="1531" 
d="M135 0v1501h336v-753l395 358h443l-463 -410l690 -696h-467l-465 481l-133 -119v-362h-336z" />
    <glyph glyph-name="l.salt" horiz-adv-x="628" 
d="M135 1536h336v-1157q0 -75 19 -103t85 -28h15l2 -248q-96 0 -161.5 5t-125.5 20t-95 42t-55 71t-20 106v1292z" />
    <glyph glyph-name="m.salt" horiz-adv-x="2064" 
d="M471 0h-336v1106h293l35 -156q49 81 128 129.5t183 48.5q298 0 393 -215q37 97 118 156t212 59q225 0 331.5 -118t106.5 -359v-651h-338v590q0 145 -44 214.5t-142 69.5q-92 0 -142.5 -70t-56.5 -202v-602h-338v590q0 144 -46 214t-146 70t-155 -83.5t-54 -237.5l-2 2
v-555z" />
    <glyph glyph-name="n.salt" horiz-adv-x="1460" 
d="M473 553l-2 2v-555h-336v1106h293l39 -176q60 89 157 143.5t226 54.5q481 0 481 -477v-651h-338v557q0 164 -57 240.5t-188 76.5q-114 0 -195 -87.5t-80 -233.5z" />
    <glyph glyph-name="p.salt" horiz-adv-x="1484" 
d="M1407 553q0 -134 -48.5 -247t-127.5 -185t-177.5 -112t-201.5 -40q-113 0 -213 49t-168 146v-649l-336 2v1589h293l33 -180q67 104 170 157.5t221 53.5q103 0 201.5 -40t177.5 -112.5t127.5 -185.5t48.5 -246zM1067 553q0 75 -26 136t-69.5 99.5t-97.5 59t-112 20.5
q-56 0 -106.5 -19.5t-92 -57t-66 -99t-24.5 -139.5q0 -152 85.5 -234.5t203.5 -82.5q123 0 214 84.5t91 232.5z" />
    <glyph glyph-name="r.salt" horiz-adv-x="1095" 
d="M471 571v-571h-336v1106h293l41 -193q133 209 346 209q114 0 242 -61l-78 -254q-65 24 -150 24q-89 0 -168 -26.5t-134.5 -87.5t-55.5 -146z" />
    <glyph glyph-name="u.salt" horiz-adv-x="1427" 
d="M129 457v649h336v-649q0 -104 66 -160.5t161 -56.5q105 0 184.5 64.5t79.5 176.5v625h336v-1106h-336v156q-64 -90 -162.5 -137.5t-207.5 -47.5q-69 0 -134.5 19t-124 59t-103 96.5t-70 137t-25.5 174.5z" />
    <glyph glyph-name="y.salt" horiz-adv-x="1468" 
d="M1427 1106l-520 -1110q-108 -234 -266 -367t-324 -133q-99 0 -194 29.5t-141 60.5l75 277q28 -18 98 -42t126 -24q150 0 284 183h-16l-531 1126h369l336 -811l338 811h366z" />
    </font>
</defs>
</svg>
