<?xml version="1.0" standalone="no"?>
<!DOCTYPE svg PUBLIC "-//W3C//DTD SVG 1.1//EN" "http://www.w3.org/Graphics/SVG/1.1/DTD/svg11.dtd" >
<svg xmlns="http://www.w3.org/2000/svg" xmlns:xlink="http://www.w3.org/1999/xlink" version="1.1">
<metadata>
Created by FontForge 20201107 at Thu Nov 20 10:53:21 2025
 By 
Copyright (c) 2020 by Sarid Ezra. All rights reserved.
</metadata>
<defs>
<font id="Ezra-BlackItalic" horiz-adv-x="1421" >
  <font-face 
    font-family="Ezra Black"
    font-weight="900"
    font-style="italic"
    font-stretch="normal"
    units-per-em="2048"
    panose-1="0 0 0 0 0 0 0 0 0 0"
    ascent="1536"
    descent="-512"
    x-height="1106"
    cap-height="1434"
    bbox="-293 -551 2763 1931"
    underline-thickness="102"
    underline-position="-255"
    unicode-range="U+000D-FB01"
  />
<missing-glyph horiz-adv-x="1024" 
 />
    <glyph glyph-name="fi" unicode="fi" horiz-adv-x="1617" 
d="M1497 0h-440l184 799h-416l-184 -799h-440l184 799h-199l62 272l231 35q-59 92 -37 190q22 96 129 169t256 109t312 36q148 0 274.5 -30t223 -96.5t128.5 -162.5l-368 -174q-51 66 -135.5 97.5t-180.5 31.5q-95 0 -168.5 -26.5t-81.5 -63.5q-6 -28 9 -52t47 -28h866z" />
    <glyph glyph-name=".notdef" horiz-adv-x="1024" 
 />
    <glyph glyph-name="uni0000" horiz-adv-x="0" 
 />
    <glyph glyph-name="uni0000" horiz-adv-x="0" 
 />
    <glyph glyph-name="uni000D" unicode="&#xd;" horiz-adv-x="512" 
 />
    <glyph glyph-name="space" unicode=" " horiz-adv-x="403" 
 />
    <glyph glyph-name="exclam" unicode="!" horiz-adv-x="534" 
d="M262 547l117 887h446l-293 -887h-270zM80 190q22 92 99.5 154t168.5 62t138.5 -62t25.5 -154q-20 -91 -97 -155t-167 -64q-91 0 -139.5 64t-28.5 155z" />
    <glyph glyph-name="quotedbl" unicode="&#x22;" horiz-adv-x="919" 
d="M242 922l213 528h319l-303 -528h-229zM686 922l213 528h318l-302 -528h-229z" />
    <glyph glyph-name="numbersign" unicode="#" horiz-adv-x="1751" 
d="M633 0l270 356h-241l-271 -356h-325l272 356h-217l59 265h359l123 161h-330l61 265h469l295 387h324l-295 -387h241l295 387h326l-295 -387h168l-61 -265h-308l-122 -161h274l-62 -265h-415l-271 -356h-323zM862 621h244l123 161h-244z" />
    <glyph glyph-name="dollar" unicode="$" horiz-adv-x="1519" 
d="M1047 1536h196l-35 -152q154 -20 293 -71t234 -121l-265 -342q-59 60 -151.5 105.5t-192.5 68.5l-39 -168q46 -11 80.5 -20t80.5 -23.5t80 -30t71.5 -36.5t63.5 -47t48.5 -57t33.5 -70.5t11 -84.5q0 -41 -12 -94q-24 -103 -87 -182.5t-153 -128.5t-195 -74.5t-224 -30.5
l-25 -104h-196l24 111q-167 15 -319 65.5t-250 124.5l266 363q63 -62 169.5 -111.5t219.5 -75.5l37 166q-73 20 -125 37.5t-115.5 49.5t-103 69t-67 93.5t-27.5 125.5q0 43 12 96q19 84 62.5 152t103 114.5t135 78.5t157.5 47.5t173 17.5zM901 905l31 133q-94 -10 -105 -59
q-11 -44 74 -74zM997 465l-32 -139q116 0 127 53q7 27 -17.5 47t-77.5 39z" />
    <glyph glyph-name="percent" unicode="%" horiz-adv-x="1781" 
d="M686 879q-131 0 -197.5 65t-66.5 166q0 51 17.5 104t52 101t82 85.5t113 60t138.5 22.5q132 0 200.5 -66.5t68.5 -167.5q0 -65 -28.5 -130t-79.5 -118.5t-130 -87.5t-170 -34zM1720 1434h355l-1680 -1434h-354zM780 1284q-60 0 -98.5 -40.5t-38.5 -88.5q0 -34 23 -56
t67 -22q61 0 100 40t39 87q0 34 -23.5 57t-68.5 23zM1321 0q-131 0 -197.5 65t-66.5 166q0 51 17.5 104t52 101t82 85.5t113 60t138.5 22.5q132 0 200.5 -66t68.5 -167q0 -65 -28.5 -130t-79.5 -119t-130 -88t-170 -34zM1417 422q-68 0 -111.5 -46.5t-43.5 -101.5
q0 -40 25.5 -65t76.5 -25q70 0 114 45.5t44 100.5q0 40 -26.5 66t-78.5 26z" />
    <glyph glyph-name="ampersand" unicode="&#x26;" horiz-adv-x="1716" 
d="M1716 0l-428 -78q-39 45 -96 121q-244 -135 -514 -135q-154 0 -278 46t-199.5 139t-75.5 218q0 47 12 103q17 76 60 142.5t95 114.5t128.5 93.5t141 75t151.5 63.5q-29 106 -29 189q0 57 10 96q22 93 102 163t184 103t214 33q95 0 172.5 -25.5t127.5 -80.5t50 -132
q0 -15 -8 -61q-31 -134 -125.5 -225.5t-239.5 -163.5q49 -92 117 -203q40 75 60 160l364 -8q-62 -261 -219 -455q55 -76 110.5 -149t84.5 -108zM1069 1049q108 59 125 127q10 42 -4 66t-41 24q-26 0 -51 -24t-35 -66q-12 -53 6 -127zM991 330q-111 173 -180 317
q-66 -30 -109.5 -55.5t-77 -61.5t-42.5 -77q-18 -74 41.5 -119t164.5 -45q104 0 203 41z" />
    <glyph glyph-name="quotesingle" unicode="'" horiz-adv-x="452" 
d="M455 1450h319l-303 -528h-229z" />
    <glyph glyph-name="parenleft" unicode="(" horiz-adv-x="636" 
d="M324 -82q-162 152 -162 471q0 196 62.5 403.5t183 389.5t274.5 282l238 -73q-125 -93 -225.5 -267t-154 -371.5t-53.5 -377.5q0 -261 111 -383z" />
    <glyph glyph-name="parenright" unicode=")" horiz-adv-x="634" 
d="M274 -82l-239 74q126 92 227 265.5t154 371t53 377.5q0 259 -111 385l273 73q82 -76 123 -199t41 -274q0 -196 -62.5 -403t-183.5 -388.5t-275 -281.5z" />
    <glyph glyph-name="asterisk" unicode="*" horiz-adv-x="659" 
d="M877 1374l16 -196l-158 -23l76 -106l-190 -125l-48 143l-108 -137l-135 119l121 104l-142 18l103 201l129 -63l12 125h205l-43 -125z" />
    <glyph glyph-name="plus" unicode="+" horiz-adv-x="1032" 
d="M172 582l64 272h323l64 276h307l-64 -276h326l-64 -272h-323l-70 -299h-309l70 299h-324z" />
    <glyph glyph-name="comma" unicode="," horiz-adv-x="718" 
d="M-106 -285l428 607h423l-561 -607h-290z" />
    <glyph glyph-name="hyphen" unicode="-" horiz-adv-x="1163" 
d="M172 582l64 272h1087l-63 -272h-1088z" />
    <glyph glyph-name="period" unicode="." horiz-adv-x="542" 
d="M98 190q22 92 100 154t169 62t138 -62t25 -154q-20 -91 -97 -155t-167 -64q-91 0 -139.5 64t-28.5 155z" />
    <glyph glyph-name="slash" unicode="/" horiz-adv-x="1294" 
d="M1288 1434h299l-1249 -1434h-301z" />
    <glyph glyph-name="zero" unicode="0" horiz-adv-x="1533" 
d="M227 717q34 148 102.5 274t157 215t193.5 152t213.5 93t216.5 30q114 0 213 -35t176 -101.5t121.5 -172.5t44.5 -240q0 -98 -27 -215q-42 -184 -136.5 -333t-216 -241t-257 -141t-270.5 -49q-114 0 -213.5 35t-177 101t-122 172t-44.5 239q0 104 26 217zM631 717
q-13 -57 -13 -96q0 -114 68.5 -176t169.5 -62q79 0 155 36t139 113.5t87 184.5q12 53 12 98q0 115 -68 177.5t-169 62.5q-123 0 -234 -89.5t-147 -248.5z" />
    <glyph glyph-name="one" unicode="1" horiz-adv-x="917" 
d="M838 1456h290l-335 -1456h-451l213 922l-156 -107l-137 232z" />
    <glyph glyph-name="two" unicode="2" horiz-adv-x="1247" 
d="M987 1028q9 42 -24.5 65t-96.5 23q-103 0 -229 -58.5t-223 -170.5l-76 373q102 112 264 172.5t330 60.5q78 0 149.5 -13.5t133 -41.5t106.5 -68t70.5 -96.5t25.5 -124.5q0 -51 -10 -92q-20 -86 -68 -161t-107.5 -128t-139.5 -107t-152.5 -94t-159 -94.5t-147.5 -103.5
h657l-84 -369h-1165q30 130 80 240.5t109 188.5t127 142.5t137 109t136 82t127.5 68t108 59.5t80 63.5t41.5 74.5z" />
    <glyph glyph-name="three" unicode="3" horiz-adv-x="1372" 
d="M627 647h-27l68 275q178 0 269 49.5t91 109.5q0 29 -23.5 48.5t-62.5 19.5q-221 0 -418 -191l-110 261q126 126 277 187.5t298 61.5q239 0 367.5 -94t128.5 -233q0 -93 -59.5 -185.5t-170.5 -162.5q162 -111 162 -285q0 -78 -35 -156t-105 -148t-165.5 -124t-226.5 -85.5
t-277 -31.5q-174 0 -310.5 74.5t-195.5 224.5l222 326q105 -223 399 -223q111 0 185.5 44.5t74.5 100.5q0 58 -88 97.5t-268 39.5z" />
    <glyph glyph-name="four" unicode="4" horiz-adv-x="1398" 
d="M1436 240h-230l-55 -240l-453 -2l58 242h-680l86 368l995 834l324 -8l-191 -826h230zM590 608h250l61 260z" />
    <glyph glyph-name="five" unicode="5" horiz-adv-x="1368" 
d="M514 578l-268 18l299 838h960l-84 -369h-602l-43 -121q64 6 129 6q131 0 233 -31t164 -85t93.5 -123t31.5 -148q0 -85 -34.5 -172.5t-104 -167t-164 -141t-225 -98.5t-276.5 -37q-119 0 -217.5 33t-175 108.5t-105.5 185.5l346 179q13 -55 79 -84t146 -29
q130 0 212.5 54.5t82.5 121.5q0 51 -53 85t-156 34q-145 0 -268 -57z" />
    <glyph glyph-name="six" unicode="6" horiz-adv-x="1425" 
d="M721 -31q-132 0 -233 42t-162.5 116.5t-92 169t-30.5 205.5q0 107 28.5 220.5t80 220.5t129.5 202t172 166.5t213 113t247 41.5q91 0 177.5 -21t145 -51t103.5 -60t67 -51l21 -21l-231 -261q-6 5 -17.5 13t-48.5 29t-76 37t-97.5 29t-115.5 13q-103 0 -190 -64.5
t-145 -168.5q128 69 315 69q127 0 225 -30.5t158 -83t90.5 -120t30.5 -146.5q0 -84 -33 -170.5t-99.5 -165t-156.5 -139.5t-213.5 -97.5t-261.5 -36.5zM651 459q60 -66 168 -66q109 0 177.5 43.5t68.5 95.5q0 38 -41 63.5t-121 25.5q-53 0 -96 -8t-69.5 -21t-45.5 -29.5
t-28 -33t-13 -31.5t-3.5 -25t3.5 -14z" />
    <glyph glyph-name="seven" unicode="7" horiz-adv-x="1257" 
d="M137 0l783 1065h-652l84 369h1217l-13 -56l-921 -1378h-498z" />
    <glyph glyph-name="eight" unicode="8" horiz-adv-x="1447" 
d="M418 1085q40 172 217.5 277.5t429.5 105.5q222 0 349.5 -83.5t127.5 -225.5q0 -38 -8 -74q-23 -97 -91.5 -174t-174.5 -127q119 -45 182 -121t63 -178q0 -41 -8 -77q-46 -197 -262 -318t-524 -121q-275 0 -434.5 97.5t-159.5 261.5q0 32 10 80q30 129 137 226t273 150
q-135 81 -135 228q0 37 8 73zM940 932q98 0 158.5 40.5t60.5 90.5q0 40 -43 67t-125 27q-100 0 -159.5 -39.5t-59.5 -89.5q0 -41 43 -68.5t125 -27.5zM803 334q120 0 193 51t73 115q0 51 -51.5 84.5t-149.5 33.5q-122 0 -195 -50t-73 -113q0 -51 52 -86t151 -35z" />
    <glyph glyph-name="nine" unicode="9" horiz-adv-x="1423" 
d="M1036 1466q132 0 233 -42t162.5 -116t92 -168.5t30.5 -205.5q0 -129 -39.5 -265t-116.5 -260.5t-180.5 -223t-242.5 -157.5t-291 -59q-91 0 -177.5 21t-145 51t-103.5 60.5t-66 51.5l-22 21l229 260q6 -5 17.5 -13t48.5 -29t76 -37t97.5 -29t115.5 -13q103 0 191.5 65.5
t146.5 168.5q-133 -70 -318 -70q-126 0 -224.5 30.5t-158 84t-89.5 121t-30 145.5q0 84 33 170t99.5 164.5t156.5 139.5t213.5 97.5t261.5 36.5zM1104 977q-60 63 -166 63q-110 0 -179 -43.5t-69 -95.5q0 -38 42 -63t122 -25q53 0 95.5 8.5t69 21.5t45.5 29.5t27.5 33
t12.5 32t3.5 25.5t-3.5 14z" />
    <glyph glyph-name="colon" unicode=":" horiz-adv-x="485" 
d="M260 969q22 91 99.5 153t168.5 62t138.5 -62t25.5 -153q-22 -93 -98 -156t-166 -63q-91 0 -140.5 63.5t-27.5 155.5zM80 190q22 92 99.5 154t168.5 62t138.5 -62t25.5 -154q-20 -91 -97 -155t-167 -64q-91 0 -139.5 64t-28.5 155z" />
    <glyph glyph-name="semicolon" unicode=";" horiz-adv-x="753" 
d="M432 969q22 90 99 152.5t167 62.5q92 0 140 -62t26 -153q-22 -93 -98 -156t-166 -63q-91 0 -140.5 63.5t-27.5 155.5zM-8 -207l375 529h424l-508 -529h-291z" />
    <glyph glyph-name="less" unicode="&#x3c;" horiz-adv-x="681" 
d="M760 500l-76 -330l-506 438l45 193l707 440l-76 -330l-346 -206z" />
    <glyph glyph-name="equal" unicode="=" horiz-adv-x="921" 
d="M209 737l63 275h846l-63 -275h-846zM117 340l63 274h846l-63 -274h-846z" />
    <glyph glyph-name="greater" unicode="&#x3e;" horiz-adv-x="681" 
d="M829 801l-45 -193l-706 -438l76 330l346 205l-252 206l76 330z" />
    <glyph glyph-name="question" unicode="?" horiz-adv-x="1093" 
d="M881 1053q9 38 -9 59t-55 21q-59 0 -148 -51t-180 -148l-170 270q112 120 277.5 187t327.5 67q170 0 278.5 -75t108.5 -220q0 -39 -13 -96q-17 -74 -58 -133t-93 -96.5t-111 -68t-117 -56t-107 -52.5t-85 -65t-47 -86h-219q23 100 62 176.5t81.5 119t89 77.5t84.5 56
t66.5 50t36.5 64zM297 190q20 92 97.5 154t168.5 62q92 0 139 -61.5t27 -154.5q-22 -92 -98.5 -155.5t-167.5 -63.5t-139.5 64t-26.5 155z" />
    <glyph glyph-name="at" unicode="@" horiz-adv-x="1476" 
d="M1053 999h182l-57 -245q-27 -119 -27 -176q0 -111 80 -111t138 94t58 215q0 69 -22 130t-68.5 114t-130 84t-194.5 31q-148 0 -275.5 -57.5t-210 -148.5t-129.5 -201.5t-47 -219.5q0 -80 25.5 -148t76.5 -122t134.5 -84.5t191.5 -30.5q149 0 301 84l68 -141
q-203 -111 -408 -111q-145 0 -257.5 41t-180.5 112.5t-102.5 162.5t-34.5 196q0 114 38.5 231.5t115.5 225t181.5 191t247.5 133.5t302 50q117 0 212.5 -27.5t159.5 -73.5t108 -109t63.5 -132.5t19.5 -144.5q0 -125 -51 -238t-148 -185.5t-217 -72.5q-148 0 -203 82
q-104 -116 -254 -116q-101 0 -151.5 65t-50.5 170q0 82 30 170.5t81.5 163t127.5 122.5t160 48q62 0 115 -29zM989 737q-1 55 -26 86t-66 31q-45 0 -86.5 -53.5t-64.5 -125.5t-23 -134q0 -97 55 -97q112 0 211 293z" />
    <glyph glyph-name="A" unicode="A" horiz-adv-x="1771" 
d="M0 0l991 1454h463l318 -1454h-480l-41 182h-645l-125 -182h-481zM856 553h315l-77 348z" />
    <glyph glyph-name="B" unicode="B" horiz-adv-x="1593" 
d="M1083 0h-960l332 1434h831q178 0 269.5 -93.5t91.5 -236.5q0 -48 -13 -105q-28 -120 -112 -227q106 -97 106 -254q0 -50 -12 -102q-19 -81 -64.5 -155t-112 -132.5t-159.5 -93.5t-197 -35zM778 885h275q53 0 90 33t47 77q10 45 -12 78t-74 33h-275zM657 356h402
q53 0 90 31.5t47 73.5q10 43 -13 74.5t-75 31.5h-403z" />
    <glyph glyph-name="C" unicode="C" horiz-adv-x="1622" 
d="M227 717q34 146 111.5 273t179 216.5t220.5 154t239.5 95.5t232.5 31q226 0 385 -83t240 -235l-389 -299q-41 76 -128.5 132.5t-187.5 56.5q-88 0 -165 -29t-131.5 -77.5t-91.5 -109t-52 -126.5q-10 -45 -10 -80q0 -112 74.5 -186t218.5 -74q72 0 133.5 16t113 49
t81.5 58t75 69l254 -295q-344 -327 -778 -327q-98 0 -191.5 24t-176 73t-145 117.5t-98.5 165t-36 208.5q0 83 22 182z" />
    <glyph glyph-name="D" unicode="D" horiz-adv-x="1767" 
d="M455 1434h850q148 -1 263 -45t184.5 -119.5t104.5 -171t35 -207.5q0 -93 -20 -174q-25 -108 -77.5 -211t-134 -194t-182.5 -160t-231 -110t-272 -42h-852zM1210 1067h-389l-162 -698h390q88 0 164.5 51.5t124 129t67.5 167.5q12 56 12 110q0 105 -52 172.5t-155 67.5z
" />
    <glyph glyph-name="E" unicode="E" horiz-adv-x="1466" 
d="M123 0l332 1434h1292l-86 -369h-842l-37 -164h705l-86 -369h-705l-37 -163h857l-86 -369h-1307z" />
    <glyph glyph-name="F" unicode="F" horiz-adv-x="1415" 
d="M123 0l332 1434h1292l-86 -369h-842l-53 -236h704l-86 -368h-704l-107 -461h-450z" />
    <glyph glyph-name="G" unicode="G" horiz-adv-x="1658" 
d="M1733 782l-181 -782h-151l-53 96q-220 -149 -496 -149q-98 0 -191.5 24t-176 73t-145 117.5t-98.5 165t-36 208.5q0 83 22 182q34 146 111.5 273t179 216.5t220.5 154t239.5 95.5t232.5 31q226 0 385 -83t240 -235l-389 -299q-41 76 -128.5 132.5t-187.5 56.5
q-88 0 -165 -29t-131.5 -77.5t-91.5 -109t-52 -126.5q-10 -45 -10 -80q0 -112 74.5 -186t218.5 -74q209 0 270 153h-301l57 252h734z" />
    <glyph glyph-name="H" unicode="H" horiz-adv-x="1781" 
d="M123 0l332 1434h450l-123 -533h633l123 533h451l-330 -1434h-451l123 532h-635l-123 -532h-450z" />
    <glyph glyph-name="I" unicode="I" horiz-adv-x="698" 
d="M123 0l332 1434h450l-332 -1434h-450z" />
    <glyph glyph-name="J" unicode="J" horiz-adv-x="1196" 
d="M762 612l190 822h451l-221 -955q-25 -110 -82.5 -200t-131.5 -149.5t-165 -99.5t-182 -57.5t-183 -17.5q-135 0 -243 37t-154 98l213 406q49 -49 114.5 -76t133.5 -27q93 0 164 54.5t96 164.5z" />
    <glyph glyph-name="K" unicode="K" horiz-adv-x="1677" 
d="M1104 0l-313 522l-117 -92l-101 -430h-450l332 1434h450l-106 -457l596 457h563l-795 -621l514 -813h-573z" />
    <glyph glyph-name="L" unicode="L" horiz-adv-x="1400" 
d="M123 0l332 1434h450l-246 -1065h828l-86 -369h-1278z" />
    <glyph glyph-name="M" unicode="M" horiz-adv-x="2091" 
d="M961 0l-230 682l-158 -682h-450l332 1434h450l279 -838l665 838h451l-332 -1434h-450l157 682l-545 -682h-169z" />
    <glyph glyph-name="N" unicode="N" horiz-adv-x="1890" 
d="M123 0l332 1434h450l543 -869l201 869h450l-332 -1434h-450l-543 868l-201 -868h-450z" />
    <glyph glyph-name="O" unicode="O" horiz-adv-x="1783" 
d="M1882 717q-29 -126 -89.5 -236.5t-140 -193.5t-175 -149t-197.5 -107t-203.5 -62.5t-197.5 -21.5q-101 0 -197 22.5t-182 70.5t-150.5 116t-102.5 165t-38 211q0 94 22 185q29 126 89 236.5t139.5 193.5t175 149t197.5 107t204 62.5t199 21.5q101 0 197 -23t182 -71
t150.5 -116t102.5 -165.5t38 -212.5q0 -74 -23 -182zM1421 717q11 53 11 82q0 63 -25.5 113.5t-68 82t-95 48t-108.5 16.5q-88 0 -177.5 -36.5t-165 -117t-100.5 -188.5q-10 -48 -10 -82q0 -123 87.5 -191.5t207.5 -68.5q65 0 133.5 22t131.5 62.5t111.5 108t67.5 149.5z
" />
    <glyph glyph-name="P" unicode="P" horiz-adv-x="1425" 
d="M123 0l332 1434h782q97 0 171.5 -28.5t120 -79t68.5 -114t23 -137.5q0 -62 -14 -119q-21 -91 -71.5 -175t-123.5 -151.5t-175.5 -108t-217.5 -40.5h-332l-113 -481h-450zM770 848h279q48 0 81.5 32t43.5 76q10 45 -9 77t-67 32h-279z" />
    <glyph glyph-name="Q" unicode="Q" horiz-adv-x="1781" 
d="M1276 -182l-86 180q-154 -51 -311 -51q-101 0 -197 22.5t-182 70.5t-150.5 116t-102.5 165t-38 211q0 94 22 185q29 126 89 236.5t139.5 193.5t175 149t197.5 107t204 62.5t199 21.5q101 0 197 -23t182 -71t150.5 -116t102.5 -165.5t38 -212.5q0 -74 -23 -182
q-77 -331 -354 -543l80 -166zM1421 717q11 53 11 82q0 63 -25.5 113.5t-68 82t-95 48t-108.5 16.5q-88 0 -177.5 -36.5t-165 -117t-100.5 -188.5q-10 -48 -10 -82q0 -123 87.5 -191.5t207.5 -68.5q21 0 33 2l-56 115l332 190l60 -125q54 70 75 160z" />
    <glyph glyph-name="R" unicode="R" horiz-adv-x="1642" 
d="M1075 0l-213 496h-174l-115 -496h-450l332 1434h888q96 0 170.5 -28t120.5 -77.5t69 -112t23 -135.5q0 -48 -14 -116q-31 -136 -125.5 -253t-234.5 -173l290 -539h-567zM774 864h311q64 0 107 30t53 71q8 40 -20.5 70t-91.5 30h-314z" />
    <glyph glyph-name="S" unicode="S" horiz-adv-x="1650" 
d="M1888 1257l-291 -368q-93 93 -256.5 150t-300.5 57q-148 0 -163 -66q-7 -30 24 -52.5t87.5 -36.5t130.5 -32t153 -35.5t155 -49.5t135.5 -72t96.5 -105t37 -147q0 -44 -13 -101q-22 -95 -76.5 -171t-129.5 -127t-171 -85.5t-199.5 -49.5t-217.5 -15q-227 0 -444.5 58
t-350.5 155l293 389q104 -96 299 -161.5t342 -65.5q138 0 150 57q7 29 -23.5 52.5t-86.5 39t-129 35.5t-151 39.5t-153 53.5t-134 76t-95.5 108.5t-36.5 148.5q0 44 12 100q27 116 97 203t170 138t216 75.5t248 24.5q215 0 426.5 -60.5t349.5 -159.5z" />
    <glyph glyph-name="T" unicode="T" horiz-adv-x="1597" 
d="M332 1434h1599l-86 -369h-573l-246 -1065h-451l246 1065h-575z" />
    <glyph glyph-name="U" unicode="U" horiz-adv-x="1740" 
d="M264 606l191 828h450l-190 -828q-18 -77 13 -133.5t90.5 -82t135.5 -25.5q120 0 223.5 63.5t129.5 177.5l190 828h451l-191 -828q-37 -159 -130.5 -287.5t-218 -208t-266 -121.5t-284.5 -42q-124 0 -233.5 32t-194.5 92.5t-134.5 158t-49.5 219.5q0 75 18 157z" />
    <glyph glyph-name="V" unicode="V" horiz-adv-x="1773" 
d="M1112 -20h-463l-317 1454h479l199 -904l612 904h481z" />
    <glyph glyph-name="W" unicode="W" horiz-adv-x="2414" 
d="M905 -20h-358l-215 1454h465l102 -822l492 822h297l112 -822l479 822h465l-884 -1454h-359l-117 786z" />
    <glyph glyph-name="X" unicode="X" horiz-adv-x="1681" 
d="M1679 0h-575l-180 362l-349 -362h-575l735 741l-342 693h527l176 -330l327 330h527l-664 -693z" />
    <glyph glyph-name="Y" unicode="Y" horiz-adv-x="1665" 
d="M332 1434h526l191 -496l419 496h525l-805 -869l-131 -565h-451l131 565z" />
    <glyph glyph-name="Z" unicode="Z" 
d="M1561 1065l-924 -696h833l-84 -369h-1349l86 369l942 696h-764l86 369h1260z" />
    <glyph glyph-name="bracketleft" unicode="[" horiz-adv-x="550" 
d="M10 -119l359 1553h475l-39 -168l-193 -15l-274 -1188l186 -12l-39 -170h-475z" />
    <glyph glyph-name="backslash" unicode="\" horiz-adv-x="1282" 
d="M369 1434h288l588 -1434h-289z" />
    <glyph glyph-name="bracketright" unicode="]" horiz-adv-x="557" 
d="M844 1434l-359 -1553h-475l39 170l193 12l274 1188l-186 15l39 168h475z" />
    <glyph glyph-name="asciicircum" unicode="^" horiz-adv-x="888" 
d="M246 864l463 570h149l201 -570h-281l-67 252l-185 -252h-280z" />
    <glyph glyph-name="underscore" unicode="_" horiz-adv-x="1304" 
d="M33 -27l53 238h1231l-55 -238h-1229z" />
    <glyph glyph-name="grave" unicode="`" horiz-adv-x="374" 
d="M322 1403l153 141l199 -260l-94 -80z" />
    <glyph glyph-name="a" unicode="a" horiz-adv-x="1527" 
d="M1223 1106h440l-256 -1106h-391l2 158q-88 -94 -196.5 -141.5t-219.5 -47.5q-116 0 -212.5 49.5t-157 149.5t-60.5 233q0 73 18 152q30 133 104 246t168.5 185.5t201 112.5t208.5 40q104 0 188 -43t130 -127zM635 553q-8 -31 -8 -64q0 -84 54.5 -131t133.5 -47
q92 0 172.5 63t106.5 179q8 33 8 70q0 82 -50.5 126t-125.5 44q-95 0 -180 -64t-111 -176z" />
    <glyph glyph-name="b" unicode="b" horiz-adv-x="1527" 
d="M119 0l356 1536h440l-133 -569q87 84 190.5 127t207.5 43q86 0 164 -30t138 -84.5t95 -138t35 -184.5q0 -63 -19 -147q-25 -108 -78 -203t-122.5 -163.5t-151.5 -118.5t-166.5 -74.5t-165.5 -24.5q-110 0 -196.5 47.5t-130.5 141.5l-70 -158h-393zM1147 553q8 31 8 63
q0 84 -54 130.5t-134 46.5q-92 0 -172.5 -62.5t-106.5 -177.5q-8 -36 -8 -72q0 -82 50.5 -126t125.5 -44q94 0 179.5 65t111.5 177z" />
    <glyph glyph-name="c" unicode="c" horiz-adv-x="1269" 
d="M188 549q32 141 116 257.5t192 189t226 112t228 39.5q175 0 298 -65t186 -183l-371 -272q-24 38 -44 59.5t-57.5 37t-89.5 15.5q-112 0 -183 -73t-71 -160q0 -63 42 -104.5t124 -41.5q57 0 104 17.5t72.5 37.5t69.5 62l246 -270q-264 -254 -604 -254q-76 0 -148 18.5
t-136 56.5t-112 91.5t-76 128.5t-28 162q0 74 16 139z" />
    <glyph glyph-name="d" unicode="d" horiz-adv-x="1544" 
d="M190 553q30 133 104 246t168.5 185.5t201 112.5t208.5 40q103 0 186.5 -43t131.5 -127l131 569h440l-252 -1096q-14 -58 -14 -78q0 -29 18.5 -41.5t63.5 -11.5h14l-69 -309q-75 0 -124 1t-106.5 4t-93.5 9.5t-73 17.5t-58 27t-35.5 39.5t-17.5 53.5q-88 -91 -195.5 -137
t-216.5 -46q-116 0 -212.5 49.5t-157 149.5t-60.5 233q0 73 18 152zM635 553q-8 -31 -8 -64q0 -84 54.5 -131t133.5 -47q92 0 171.5 61.5t107.5 176.5l2 6q8 50 8 66q0 84 -50.5 128t-127.5 44q-95 0 -180 -64t-111 -176z" />
    <glyph glyph-name="e" unicode="e" horiz-adv-x="1320" 
d="M188 549q32 141 116 257.5t192 189t226 112t228 39.5q97 0 181 -28.5t149.5 -84t103 -145.5t37.5 -205q0 -87 -24 -195l-768 3q5 -65 43.5 -105.5t107.5 -40.5q85 0 145.5 30t121.5 87l229 -256q-264 -254 -604 -254q-76 0 -148 18.5t-136 56.5t-112 91.5t-76 128.5
t-28 162q0 74 16 139zM705 737h329q-32 107 -131 107q-115 0 -198 -107z" />
    <glyph glyph-name="f" unicode="f" horiz-adv-x="1050" 
d="M201 0l184 799h-199l62 272l231 35q-59 92 -37 190q19 84 96 148t181.5 95.5t218.5 31.5q152 0 269 -60.5t151 -177.5l-287 -207q-22 41 -76 73t-100 32q-56 0 -64 -45q-6 -28 9 -52t47 -28h393l-70 -307h-385l-184 -799h-440z" />
    <glyph glyph-name="g" unicode="g" horiz-adv-x="1525" 
d="M1346 1106h317l-231 -997q-29 -125 -101 -229t-171 -175.5t-222 -122t-252 -73.5t-262 -23q-102 0 -213 30.5t-193 77.5l150 404q56 -57 168.5 -90t238.5 -33q156 0 271.5 53.5t140.5 161.5l10 47q-85 -84 -187.5 -126t-207.5 -42q-116 0 -212.5 49.5t-157 149.5
t-60.5 233q0 73 18 152q30 133 104 246t168.5 185.5t201 112.5t208.5 40q105 0 189.5 -43.5t130.5 -128.5zM635 553q-8 -31 -8 -64q0 -84 54.5 -131t133.5 -47q91 0 170 60t107 172l4 18q6 35 6 62q0 83 -50 126.5t-126 43.5q-95 0 -180 -64t-111 -176z" />
    <glyph glyph-name="h" unicode="h" horiz-adv-x="1538" 
d="M559 0h-440l354 1536h442l-137 -594q76 83 179 134.5t225 51.5q193 0 283.5 -74t90.5 -225q0 -85 -22 -178l-49 -213q-8 -33 -8 -61q0 -37 21 -53.5t73 -16.5h14l-69 -307q-19 0 -75.5 -2t-90.5 -2q-72 0 -127.5 7t-111.5 26.5t-87 61t-31 102.5q0 34 8 67l70 297
q14 60 14 109q0 141 -127 141q-85 0 -167.5 -84t-114.5 -225z" />
    <glyph glyph-name="i" unicode="i" horiz-adv-x="696" 
d="M446 1403q20 91 93.5 147t171.5 56t146 -56t26 -147t-94.5 -146t-170.5 -55q-100 0 -147 55t-25 146zM205 799l71 307h48q12 0 54.5 1t70.5 1q54 0 97.5 -3t93 -14.5t80.5 -31t47 -54.5t5 -83l-110 -482q-15 -62 -15 -78q0 -29 18.5 -41.5t63.5 -11.5h16l-71 -309
q-79 0 -129.5 1t-109.5 5t-95.5 11t-73 19.5t-56.5 30.5t-32 44.5t-12 60.5q0 31 8 64l109 466q23 97 -31 97h-47z" />
    <glyph glyph-name="j" unicode="j" horiz-adv-x="743" 
d="M526 1403q22 91 95.5 147t171.5 56t145 -56t27 -147q-22 -91 -95.5 -146t-171.5 -55t-145 55t-27 146zM213 82l238 1024h440l-246 -1069q-23 -100 -66.5 -184t-100.5 -143t-123 -103.5t-138 -70t-140.5 -38t-135.5 -12.5q-155 0 -234 51l164 375q57 -37 127 -37
q73 0 131 48t84 159z" />
    <glyph glyph-name="k" unicode="k" horiz-adv-x="1462" 
d="M119 0l356 1536h440l-155 -666l311 236h567l-618 -463q51 5 93 -6t72.5 -34t59 -52t58 -58.5t62 -54.5t80 -41t103.5 -16l-92 -406q-116 0 -210.5 25.5t-154.5 66.5t-108 89.5t-81 96t-62.5 85t-63.5 57.5t-74 13l-59 -43l-84 -365h-440z" />
    <glyph glyph-name="l" unicode="l" horiz-adv-x="696" 
d="M475 1536h440l-253 -1096q-13 -72 -13 -78q0 -29 18 -41.5t64 -11.5h14l-69 -309q-92 0 -149.5 1.5t-123 7t-103.5 17t-71.5 30t-48 47.5t-14.5 69q0 33 8 64z" />
    <glyph glyph-name="m" unicode="m" horiz-adv-x="2166" 
d="M559 0h-442l162 696q0 7 2 9v2q21 92 -29 92h-47l71 307h48q12 0 56 1t73 1q314 0 323 -139q141 159 320 159q158 0 246 -47.5t116 -146.5q123 194 352 194q193 0 284 -74t91 -225q0 -85 -22 -178l-49 -213q-9 -38 -9 -61q0 -37 21.5 -53.5t73.5 -16.5h14l-68 -307
q-19 0 -75.5 -2t-90.5 -2q-72 0 -127.5 7t-112 26.5t-87.5 61t-31 102.5q0 34 8 67l70 297q18 80 18 129q0 121 -108 121q-74 0 -117 -74.5t-80 -234.5l-115 -498h-442l129 557q16 65 16 121q0 129 -114 129q-75 0 -125.5 -77.5t-85.5 -231.5z" />
    <glyph glyph-name="n" unicode="n" horiz-adv-x="1538" 
d="M559 0h-442l162 696q0 7 2 9v2q21 92 -29 92h-47l71 307h48q12 0 54.5 1t70.5 1q51 0 93 -3t90.5 -13t80 -27.5t50.5 -49.5t13 -75q75 84 179 136t227 52q193 0 283.5 -74t90.5 -225q0 -85 -22 -178l-49 -213q-8 -33 -8 -61q0 -37 21 -53.5t73 -16.5h14l-69 -307
q-19 0 -75.5 -2t-90.5 -2q-72 0 -127.5 7t-111.5 26.5t-87 61t-31 102.5q0 34 8 67l70 297q14 60 14 109q0 141 -127 141q-85 0 -167.5 -84t-114.5 -225v2z" />
    <glyph glyph-name="o" unicode="o" 
d="M1489 557q-27 -115 -88.5 -213.5t-142 -167t-176 -117t-191 -71.5t-186.5 -23q-101 0 -194 29t-168.5 83.5t-121 143.5t-45.5 199q0 68 17 137q22 96 69 181t109 148.5t136 114t154 82t160 48t156 16.5q101 0 193.5 -28.5t168 -83t121 -143t45.5 -198.5q0 -59 -16 -137z
M1047 557q13 57 -9.5 99.5t-64 61.5t-90.5 19q-80 0 -154.5 -47.5t-93.5 -132.5q-20 -84 32.5 -132t131.5 -48q49 0 99 19t92.5 61.5t56.5 99.5z" />
    <glyph glyph-name="p" unicode="p" horiz-adv-x="1527" 
d="M1593 553q-25 -108 -78 -203t-122.5 -163.5t-151.5 -118.5t-166.5 -74.5t-165.5 -24.5q-103 0 -186 42t-131 126l-150 -649l-442 2l279 1206q0 5 2 9v6q21 88 -29 88h-47l71 307h48q12 0 54.5 1t70.5 1q327 0 329 -147q87 87 191.5 131.5t210.5 44.5q86 0 164 -30
t138 -84.5t95 -138t35 -184.5q0 -63 -19 -147zM1147 553q8 31 8 63q0 84 -54 130.5t-134 46.5q-92 0 -172.5 -62.5t-106.5 -177.5q-8 -36 -8 -72q0 -82 50.5 -126t125.5 -44q94 0 179.5 65t111.5 177z" />
    <glyph glyph-name="q" unicode="q" horiz-adv-x="1527" 
d="M1292 1106h371l-354 -1536h-441l129 567q-85 -84 -187.5 -126t-207.5 -42q-116 0 -212.5 49.5t-157 149.5t-60.5 233q0 73 18 152q30 133 104 246t168.5 185.5t201 112.5t208.5 40q104 0 188 -43.5t132 -128.5zM635 553q-8 -31 -8 -64q0 -84 54.5 -131t133.5 -47
q92 0 172.5 63t106.5 179q8 33 8 70q0 82 -50.5 126t-125.5 44q-95 0 -180 -64t-111 -176z" />
    <glyph glyph-name="r" unicode="r" horiz-adv-x="1210" 
d="M559 0h-442l162 696q0 7 2 9v2q21 92 -29 92h-47l71 307h48q12 0 54.5 1t70.5 1q54 0 97.5 -3t92.5 -14.5t80 -30.5t47.5 -54t5.5 -82q177 200 387 200q128 0 271 -80l-177 -321q-81 33 -188 33q-64 0 -123.5 -13.5t-114 -41t-94.5 -77t-55 -114.5z" />
    <glyph glyph-name="s" unicode="s" horiz-adv-x="1372" 
d="M1534 971l-250 -318q-86 65 -228 110.5t-239 45.5q-79 0 -84 -31q-4 -17 30 -30t91 -25t126.5 -26.5t140.5 -39.5t129 -60t95 -92.5t37 -131.5q0 -32 -10 -80q-21 -93 -82.5 -163t-149.5 -111.5t-191 -61.5t-218 -20q-184 0 -360 46t-285 123l246 340
q89 -79 244.5 -130.5t265.5 -51.5q78 0 84 29q5 22 -26 36.5t-86 24.5t-122 22t-135.5 34.5t-125 56t-92.5 93t-36 138.5q0 44 12 99q21 91 77.5 160.5t137.5 109.5t175 60t200 20q173 0 345.5 -48.5t283.5 -127.5z" />
    <glyph glyph-name="t" unicode="t" horiz-adv-x="1122" 
d="M678 1362l270 2l-61 -258h416l-70 -305h-416l-76 -332q-10 -40 -10 -61q0 -89 115 -89q137 0 270 117l8 -325q-81 -72 -209.5 -119t-232.5 -47q-426 0 -426 282q0 54 14 109l107 463h-191l70 307h190z" />
    <glyph glyph-name="u" unicode="u" horiz-adv-x="1472" 
d="M219 457l150 649h440l-150 -649q-16 -67 16.5 -102.5t92.5 -35.5q76 0 148 48.5t90 126.5l141 612h442l-153 -666q-13 -72 -13 -78q0 -29 18 -41.5t64 -11.5h15l-70 -309q-79 0 -128 1t-108.5 4.5t-95.5 10t-73 18.5t-57 29.5t-33.5 42.5t-14.5 58q-83 -94 -188 -143.5
t-211 -49.5q-144 0 -241 91t-97 255q0 72 16 140z" />
    <glyph glyph-name="v" unicode="v" horiz-adv-x="1478" 
d="M965 -20h-463l-246 1126h479l99 -698l419 698h480z" />
    <glyph glyph-name="w" unicode="w" horiz-adv-x="1941" 
d="M788 -20h-358l-174 1126h465l65 -537l291 537h297l45 -533l312 533h467l-697 -1126h-356l-68 477z" />
    <glyph glyph-name="x" unicode="x" horiz-adv-x="1452" 
d="M1450 0h-565l-113 209l-207 -209h-565l582 565l-291 541h526l115 -201l207 201h526l-539 -541z" />
    <glyph glyph-name="y" unicode="y" horiz-adv-x="1460" 
d="M225 457l150 649h440l-149 -649q-16 -67 16 -102.5t92 -35.5q76 0 148 48.5t90 126.5l141 612h442l-229 -997q-36 -156 -127 -277t-218.5 -195.5t-278 -112.5t-316.5 -38q-101 0 -211 30t-195 78l150 404q57 -57 169.5 -90t238.5 -33q146 0 231.5 51t112.5 164l12 62
q-81 -88 -183.5 -134.5t-203.5 -46.5q-145 0 -242.5 90t-97.5 254q0 65 18 142z" />
    <glyph glyph-name="z" unicode="z" horiz-adv-x="1214" 
d="M1305 758l-654 -410h623l-80 -348h-1174l80 348l670 410h-555l80 348h1091z" />
    <glyph glyph-name="braceleft" unicode="{" horiz-adv-x="634" 
d="M215 774q45 -4 81.5 2.5t60.5 17t43.5 34.5t30 42.5t19.5 56t12.5 59.5t9.5 67q6 42 9.5 64t12 62t18 62.5t27 56t38.5 53t53 42.5t70.5 34.5t90.5 20t114 8.5l-12 -178q-59 0 -97 -23t-57 -63t-30.5 -89.5t-23 -108.5t-28 -114.5t-53.5 -111.5t-92 -96q53 -56 53 -154
q0 -67 -32.5 -190.5t-32.5 -165.5q0 -46 26 -71t88 -25l-71 -179q-162 0 -228.5 49.5t-66.5 137.5q0 66 45 206t45 189q0 55 -38.5 81t-131.5 19z" />
    <glyph glyph-name="bar" unicode="|" horiz-adv-x="342" 
d="M-6 -188l375 1622h268l-375 -1622h-268z" />
    <glyph glyph-name="braceright" unicode="}" horiz-adv-x="634" 
d="M778 774l-47 -205q-45 4 -81.5 -2.5t-60.5 -17t-43.5 -34.5t-30 -42.5t-19.5 -56t-12.5 -59.5t-9.5 -67q-6 -42 -9.5 -64t-12 -62t-18 -62.5t-27 -56t-38.5 -53t-53 -42.5t-70.5 -34.5t-90.5 -20t-114 -8.5l12 179q68 0 109.5 31.5t56.5 81t29.5 116t28 131.5t53.5 132.5
t104 113.5q-53 56 -53 153q0 67 32.5 191t32.5 166q0 46 -26 71t-88 25l71 178q162 0 228.5 -49t66.5 -137q0 -66 -45 -206.5t-45 -189.5q0 -55 38.5 -81t131.5 -19z" />
    <glyph glyph-name="asciitilde" unicode="~" horiz-adv-x="997" 
d="M369 479l-189 137q208 281 348 281q43 0 87.5 -26t87 -52t79.5 -26q76 0 170 110l185 -135q-206 -256 -355 -256q-44 0 -89.5 22t-86.5 44t-74 22q-74 0 -163 -121z" />
    <glyph glyph-name="exclamdown" unicode="&#xa1;" horiz-adv-x="458" 
d="M635 825q-20 -90 -97.5 -152.5t-168.5 -62.5t-138.5 62t-25.5 153q20 93 96 156t168 63q91 0 139.5 -63.5t26.5 -155.5zM473 471l-117 -889h-448l295 889h270z" />
    <glyph glyph-name="cent" unicode="&#xa2;" horiz-adv-x="1218" 
d="M813 1378l297 -10l-35 -156q167 -36 336 -208l-289 -209q-56 71 -118 112l-117 -504q89 44 209 148l147 -246q-236 -162 -424 -201l-33 -141l-297 10l31 138q-175 41 -264.5 156t-89.5 268q0 65 14 122q44 190 201 344t391 203zM590 412l112 491q-100 -48 -157.5 -133
t-57.5 -174q0 -57 26 -105.5t77 -78.5z" />
    <glyph glyph-name="sterling" unicode="&#xa3;" horiz-adv-x="1222" 
d="M1415 1440l-76 -314q-71 0 -130 -24t-107 -73t-82 -99t-76 -125h211l-61 -273h-299q-84 -133 -177 -202h644l-76 -330h-1137l49 213q176 107 312 319h-246l59 273h336q47 90 74 139t77.5 127t92.5 121.5t108 98t136 82t164.5 47.5t203.5 20z" />
    <glyph glyph-name="yen" unicode="&#xa5;" horiz-adv-x="1662" 
d="M332 1434h526l191 -496l419 496h525l-660 -711h86l-53 -236h-197l-24 -104h196l-55 -236h-194l-35 -147h-451l33 147h-199l54 236h200l25 104h-201l55 236h91z" />
    <glyph glyph-name="dieresis" unicode="&#xa8;" horiz-adv-x="477" 
d="M311 1331q11 45 48 76t81 31q40 0 64 -31.5t14 -75.5q-9 -39 -48 -69.5t-79 -30.5q-42 0 -65.5 30t-14.5 70zM575 1331q10 44 50.5 75.5t83.5 31.5q37 0 59.5 -31.5t13.5 -75.5q-10 -39 -48 -69.5t-75 -30.5q-43 0 -68 30t-16 70z" />
    <glyph glyph-name="copyright" unicode="&#xa9;" horiz-adv-x="1294" 
d="M193 711q39 167 155 308.5t277.5 223.5t328.5 82q217 0 353.5 -136t136.5 -343q0 -57 -17 -137q-39 -167 -155 -309.5t-277 -225t-327 -82.5q-219 0 -355.5 135.5t-136.5 343.5q0 60 17 140zM299 709q-14 -68 -14 -115q0 -172 113.5 -283.5t293.5 -111.5q212 0 395.5 150
t233.5 362q14 68 14 114q0 171 -113.5 283.5t-293.5 112.5q-137 0 -270 -70t-228.5 -188t-130.5 -254zM973 530l43 -77q-151 -105 -289 -105q-133 0 -217 84t-84 211q0 38 10 86q35 156 173.5 267.5t295.5 111.5q133 0 240 -107l-82 -71q-83 80 -182 80q-117 0 -219 -83
t-130 -200q-6 -30 -6 -61q0 -95 63 -157.5t163 -62.5q97 0 221 84z" />
    <glyph glyph-name="guillemotleft" unicode="&#xab;" horiz-adv-x="976" 
d="M592 666l26 114l652 647l-90 -395l-316 -309l172 -309l-90 -396zM190 659l27 115l651 647l-90 -395l-315 -309l172 -309l-92 -396z" />
    <glyph glyph-name="registered" unicode="&#xae;" horiz-adv-x="696" 
d="M307 1198q29 129 142.5 219t244.5 90q109 0 178.5 -69t69.5 -174q0 -20 -8 -66q-31 -129 -142.5 -221t-242.5 -92q-112 0 -181 68.5t-69 174.5q0 37 8 70zM365 1198q-25 -104 33.5 -181t164.5 -77q104 0 197.5 77.5t118.5 180.5q23 104 -35 180t-162 76
q-107 0 -199.5 -75t-117.5 -181zM625 1165l80 -133h-68l-74 129h-14l-29 -129h-53l80 348h106q53 -2 80 -31.5t17 -76.5q-9 -40 -44 -69.5t-81 -37.5zM590 1339l-29 -131h31q95 0 108 64q9 36 -11.5 51.5t-63.5 15.5h-35z" />
    <glyph glyph-name="degree" unicode="&#xb0;" horiz-adv-x="731" 
d="M551 762q-131 0 -197.5 73t-66.5 185q0 75 30.5 152.5t83.5 141t134.5 104t175.5 40.5q130 0 196 -72t66 -184q0 -75 -30.5 -152.5t-83.5 -142t-134 -105t-174 -40.5zM668 1266q-65 0 -109.5 -67t-44.5 -140q0 -46 20.5 -74.5t61.5 -28.5q62 0 105.5 68t43.5 141
q0 45 -19 73t-58 28z" />
    <glyph glyph-name="plusminus" unicode="&#xb1;" horiz-adv-x="1040" 
d="M666 1305h311l-68 -295h328l-63 -277h-328l-66 -284h-311l66 284h-328l63 277h328zM41 0l63 274h957l-64 -274h-956z" />
    <glyph glyph-name="acute" unicode="&#xb4;" horiz-adv-x="372" 
d="M297 1296l317 258l91 -139l-351 -201z" />
    <glyph glyph-name="periodcentered" unicode="&#xb7;" horiz-adv-x="505" 
d="M635 723q-20 -92 -97.5 -153.5t-168.5 -61.5t-138.5 61.5t-25.5 153.5q20 91 96 155t168 64q91 0 139.5 -64t26.5 -155z" />
    <glyph glyph-name="cedilla" unicode="&#xb8;" horiz-adv-x="346" 
d="M180 68l131 -43l-88 -123q66 -34 66 -103q0 -66 -56 -123t-133 -57q-45 0 -89 16.5t-65 32.5l-22 17l92 114q22 -59 74 -59q18 0 35 9.5t25 23.5q16 28 -11.5 58t-91.5 30z" />
    <glyph glyph-name="guillemotright" unicode="&#xbb;" horiz-adv-x="1024" 
d="M367 1423l352 -649l-27 -115l-651 -649l90 398l313 309l-170 309zM809 1421l354 -647l-26 -115l-654 -647l92 396l314 309l-170 309z" />
    <glyph glyph-name="questiondown" unicode="&#xbf;" horiz-adv-x="1083" 
d="M1055 944q-22 -92 -100 -153.5t-169 -61.5t-138 61.5t-25 153.5q20 91 97 155t167 64q91 0 139.5 -64t28.5 -155zM469 82q-9 -39 8 -59.5t55 -20.5q60 0 148 51t180 148l170 -273q-112 -119 -277.5 -186.5t-326.5 -67.5q-109 0 -194 30.5t-138 98.5t-53 166q0 47 12 99
q17 74 57.5 133t92 96.5t111 68t117.5 56t107 52.5t85 65t47 86h221q-20 -86 -52 -155t-68.5 -112t-75.5 -76.5t-76 -56t-68 -43t-53 -45.5t-29 -55z" />
    <glyph glyph-name="Agrave" unicode="&#xc0;" horiz-adv-x="1771" 
d="M1096 1731l153 141l199 -260l-94 -80zM0 0l991 1454h463l318 -1454h-480l-41 182h-645l-125 -182h-481zM856 553h315l-77 348z" />
    <glyph glyph-name="Aacute" unicode="&#xc1;" horiz-adv-x="1771" 
d="M1071 1624l318 258l90 -139l-351 -201zM0 0l991 1454h463l318 -1454h-480l-41 182h-645l-125 -182h-481zM856 553h315l-77 348z" />
    <glyph glyph-name="Acircumflex" unicode="&#xc2;" horiz-adv-x="1771" 
d="M1174 1567h-160l225 256h135l107 -256h-158l-43 135zM0 0l991 1454h463l318 -1454h-480l-41 182h-645l-125 -182h-481zM856 553h315l-77 348z" />
    <glyph glyph-name="Atilde" unicode="&#xc3;" horiz-adv-x="1771" 
d="M1065 1602l-43 116q38 30 63 47t66 34.5t78 17.5q41 0 66.5 -14t41.5 -28t33 -14q36 0 135 68l35 -123q-43 -32 -99 -58t-98 -26q-45 0 -73 14t-44 27.5t-30 13.5q-34 0 -131 -75zM0 0l991 1454h463l318 -1454h-480l-41 182h-645l-125 -182h-481zM856 553h315l-77 348z
" />
    <glyph glyph-name="Adieresis" unicode="&#xc4;" horiz-adv-x="1771" 
d="M1034 1659q11 44 48 75t81 31q41 0 64.5 -31.5t13.5 -74.5q-9 -39 -48 -69.5t-79 -30.5q-42 0 -65.5 30t-14.5 70zM1298 1659q10 44 50.5 75t83.5 31q36 0 58.5 -31.5t12.5 -74.5q-9 -39 -46.5 -69.5t-74.5 -30.5q-43 0 -68 30t-16 70zM0 0l991 1454h463l318 -1454h-480
l-41 182h-645l-125 -182h-481zM856 553h315l-77 348z" />
    <glyph glyph-name="Aring" unicode="&#xc5;" horiz-adv-x="1771" 
d="M1239 1520q-85 0 -128.5 44t-43.5 111q0 96 74.5 176t191.5 80q83 0 125.5 -43.5t42.5 -111.5q0 -95 -73.5 -175.5t-188.5 -80.5zM1303 1802q-42 0 -68.5 -29.5t-26.5 -64.5q0 -24 15 -39.5t45 -15.5q40 0 66 29.5t26 64.5q0 25 -14.5 40t-42.5 15zM0 0l991 1454h463
l318 -1454h-480l-41 182h-645l-125 -182h-481zM856 553h315l-77 348z" />
    <glyph glyph-name="AE" unicode="&#xc6;" horiz-adv-x="2482" 
d="M1141 0l41 182h-523l-180 -182h-479l1362 1434h1401l-84 -369h-842l-39 -164h705l-86 -369h-703l-39 -163h856l-86 -369h-1304zM1024 553h244l73 321z" />
    <glyph glyph-name="Ccedilla" unicode="&#xc7;" horiz-adv-x="1622" 
d="M227 717q34 146 111.5 273t179 216.5t220.5 154t239.5 95.5t232.5 31q226 0 385 -83t240 -235l-389 -299q-41 76 -128.5 132.5t-187.5 56.5q-88 0 -165 -29t-131.5 -77.5t-91.5 -109t-52 -126.5q-10 -45 -10 -80q0 -112 74.5 -186t218.5 -74q72 0 133.5 16t113 49
t81.5 58t75 69l254 -295q-322 -307 -729 -327l-35 -45q66 -34 66 -103q0 -66 -55.5 -123t-133.5 -57q-44 0 -88 16.5t-66 32.5l-22 17l92 114q22 -59 74 -59q42 0 60 33q17 28 -11 58t-92 30l60 92q-109 15 -205.5 60t-173.5 116t-121.5 176t-44.5 230q0 83 22 182z" />
    <glyph glyph-name="Egrave" unicode="&#xc8;" horiz-adv-x="1466" 
d="M944 1731l154 141l196 -260l-94 -80zM123 0l332 1434h1292l-86 -369h-842l-37 -164h705l-86 -369h-705l-37 -163h857l-86 -369h-1307z" />
    <glyph glyph-name="Eacute" unicode="&#xc9;" horiz-adv-x="1466" 
d="M918 1624l317 258l90 -139l-350 -201zM123 0l332 1434h1292l-86 -369h-842l-37 -164h705l-86 -369h-705l-37 -163h857l-86 -369h-1307z" />
    <glyph glyph-name="Ecircumflex" unicode="&#xca;" horiz-adv-x="1466" 
d="M1020 1567h-158l225 256h134l106 -256h-158l-43 135zM123 0l332 1434h1292l-86 -369h-842l-37 -164h705l-86 -369h-705l-37 -163h857l-86 -369h-1307z" />
    <glyph glyph-name="Edieresis" unicode="&#xcb;" horiz-adv-x="1466" 
d="M881 1659q11 44 48 75t81 31q40 0 63.5 -31t13.5 -75q-9 -40 -46.5 -70t-77.5 -30q-44 0 -67.5 30t-14.5 70zM1147 1659q9 44 48.5 75t82.5 31q38 0 61 -31.5t13 -74.5q-9 -39 -46.5 -69.5t-74.5 -30.5q-43 0 -68 30t-16 70zM123 0l332 1434h1292l-86 -369h-842l-37 -164
h705l-86 -369h-705l-37 -163h857l-86 -369h-1307z" />
    <glyph glyph-name="Igrave" unicode="&#xcc;" horiz-adv-x="698" 
d="M559 1731l154 141l198 -260l-94 -80zM123 0l332 1434h450l-332 -1434h-450z" />
    <glyph glyph-name="Iacute" unicode="&#xcd;" horiz-adv-x="698" 
d="M535 1624l317 258l90 -139l-350 -201zM123 0l332 1434h450l-332 -1434h-450z" />
    <glyph glyph-name="Icircumflex" unicode="&#xce;" horiz-adv-x="698" 
d="M637 1567h-160l225 256h136l106 -256h-158l-43 135zM123 0l332 1434h450l-332 -1434h-450z" />
    <glyph glyph-name="Idieresis" unicode="&#xcf;" horiz-adv-x="698" 
d="M498 1659q11 44 48 75t81 31q41 0 64.5 -31.5t13.5 -74.5q-9 -39 -48 -69.5t-79 -30.5q-42 0 -65.5 30t-14.5 70zM762 1659q10 44 50 75t83 31q36 0 59 -31.5t13 -74.5q-9 -39 -46.5 -69.5t-74.5 -30.5q-43 0 -68 30t-16 70zM123 0l332 1434h450l-332 -1434h-450z" />
    <glyph glyph-name="Eth" unicode="&#xd0;" horiz-adv-x="1767" 
d="M455 1434h850q148 -1 263 -45t184.5 -119.5t104.5 -171t35 -207.5q0 -93 -20 -174q-25 -108 -77.5 -211t-134 -194t-182.5 -160t-231 -110t-272 -42h-852l147 631h-102l61 272h103zM1210 1067h-389l-39 -164h535l-64 -272h-532l-62 -262h390q88 0 164.5 51.5t124 129
t67.5 167.5q12 56 12 110q0 105 -52 172.5t-155 67.5z" />
    <glyph glyph-name="Ntilde" unicode="&#xd1;" horiz-adv-x="1890" 
d="M1124 1602l-43 116q38 30 63 47t66 34.5t78 17.5q33 0 56.5 -8.5t34 -19.5t24 -19.5t27.5 -8.5q36 0 135 68l34 -123q-43 -32 -98.5 -58t-97.5 -26q-35 0 -61 8.5t-37.5 19t-24.5 19t-25 8.5q-34 0 -131 -75zM123 0l332 1434h450l543 -869l201 869h450l-332 -1434h-450
l-543 868l-201 -868h-450z" />
    <glyph glyph-name="Ograve" unicode="&#xd2;" horiz-adv-x="1783" 
d="M1102 1731l153 141l199 -260l-94 -80zM1882 717q-29 -126 -89.5 -236.5t-140 -193.5t-175 -149t-197.5 -107t-203.5 -62.5t-197.5 -21.5q-101 0 -197 22.5t-182 70.5t-150.5 116t-102.5 165t-38 211q0 94 22 185q29 126 89 236.5t139.5 193.5t175 149t197.5 107t204 62.5
t199 21.5q101 0 197 -23t182 -71t150.5 -116t102.5 -165.5t38 -212.5q0 -74 -23 -182zM1421 717q11 53 11 82q0 63 -25.5 113.5t-68 82t-95 48t-108.5 16.5q-88 0 -177.5 -36.5t-165 -117t-100.5 -188.5q-10 -48 -10 -82q0 -123 87.5 -191.5t207.5 -68.5q65 0 133.5 22
t131.5 62.5t111.5 108t67.5 149.5z" />
    <glyph glyph-name="Oacute" unicode="&#xd3;" horiz-adv-x="1783" 
d="M1077 1624l318 258l90 -139l-350 -201zM1882 717q-29 -126 -89.5 -236.5t-140 -193.5t-175 -149t-197.5 -107t-203.5 -62.5t-197.5 -21.5q-101 0 -197 22.5t-182 70.5t-150.5 116t-102.5 165t-38 211q0 94 22 185q29 126 89 236.5t139.5 193.5t175 149t197.5 107
t204 62.5t199 21.5q101 0 197 -23t182 -71t150.5 -116t102.5 -165.5t38 -212.5q0 -74 -23 -182zM1421 717q11 53 11 82q0 63 -25.5 113.5t-68 82t-95 48t-108.5 16.5q-88 0 -177.5 -36.5t-165 -117t-100.5 -188.5q-10 -48 -10 -82q0 -123 87.5 -191.5t207.5 -68.5
q65 0 133.5 22t131.5 62.5t111.5 108t67.5 149.5z" />
    <glyph glyph-name="Ocircumflex" unicode="&#xd4;" horiz-adv-x="1783" 
d="M1180 1567h-160l225 256h135l107 -256h-158l-43 135zM1882 717q-29 -126 -89.5 -236.5t-140 -193.5t-175 -149t-197.5 -107t-203.5 -62.5t-197.5 -21.5q-101 0 -197 22.5t-182 70.5t-150.5 116t-102.5 165t-38 211q0 94 22 185q29 126 89 236.5t139.5 193.5t175 149
t197.5 107t204 62.5t199 21.5q101 0 197 -23t182 -71t150.5 -116t102.5 -165.5t38 -212.5q0 -74 -23 -182zM1421 717q11 53 11 82q0 63 -25.5 113.5t-68 82t-95 48t-108.5 16.5q-88 0 -177.5 -36.5t-165 -117t-100.5 -188.5q-10 -48 -10 -82q0 -123 87.5 -191.5t207.5 -68.5
q65 0 133.5 22t131.5 62.5t111.5 108t67.5 149.5z" />
    <glyph glyph-name="Otilde" unicode="&#xd5;" horiz-adv-x="1783" 
d="M1071 1602l-43 116q38 30 63 47t66 34.5t78 17.5q41 0 66.5 -14t41.5 -28t33 -14q36 0 135 68l35 -123q-43 -32 -98.5 -58t-97.5 -26q-35 0 -61 8.5t-37.5 19t-24.5 19t-25 8.5q-34 0 -131 -75zM1882 717q-29 -126 -89.5 -236.5t-140 -193.5t-175 -149t-197.5 -107
t-203.5 -62.5t-197.5 -21.5q-101 0 -197 22.5t-182 70.5t-150.5 116t-102.5 165t-38 211q0 94 22 185q29 126 89 236.5t139.5 193.5t175 149t197.5 107t204 62.5t199 21.5q101 0 197 -23t182 -71t150.5 -116t102.5 -165.5t38 -212.5q0 -74 -23 -182zM1421 717q11 53 11 82
q0 63 -25.5 113.5t-68 82t-95 48t-108.5 16.5q-88 0 -177.5 -36.5t-165 -117t-100.5 -188.5q-10 -48 -10 -82q0 -123 87.5 -191.5t207.5 -68.5q65 0 133.5 22t131.5 62.5t111.5 108t67.5 149.5z" />
    <glyph glyph-name="Odieresis" unicode="&#xd6;" horiz-adv-x="1783" 
d="M1040 1659q11 44 48 75t81 31q41 0 64.5 -31.5t13.5 -74.5q-9 -39 -48 -69.5t-79 -30.5q-42 0 -65.5 30t-14.5 70zM1305 1659q10 44 50 75t83 31q36 0 58.5 -31.5t12.5 -74.5q-9 -39 -46 -69.5t-74 -30.5q-43 0 -68 30t-16 70zM1882 717q-29 -126 -89.5 -236.5
t-140 -193.5t-175 -149t-197.5 -107t-203.5 -62.5t-197.5 -21.5q-101 0 -197 22.5t-182 70.5t-150.5 116t-102.5 165t-38 211q0 94 22 185q29 126 89 236.5t139.5 193.5t175 149t197.5 107t204 62.5t199 21.5q101 0 197 -23t182 -71t150.5 -116t102.5 -165.5t38 -212.5
q0 -74 -23 -182zM1421 717q11 53 11 82q0 63 -25.5 113.5t-68 82t-95 48t-108.5 16.5q-88 0 -177.5 -36.5t-165 -117t-100.5 -188.5q-10 -48 -10 -82q0 -123 87.5 -191.5t207.5 -68.5q65 0 133.5 22t131.5 62.5t111.5 108t67.5 149.5z" />
    <glyph glyph-name="multiply" unicode="&#xd7;" horiz-adv-x="980" 
d="M254 920l266 194l180 -201l285 209l170 -200l-278 -205l182 -205l-271 -190l-178 198l-284 -207l-170 201l278 203z" />
    <glyph glyph-name="Oslash" unicode="&#xd8;" horiz-adv-x="1783" 
d="M1882 717q-29 -126 -89.5 -236.5t-140 -193.5t-175 -149t-197.5 -107t-203.5 -62.5t-197.5 -21.5q-155 0 -297 53h-299l104 119q-178 161 -178 413q0 81 22 185q29 126 89 236.5t139.5 193.5t175 149t197.5 107t204 62.5t199 21.5q157 0 297 -55v2h301l-107 -121
q179 -158 179 -414q0 -74 -23 -182zM719 500l481 553q-30 6 -65 6q-88 0 -177.5 -36.5t-165 -117t-100.5 -188.5q-10 -48 -10 -84q0 -73 37 -133zM1421 717q11 53 11 80q0 75 -37 135l-482 -551q30 -6 64 -6q65 0 133.5 22t131.5 62.5t111.5 108t67.5 149.5z" />
    <glyph glyph-name="Ugrave" unicode="&#xd9;" horiz-adv-x="1740" 
d="M1081 1731l154 141l197 -260l-95 -80zM264 606l191 828h450l-190 -828q-18 -77 13 -133.5t90.5 -82t135.5 -25.5q120 0 223.5 63.5t129.5 177.5l190 828h451l-191 -828q-37 -159 -130.5 -287.5t-218 -208t-266 -121.5t-284.5 -42q-124 0 -233.5 32t-194.5 92.5
t-134.5 158t-49.5 219.5q0 75 18 157z" />
    <glyph glyph-name="Uacute" unicode="&#xda;" horiz-adv-x="1740" 
d="M1055 1624l317 258l90 -139l-350 -201zM264 606l191 828h450l-190 -828q-18 -77 13 -133.5t90.5 -82t135.5 -25.5q120 0 223.5 63.5t129.5 177.5l190 828h451l-191 -828q-37 -159 -130.5 -287.5t-218 -208t-266 -121.5t-284.5 -42q-124 0 -233.5 32t-194.5 92.5
t-134.5 158t-49.5 219.5q0 75 18 157z" />
    <glyph glyph-name="Ucircumflex" unicode="&#xdb;" horiz-adv-x="1740" 
d="M1157 1567h-158l226 256h133l106 -256h-157l-43 135zM264 606l191 828h450l-190 -828q-18 -77 13 -133.5t90.5 -82t135.5 -25.5q120 0 223.5 63.5t129.5 177.5l190 828h451l-191 -828q-37 -159 -130.5 -287.5t-218 -208t-266 -121.5t-284.5 -42q-124 0 -233.5 32
t-194.5 92.5t-134.5 158t-49.5 219.5q0 75 18 157z" />
    <glyph glyph-name="Udieresis" unicode="&#xdc;" horiz-adv-x="1740" 
d="M1018 1659q11 44 48 75t81 31q41 0 64.5 -31.5t13.5 -74.5q-9 -40 -47 -70t-78 -30q-44 0 -67.5 30t-14.5 70zM1284 1659q9 44 48.5 75t82.5 31q38 0 61 -31.5t13 -74.5q-9 -39 -46.5 -69.5t-74.5 -30.5q-43 0 -68 30t-16 70zM264 606l191 828h450l-190 -828
q-18 -77 13 -133.5t90.5 -82t135.5 -25.5q120 0 223.5 63.5t129.5 177.5l190 828h451l-191 -828q-37 -159 -130.5 -287.5t-218 -208t-266 -121.5t-284.5 -42q-124 0 -233.5 32t-194.5 92.5t-134.5 158t-49.5 219.5q0 75 18 157z" />
    <glyph glyph-name="Yacute" unicode="&#xdd;" horiz-adv-x="1665" 
d="M1018 1624l317 258l90 -139l-350 -201zM332 1434h526l191 -496l419 496h525l-805 -869l-131 -565h-451l131 565z" />
    <glyph glyph-name="Thorn" unicode="&#xde;" horiz-adv-x="1447" 
d="M123 0l332 1434h450l-55 -240h332q189 0 286 -101.5t97 -256.5q0 -58 -15 -119q-21 -91 -71 -175t-123.5 -152t-175.5 -109t-217 -41h-334l-56 -240h-450zM715 608h278q55 0 91 43.5t36 93.5q0 35 -19.5 57.5t-58.5 22.5h-278z" />
    <glyph glyph-name="germandbls" unicode="&#xdf;" horiz-adv-x="1492" 
d="M537 0h-451l231 1001q27 121 99.5 217t170 155t207.5 89.5t222 30.5q130 0 236.5 -39t173.5 -120t67 -191q0 -51 -10 -90q-13 -57 -40 -101t-56.5 -70t-58.5 -47t-51 -43.5t-28 -48.5q-5 -23 24.5 -43.5t76.5 -42t94 -50.5t81 -81t34 -120q0 -36 -9 -76
q-28 -122 -114.5 -211t-195.5 -130.5t-226 -41.5q-134 0 -238.5 56.5t-144.5 162.5l264 233q17 -29 46.5 -46t59.5 -17q49 0 58 45q7 28 -12.5 52t-52.5 41t-71.5 40.5t-70 48.5t-47 65.5t-4.5 90.5t38.5 90t60 66t64 49.5t56.5 53t33 64.5q16 71 -11.5 112.5t-78.5 41.5
q-61 0 -118.5 -56t-82.5 -163z" />
    <glyph glyph-name="agrave" unicode="&#xe0;" horiz-adv-x="1370" 
d="M819 1403l154 141l198 -260l-94 -80zM1223 1106h440l-256 -1106h-391l2 158q-88 -94 -196.5 -141.5t-219.5 -47.5q-116 0 -212.5 49.5t-157 149.5t-60.5 233q0 73 18 152q30 133 104 246t168.5 185.5t201 112.5t208.5 40q104 0 188 -43t130 -127zM635 553q-8 -31 -8 -64
q0 -84 54.5 -131t133.5 -47q92 0 172.5 63t106.5 179q8 33 8 70q0 82 -50.5 126t-125.5 44q-95 0 -180 -64t-111 -176z" />
    <glyph glyph-name="aacute" unicode="&#xe1;" horiz-adv-x="1370" 
d="M795 1296l317 258l90 -139l-350 -201zM1223 1106h440l-256 -1106h-391l2 158q-88 -94 -196.5 -141.5t-219.5 -47.5q-116 0 -212.5 49.5t-157 149.5t-60.5 233q0 73 18 152q30 133 104 246t168.5 185.5t201 112.5t208.5 40q104 0 188 -43t130 -127zM635 553q-8 -31 -8 -64
q0 -84 54.5 -131t133.5 -47q92 0 172.5 63t106.5 179q8 33 8 70q0 82 -50.5 126t-125.5 44q-95 0 -180 -64t-111 -176z" />
    <glyph glyph-name="acircumflex" unicode="&#xe2;" horiz-adv-x="1370" 
d="M897 1239h-158l224 256h135l106 -256h-157l-43 135zM1223 1106h440l-256 -1106h-391l2 158q-88 -94 -196.5 -141.5t-219.5 -47.5q-116 0 -212.5 49.5t-157 149.5t-60.5 233q0 73 18 152q30 133 104 246t168.5 185.5t201 112.5t208.5 40q104 0 188 -43t130 -127zM635 553
q-8 -31 -8 -64q0 -84 54.5 -131t133.5 -47q92 0 172.5 63t106.5 179q8 33 8 70q0 82 -50.5 126t-125.5 44q-95 0 -180 -64t-111 -176z" />
    <glyph glyph-name="atilde" unicode="&#xe3;" horiz-adv-x="1370" 
d="M788 1274l-43 117q37 30 62.5 47t66.5 34t78 17q33 0 56.5 -8.5t34 -19t24 -19t27.5 -8.5q38 0 135 67l35 -123q-43 -32 -99 -58t-98 -26q-35 0 -61 9t-37 19t-24 19t-25 9q-33 0 -132 -76zM1223 1106h440l-256 -1106h-391l2 158q-88 -94 -196.5 -141.5t-219.5 -47.5
q-116 0 -212.5 49.5t-157 149.5t-60.5 233q0 73 18 152q30 133 104 246t168.5 185.5t201 112.5t208.5 40q104 0 188 -43t130 -127zM635 553q-8 -31 -8 -64q0 -84 54.5 -131t133.5 -47q92 0 172.5 63t106.5 179q8 33 8 70q0 82 -50.5 126t-125.5 44q-95 0 -180 -64t-111 -176
z" />
    <glyph glyph-name="adieresis" unicode="&#xe4;" horiz-adv-x="1370" 
d="M758 1331q11 45 48 76t81 31q40 0 64 -31.5t14 -75.5q-9 -39 -48 -69.5t-79 -30.5q-42 0 -65.5 30t-14.5 70zM1022 1331q10 44 50 75.5t83 31.5q37 0 60 -31.5t14 -75.5q-10 -39 -48 -69.5t-75 -30.5q-43 0 -68 30t-16 70zM1223 1106h440l-256 -1106h-391l2 158
q-88 -94 -196.5 -141.5t-219.5 -47.5q-116 0 -212.5 49.5t-157 149.5t-60.5 233q0 73 18 152q30 133 104 246t168.5 185.5t201 112.5t208.5 40q104 0 188 -43t130 -127zM635 553q-8 -31 -8 -64q0 -84 54.5 -131t133.5 -47q92 0 172.5 63t106.5 179q8 33 8 70q0 82 -50.5 126
t-125.5 44q-95 0 -180 -64t-111 -176z" />
    <glyph glyph-name="aring" unicode="&#xe5;" horiz-adv-x="1370" 
d="M963 1192q-85 0 -128.5 44t-43.5 112q0 95 75.5 175.5t192.5 80.5q83 0 124.5 -43t41.5 -111q0 -95 -73.5 -176.5t-188.5 -81.5zM1026 1475q-42 0 -68 -30t-26 -65q0 -25 15 -40t44 -15q40 0 66 29.5t26 64.5q0 25 -14.5 40.5t-42.5 15.5zM1223 1106h440l-256 -1106h-391
l2 158q-88 -94 -196.5 -141.5t-219.5 -47.5q-116 0 -212.5 49.5t-157 149.5t-60.5 233q0 73 18 152q30 133 104 246t168.5 185.5t201 112.5t208.5 40q104 0 188 -43t130 -127zM635 553q-8 -31 -8 -64q0 -84 54.5 -131t133.5 -47q92 0 172.5 63t106.5 179q8 33 8 70
q0 82 -50.5 126t-125.5 44q-95 0 -180 -64t-111 -176z" />
    <glyph glyph-name="ae" unicode="&#xe6;" horiz-adv-x="2052" 
d="M360 678l5 330q102 56 262.5 93.5t316.5 37.5q242 0 365 -95q186 103 372 103q97 0 181 -28.5t149.5 -84t103 -145.5t37.5 -205q0 -87 -24 -195l-768 3q5 -65 43.5 -105.5t107.5 -40.5q85 0 145.5 30t121.5 87l229 -256q-264 -254 -604 -254q-110 0 -208.5 37t-174 115
t-102.5 186q-59 -146 -194 -223.5t-339 -77.5q-141 0 -213 65t-72 166q0 64 27.5 132.5t82.5 132t128 112.5t173.5 76t209.5 22l108 -4q118 -9 136 56l2 8q6 22 -17 32.5t-67 10.5q-104 0 -284.5 -45t-238.5 -76zM1436 737h329q-32 107 -131 107q-115 0 -198 -107zM893 432
q-64 -33 -129 -33h-98q-31 0 -48.5 -12.5t-17.5 -30.5q0 -17 17 -29t49 -12q97 0 147 23q59 28 78 88z" />
    <glyph glyph-name="ccedilla" unicode="&#xe7;" horiz-adv-x="1269" 
d="M188 549q32 141 116 257.5t192 189t226 112t228 39.5q175 0 298 -65t186 -183l-371 -272q-24 38 -44 59.5t-57.5 37t-89.5 15.5q-112 0 -183 -73t-71 -160q0 -63 42 -104.5t124 -41.5q57 0 104 17.5t72.5 37.5t69.5 62l246 -270q-242 -232 -547 -252l-39 -53
q66 -34 66 -103q0 -66 -55.5 -123t-133.5 -57q-44 0 -88 16.5t-66 32.5l-22 17l92 114q22 -59 74 -59q41 0 59 33q17 28 -10.5 58t-91.5 30l64 98q-82 13 -154.5 49t-129 91t-89.5 135.5t-33 175.5q0 74 16 139z" />
    <glyph glyph-name="egrave" unicode="&#xe8;" horiz-adv-x="1320" 
d="M795 1403l153 141l199 -260l-94 -80zM188 549q32 141 116 257.5t192 189t226 112t228 39.5q97 0 181 -28.5t149.5 -84t103 -145.5t37.5 -205q0 -87 -24 -195l-768 3q5 -65 43.5 -105.5t107.5 -40.5q85 0 145.5 30t121.5 87l229 -256q-264 -254 -604 -254q-76 0 -148 18.5
t-136 56.5t-112 91.5t-76 128.5t-28 162q0 74 16 139zM705 737h329q-32 107 -131 107q-115 0 -198 -107z" />
    <glyph glyph-name="eacute" unicode="&#xe9;" horiz-adv-x="1320" 
d="M770 1296l317 258l91 -139l-351 -201zM188 549q32 141 116 257.5t192 189t226 112t228 39.5q97 0 181 -28.5t149.5 -84t103 -145.5t37.5 -205q0 -87 -24 -195l-768 3q5 -65 43.5 -105.5t107.5 -40.5q85 0 145.5 30t121.5 87l229 -256q-264 -254 -604 -254
q-76 0 -148 18.5t-136 56.5t-112 91.5t-76 128.5t-28 162q0 74 16 139zM705 737h329q-32 107 -131 107q-115 0 -198 -107z" />
    <glyph glyph-name="ecircumflex" unicode="&#xea;" horiz-adv-x="1320" 
d="M872 1239h-157l223 256h135l107 -256h-158l-43 135zM188 549q32 141 116 257.5t192 189t226 112t228 39.5q97 0 181 -28.5t149.5 -84t103 -145.5t37.5 -205q0 -87 -24 -195l-768 3q5 -65 43.5 -105.5t107.5 -40.5q85 0 145.5 30t121.5 87l229 -256q-264 -254 -604 -254
q-76 0 -148 18.5t-136 56.5t-112 91.5t-76 128.5t-28 162q0 74 16 139zM705 737h329q-32 107 -131 107q-115 0 -198 -107z" />
    <glyph glyph-name="edieresis" unicode="&#xeb;" horiz-adv-x="1320" 
d="M733 1331q11 45 48 76t81 31q40 0 64 -31.5t14 -75.5q-9 -39 -48 -69.5t-79 -30.5q-42 0 -65.5 30t-14.5 70zM997 1331q10 44 50 75.5t83 31.5q37 0 60 -31.5t14 -75.5q-10 -39 -48 -69.5t-75 -30.5q-43 0 -68 30t-16 70zM188 549q32 141 116 257.5t192 189t226 112
t228 39.5q97 0 181 -28.5t149.5 -84t103 -145.5t37.5 -205q0 -87 -24 -195l-768 3q5 -65 43.5 -105.5t107.5 -40.5q85 0 145.5 30t121.5 87l229 -256q-264 -254 -604 -254q-76 0 -148 18.5t-136 56.5t-112 91.5t-76 128.5t-28 162q0 74 16 139zM705 737h329
q-32 107 -131 107q-115 0 -198 -107z" />
    <glyph glyph-name="igrave" unicode="&#xec;" horiz-adv-x="696" 
d="M483 1403l154 141l199 -260l-97 -80zM205 799l71 307h48q12 0 54.5 1t70.5 1q54 0 97.5 -3t93 -14.5t80.5 -31t47 -54.5t5 -83l-110 -482q-15 -62 -15 -78q0 -29 18.5 -41.5t63.5 -11.5h16l-71 -309q-79 0 -129.5 1t-109.5 5t-95.5 11t-73 19.5t-56.5 30.5t-32 44.5
t-12 60.5q0 31 8 64l109 466q23 97 -31 97h-47z" />
    <glyph glyph-name="iacute" unicode="&#xed;" horiz-adv-x="696" 
d="M459 1296l317 258l88 -139l-350 -201zM205 799l71 307h48q12 0 54.5 1t70.5 1q54 0 97.5 -3t93 -14.5t80.5 -31t47 -54.5t5 -83l-110 -482q-15 -62 -15 -78q0 -29 18.5 -41.5t63.5 -11.5h16l-71 -309q-79 0 -129.5 1t-109.5 5t-95.5 11t-73 19.5t-56.5 30.5t-32 44.5
t-12 60.5q0 31 8 64l109 466q23 97 -31 97h-47z" />
    <glyph glyph-name="icircumflex" unicode="&#xee;" horiz-adv-x="696" 
d="M559 1239h-158l226 256h133l106 -256h-157l-43 135zM205 799l71 307h48q12 0 54.5 1t70.5 1q54 0 97.5 -3t93 -14.5t80.5 -31t47 -54.5t5 -83l-110 -482q-15 -62 -15 -78q0 -29 18.5 -41.5t63.5 -11.5h16l-71 -309q-79 0 -129.5 1t-109.5 5t-95.5 11t-73 19.5t-56.5 30.5
t-32 44.5t-12 60.5q0 31 8 64l109 466q23 97 -31 97h-47z" />
    <glyph glyph-name="idieresis" unicode="&#xef;" horiz-adv-x="696" 
d="M420 1331q10 44 48 75.5t81 31.5q40 0 64 -31.5t14 -75.5q-9 -40 -47 -70t-78 -30q-44 0 -67.5 30t-14.5 70zM686 1331q9 44 48.5 75.5t82.5 31.5q38 0 61 -32t13 -75q-9 -39 -46.5 -69.5t-74.5 -30.5q-43 0 -68 30t-16 70zM205 799l71 307h48q12 0 54.5 1t70.5 1
q54 0 97.5 -3t93 -14.5t80.5 -31t47 -54.5t5 -83l-110 -482q-15 -62 -15 -78q0 -29 18.5 -41.5t63.5 -11.5h16l-71 -309q-79 0 -129.5 1t-109.5 5t-95.5 11t-73 19.5t-56.5 30.5t-32 44.5t-12 60.5q0 31 8 64l109 466q23 97 -31 97h-47z" />
    <glyph glyph-name="ntilde" unicode="&#xf1;" horiz-adv-x="1538" 
d="M872 1274l-43 117q37 30 62.5 47t66.5 34t78 17q33 0 56.5 -8.5t34 -19t24 -19t27.5 -8.5q38 0 135 67l35 -123q-43 -32 -99 -58t-98 -26q-35 0 -61 9t-37 19t-24 19t-25 9q-33 0 -132 -76zM559 0h-442l162 696q0 7 2 9v2q21 92 -29 92h-47l71 307h48q12 0 54.5 1t70.5 1
q51 0 93 -3t90.5 -13t80 -27.5t50.5 -49.5t13 -75q75 84 179 136t227 52q193 0 283.5 -74t90.5 -225q0 -85 -22 -178l-49 -213q-8 -33 -8 -61q0 -37 21 -53.5t73 -16.5h14l-69 -307q-19 0 -75.5 -2t-90.5 -2q-72 0 -127.5 7t-111.5 26.5t-87 61t-31 102.5q0 34 8 67l70 297
q14 60 14 109q0 141 -127 141q-85 0 -167.5 -84t-114.5 -225v2z" />
    <glyph glyph-name="ograve" unicode="&#xf2;" 
d="M846 1403l153 141l199 -260l-96 -80zM1489 557q-27 -115 -88.5 -213.5t-142 -167t-176 -117t-191 -71.5t-186.5 -23q-101 0 -194 29t-168.5 83.5t-121 143.5t-45.5 199q0 68 17 137q22 96 69 181t109 148.5t136 114t154 82t160 48t156 16.5q101 0 193.5 -28.5t168 -83
t121 -143t45.5 -198.5q0 -59 -16 -137zM1047 557q13 57 -9.5 99.5t-64 61.5t-90.5 19q-80 0 -154.5 -47.5t-93.5 -132.5q-20 -84 32.5 -132t131.5 -48q49 0 99 19t92.5 61.5t56.5 99.5z" />
    <glyph glyph-name="oacute" unicode="&#xf3;" 
d="M821 1296l318 258l88 -139l-350 -201zM1489 557q-27 -115 -88.5 -213.5t-142 -167t-176 -117t-191 -71.5t-186.5 -23q-101 0 -194 29t-168.5 83.5t-121 143.5t-45.5 199q0 68 17 137q22 96 69 181t109 148.5t136 114t154 82t160 48t156 16.5q101 0 193.5 -28.5t168 -83
t121 -143t45.5 -198.5q0 -59 -16 -137zM1047 557q13 57 -9.5 99.5t-64 61.5t-90.5 19q-80 0 -154.5 -47.5t-93.5 -132.5q-20 -84 32.5 -132t131.5 -48q49 0 99 19t92.5 61.5t56.5 99.5z" />
    <glyph glyph-name="ocircumflex" unicode="&#xf4;" 
d="M922 1239h-158l225 256h133l107 -256h-158l-43 135zM1489 557q-27 -115 -88.5 -213.5t-142 -167t-176 -117t-191 -71.5t-186.5 -23q-101 0 -194 29t-168.5 83.5t-121 143.5t-45.5 199q0 68 17 137q22 96 69 181t109 148.5t136 114t154 82t160 48t156 16.5
q101 0 193.5 -28.5t168 -83t121 -143t45.5 -198.5q0 -59 -16 -137zM1047 557q13 57 -9.5 99.5t-64 61.5t-90.5 19q-80 0 -154.5 -47.5t-93.5 -132.5q-20 -84 32.5 -132t131.5 -48q49 0 99 19t92.5 61.5t56.5 99.5z" />
    <glyph glyph-name="otilde" unicode="&#xf5;" 
d="M813 1274l-41 117q39 30 62.5 47t64.5 34t78 17q33 0 56.5 -8.5t34 -19t23.5 -19t27 -8.5q38 0 135 67l35 -123q-41 -32 -97 -58t-99 -26q-35 0 -61 9t-37 19t-24 19t-26 9q-32 0 -131 -76zM1489 557q-27 -115 -88.5 -213.5t-142 -167t-176 -117t-191 -71.5t-186.5 -23
q-101 0 -194 29t-168.5 83.5t-121 143.5t-45.5 199q0 68 17 137q22 96 69 181t109 148.5t136 114t154 82t160 48t156 16.5q101 0 193.5 -28.5t168 -83t121 -143t45.5 -198.5q0 -59 -16 -137zM1047 557q13 57 -9.5 99.5t-64 61.5t-90.5 19q-80 0 -154.5 -47.5t-93.5 -132.5
q-20 -84 32.5 -132t131.5 -48q49 0 99 19t92.5 61.5t56.5 99.5z" />
    <glyph glyph-name="odieresis" unicode="&#xf6;" 
d="M782 1331q10 44 48 75.5t81 31.5q40 0 64 -31.5t14 -75.5q-9 -40 -47 -70t-78 -30q-44 0 -67.5 30t-14.5 70zM1049 1331q9 44 48.5 75.5t82.5 31.5q38 0 60.5 -32t12.5 -75q-9 -39 -46 -69.5t-74 -30.5q-43 0 -68 30t-16 70zM1489 557q-27 -115 -88.5 -213.5t-142 -167
t-176 -117t-191 -71.5t-186.5 -23q-101 0 -194 29t-168.5 83.5t-121 143.5t-45.5 199q0 68 17 137q22 96 69 181t109 148.5t136 114t154 82t160 48t156 16.5q101 0 193.5 -28.5t168 -83t121 -143t45.5 -198.5q0 -59 -16 -137zM1047 557q13 57 -9.5 99.5t-64 61.5t-90.5 19
q-80 0 -154.5 -47.5t-93.5 -132.5q-20 -84 32.5 -132t131.5 -48q49 0 99 19t92.5 61.5t56.5 99.5z" />
    <glyph glyph-name="divide" unicode="&#xf7;" horiz-adv-x="921" 
d="M545 1034q15 66 71 111t121 45q66 0 100 -45t19 -111q-13 -66 -68.5 -111.5t-121.5 -45.5t-101 45.5t-20 111.5zM221 791h848l-63 -273h-848zM360 238q15 65 71.5 110t121.5 45q66 0 101 -44.5t20 -110.5t-71 -112t-122 -46q-65 0 -100.5 46t-20.5 112z" />
    <glyph glyph-name="oslash" unicode="&#xf8;" 
d="M1489 557q-27 -115 -88.5 -213.5t-142 -167t-176 -117t-191 -71.5t-186.5 -23q-100 0 -209 33l-136 -156h-299l238 275q-123 120 -123 303q0 54 17 137q22 96 69 181t109 148.5t136 114t154 82t160 48t156 16.5q106 0 194 -29l140 160h299l-236 -272q131 -124 131 -314
q0 -60 -16 -135zM631 498l205 233q-70 -11 -127.5 -57t-73.5 -117q-7 -28 -4 -59zM1047 557q9 44 0 74l-220 -252q75 8 138.5 55t81.5 123z" />
    <glyph glyph-name="ugrave" unicode="&#xf9;" horiz-adv-x="1472" 
d="M870 1403l154 141l199 -260l-95 -80zM219 457l150 649h440l-150 -649q-16 -67 16.5 -102.5t92.5 -35.5q76 0 148 48.5t90 126.5l141 612h442l-153 -666q-13 -72 -13 -78q0 -29 18 -41.5t64 -11.5h15l-70 -309q-79 0 -128 1t-108.5 4.5t-95.5 10t-73 18.5t-57 29.5
t-33.5 42.5t-14.5 58q-83 -94 -188 -143.5t-211 -49.5q-144 0 -241 91t-97 255q0 72 16 140z" />
    <glyph glyph-name="uacute" unicode="&#xfa;" horiz-adv-x="1472" 
d="M846 1296l317 258l90 -139l-350 -201zM219 457l150 649h440l-150 -649q-16 -67 16.5 -102.5t92.5 -35.5q76 0 148 48.5t90 126.5l141 612h442l-153 -666q-13 -72 -13 -78q0 -29 18 -41.5t64 -11.5h15l-70 -309q-79 0 -128 1t-108.5 4.5t-95.5 10t-73 18.5t-57 29.5
t-33.5 42.5t-14.5 58q-83 -94 -188 -143.5t-211 -49.5q-144 0 -241 91t-97 255q0 72 16 140z" />
    <glyph glyph-name="ucircumflex" unicode="&#xfb;" horiz-adv-x="1472" 
d="M948 1239h-157l223 256h135l106 -256h-157l-43 135zM219 457l150 649h440l-150 -649q-16 -67 16.5 -102.5t92.5 -35.5q76 0 148 48.5t90 126.5l141 612h442l-153 -666q-13 -72 -13 -78q0 -29 18 -41.5t64 -11.5h15l-70 -309q-79 0 -128 1t-108.5 4.5t-95.5 10t-73 18.5
t-57 29.5t-33.5 42.5t-14.5 58q-83 -94 -188 -143.5t-211 -49.5q-144 0 -241 91t-97 255q0 72 16 140z" />
    <glyph glyph-name="udieresis" unicode="&#xfc;" horiz-adv-x="1472" 
d="M809 1331q11 45 48 76t81 31q40 0 64 -31.5t14 -75.5q-9 -39 -48 -69.5t-79 -30.5q-42 0 -65.5 30t-14.5 70zM1073 1331q10 44 50 75.5t83 31.5q37 0 60 -31.5t14 -75.5q-10 -39 -48 -69.5t-75 -30.5q-43 0 -68 30t-16 70zM219 457l150 649h440l-150 -649
q-16 -67 16.5 -102.5t92.5 -35.5q76 0 148 48.5t90 126.5l141 612h442l-153 -666q-13 -72 -13 -78q0 -29 18 -41.5t64 -11.5h15l-70 -309q-79 0 -128 1t-108.5 4.5t-95.5 10t-73 18.5t-57 29.5t-33.5 42.5t-14.5 58q-83 -94 -188 -143.5t-211 -49.5q-144 0 -241 91t-97 255
q0 72 16 140z" />
    <glyph glyph-name="yacute" unicode="&#xfd;" horiz-adv-x="1460" 
d="M840 1296l317 258l90 -139l-350 -201zM225 457l150 649h440l-149 -649q-16 -67 16 -102.5t92 -35.5q76 0 148 48.5t90 126.5l141 612h442l-229 -997q-36 -156 -127 -277t-218.5 -195.5t-278 -112.5t-316.5 -38q-101 0 -211 30t-195 78l150 404q57 -57 169.5 -90
t238.5 -33q146 0 231.5 51t112.5 164l12 62q-81 -88 -183.5 -134.5t-203.5 -46.5q-145 0 -242.5 90t-97.5 254q0 65 18 142z" />
    <glyph glyph-name="thorn" unicode="&#xfe;" horiz-adv-x="1527" 
d="M1593 553q-25 -108 -78 -203t-122.5 -163.5t-151.5 -118.5t-166.5 -74.5t-165.5 -24.5q-103 0 -186 42t-131 126l-103 -444l-442 2l377 1636h444l-86 -364q87 84 190.5 127t207.5 43q86 0 164 -30t138 -84.5t95 -138t35 -184.5q0 -63 -19 -147zM1147 553q8 31 8 63
q0 84 -54 130.5t-134 46.5q-92 0 -172.5 -62.5t-106.5 -177.5q-8 -36 -8 -72q0 -82 50.5 -126t125.5 -44q94 0 179.5 65t111.5 177z" />
    <glyph glyph-name="ydieresis" unicode="&#xff;" horiz-adv-x="1460" 
d="M803 1331q11 45 48 76t81 31q40 0 64 -31.5t14 -75.5q-9 -39 -48 -69.5t-79 -30.5q-42 0 -65.5 30t-14.5 70zM1067 1331q10 44 50 75.5t83 31.5q37 0 60 -31.5t14 -75.5q-10 -39 -48 -69.5t-75 -30.5q-43 0 -68 30t-16 70zM225 457l150 649h440l-149 -649
q-16 -67 16 -102.5t92 -35.5q76 0 148 48.5t90 126.5l141 612h442l-229 -997q-36 -156 -127 -277t-218.5 -195.5t-278 -112.5t-316.5 -38q-101 0 -211 30t-195 78l150 404q57 -57 169.5 -90t238.5 -33q146 0 231.5 51t112.5 164l12 62q-81 -88 -183.5 -134.5t-203.5 -46.5
q-145 0 -242.5 90t-97.5 254q0 65 18 142z" />
    <glyph glyph-name="Dcroat" unicode="&#x110;" horiz-adv-x="1767" 
d="M455 1434h850q148 -1 263 -45t184.5 -119.5t104.5 -171t35 -207.5q0 -93 -20 -174q-25 -108 -77.5 -211t-134 -194t-182.5 -160t-231 -110t-272 -42h-852l147 631h-102l61 274h103zM1210 1067h-389l-39 -162h535l-64 -274h-532l-62 -262h390q88 0 164.5 51.5t124 129
t67.5 167.5q12 56 12 110q0 105 -52 172.5t-155 67.5z" />
    <glyph glyph-name="dcroat" unicode="&#x111;" horiz-adv-x="1527" 
d="M190 553q30 133 104 246t168.5 185.5t201 112.5t208.5 40q103 0 186.5 -43t131.5 -127l53 233h-459l64 273h459l14 63h440l-14 -63h188l-63 -273h-189l-174 -760q-14 -58 -14 -78q0 -29 18.5 -41.5t63.5 -11.5h14l-69 -309q-75 0 -124 1t-106.5 4t-93.5 9.5t-73 17.5
t-58 27t-35.5 39.5t-17.5 53.5q-88 -91 -195.5 -137t-216.5 -46q-116 0 -212.5 49.5t-157 149.5t-60.5 233q0 73 18 152zM635 553q-8 -31 -8 -64q0 -84 54.5 -131t133.5 -47q92 0 171.5 61.5t107.5 176.5l2 6q8 50 8 66q0 84 -50.5 128t-127.5 44q-95 0 -180 -64t-111 -176z
" />
    <glyph glyph-name="dotlessi" unicode="&#x131;" horiz-adv-x="696" 
d="M205 799l71 307h48q12 0 54.5 1t70.5 1q54 0 97.5 -3t93 -14.5t80.5 -31t47 -54.5t5 -83l-110 -482q-15 -62 -15 -78q0 -29 18.5 -41.5t63.5 -11.5h16l-71 -309q-79 0 -129.5 1t-109.5 5t-95.5 11t-73 19.5t-56.5 30.5t-32 44.5t-12 60.5q0 31 8 64l109 466q23 97 -31 97
h-47z" />
    <glyph glyph-name="Lslash" unicode="&#x141;" horiz-adv-x="1400" 
d="M123 0l110 479l-77 -22l-21 250l162 45l158 682h450l-125 -543l146 43l20 -250l-229 -66l-58 -249h828l-86 -369h-1278z" />
    <glyph glyph-name="lslash" unicode="&#x142;" horiz-adv-x="679" 
d="M475 1536h440l-170 -729l129 33l11 -252l-201 -51l-22 -97q-13 -72 -13 -78q0 -29 18 -41.5t64 -11.5h14l-69 -309q-92 0 -149.5 1.5t-123 7t-103.5 17t-71.5 30t-48 47.5t-14.5 69q0 33 8 64l43 182l-125 -31l-10 252l197 49z" />
    <glyph glyph-name="OE" unicode="&#x152;" horiz-adv-x="2519" 
d="M1550 369h856l-86 -369h-1433q-103 0 -199.5 18.5t-185 60.5t-154 103.5t-104.5 153t-39 203.5q0 79 22 178q29 126 88 233t137.5 183.5t171.5 135.5t195 94.5t202 53t198 17.5h1419l-84 -369h-842l-39 -164h705l-86 -369h-703zM1114 428l133 578h-129q-69 0 -132 -13.5
t-125 -44.5t-108 -90t-65 -141q-10 -48 -10 -76q0 -60 26.5 -103.5t72.5 -66.5t97 -33t111 -10h129z" />
    <glyph glyph-name="oe" unicode="&#x153;" horiz-adv-x="2181" 
d="M1907 463l229 -256q-264 -254 -604 -254q-106 0 -204.5 36t-168.5 105q-105 -66 -223.5 -100.5t-228.5 -34.5q-100 0 -193.5 29t-169 83.5t-121 143t-45.5 197.5q0 68 17 137q27 115 88 213.5t141.5 167t176 117t191.5 71.5t187 23q111 0 213.5 -35t177.5 -102
q102 69 218 106t222 37q97 0 181 -28.5t149.5 -84t103 -145.5t37.5 -205q0 -87 -24 -195l-768 3q5 -65 43.5 -105.5t107.5 -40.5q85 0 145.5 30t121.5 87zM1565 737h329q-32 107 -131 107q-115 0 -198 -107zM1049 549q20 84 -32.5 132t-131.5 48q-50 0 -100 -19t-92 -61.5
t-56 -99.5q-20 -84 32.5 -131t131.5 -47q51 0 100.5 18.5t91.5 60.5t56 99z" />
    <glyph glyph-name="Scaron" unicode="&#x160;" horiz-adv-x="1650" 
d="M1114 1540l-106 254h157l43 -135l107 135h158l-226 -254h-133zM1888 1257l-291 -368q-93 93 -256.5 150t-300.5 57q-148 0 -163 -66q-7 -30 24 -52.5t87.5 -36.5t130.5 -32t153 -35.5t155 -49.5t135.5 -72t96.5 -105t37 -147q0 -44 -13 -101q-22 -95 -76.5 -171
t-129.5 -127t-171 -85.5t-199.5 -49.5t-217.5 -15q-227 0 -444.5 58t-350.5 155l293 389q104 -96 299 -161.5t342 -65.5q138 0 150 57q7 29 -23.5 52.5t-86.5 39t-129 35.5t-151 39.5t-153 53.5t-134 76t-95.5 108.5t-36.5 148.5q0 44 12 100q27 116 97 203t170 138
t216 75.5t248 24.5q215 0 426.5 -60.5t349.5 -159.5z" />
    <glyph glyph-name="scaron" unicode="&#x161;" horiz-adv-x="1372" 
d="M899 1212l-106 254h157l43 -135l107 135h157l-225 -254h-133zM1534 971l-250 -318q-86 65 -228 110.5t-239 45.5q-79 0 -84 -31q-4 -17 30 -30t91 -25t126.5 -26.5t140.5 -39.5t129 -60t95 -92.5t37 -131.5q0 -32 -10 -80q-21 -93 -82.5 -163t-149.5 -111.5t-191 -61.5
t-218 -20q-184 0 -360 46t-285 123l246 340q89 -79 244.5 -130.5t265.5 -51.5q78 0 84 29q5 22 -26 36.5t-86 24.5t-122 22t-135.5 34.5t-125 56t-92.5 93t-36 138.5q0 44 12 99q21 91 77.5 160.5t137.5 109.5t175 60t200 20q173 0 345.5 -48.5t283.5 -127.5z" />
    <glyph glyph-name="Ydieresis" unicode="&#x178;" horiz-adv-x="1665" 
d="M981 1659q11 44 48 75t81 31q41 0 64.5 -31.5t13.5 -74.5q-9 -39 -48 -69.5t-79 -30.5q-42 0 -65.5 30t-14.5 70zM1245 1659q10 44 50 75t83 31q36 0 59 -31.5t13 -74.5q-9 -39 -46.5 -69.5t-74.5 -30.5q-43 0 -68 30t-16 70zM332 1434h526l191 -496l419 496h525
l-805 -869l-131 -565h-451l131 565z" />
    <glyph glyph-name="Zcaron" unicode="&#x17d;" 
d="M999 1540l-106 254h158l43 -135l106 135h158l-225 -254h-134zM1561 1065l-924 -696h833l-84 -369h-1349l86 369l942 696h-764l86 369h1260z" />
    <glyph glyph-name="zcaron" unicode="&#x17e;" horiz-adv-x="1214" 
d="M821 1212l-108 254h157l45 -135l105 135h160l-226 -254h-133zM1305 758l-654 -410h623l-80 -348h-1174l80 348l670 410h-555l80 348h1091z" />
    <glyph glyph-name="circumflex" unicode="&#x2c6;" horiz-adv-x="458" 
d="M440 1239h-157l225 256h133l107 -256h-158l-43 135z" />
    <glyph glyph-name="caron" unicode="&#x2c7;" horiz-adv-x="458" 
d="M442 1212l-106 254h158l43 -135l106 135h158l-226 -254h-133z" />
    <glyph glyph-name="ring" unicode="&#x2da;" horiz-adv-x="446" 
d="M504 1192q-85 0 -128.5 44t-43.5 112q0 96 74.5 176t191.5 80q83 0 125.5 -44t42.5 -112q0 -95 -73.5 -175.5t-188.5 -80.5zM567 1475q-42 0 -68 -30t-26 -65q0 -25 15 -40t44 -15q40 0 66.5 29.5t26.5 64.5q0 25 -15 40.5t-43 15.5z" />
    <glyph glyph-name="tilde" unicode="&#x2dc;" horiz-adv-x="593" 
d="M401 1274l-43 117q37 30 62.5 47t66.5 34t78 17q33 0 56.5 -8.5t33.5 -19t23 -19t27 -8.5q38 0 135 67l34 -123q-41 -32 -97 -58t-99 -26q-35 0 -61 9t-37 19t-24 19t-26 9q-30 0 -129 -76z" />
    <glyph glyph-name="endash" unicode="&#x2013;" horiz-adv-x="847" 
d="M152 494l59 260h772l-59 -260h-772z" />
    <glyph glyph-name="emdash" unicode="&#x2014;" horiz-adv-x="1288" 
d="M147 479l64 273h1212l-63 -273h-1213z" />
    <glyph glyph-name="quoteleft" unicode="&#x2018;" horiz-adv-x="520" 
d="M815 1434l-246 -500h-315l334 500h227z" />
    <glyph glyph-name="quoteright" unicode="&#x2019;" horiz-adv-x="520" 
d="M254 934l246 500h315l-336 -500h-225z" />
    <glyph glyph-name="quotesinglbase" unicode="&#x201a;" horiz-adv-x="522" 
d="M0 -162l246 500h317l-338 -500h-225z" />
    <glyph glyph-name="quotedblleft" unicode="&#x201c;" horiz-adv-x="948" 
d="M819 1434l-250 -500h-315l334 500h231zM1243 1434l-250 -500h-315l334 500h231z" />
    <glyph glyph-name="quotedblright" unicode="&#x201d;" horiz-adv-x="950" 
d="M678 934l250 500h315l-336 -500h-229zM254 934l250 500h315l-336 -500h-229z" />
    <glyph glyph-name="quotedblbase" unicode="&#x201e;" horiz-adv-x="942" 
d="M0 -162l246 500h317l-338 -500h-225zM422 -162l246 500h317l-338 -500h-225z" />
    <glyph glyph-name="dagger" unicode="&#x2020;" horiz-adv-x="835" 
d="M610 1434h277l-78 -336h244l-64 -277h-244l-225 -981h-276l225 981h-242l64 277h241z" />
    <glyph glyph-name="bullet" unicode="&#x2022;" horiz-adv-x="512" 
d="M203 717q20 87 100.5 153t169.5 66q86 0 138 -66.5t32 -152.5q-22 -89 -103 -155t-167 -66q-89 0 -139.5 66t-30.5 155z" />
    <glyph glyph-name="guilsinglleft" unicode="&#x2039;" horiz-adv-x="577" 
d="M190 659l27 115l651 647l-90 -395l-315 -309l172 -309l-92 -396z" />
    <glyph glyph-name="guilsinglright" unicode="&#x203a;" horiz-adv-x="577" 
d="M367 1421l352 -647l-27 -115l-651 -647l90 396l315 309l-172 309z" />
    <glyph glyph-name="Euro" unicode="&#x20ac;" horiz-adv-x="1398" 
d="M225 979h240q122 215 332 350t477 135q113 0 215.5 -38t179.5 -107l-256 -297q-70 78 -196 78q-176 0 -310 -121h203l-49 -211h-289q-14 -37 -20 -80h290l-49 -211h-215q73 -139 262 -139q138 0 232 76l119 -299q-108 -75 -216.5 -110.5t-246.5 -35.5q-140 0 -250.5 39.5
t-180.5 110t-109 161t-46 197.5h-231l49 211h196q3 13 9.5 39.5t9.5 40.5h-197z" />
    <glyph glyph-name="trademark" unicode="&#x2122;" horiz-adv-x="839" 
d="M856 1434l59 -179l142 179h86l-92 -398h-105l37 158l-68 -86h-67l-29 86l-37 -158h-102l92 398h84zM696 1339h-123l-69 -303h-105l70 303h-123l23 95h348z" />
    <glyph glyph-name="minus" unicode="&#x2212;" horiz-adv-x="1030" 
d="M172 580l64 274h954l-64 -274h-954z" />
    <glyph glyph-name="a.salt" horiz-adv-x="1370" 
d="M360 678l5 330q102 56 263 93.5t316 37.5q98 0 180 -17t149 -53t104.5 -99.5t37.5 -148.5q0 -55 -14 -112l-66 -269q-14 -58 -14 -78q0 -29 19 -41.5t65 -11.5h14l-71 -309q-78 0 -127 1t-108 4.5t-94.5 10t-73 18t-57.5 29t-33.5 42t-14.5 57.5q-149 -172 -455 -172
q-141 0 -212 64.5t-71 166.5q0 64 27.5 132.5t82 132t127.5 112.5t173.5 76t210.5 22l106 -4q118 -9 138 56l2 8q4 22 -18.5 32.5t-67.5 10.5q-104 0 -284.5 -45t-238.5 -76zM893 432q-61 -33 -129 -33h-96q-31 0 -48.5 -13.5t-17.5 -31.5q0 -16 16 -27.5t48 -11.5
q98 0 147 23q63 30 80 94z" />
    <glyph glyph-name="d.salt" horiz-adv-x="1527" 
d="M1321 1536h440l-354 -1536h-391l2 158q-88 -94 -196.5 -141.5t-219.5 -47.5q-116 0 -212.5 49.5t-157 149.5t-60.5 233q0 73 18 152q30 133 104 246t168.5 185.5t201 112.5t208.5 40q104 0 188 -43t130 -127zM635 553q-8 -31 -8 -64q0 -84 54.5 -131t133.5 -47
q92 0 172.5 63t106.5 179q8 33 8 70q0 82 -50.5 126t-125.5 44q-95 0 -180 -64t-111 -176z" />
    <glyph glyph-name="g.salt" horiz-adv-x="1392" 
d="M1370 696q-30 -133 -129 -232.5t-225 -146.5t-258 -47q-119 0 -215 41q-4 -8 -4 -10q-5 -23 6.5 -37.5t41 -21.5t62.5 -9t86 -2h119q55 0 97 -1.5t94 -8t90 -17.5t77 -30.5t63.5 -46.5t40 -67.5t15.5 -90.5q0 -43 -12 -102q-22 -98 -98.5 -179t-185 -132t-235 -79
t-255.5 -28q-112 0 -211 21.5t-178 64t-124.5 111t-45.5 155.5q0 32 10 84q26 119 182 185q-6 47 8 100q19 81 75 153.5t124 120.5q-43 72 -43 166q0 41 14 109q30 133 129.5 232.5t225.5 146.5t258 47q127 0 223 -45q47 85 47 153q0 30 -10 60l368 -49q1 -103 -62 -179
t-183 -137q30 -61 30 -143q0 -51 -12 -109zM707 707q-13 -55 26.5 -87t102.5 -32t116 31.5t66 87.5q13 57 -25.5 88.5t-101.5 31.5t-117 -31.5t-67 -88.5zM375 -94q-2 -2 -2 -6q-9 -38 28.5 -65.5t98 -39.5t133.5 -12q98 0 173.5 22t84.5 60q4 19 -20.5 27t-75.5 8
q-28 0 -111 -4.5t-131 -4.5q-95 0 -178 15z" />
    <glyph glyph-name="h.salt" horiz-adv-x="1503" 
d="M559 0h-440l354 1536h442l-137 -594q76 83 179 134.5t225 51.5q193 0 283.5 -74t90.5 -225q0 -85 -22 -178l-150 -651h-442l129 557q14 60 14 109q0 141 -127 141q-85 0 -167.5 -84t-114.5 -225z" />
    <glyph glyph-name="i.salt" horiz-adv-x="614" 
d="M414 1403q20 91 93 147t171 56t146 -56t26 -147t-94 -146t-170 -55q-100 0 -147 55t-25 146zM526 0h-440l256 1106h440z" />
    <glyph glyph-name="j.salt" horiz-adv-x="614" 
d="M414 1403q20 91 93 147t171 56t146 -56t26 -147t-94 -146t-170 -55q-100 0 -147 55t-25 146zM-8 -410l350 1516h440l-350 -1516h-440z" />
    <glyph glyph-name="k.salt" horiz-adv-x="1607" 
d="M119 0l356 1536h440l-155 -666l311 236h567l-536 -401l524 -705h-604l-303 420l-76 -55l-84 -365h-440z" />
    <glyph glyph-name="l.salt" horiz-adv-x="679" 
d="M119 0l356 1536h440l-356 -1536h-440z" />
    <glyph glyph-name="m.salt" horiz-adv-x="2127" 
d="M561 0h-442l256 1106h391l2 -150q143 172 330 172q158 0 246 -47.5t116 -146.5q123 194 352 194q193 0 284 -74t91 -225q0 -85 -22 -178l-150 -651h-442l129 557q18 80 18 129q0 121 -108 121q-74 0 -117 -74.5t-80 -234.5l-115 -498h-442l129 557q17 69 17 121
q0 129 -115 129q-75 0 -125.5 -77.5t-85.5 -231.5z" />
    <glyph glyph-name="n.salt" horiz-adv-x="1499" 
d="M678 498v2l-117 -500h-442l256 1106h391l2 -176q77 87 183.5 142.5t232.5 55.5q193 0 284 -74t91 -225q0 -80 -23 -178l-150 -651h-442l129 557q14 60 14 109q0 141 -126 141q-85 0 -168 -84t-115 -225z" />
    <glyph glyph-name="p.salt" horiz-adv-x="1529" 
d="M1595 553q-25 -108 -78 -203t-122.5 -163.5t-151.5 -118.5t-166.5 -74.5t-165.5 -24.5q-103 0 -186 42t-131 126l-150 -649l-442 2l373 1616h393l-4 -162q88 95 197.5 144t220.5 49q86 0 164 -30t138 -84.5t95 -138t35 -184.5q0 -63 -19 -147zM1149 553q8 31 8 63
q0 84 -54 130.5t-134 46.5q-92 0 -172.5 -62.5t-106.5 -177.5q-8 -36 -8 -72q0 -82 50.5 -126t125.5 -44q94 0 179.5 65t111.5 177z" />
    <glyph glyph-name="r.salt" horiz-adv-x="1212" 
d="M680 510l-119 -510h-442l256 1106h391l2 -191q176 209 393 209q128 0 271 -80l-177 -321q-81 33 -188 33q-64 0 -123.5 -13.5t-114 -41t-94.5 -77t-55 -114.5z" />
    <glyph glyph-name="u.salt" horiz-adv-x="1454" 
d="M219 457l150 649h440l-150 -649q-16 -67 16.5 -102.5t92.5 -35.5q76 0 148 48.5t90 126.5l141 612h442l-256 -1106h-440l35 150q-81 -87 -183.5 -133t-203.5 -46q-144 0 -241 91t-97 255q0 72 16 140z" />
    <glyph glyph-name="y.salt" horiz-adv-x="1507" 
d="M969 -20q-86 -126 -183 -221.5t-192.5 -151.5t-186 -83.5t-176.5 -27.5q-115 0 -218.5 31t-139.5 61l160 363q20 -16 96.5 -41t136.5 -25q129 0 256 95h-16l-246 1126h479l99 -698l419 698h480z" />
    </font>
</defs>
</svg>
