<?xml version="1.0" standalone="no"?>
<!DOCTYPE svg PUBLIC "-//W3C//DTD SVG 1.1//EN" "http://www.w3.org/Graphics/SVG/1.1/DTD/svg11.dtd" >
<svg xmlns="http://www.w3.org/2000/svg" xmlns:xlink="http://www.w3.org/1999/xlink" version="1.1">
<metadata>
Created by FontForge 20201107 at Thu Nov 20 10:53:20 2025
 By 
Copyright (c) 2020 by Sarid Ezra. All rights reserved.
</metadata>
<defs>
<font id="Ezra-SemiBold" horiz-adv-x="1443" >
  <font-face 
    font-family="Ezra SemBd"
    font-weight="600"
    font-stretch="normal"
    units-per-em="2048"
    panose-1="0 0 0 0 0 0 0 0 0 0"
    ascent="1536"
    descent="-512"
    x-height="1106"
    cap-height="1434"
    bbox="-162 -514 2423 1841"
    underline-thickness="102"
    underline-position="-255"
    unicode-range="U+000D-FB01"
  />
<missing-glyph horiz-adv-x="1024" 
 />
    <glyph glyph-name="fi" unicode="fi" horiz-adv-x="1380" 
d="M1237 0h-285v893h-460v-893h-289v893h-178l-2 178l198 31q-74 92 -74 190q0 88 73 155.5t187 101.5t246 34q178 0 330.5 -66.5t222.5 -197.5l-217 -121q-58 81 -147.5 120.5t-186.5 39.5q-99 0 -169 -38.5t-70 -98.5q0 -34 19.5 -66t53.5 -49h748v-1106z" />
    <glyph glyph-name=".notdef" horiz-adv-x="1024" 
 />
    <glyph glyph-name="uni0000" horiz-adv-x="0" 
 />
    <glyph glyph-name="uni0000" horiz-adv-x="0" 
 />
    <glyph glyph-name="uni000D" unicode="&#xd;" horiz-adv-x="512" 
 />
    <glyph glyph-name="space" unicode=" " horiz-adv-x="565" 
 />
    <glyph glyph-name="exclam" unicode="!" horiz-adv-x="434" 
d="M125 422l-55 1012h292l-55 -1012h-182zM59 135q0 63 44.5 106.5t107.5 43.5t105 -43.5t42 -106.5t-42 -107t-105 -44t-107.5 44t-44.5 107z" />
    <glyph glyph-name="quotedbl" unicode="&#x22;" horiz-adv-x="794" 
d="M51 981l90 469h234l-168 -469h-156zM410 981l88 469h235l-168 -469h-155z" />
    <glyph glyph-name="numbersign" unicode="#" horiz-adv-x="1687" 
d="M682 0l190 379h-346l-188 -379h-223l190 379h-246v190h340l133 265h-358v188l453 -2l204 414h222l-205 -412l344 -2l205 414h223l-207 -412h197v-188h-291l-131 -265h303v-190h-397l-191 -379h-221zM623 569h344l131 265h-344z" />
    <glyph glyph-name="dollar" unicode="$" horiz-adv-x="1536" 
d="M719 1536h153v-143q166 -14 318.5 -65t251.5 -128l-139 -215q-69 61 -186 103.5t-245 56.5v-350q60 -10 103.5 -19t101 -23.5t98.5 -31t87 -39t77.5 -52t58 -66t39.5 -83.5t13 -102q0 -99 -46.5 -176.5t-128 -126.5t-183 -76.5t-220.5 -32.5v-94h-153v94q-186 11 -353 66
t-264 141l144 219q68 -67 198 -113.5t275 -62.5v358q-67 12 -115.5 23t-110 29.5t-104.5 38.5t-88 51.5t-72.5 68.5t-45 88t-17.5 111q0 102 44.5 181t122 127.5t175 74t211.5 29.5v139zM719 821v328q-117 -6 -189.5 -49t-72.5 -121q0 -33 19 -59t57 -44t81 -30.5t105 -24.5
zM872 547v-334q127 5 207 46t80 116q0 36 -21 64t-63 48t-88.5 33t-114.5 27z" />
    <glyph glyph-name="percent" unicode="%" horiz-adv-x="1722" 
d="M449 879q-154 0 -240 90t-86 213t86 212t240 89q155 0 242 -90t87 -213t-87 -212t-242 -89zM1354 1434h243l-1243 -1434h-243zM449 1331q-75 0 -116.5 -44.5t-41.5 -106.5t41.5 -106t116.5 -44q77 0 119 44t42 106t-42 106.5t-119 44.5zM1284 0q-154 0 -240 90t-86 213
t86 212t240 89q155 0 242.5 -90t87.5 -213t-87.5 -212t-242.5 -89zM1284 461q-78 0 -122 -47t-44 -111q0 -65 43.5 -111.5t122.5 -46.5q82 0 127 46.5t45 111.5q0 64 -45.5 111t-126.5 47z" />
    <glyph glyph-name="ampersand" unicode="&#x26;" horiz-adv-x="1695" 
d="M1671 0l-307 -39q-62 53 -154 139q-109 -88 -246 -132t-280 -44q-98 0 -189 20t-169.5 61.5t-137 99t-92 137t-33.5 172.5q0 75 27.5 141t69 113.5t107 92t123 74t136.5 62.5q-94 169 -94 293q0 91 57.5 159t143.5 100t184 32q97 0 178.5 -30.5t136 -97.5t54.5 -159
q0 -68 -24.5 -125t-72 -102.5t-99.5 -79t-124 -68.5q119 -152 312 -352q60 120 51 289l250 6q11 -279 -111 -483q76 -72 151.5 -141.5t113.5 -103.5zM750 993q96 46 147 92t51 105q0 55 -39 87t-92 32q-54 0 -93.5 -33.5t-39.5 -93.5q0 -73 66 -189zM641 719
q-68 -31 -114.5 -57t-90.5 -61t-66 -77.5t-22 -91.5q0 -117 100.5 -185.5t245.5 -68.5q184 0 328 103q-234 238 -381 438z" />
    <glyph glyph-name="quotesingle" unicode="'" horiz-adv-x="407" 
d="M133 1450h236l-162 -469h-156z" />
    <glyph glyph-name="parenleft" unicode="(" horiz-adv-x="579" 
d="M365 -82q-148 113 -227 322t-79 450t79.5 451t226.5 323l155 -73q-113 -101 -173 -292t-60 -411t60 -408.5t173 -287.5z" />
    <glyph glyph-name="parenright" unicode=")" horiz-adv-x="579" 
d="M215 -82l-156 74q113 99 173.5 288t60.5 408q0 220 -60.5 411t-173.5 292l156 73q147 -113 226 -323t79 -451t-79 -450t-226 -322z" />
    <glyph glyph-name="asterisk" unicode="*" horiz-adv-x="665" 
d="M557 1364l47 -154l-172 -24l115 -125l-127 -98l-88 159l-86 -153l-129 94l110 121l-168 20l47 158l160 -72l-18 144h162l-17 -142z" />
    <glyph glyph-name="plus" unicode="+" horiz-adv-x="985" 
d="M59 618v199h326v293h215v-293h324v-199h-324v-317h-215v317h-326z" />
    <glyph glyph-name="comma" unicode="," horiz-adv-x="563" 
d="M-10 -242l215 490h287l-312 -490h-190z" />
    <glyph glyph-name="hyphen" unicode="-" horiz-adv-x="1116" 
d="M59 618v199h996v-199h-996z" />
    <glyph glyph-name="period" unicode="." horiz-adv-x="456" 
d="M78 135q0 63 44 106.5t107 43.5t106.5 -43.5t43.5 -106.5t-43.5 -107t-106.5 -44t-107 44t-44 107z" />
    <glyph glyph-name="slash" unicode="/" horiz-adv-x="1255" 
d="M979 1434h215l-920 -1434h-215z" />
    <glyph glyph-name="zero" unicode="0" horiz-adv-x="1568" 
d="M84 717q0 147 39 272t106.5 213t157.5 150.5t191 92.5t208 30q106 0 206.5 -29.5t190 -92t156.5 -150.5t106.5 -213.5t39.5 -272.5t-39.5 -272.5t-106.5 -213.5t-156.5 -150.5t-190 -92t-206.5 -29.5q-107 0 -208 30t-191 92.5t-157.5 150.5t-106.5 213t-39 272zM352 717
q0 -115 37 -207.5t99 -150.5t138.5 -88.5t159.5 -30.5q65 0 127.5 19t118 58t97 94.5t66 134.5t24.5 171q0 115 -37 208.5t-99 151.5t-138.5 88.5t-158.5 30.5q-83 0 -159.5 -30.5t-138.5 -88.5t-99 -151.5t-37 -208.5z" />
    <glyph glyph-name="one" unicode="1" horiz-adv-x="811" 
d="M494 1456h170v-1456h-295v1073l-197 -164l-129 156z" />
    <glyph glyph-name="two" unicode="2" horiz-adv-x="1206" 
d="M842 1047q0 80 -70 126t-174 46q-110 0 -216 -53.5t-169 -155.5l-123 239q75 111 211 170.5t289 59.5q81 0 157.5 -16.5t144 -51t118 -82.5t79.5 -115.5t29 -146.5q0 -86 -30.5 -160t-82.5 -131.5t-116.5 -108t-138 -99t-141 -94.5t-131.5 -105t-103 -121h766v-248h-1078
q0 111 26.5 208t71.5 168t103.5 133t123.5 109.5t129.5 89.5t123 81t103.5 77.5t71.5 84.5t26.5 96z" />
    <glyph glyph-name="three" unicode="3" horiz-adv-x="1349" 
d="M494 692h-27l4 191q211 -3 317.5 57.5t106.5 144.5q0 64 -60 112t-155 48q-113 0 -213.5 -47.5t-175.5 -142.5l-137 164q95 126 229.5 187.5t278.5 61.5q123 0 224.5 -32t167 -85t101 -120t35.5 -139q0 -86 -50.5 -164t-150.5 -135q135 -65 205 -165.5t70 -211.5
q0 -86 -42 -166.5t-119.5 -145t-200.5 -103t-271 -38.5q-112 0 -215 30.5t-197 99t-156 169.5l132 203q162 -234 452 -234q145 0 233.5 64t88.5 151q0 47 -28.5 90t-84 78.5t-149 56.5t-213.5 21z" />
    <glyph glyph-name="four" unicode="4" horiz-adv-x="1359" 
d="M1315 311h-182v-311l-293 -2v313h-797v248l903 879l187 -4v-875h182v-248zM354 559h486v471z" />
    <glyph glyph-name="five" unicode="5" horiz-adv-x="1372" 
d="M324 629l-187 18l101 787h936v-248h-699l-37 -281q125 29 254 29q144 0 259.5 -39.5t187 -106.5t109.5 -150t38 -175q0 -76 -25.5 -149t-78.5 -138t-128 -114t-181 -78t-230 -29q-115 0 -218.5 32.5t-194.5 105.5t-146 181l221 119q35 -86 126 -130t202 -44
q171 0 268.5 78t97.5 182q0 98 -89.5 167t-254.5 69q-179 0 -331 -86z" />
    <glyph glyph-name="six" unicode="6" horiz-adv-x="1466" 
d="M758 -31q-131 0 -242.5 41t-190 111.5t-133.5 165t-81.5 200.5t-26.5 218q0 114 27 223t83.5 205.5t135.5 169t191 115t243 42.5q92 0 179.5 -18.5t149 -45t112.5 -58.5t78 -55.5t38 -39.5l-139 -170q-10 14 -41 36.5t-82.5 50t-131 46.5t-165.5 19q-87 0 -161 -33.5
t-125.5 -91t-85 -130.5t-46.5 -155q153 143 447 143q143 0 257.5 -40.5t185 -108.5t107.5 -152.5t37 -177.5q0 -96 -40 -186t-114.5 -163t-195.5 -117t-270 -44zM791 725q-193 0 -290.5 -63t-97.5 -156q0 -99 101 -178.5t254 -79.5q161 0 253.5 76t92.5 176q0 93 -81.5 159
t-231.5 66z" />
    <glyph glyph-name="seven" unicode="7" horiz-adv-x="1304" 
d="M195 0l675 1186h-827v248h1217v-56l-740 -1378h-325z" />
    <glyph glyph-name="eight" unicode="8" horiz-adv-x="1452" 
d="M186 1096q0 166 149 268t392 102t392 -102t149 -268q0 -100 -56 -177.5t-157 -125.5q159 -52 247.5 -151t88.5 -234q0 -197 -182.5 -318t-481.5 -121t-481.5 121t-182.5 318q0 135 89 234t249 151q-103 48 -159 125.5t-56 177.5zM727 901q133 0 210 52t77 122t-76 121
t-211 51q-137 0 -213 -51t-76 -121t77 -122t212 -52zM727 219q175 0 272 66t97 157q0 90 -97.5 157t-271.5 67q-175 0 -273 -66.5t-98 -157.5t98 -157t273 -66z" />
    <glyph glyph-name="nine" unicode="9" horiz-adv-x="1464" 
d="M707 1460q131 0 242.5 -41t189 -111.5t132.5 -164.5t81 -200t26 -218q0 -114 -27 -223t-83 -206t-135 -169.5t-190.5 -115t-242.5 -42.5q-113 0 -218 27t-174 66t-110.5 71t-56.5 53l140 170q11 -14 42 -36t82.5 -49.5t130 -46.5t164.5 -19q88 0 162.5 33.5t125.5 90.5
t84 129t46 154q-155 -141 -446 -141q-143 0 -257.5 40t-185.5 108t-108 152t-37 177q0 77 25 150t76.5 139t124 115.5t175 78.5t222.5 29zM674 705q193 0 290 62t97 155q0 99 -101 179.5t-253 80.5q-161 0 -254 -76t-93 -176q0 -93 82 -159t232 -66z" />
    <glyph glyph-name="colon" unicode=":" horiz-adv-x="409" 
d="M59 969q0 63 44.5 106t107.5 43t105 -43t42 -106q0 -65 -42 -108.5t-105 -43.5t-107.5 44t-44.5 108zM70 135q0 63 43.5 106.5t105.5 43.5q64 0 107 -43.5t43 -106.5t-43 -107t-107 -44q-62 0 -105.5 44t-43.5 107z" />
    <glyph glyph-name="semicolon" unicode=";" horiz-adv-x="598" 
d="M182 911q0 64 44 107t108 43q63 0 106 -43t43 -107q0 -63 -43 -107t-106 -44t-107.5 44t-44.5 107zM61 -178l189 426h287l-285 -426h-191z" />
    <glyph glyph-name="less" unicode="&#x3c;" horiz-adv-x="673" 
d="M612 461v-236l-553 402l2 157l551 400v-236l-354 -243z" />
    <glyph glyph-name="equal" unicode="=" horiz-adv-x="929" 
d="M59 760v198h809v-198h-809zM59 418v198h809v-198h-809z" />
    <glyph glyph-name="greater" unicode="&#x3e;" horiz-adv-x="673" 
d="M612 782v-155l-553 -402v236l355 244l-355 243v236z" />
    <glyph glyph-name="question" unicode="?" horiz-adv-x="1153" 
d="M813 1059q0 86 -56 130t-145 44q-103 0 -212 -57.5t-175 -157.5l-162 186q83 120 235.5 187t317.5 67q95 0 179 -24t150.5 -70.5t105.5 -123t39 -173.5q0 -68 -18 -124t-48.5 -94t-70 -69.5t-83.5 -55.5t-87.5 -46.5t-83 -48.5t-70 -56t-48.5 -73t-18 -97h-164
q-1 96 21 171t58.5 120.5t81 80.5t89 62.5t81.5 56t60 70t23 95.5zM342 133q0 64 43.5 108t106.5 44t106 -44t43 -108q0 -63 -43 -106t-106 -43t-106.5 43t-43.5 106z" />
    <glyph glyph-name="at" unicode="@" horiz-adv-x="1480" 
d="M846 987h137v-231q0 -38 0.5 -58.5t3 -59t7.5 -61.5t15.5 -53t25 -46t37.5 -28t52 -12q72 0 115 69.5t43 172.5q0 66 -18 132.5t-60 131t-102 113.5t-151 79.5t-201 30.5q-133 0 -240.5 -46.5t-174 -124t-101.5 -173t-35 -198.5q0 -104 35 -200t101.5 -173.5t174 -123.5
t240.5 -46q108 0 204.5 42t163.5 118l84 -109q-192 -180 -452 -180q-134 0 -248.5 37.5t-194.5 101.5t-137 150t-84 182.5t-27 198.5t27 198.5t84 182.5t137 150.5t194.5 102t248.5 37.5q112 0 209.5 -26t169.5 -71.5t128 -105t91 -128.5t53 -140t18 -141q0 -154 -78 -256
t-217 -102q-157 0 -223 104q-75 -139 -227 -139q-79 0 -136.5 49.5t-83.5 124.5t-26 164q0 96 30 181t93.5 142.5t148.5 57.5q81 0 146 -43v22zM844 741q-12 64 -51 102t-93 38q-62 0 -97.5 -74.5t-35.5 -173.5q0 -89 29 -153t80 -64q42 0 74.5 30t51 81t28.5 103t14 111z
" />
    <glyph glyph-name="A" unicode="A" horiz-adv-x="1685" 
d="M25 0l673 1454h291l674 -1454h-307l-105 221h-817l-104 -221h-305zM551 469h586l-293 627z" />
    <glyph glyph-name="B" unicode="B" horiz-adv-x="1523" 
d="M1006 0h-861v1434h740q103 0 186.5 -34.5t135 -92.5t79 -129.5t27.5 -149.5q0 -145 -86 -254q98 -59 149 -157.5t51 -208.5q0 -78 -27 -150.5t-77.5 -130.5t-132.5 -92.5t-184 -34.5zM436 844h395q90 0 140.5 53.5t50.5 126.5q0 74 -50.5 128t-140.5 54h-395v-362z
M436 242h516q91 0 142 56t51 134q0 77 -51 133t-142 56h-516v-379z" />
    <glyph glyph-name="C" unicode="C" horiz-adv-x="1576" 
d="M84 717q0 146 46 272t122.5 214t176 151t207 93t214.5 30q198 0 367 -82t278 -230l-207 -194q-71 98 -191.5 162.5t-236.5 64.5t-210 -41t-152 -109.5t-88.5 -153t-30.5 -177.5q0 -92 30.5 -176.5t88.5 -153.5t152 -110t210 -41q132 0 241 65.5t185 169.5l209 -197
q-113 -149 -284 -233t-363 -84q-107 0 -214.5 30t-206.5 93t-175.5 151t-122 214t-45.5 272z" />
    <glyph glyph-name="D" unicode="D" horiz-adv-x="1697" 
d="M145 1434h773q135 -2 250 -43t196 -110t138.5 -160.5t84.5 -193.5t27 -210t-27 -210t-84.5 -193.5t-138.5 -160.5t-196 -110t-250 -43h-773v1434zM905 1186h-469v-936h469q98 0 177 40t128.5 106.5t76 149t26.5 171.5q0 90 -26.5 173t-76 149.5t-128.5 106.5t-177 40z
" />
    <glyph glyph-name="E" unicode="E" horiz-adv-x="1433" 
d="M145 0v1434h1213v-248h-922v-344h791v-248h-791v-346h936v-248h-1227z" />
    <glyph glyph-name="F" unicode="F" horiz-adv-x="1380" 
d="M145 0v1434h1211v-248h-920v-418h791v-248h-791v-520h-291z" />
    <glyph glyph-name="G" unicode="G" horiz-adv-x="1613" 
d="M1487 782v-782h-131l-64 129q-188 -172 -444 -172q-107 0 -214.5 30t-206.5 93t-175.5 151t-122 214t-45.5 272t46 272t122.5 214t176 151t207 93t214.5 30q198 0 367 -81.5t278 -230.5l-209 -194q-73 99 -191.5 163t-234.5 64t-210 -41t-152 -109.5t-88.5 -153
t-30.5 -177.5q0 -92 30.5 -176.5t88.5 -152.5t152 -109t210 -41q168 0 258 100t90 246v10h-334v188h613z" />
    <glyph glyph-name="H" unicode="H" horiz-adv-x="1681" 
d="M145 0v1434h291v-592h811v592h289v-1434h-289v594h-811v-594h-291z" />
    <glyph glyph-name="I" unicode="I" horiz-adv-x="583" 
d="M145 0v1434h291v-1434h-291z" />
    <glyph glyph-name="J" unicode="J" horiz-adv-x="1126" 
d="M43 90l80 266q58 -54 135 -84t154 -30q119 0 198.5 76t79.5 229v887h291v-955q0 -110 -32 -200t-85.5 -149.5t-125.5 -99.5t-149 -57.5t-159 -17.5q-120 0 -225 36.5t-162 98.5z" />
    <glyph glyph-name="K" unicode="K" horiz-adv-x="1593" 
d="M1188 0l-561 592l-191 -191v-401h-291v1434h291v-650l658 650h370l-649 -652l754 -782h-381z" />
    <glyph glyph-name="L" unicode="L" horiz-adv-x="1368" 
d="M145 0v1434h291v-1186h910v-248h-1201z" />
    <glyph glyph-name="M" unicode="M" horiz-adv-x="1990" 
d="M145 0v1434h291l559 -1022l559 1022h289v-1434h-289v915l-503 -915h-111l-504 915v-915h-291z" />
    <glyph glyph-name="N" unicode="N" horiz-adv-x="1759" 
d="M145 0v1434h291l889 -1049v1049h289v-1434h-289l-889 1049v-1049h-291z" />
    <glyph glyph-name="O" unicode="O" horiz-adv-x="1757" 
d="M1669 717q0 -148 -47 -274.5t-126 -214t-181.5 -150t-213 -92t-222.5 -29.5q-92 0 -185 21.5t-182 62t-165.5 105.5t-134.5 147t-91 191t-33 233t33 233t91 191t134.5 147t165.5 105.5t182 62t185 21.5q112 0 222.5 -29.5t213 -92t181.5 -150t126 -214t47 -274.5z
M1376 717q0 94 -29.5 174t-79.5 135.5t-114.5 95t-134 58t-139.5 18.5t-139.5 -18.5t-134.5 -58t-114.5 -95t-79.5 -135.5t-30 -174t30 -174t79.5 -135.5t114.5 -95t134.5 -58t139.5 -18.5t139.5 18.5t134 58t114.5 95t79.5 135.5t29.5 174z" />
    <glyph glyph-name="P" unicode="P" horiz-adv-x="1392" 
d="M145 0v1434h736q108 0 195.5 -39.5t141.5 -105.5t82.5 -148t28.5 -170q0 -70 -17.5 -136.5t-54.5 -125.5t-89 -103t-126 -70t-161 -26h-445v-510h-291zM436 758h418q90 0 140 63.5t50 149.5q0 87 -50 151t-140 64h-418v-428z" />
    <glyph glyph-name="Q" unicode="Q" horiz-adv-x="1757" 
d="M1317 -223l-158 229q-137 -49 -280 -49q-92 0 -185 21.5t-182 62t-165.5 105.5t-134.5 147t-91 191t-33 233t33 233t91 191t134.5 147t165.5 105.5t182 62t185 21.5q112 0 222.5 -29.5t213 -92t181.5 -150t126 -214t47 -274.5q0 -200 -81.5 -352.5t-221.5 -251.5
l141 -203zM1376 717q0 94 -29.5 174t-79.5 135.5t-114.5 95t-134 58t-139.5 18.5t-139.5 -18.5t-134.5 -58t-114.5 -95t-79.5 -135.5t-30 -174t30 -174t79.5 -135.5t114.5 -95t134.5 -58t139.5 -18.5q57 0 112 12l-110 160l190 133l133 -193q172 138 172 369z" />
    <glyph glyph-name="R" unicode="R" horiz-adv-x="1572" 
d="M1190 0l-385 559h-369v-559h-291v1434h816q107 0 194 -37.5t141 -100t82.5 -140t28.5 -161.5q0 -137 -76 -251.5t-215 -159.5l434 -584h-360zM436 807h461q99 0 154 56t55 132q0 77 -55.5 134t-153.5 57h-461v-379z" />
    <glyph glyph-name="S" unicode="S" horiz-adv-x="1519" 
d="M1430 1264l-146 -234q-89 83 -242.5 133.5t-293.5 50.5q-127 0 -209 -46t-82 -140q0 -46 33.5 -78.5t90.5 -52t130.5 -34.5t155 -30t162.5 -34t154.5 -51t130.5 -76.5t90.5 -115.5t33.5 -163q0 -91 -35 -165t-95.5 -124.5t-143.5 -85t-176.5 -50t-196.5 -15.5
q-206 0 -402.5 60t-310.5 163l151 236q91 -90 264.5 -146.5t327.5 -56.5q130 0 216.5 45t86.5 133q0 48 -33.5 83t-90 56t-130 37t-155 31.5t-162.5 35t-154.5 51.5t-130 76.5t-90 115t-33.5 161.5t32.5 165.5t88 124.5t132 84t162 49.5t181.5 15.5q193 0 382 -57t307 -152z
" />
    <glyph glyph-name="T" unicode="T" horiz-adv-x="1566" 
d="M23 1434h1523v-244h-616v-1190h-291v1190h-616v244z" />
    <glyph glyph-name="U" unicode="U" horiz-adv-x="1656" 
d="M145 575v859h291v-859q0 -109 58 -190t145 -118.5t188 -37.5q75 0 144.5 22t126 64t90 109t33.5 151v859h288v-859q0 -122 -38 -225.5t-103.5 -176t-152.5 -124t-185.5 -76t-202.5 -24.5q-130 0 -250.5 40t-217.5 115.5t-155.5 197.5t-58.5 273z" />
    <glyph glyph-name="V" unicode="V" horiz-adv-x="1687" 
d="M989 -20h-291l-673 1454h305l514 -1096l512 1096h307z" />
    <glyph glyph-name="W" unicode="W" horiz-adv-x="2283" 
d="M786 -20h-233l-530 1454h303l356 -1024l362 1024h195l363 -1024l354 1024h303l-528 -1454h-234l-356 974z" />
    <glyph glyph-name="X" unicode="X" horiz-adv-x="1533" 
d="M1511 0h-372l-373 498l-371 -498h-372l565 737l-520 697h344l354 -463l356 463h342l-518 -697z" />
    <glyph glyph-name="Y" unicode="Y" horiz-adv-x="1536" 
d="M25 1434h335l408 -619l406 619h337l-600 -852v-582h-288v582z" />
    <glyph glyph-name="Z" unicode="Z" horiz-adv-x="1370" 
d="M1243 1186l-848 -938h916v-248h-1252v248h2h-2l869 938h-850v248h1165v-248z" />
    <glyph glyph-name="bracketleft" unicode="[" horiz-adv-x="499" 
d="M59 -119v1553h381v-115l-178 -19v-1286l178 -18v-115h-381z" />
    <glyph glyph-name="backslash" unicode="\" horiz-adv-x="1249" 
d="M59 1434h211l918 -1434h-209z" />
    <glyph glyph-name="bracketright" unicode="]" horiz-adv-x="505" 
d="M440 1434v-1553h-381l2 115l179 18v1286l-179 19l-2 115h381z" />
    <glyph glyph-name="asciicircum" unicode="^" horiz-adv-x="847" 
d="M70 920l299 514h127l299 -514h-211l-152 303l-151 -303h-211z" />
    <glyph glyph-name="underscore" unicode="_" horiz-adv-x="1204" 
d="M59 -29v179h1086v-179h-1086z" />
    <glyph glyph-name="grave" unicode="`" horiz-adv-x="360" 
d="M20 1395l91 102l231 -235l-53 -60z" />
    <glyph glyph-name="a" unicode="a" horiz-adv-x="1374" 
d="M236 788l-68 220q90 55 228 90t280 35q85 0 160 -13.5t144 -44t118.5 -77t79 -117.5t28.5 -160v-373q0 -74 20.5 -102.5t88.5 -28.5h14v-217q-81 0 -139.5 5.5t-110 20.5t-83.5 40t-51.5 65t-22.5 96q-69 -109 -201 -171.5t-297 -65.5q-172 -4 -265 82.5t-93 214.5
q0 72 31.5 141t90.5 125.5t153.5 89.5t209.5 29l215 -4q21 -2 47.5 -0.5t49.5 5.5t40 19t19 39q0 84 -72 122t-188 38q-114 0 -237.5 -31.5t-188.5 -71.5zM922 500q-58 -44 -160 -41l-203 2q-89 1 -141.5 -40.5t-52.5 -96.5q0 -48 43 -80t124 -29q55 3 118 21.5t124.5 50.5
t103 85t44.5 117v11z" />
    <glyph glyph-name="b" unicode="b" horiz-adv-x="1460" 
d="M141 0v1536h285v-608q67 103 170 156t221 53q82 0 162.5 -25t151.5 -75t125.5 -118.5t86 -163.5t31.5 -202q0 -108 -31.5 -203t-86 -163.5t-126 -118.5t-151.5 -74.5t-162 -24.5q-122 0 -226 54t-171 163l-33 -186h-246zM1087 553q0 84 -29 152.5t-77 111.5t-107.5 66.5
t-123.5 23.5q-63 0 -120 -22t-102.5 -64.5t-72.5 -111.5t-27 -156q0 -171 94.5 -263.5t227.5 -92.5q64 0 123.5 23.5t107.5 66.5t77 112.5t29 153.5z" />
    <glyph glyph-name="c" unicode="c" horiz-adv-x="1302" 
d="M84 551q0 141 57 256.5t148.5 187t200.5 110t219 38.5q163 0 301 -63.5t227 -180.5l-203 -178q-112 156 -317 156q-84 0 -152 -28t-110 -74.5t-64 -104t-22 -119.5t22 -119t64 -103.5t110 -74t152 -27.5q203 0 317 156l203 -176q-93 -115 -232.5 -180.5t-295.5 -65.5
q-88 0 -176 23.5t-169 72.5t-143.5 117t-99.5 166t-37 211z" />
    <glyph glyph-name="d" unicode="d" horiz-adv-x="1458" 
d="M1032 1536h285v-1536h-246l-31 184q-68 -107 -172.5 -161t-224.5 -54q-103 0 -202 40t-179 112t-129 185t-49 247q0 133 49 246t129 185.5t179 112.5t202 40q117 0 219.5 -52.5t169.5 -154.5v606zM371 553q0 -84 29.5 -153.5t78 -112.5t108.5 -66.5t124 -23.5
q62 0 118.5 22t102.5 64.5t73 112t27 157.5q0 87 -27 156t-73 111.5t-102.5 64.5t-118.5 22q-64 0 -124 -23.5t-108.5 -66.5t-78 -111.5t-29.5 -152.5z" />
    <glyph glyph-name="e" unicode="e" horiz-adv-x="1343" 
d="M84 551q0 141 57 256.5t148.5 187t200.5 110t219 38.5q117 0 220 -42t181 -119t124 -193.5t48 -256.5l-911 3q8 -85 48 -155t117.5 -115.5t180.5 -45.5q214 0 327 158l193 -170q-93 -115 -232.5 -180.5t-295.5 -65.5q-88 0 -176 23.5t-169 72.5t-143.5 117t-99.5 166
t-37 211zM395 715h611q-32 91 -106 153t-179 62q-122 0 -205.5 -59.5t-120.5 -155.5z" />
    <glyph glyph-name="f" unicode="f" horiz-adv-x="1003" 
d="M203 0v893h-178l-2 178l198 31q-74 92 -74 190q0 121 117.5 197t276.5 76q89 0 171 -24.5t154 -80t113 -135.5l-164 -129q-39 62 -112 96.5t-146 34.5q-62 0 -101.5 -26.5t-39.5 -79.5q0 -34 19.5 -66t53.5 -49h447l2 -213h-446v-893h-289z" />
    <glyph glyph-name="g" unicode="g" horiz-adv-x="1456" 
d="M1114 1106h201v-531l2 -432q0 -158 -56.5 -283.5t-158 -206.5t-238.5 -124t-301 -43q-100 0 -217.5 30.5t-212.5 77.5l57 259q86 -54 197 -84.5t219 -30.5q89 0 165 23.5t135 70.5t92.5 124t33.5 177v41q-67 -102 -169.5 -153.5t-219.5 -51.5q-103 0 -202 40t-179 112
t-129 185t-49 247q0 133 49 246t129 185.5t179 112.5t202 40q118 0 221 -53t170 -156zM371 553q0 -84 29.5 -153.5t78 -112.5t108.5 -66.5t124 -23.5q62 0 118.5 22t102.5 64.5t73 112t27 157.5q0 87 -27 156t-73 111.5t-102.5 64.5t-118.5 22q-64 0 -124 -23.5
t-108.5 -66.5t-78 -111.5t-29.5 -152.5z" />
    <glyph glyph-name="h" unicode="h" horiz-adv-x="1480" 
d="M426 0h-285v1536h285v-614q58 94 154.5 150t230.5 56q240 0 366 -120t126 -357v-303q0 -72 23.5 -101.5t92.5 -29.5h15l2 -217q-46 0 -78.5 1t-79.5 7t-80 15.5t-69.5 29t-59 46.5t-37 68t-14.5 93v297q0 181 -64 266.5t-221 85.5q-130 0 -218.5 -87.5t-88.5 -239.5v-582
z" />
    <glyph glyph-name="i" unicode="i" horiz-adv-x="536" 
d="M111 1372q0 67 43 108.5t114 41.5q70 0 113 -41t43 -109q0 -66 -43 -106.5t-113 -40.5t-113.5 40.5t-43.5 106.5zM410 0h-285v1106h285v-1106z" />
    <glyph glyph-name="j" unicode="j" horiz-adv-x="649" 
d="M209 1372q0 67 43.5 108.5t114.5 41.5q70 0 112.5 -41t42.5 -109q0 -66 -42.5 -106.5t-112.5 -40.5q-71 0 -114.5 40.5t-43.5 106.5zM-162 -377l60 242q80 -33 143 -33q79 0 130.5 55.5t51.5 186.5v1032h285v-1057q0 -105 -26.5 -189t-70 -136.5t-102.5 -87t-119.5 -48.5
t-126.5 -14q-132 0 -225 49z" />
    <glyph glyph-name="k" unicode="k" horiz-adv-x="1415" 
d="M141 0v1485h285v-797l467 418h377l-512 -451q61 0 114 -22.5t92 -58t76 -78t73 -85.5t75 -78t90.5 -57t110.5 -22l2 -266q-100 0 -185.5 29t-145.5 75.5t-112 102t-95 110t-84.5 99t-90.5 70t-103 20.5l-149 -134v-360h-285z" />
    <glyph glyph-name="l" unicode="l" horiz-adv-x="567" 
d="M141 0v1536h285v-1536h-285z" />
    <glyph glyph-name="m" unicode="m" horiz-adv-x="2068" 
d="M424 0h-285v786q0 23 -1 35.5t-5 31t-15 27.5t-28 9h-47v217h47q37 0 72 -2.5t80.5 -12t80.5 -25.5t63 -44.5t36 -67.5q50 80 131 127t188 47q295 0 383 -223q42 102 126.5 162.5t217.5 60.5q215 0 319.5 -118.5t104.5 -358.5v-303q0 -72 24 -101.5t93 -29.5h14l2 -217
q-46 0 -78 1t-79 7t-80 15.5t-69.5 29t-58.5 46.5t-37 68t-15 93v344q0 152 -48.5 228.5t-158.5 76.5q-100 0 -163 -71t-73 -201v-637l-284 2v602q0 151 -50 228t-161 77q-112 0 -179 -86t-67 -241v-582z" />
    <glyph glyph-name="n" unicode="n" horiz-adv-x="1478" 
d="M424 0h-285v786q0 23 -1 35.5t-5 31t-15 27.5t-28 9h-47v217h47q39 0 76 -3t84.5 -13.5t82.5 -28t61.5 -50t29.5 -75.5q61 87 159.5 139.5t227.5 52.5q240 0 366 -120t126 -357v-303q0 -72 23 -101.5t91 -29.5h15l2 -217q-46 0 -78 1t-79 7t-80 15.5t-69.5 29t-59 46.5
t-37.5 68t-15 93v297q0 181 -63.5 266.5t-221.5 85.5q-128 0 -217 -89.5t-88 -237.5z" />
    <glyph glyph-name="o" unicode="o" 
d="M1358 555q0 -114 -38 -212t-101 -166t-145.5 -116.5t-171.5 -71t-179 -22.5t-179 22.5t-172 71t-146.5 116.5t-101.5 166t-38 212t38 211.5t101.5 165t146.5 116t172 71t179 22.5t179 -22.5t171.5 -71t145.5 -116t101 -165t38 -211.5zM1073 555q0 78 -31.5 141.5
t-83 102.5t-112.5 59.5t-123 20.5q-63 0 -124 -20.5t-112.5 -59.5t-83.5 -102.5t-32 -141.5q0 -79 32 -143t83.5 -103t112.5 -59.5t124 -20.5t123.5 20.5t112 59.5t83 103t31.5 143z" />
    <glyph glyph-name="p" unicode="p" horiz-adv-x="1460" 
d="M1374 553q0 -108 -31.5 -203t-86 -163.5t-126 -118.5t-151.5 -74.5t-162 -24.5q-118 0 -221.5 52.5t-171.5 156.5v-649h-285v1257q0 23 -1 35.5t-5 31t-15 27.5t-28 9h-47v217h47q41 0 78.5 -3t86 -14t83.5 -29.5t60 -53t26 -80.5q69 104 172 157.5t221 53.5
q82 0 162.5 -25t151.5 -75t125.5 -118.5t86 -163.5t31.5 -202zM1087 553q0 84 -29 152.5t-77 111.5t-107.5 66.5t-123.5 23.5q-63 0 -120 -22t-102.5 -64.5t-72.5 -111.5t-27 -156q0 -171 94.5 -263.5t227.5 -92.5q64 0 123.5 23.5t107.5 66.5t77 112.5t29 153.5z" />
    <glyph glyph-name="q" unicode="q" horiz-adv-x="1458" 
d="M1085 1106h230v-1536h-283v604q-67 -102 -169.5 -153.5t-219.5 -51.5q-103 0 -202 40t-179 112t-129 185t-49 247q0 133 49 246t129 185.5t179 112.5t202 40q116 0 219 -53t172 -156zM371 553q0 -84 29.5 -153.5t78 -112.5t108.5 -66.5t124 -23.5q62 0 118.5 22
t102.5 64.5t73 112t27 157.5q0 87 -27 156t-73 111.5t-102.5 64.5t-118.5 22q-64 0 -124 -23.5t-108.5 -66.5t-78 -111.5t-29.5 -152.5z" />
    <glyph glyph-name="r" unicode="r" horiz-adv-x="1034" 
d="M424 0h-285v786q0 23 -1 35.5t-5 31t-15 27.5t-28 9h-47v217h47q41 0 79 -3t87 -14t84 -30t59.5 -54.5t24.5 -82.5v-4q137 204 350 204q101 0 215 -51l-67 -221q-56 20 -129 20q-65 0 -129.5 -17.5t-118.5 -50t-87.5 -85.5t-33.5 -117v-600z" />
    <glyph glyph-name="s" unicode="s" horiz-adv-x="1333" 
d="M1239 969l-129 -205q-74 61 -213 102t-264 41q-98 0 -158.5 -29.5t-60.5 -89.5q0 -31 28.5 -53t76.5 -35.5t110.5 -24.5t131.5 -23.5t137.5 -28.5t131 -43t110.5 -63t76.5 -93.5t28.5 -130.5q0 -89 -46 -157.5t-125 -109t-176.5 -61t-209.5 -20.5q-177 0 -344 47.5
t-260 128.5l133 211q71 -71 214.5 -114.5t281.5 -43.5q109 0 177 30.5t68 90.5q0 40 -35 66.5t-93 39.5t-131.5 26.5t-150 25t-150 37.5t-131.5 62t-93 100t-35 149q0 88 40.5 155.5t111 106.5t158 58.5t190.5 19.5q167 0 333 -47.5t267 -124.5z" />
    <glyph glyph-name="t" unicode="t" horiz-adv-x="1060" 
d="M317 1333l181 2v-229h465l2 -213h-467v-481q0 -101 42 -158t148 -57q138 0 244 116l84 -202q-68 -75 -167.5 -120.5t-197.5 -45.5q-204 0 -320 99.5t-116 301.5v547h-190v213h190z" />
    <glyph glyph-name="u" unicode="u" 
d="M137 457v649h283v-649q0 -123 79.5 -190.5t190.5 -67.5q76 0 143 30.5t111.5 95t44.5 150.5v631h283v-758q0 -74 21 -102.5t89 -28.5h15v-217q-184 0 -279.5 36t-120.5 136q-66 -98 -170.5 -150.5t-220.5 -52.5q-90 0 -173 31t-149.5 90t-106.5 154t-40 213z" />
    <glyph glyph-name="v" unicode="v" horiz-adv-x="1423" 
d="M858 -20h-293l-542 1126h311l377 -860l376 860h312z" />
    <glyph glyph-name="w" unicode="w" horiz-adv-x="1912" 
d="M694 -20h-235l-436 1126h301l276 -758l262 758h189l262 -758l276 758h301l-436 -1126h-237l-261 684z" />
    <glyph glyph-name="x" unicode="x" horiz-adv-x="1347" 
d="M1323 0h-367l-284 344l-283 -344h-366l473 557l-455 549h342l289 -340l289 340h342l-453 -549z" />
    <glyph glyph-name="y" unicode="y" horiz-adv-x="1427" 
d="M147 457v649h285v-649q0 -126 79 -194t191 -68q74 0 139 29.5t110 92.5t48 148v641h285v-963q0 -317 -192.5 -487t-524.5 -170q-101 0 -218.5 30.5t-211.5 77.5l58 259q73 -49 184.5 -79t218.5 -30q113 0 193 27.5t125 80.5t65 121.5t20 159.5l-2 23q-64 -92 -166 -141.5
t-215 -49.5q-90 0 -173.5 31.5t-150.5 91t-107 155t-40 214.5z" />
    <glyph glyph-name="z" unicode="z" horiz-adv-x="1216" 
d="M1118 868l-712 -630h765v-238h-1128v238l731 630h-692v238h1036v-238z" />
    <glyph glyph-name="braceleft" unicode="{" horiz-adv-x="606" 
d="M59 750q110 -4 151.5 40t41.5 128q0 43 -13.5 143t-13.5 149q0 55 13 96t44.5 77t94 54.5t153.5 18.5l15 -137q-83 0 -114.5 -40.5t-31.5 -117.5q0 -37 9.5 -125t9.5 -133q0 -160 -90 -231q90 -74 90 -236q0 -46 -8.5 -131.5t-8.5 -120.5q0 -77 30.5 -118t113.5 -41
l-15 -138q-91 0 -153.5 18.5t-94 54t-44.5 76.5t-13 95q0 50 14.5 153t14.5 146q0 83 -42 125.5t-153 38.5v156z" />
    <glyph glyph-name="bar" unicode="|" horiz-adv-x="296" 
d="M59 -188v1622h177v-1622h-177z" />
    <glyph glyph-name="braceright" unicode="}" horiz-adv-x="606" 
d="M545 750v-156q-110 4 -152.5 -38.5t-42.5 -125.5q0 -43 15.5 -146t15.5 -153q0 -54 -13 -95t-44.5 -76.5t-94 -54t-153.5 -18.5l-15 138q82 0 113 40.5t31 116.5q0 36 -9.5 123t-9.5 133q0 160 90 234q-88 72 -88 229q0 47 9.5 135.5t9.5 124.5q0 77 -31.5 117.5
t-114.5 40.5l15 137q73 0 128 -13t88.5 -35t53.5 -54.5t27.5 -66.5t7.5 -77q0 -50 -14.5 -151t-14.5 -144q0 -83 42 -126t151 -39z" />
    <glyph glyph-name="asciitilde" unicode="~" horiz-adv-x="978" 
d="M215 530l-156 97q119 231 252 231q38 0 82.5 -17.5t79 -39t76 -39t74.5 -17.5q77 0 143 105l154 -94q-122 -211 -258 -211q-49 0 -106.5 26t-110.5 52t-91 26q-80 0 -139 -119z" />
    <glyph glyph-name="exclamdown" unicode="&#xa1;" horiz-adv-x="364" 
d="M332 893q0 -63 -44.5 -106.5t-107.5 -43.5t-105 43.5t-42 106.5t42 107t105 44t107.5 -44t44.5 -107zM272 604l56 -1012h-293l55 1012h182z" />
    <glyph glyph-name="cent" unicode="&#xa2;" horiz-adv-x="1153" 
d="M518 1372l207 -8v-158q174 -20 362 -184l-169 -156q-96 100 -193 129v-684q114 28 219 154l143 -180q-187 -160 -362 -183v-139l-207 6v142q-150 27 -258 111.5t-158.5 195.5t-50.5 235q0 125 50.5 236.5t158.5 196.5t258 112v174zM518 322v663q-118 -38 -182 -130
t-64 -202t64 -202t182 -129z" />
    <glyph glyph-name="sterling" unicode="&#xa3;" horiz-adv-x="1222" 
d="M1012 1440l-2 -215q-37 0 -69 -8.5t-57 -21t-48.5 -37t-40 -45.5t-33.5 -57.5t-27.5 -63.5t-24.5 -73t-21.5 -75t-20.5 -80h231l2 -197h-289q-73 -236 -194 -340h745v-227h-1091v156q101 71 166.5 174t111.5 237h-289l-2 197h349q58 222 82 289q73 207 197 297
q125 90 325 90z" />
    <glyph glyph-name="yen" unicode="&#xa5;" horiz-adv-x="1533" 
d="M358 520v180h179l-514 734h337l406 -619l405 619h338l-514 -734h172v-180h-256v-133h256v-180h-256v-207h-290v207h-263v180h263v133h-263z" />
    <glyph glyph-name="dieresis" unicode="&#xa8;" horiz-adv-x="436" 
d="M27 1317q0 35 23.5 59.5t58.5 24.5q31 0 55 -24.5t24 -59.5q0 -31 -24 -55.5t-55 -24.5q-34 0 -58 24t-24 56zM248 1317q0 35 26 59.5t60 24.5q30 0 53 -24.5t23 -59.5q0 -31 -23.5 -55.5t-52.5 -24.5q-34 0 -60 24.5t-26 55.5z" />
    <glyph glyph-name="copyright" unicode="&#xa9;" horiz-adv-x="1314" 
d="M51 698q0 123 48.5 235t130 193t193.5 129t234 48q164 0 303.5 -81.5t220.5 -221.5t81 -304q0 -123 -48 -234.5t-129.5 -192t-194 -128t-235.5 -47.5t-235 48t-192.5 129t-128.5 193t-48 234zM135 696q0 -106 41.5 -202t111.5 -166t166.5 -111t202.5 -41q141 0 261 70
t190 190.5t70 261.5q0 142 -70.5 262t-191 189.5t-261.5 69.5q-140 0 -259 -71t-189 -191t-72 -261zM870 494l50 -62q-127 -100 -261 -100q-158 0 -270.5 114t-112.5 273q0 158 113.5 270.5t272.5 112.5q128 0 260 -101l-54 -59q-104 80 -209 80q-126 0 -215.5 -90
t-89.5 -215q0 -126 91 -215.5t217 -89.5q102 0 208 82z" />
    <glyph glyph-name="guillemotleft" unicode="&#xab;" horiz-adv-x="864" 
d="M365 674v92l442 569v-270l-272 -346l272 -344v-271zM59 672v90l445 571v-272l-273 -344l273 -344v-271z" />
    <glyph glyph-name="registered" unicode="&#xae;" horiz-adv-x="706" 
d="M53 1202q0 121 87.5 206t209.5 85q121 0 207 -85.5t86 -205.5q0 -121 -85 -209t-208 -88q-124 0 -210.5 87.5t-86.5 209.5zM100 1202q0 -100 74 -175t176 -75t175 75.5t73 174.5q0 100 -73.5 174t-174.5 74q-103 0 -176.5 -73.5t-73.5 -174.5zM365 1165l110 -133h-57
l-105 129h-32v-129h-45v348h108q53 -2 87 -31.5t34 -76.5q0 -40 -28 -70t-72 -37zM281 1346v-144h47q42 0 68 17.5t26 52.5q0 37 -25 55.5t-67 18.5h-49z" />
    <glyph glyph-name="degree" unicode="&#xb0;" horiz-adv-x="686" 
d="M352 852q-70 0 -126 26t-91 69t-53.5 96.5t-18.5 111.5t18.5 112t53 97.5t91 69.5t126.5 26q69 0 124.5 -26t90.5 -69t53.5 -96.5t18.5 -111.5q0 -79 -31 -146.5t-98 -113t-158 -45.5zM352 1323q-62 0 -97.5 -49.5t-35.5 -116.5q0 -66 35.5 -115t97.5 -49q61 0 95 49.5
t34 116.5t-34 115.5t-95 48.5z" />
    <glyph glyph-name="plusminus" unicode="&#xb1;" horiz-adv-x="995" 
d="M387 1223h219v-314h328v-200h-328v-303h-219v303h-328v200h328v314zM63 0v201h865v-201h-865z" />
    <glyph glyph-name="acute" unicode="&#xb4;" horiz-adv-x="358" 
d="M20 1278l230 235l92 -104l-268 -190z" />
    <glyph glyph-name="periodcentered" unicode="&#xb7;" horiz-adv-x="417" 
d="M276 725q0 -29 -19.5 -47.5t-47.5 -18.5t-47 18.5t-19 47.5q0 28 19 47t47 19t47.5 -19t19.5 -47z" />
    <glyph glyph-name="cedilla" unicode="&#xb8;" horiz-adv-x="337" 
d="M158 57l100 -30l-51 -115q50 -16 74 -50t24 -75q0 -53 -35 -92t-92 -39q-41 0 -81 15t-59 31l-20 15l48 84q17 -26 41.5 -40.5t48.5 -14.5q46 0 49 41q5 30 -26 57.5t-91 28.5z" />
    <glyph glyph-name="guillemotright" unicode="&#xbb;" horiz-adv-x="890" 
d="M59 1333l443 -571v-90l-443 -572v273l271 344l-271 344v272zM385 1333l444 -571v-90l-444 -570v271l272 344l-272 344v272z" />
    <glyph glyph-name="questiondown" unicode="&#xbf;" horiz-adv-x="1144" 
d="M809 965q0 -64 -43.5 -107t-106.5 -43q-64 0 -106.5 42.5t-42.5 107.5q0 63 42.5 106t106.5 43q63 0 106.5 -43t43.5 -106zM336 39q0 -86 56 -130t145 -44q103 0 212 57.5t175 157.5l161 -186q-83 -120 -235.5 -187t-317.5 -67q-95 0 -179 24t-150.5 70.5t-105 123
t-38.5 173.5q0 77 22.5 138t59.5 99t84.5 72t97 57t97 52.5t84.5 59.5t59.5 77.5t22.5 107.5h164q1 -96 -21 -171t-58.5 -120t-81 -80.5t-89 -62.5t-81.5 -55.5t-60 -70t-23 -95.5z" />
    <glyph glyph-name="Agrave" unicode="&#xc0;" horiz-adv-x="1685" 
d="M682 1722l90 103l232 -236l-54 -59zM23 0l673 1454h293l674 -1454h-307l-105 221h-817l-104 -221h-307zM549 469h588l-295 627z" />
    <glyph glyph-name="Aacute" unicode="&#xc1;" horiz-adv-x="1685" 
d="M682 1606l229 235l93 -104l-269 -191zM23 0l673 1454h293l674 -1454h-307l-105 221h-817l-104 -221h-307zM549 469h588l-295 627z" />
    <glyph glyph-name="Acircumflex" unicode="&#xc2;" horiz-adv-x="1685" 
d="M758 1567h-111l139 225h111l141 -225h-110l-86 133zM23 0l673 1454h293l674 -1454h-307l-105 221h-817l-104 -221h-307zM549 469h588l-295 627z" />
    <glyph glyph-name="Atilde" unicode="&#xc3;" horiz-adv-x="1685" 
d="M655 1589l-45 82q26 26 42 40t48.5 29t65.5 15q42 0 87.5 -28.5t70.5 -28.5q42 0 108 55l43 -86q-29 -27 -70 -48.5t-79 -21.5t-69 14.5t-54 29t-41 14.5q-41 0 -107 -66zM23 0l673 1454h293l674 -1454h-307l-105 221h-817l-104 -221h-307zM549 469h588l-295 627z" />
    <glyph glyph-name="Adieresis" unicode="&#xc4;" horiz-adv-x="1685" 
d="M651 1645q0 35 23.5 59.5t58.5 24.5q31 0 55.5 -24.5t24.5 -59.5q0 -31 -24.5 -55.5t-55.5 -24.5q-34 0 -58 24t-24 56zM872 1645q0 35 26 59.5t60 24.5q30 0 53 -24.5t23 -59.5q0 -31 -23.5 -55.5t-52.5 -24.5q-34 0 -60 24.5t-26 55.5zM23 0l673 1454h293l674 -1454
h-307l-105 221h-817l-104 -221h-307zM549 469h588l-295 627z" />
    <glyph glyph-name="Aring" unicode="&#xc5;" horiz-adv-x="1685" 
d="M848 1466q-86 0 -133 51t-47 121t47 121t133 51q83 0 129.5 -51t46.5 -121t-46.5 -121t-129.5 -51zM846 1716q-37 0 -57.5 -23t-20.5 -55t20.5 -54.5t57.5 -22.5q36 0 56 22.5t20 54.5t-20 55t-56 23zM23 0l673 1454h293l674 -1454h-307l-105 221h-817l-104 -221h-307z
M549 469h588l-295 627z" />
    <glyph glyph-name="AE" unicode="&#xc6;" horiz-adv-x="2482" 
d="M25 0l1118 1434h1265v-248h-921v-344h792v-248h-792v-346h936v-248h-1227v221h-676l-178 -221h-317zM721 469h475v592z" />
    <glyph glyph-name="Ccedilla" unicode="&#xc7;" horiz-adv-x="1576" 
d="M84 717q0 146 46 272t122.5 214t175.5 151t206 93t214 30q199 0 368.5 -82t278.5 -230l-207 -194q-71 98 -192 162.5t-238 64.5q-115 0 -208.5 -41t-151.5 -109t-88.5 -153t-30.5 -178q0 -73 19 -142t58.5 -131t95 -108t134.5 -73t172 -27q134 0 243 65.5t185 169.5
l209 -197q-113 -147 -282 -231.5t-361 -85.5l-21 -45q50 -16 74.5 -50t24.5 -75q0 -53 -35 -92t-92 -39q-41 0 -81 15t-60 31l-19 15l47 84q17 -26 41.5 -40.5t48.5 -14.5q46 0 49 41q5 30 -25.5 57.5t-90.5 28.5l35 90q-126 17 -242 73.5t-211.5 148t-153 229.5t-57.5 303z
" />
    <glyph glyph-name="Egrave" unicode="&#xc8;" horiz-adv-x="1433" 
d="M555 1722l90 103l232 -236l-54 -59zM145 0v1434h1213v-248h-922v-344h791v-248h-791v-346h934v-248h-1225z" />
    <glyph glyph-name="Eacute" unicode="&#xc9;" horiz-adv-x="1433" 
d="M555 1606l229 235l93 -104l-269 -191zM145 0v1434h1213v-248h-922v-344h791v-248h-791v-346h934v-248h-1225z" />
    <glyph glyph-name="Ecircumflex" unicode="&#xca;" horiz-adv-x="1433" 
d="M631 1567h-111l139 225h111l141 -225h-110l-86 133zM145 0v1434h1213v-248h-922v-344h791v-248h-791v-346h934v-248h-1225z" />
    <glyph glyph-name="Edieresis" unicode="&#xcb;" horiz-adv-x="1433" 
d="M524 1645q0 35 23.5 59.5t58.5 24.5q31 0 55.5 -24.5t24.5 -59.5q0 -31 -24.5 -55.5t-55.5 -24.5q-34 0 -58 24t-24 56zM745 1645q0 35 26 59.5t60 24.5q30 0 53 -24.5t23 -59.5q0 -31 -23.5 -55.5t-52.5 -24.5q-34 0 -60 24.5t-26 55.5zM145 0v1434h1213v-248h-922v-344
h791v-248h-791v-346h934v-248h-1225z" />
    <glyph glyph-name="Igrave" unicode="&#xcc;" horiz-adv-x="583" 
d="M131 1722l90 103l230 -236l-52 -59zM145 0v1434h291v-1434h-291z" />
    <glyph glyph-name="Iacute" unicode="&#xcd;" horiz-adv-x="583" 
d="M131 1606l229 235l91 -104l-267 -191zM145 0v1434h291v-1434h-291z" />
    <glyph glyph-name="Icircumflex" unicode="&#xce;" horiz-adv-x="583" 
d="M207 1567h-111l140 225h110l139 -225h-110l-84 133zM145 0v1434h291v-1434h-291z" />
    <glyph glyph-name="Idieresis" unicode="&#xcf;" horiz-adv-x="583" 
d="M98 1645q0 35 24.5 59.5t59.5 24.5q31 0 55.5 -24.5t24.5 -59.5q0 -31 -24.5 -55.5t-55.5 -24.5q-35 0 -59.5 24.5t-24.5 55.5zM322 1645q0 35 26 59.5t60 24.5q29 0 52 -25t23 -59q0 -30 -23.5 -55t-51.5 -25q-34 0 -60 24.5t-26 55.5zM145 0v1434h291v-1434h-291z" />
    <glyph glyph-name="Eth" unicode="&#xd0;" horiz-adv-x="1697" 
d="M145 1434h773q135 -2 249.5 -43t195.5 -110t138 -160.5t84 -193.5t27 -210t-27 -210t-84 -193.5t-138 -160.5t-195.5 -110t-249.5 -43h-773v694h-102v199h102v541zM905 1186h-469v-293h602v-199h-602v-444h469q98 0 177 40t128 106.5t75 149t26 171.5q0 90 -26 173
t-75 149.5t-128 106.5t-177 40z" />
    <glyph glyph-name="Ntilde" unicode="&#xd1;" horiz-adv-x="1759" 
d="M692 1589l-45 82q26 26 42 40t48.5 29t65.5 15q42 0 87.5 -28.5t70.5 -28.5q42 0 108 55l43 -86q-29 -27 -70 -48.5t-79 -21.5t-69 14.5t-54 29t-41 14.5q-41 0 -107 -66zM145 0v1434h291l887 -1049v1049h291v-1434h-291l-887 1049v-1049h-291z" />
    <glyph glyph-name="Ograve" unicode="&#xd2;" horiz-adv-x="1757" 
d="M719 1722l90 103l229 -236l-51 -59zM1667 717q0 -148 -47 -274.5t-126 -214t-181.5 -150t-212.5 -92t-221 -29.5q-92 0 -185 21.5t-182 62t-165.5 105.5t-134.5 147t-91 191t-33 233t33 233t91 191t134.5 147t165.5 105.5t182 62t185 21.5q111 0 221 -29.5t212.5 -92
t181.5 -150t126 -214t47 -274.5zM1374 717q0 94 -29.5 174t-79 135.5t-114 95t-134 58t-138.5 18.5q-70 0 -139.5 -18.5t-134.5 -58t-114.5 -95t-79.5 -135.5t-30 -174t30 -174t79.5 -135.5t114.5 -95t134.5 -58t139.5 -18.5q69 0 138.5 18.5t134 58t114 95t79 135.5
t29.5 174z" />
    <glyph glyph-name="Oacute" unicode="&#xd3;" horiz-adv-x="1757" 
d="M719 1606l229 235l90 -104l-266 -191zM1667 717q0 -148 -47 -274.5t-126 -214t-181.5 -150t-212.5 -92t-221 -29.5q-92 0 -185 21.5t-182 62t-165.5 105.5t-134.5 147t-91 191t-33 233t33 233t91 191t134.5 147t165.5 105.5t182 62t185 21.5q111 0 221 -29.5t212.5 -92
t181.5 -150t126 -214t47 -274.5zM1374 717q0 94 -29.5 174t-79 135.5t-114 95t-134 58t-138.5 18.5q-70 0 -139.5 -18.5t-134.5 -58t-114.5 -95t-79.5 -135.5t-30 -174t30 -174t79.5 -135.5t114.5 -95t134.5 -58t139.5 -18.5q69 0 138.5 18.5t134 58t114 95t79 135.5
t29.5 174z" />
    <glyph glyph-name="Ocircumflex" unicode="&#xd4;" horiz-adv-x="1757" 
d="M795 1567h-111l139 225h111l139 -225h-110l-84 133zM1667 717q0 -148 -47 -274.5t-126 -214t-181.5 -150t-212.5 -92t-221 -29.5q-92 0 -185 21.5t-182 62t-165.5 105.5t-134.5 147t-91 191t-33 233t33 233t91 191t134.5 147t165.5 105.5t182 62t185 21.5
q111 0 221 -29.5t212.5 -92t181.5 -150t126 -214t47 -274.5zM1374 717q0 94 -29.5 174t-79 135.5t-114 95t-134 58t-138.5 18.5q-70 0 -139.5 -18.5t-134.5 -58t-114.5 -95t-79.5 -135.5t-30 -174t30 -174t79.5 -135.5t114.5 -95t134.5 -58t139.5 -18.5q69 0 138.5 18.5
t134 58t114 95t79 135.5t29.5 174z" />
    <glyph glyph-name="Otilde" unicode="&#xd5;" horiz-adv-x="1757" 
d="M692 1589l-47 82q29 27 44 40t47.5 28.5t64.5 15.5q42 0 88 -28.5t69 -28.5q43 0 109 55l45 -86q-29 -27 -71 -48.5t-80 -21.5q-48 0 -95.5 29t-66.5 29q-41 0 -107 -66zM1667 717q0 -148 -47 -274.5t-126 -214t-181.5 -150t-212.5 -92t-221 -29.5q-92 0 -185 21.5
t-182 62t-165.5 105.5t-134.5 147t-91 191t-33 233t33 233t91 191t134.5 147t165.5 105.5t182 62t185 21.5q111 0 221 -29.5t212.5 -92t181.5 -150t126 -214t47 -274.5zM1374 717q0 94 -29.5 174t-79 135.5t-114 95t-134 58t-138.5 18.5q-70 0 -139.5 -18.5t-134.5 -58
t-114.5 -95t-79.5 -135.5t-30 -174t30 -174t79.5 -135.5t114.5 -95t134.5 -58t139.5 -18.5q69 0 138.5 18.5t134 58t114 95t79 135.5t29.5 174z" />
    <glyph glyph-name="Odieresis" unicode="&#xd6;" horiz-adv-x="1757" 
d="M686 1645q0 35 24.5 59.5t59.5 24.5q31 0 55.5 -24.5t24.5 -59.5q0 -31 -24.5 -55.5t-55.5 -24.5q-35 0 -59.5 24.5t-24.5 55.5zM909 1645q0 35 26 59.5t60 24.5q29 0 52.5 -25t23.5 -59q0 -30 -24 -55t-52 -25q-34 0 -60 24.5t-26 55.5zM1667 717q0 -148 -47 -274.5
t-126 -214t-181.5 -150t-212.5 -92t-221 -29.5q-92 0 -185 21.5t-182 62t-165.5 105.5t-134.5 147t-91 191t-33 233t33 233t91 191t134.5 147t165.5 105.5t182 62t185 21.5q111 0 221 -29.5t212.5 -92t181.5 -150t126 -214t47 -274.5zM1374 717q0 94 -29.5 174t-79 135.5
t-114 95t-134 58t-138.5 18.5q-70 0 -139.5 -18.5t-134.5 -58t-114.5 -95t-79.5 -135.5t-30 -174t30 -174t79.5 -135.5t114.5 -95t134.5 -58t139.5 -18.5q69 0 138.5 18.5t134 58t114 95t79 135.5t29.5 174z" />
    <glyph glyph-name="multiply" unicode="&#xd7;" horiz-adv-x="897" 
d="M66 932l153 143l227 -213l238 221l152 -147l-234 -219l229 -217l-159 -140l-226 213l-233 -221l-154 148l234 217z" />
    <glyph glyph-name="Oslash" unicode="&#xd8;" horiz-adv-x="1757" 
d="M1667 717q0 -148 -47 -274.5t-126 -214t-181.5 -150t-212.5 -92t-221 -29.5q-166 0 -336 70l-17 -27h-215l74 115q-137 99 -217 251.5t-80 350.5q0 124 33 233t91 191t134.5 147t165.5 105.5t182 62t185 21.5q168 0 333 -70l19 27h215l-76 -117q137 -100 217 -251
t80 -349zM541 356l518 811q-91 31 -180 31q-70 0 -139.5 -18.5t-134.5 -58t-114.5 -95t-79.5 -135.5t-30 -174q0 -225 160 -361zM1374 717q0 221 -157 358l-519 -809q86 -30 181 -30q69 0 138.5 18.5t134 58t114 95t79 135.5t29.5 174z" />
    <glyph glyph-name="Ugrave" unicode="&#xd9;" horiz-adv-x="1656" 
d="M668 1722l90 103l229 -236l-51 -59zM145 575v859h291v-859q0 -83 33 -150t88.5 -109t125 -64.5t144.5 -22.5t144.5 22t126 64t90 109t33.5 151v859h288v-859q0 -151 -58.5 -273t-155.5 -197.5t-217.5 -115.5t-250.5 -40t-250.5 40t-217.5 115.5t-155.5 197.5t-58.5 273z
" />
    <glyph glyph-name="Uacute" unicode="&#xda;" horiz-adv-x="1656" 
d="M668 1606l229 235l90 -104l-266 -191zM145 575v859h291v-859q0 -83 33 -150t88.5 -109t125 -64.5t144.5 -22.5t144.5 22t126 64t90 109t33.5 151v859h288v-859q0 -151 -58.5 -273t-155.5 -197.5t-217.5 -115.5t-250.5 -40t-250.5 40t-217.5 115.5t-155.5 197.5t-58.5 273
z" />
    <glyph glyph-name="Ucircumflex" unicode="&#xdb;" horiz-adv-x="1656" 
d="M743 1567h-110l139 225h111l139 -225h-111l-84 133zM145 575v859h291v-859q0 -83 33 -150t88.5 -109t125 -64.5t144.5 -22.5t144.5 22t126 64t90 109t33.5 151v859h288v-859q0 -151 -58.5 -273t-155.5 -197.5t-217.5 -115.5t-250.5 -40t-250.5 40t-217.5 115.5
t-155.5 197.5t-58.5 273z" />
    <glyph glyph-name="Udieresis" unicode="&#xdc;" horiz-adv-x="1656" 
d="M635 1645q0 35 24.5 59.5t59.5 24.5q31 0 55.5 -24.5t24.5 -59.5q0 -31 -24.5 -55.5t-55.5 -24.5q-35 0 -59.5 24.5t-24.5 55.5zM858 1645q0 35 26 59.5t60 24.5q29 0 52.5 -25t23.5 -59q0 -30 -24 -55t-52 -25q-34 0 -60 24.5t-26 55.5zM145 575v859h291v-859
q0 -83 33 -150t88.5 -109t125 -64.5t144.5 -22.5t144.5 22t126 64t90 109t33.5 151v859h288v-859q0 -151 -58.5 -273t-155.5 -197.5t-217.5 -115.5t-250.5 -40t-250.5 40t-217.5 115.5t-155.5 197.5t-58.5 273z" />
    <glyph glyph-name="Yacute" unicode="&#xdd;" horiz-adv-x="1536" 
d="M606 1606l232 235l90 -104l-269 -191zM23 1434h337l406 -619l408 619h337l-600 -852v-582h-288v582z" />
    <glyph glyph-name="Thorn" unicode="&#xde;" horiz-adv-x="1470" 
d="M145 0v1434h293v-254h480q112 0 203.5 -39.5t148 -105.5t86.5 -148t30 -170t-30 -170t-86.5 -148t-148 -105.5t-203.5 -39.5h-480v-254h-293zM438 502h453q97 0 152 63.5t55 149.5t-55 150.5t-152 64.5h-453v-428z" />
    <glyph glyph-name="germandbls" unicode="&#xdf;" horiz-adv-x="1478" 
d="M399 -2l-290 4v1006q0 122 43.5 218t116.5 153t162 86.5t187 29.5q96 0 186 -27.5t161 -77.5t114 -127.5t43 -170.5q0 -52 -17.5 -95t-43 -71t-51 -51t-43 -46t-17.5 -45q0 -19 27 -36.5t69.5 -34t94.5 -36.5t104 -49.5t94.5 -66.5t69.5 -94t27 -127q0 -96 -39.5 -171.5
t-106.5 -121t-148.5 -69t-170.5 -23.5q-132 0 -246 46t-174 130l143 164q32 -35 100 -58.5t138 -23.5q81 0 134.5 35t53.5 108q0 62 -47.5 108t-115.5 74.5t-135.5 56.5t-115 69.5t-47.5 97.5q0 44 19 81t46.5 63t54.5 51t46 58t19 72q0 88 -63.5 143.5t-147.5 55.5
q-97 0 -166.5 -77t-69.5 -228z" />
    <glyph glyph-name="agrave" unicode="&#xe0;" horiz-adv-x="1374" 
d="M526 1395l90 102l232 -235l-53 -60zM236 788l-68 220q88 55 227 90t281 35q85 0 160 -13.5t144 -44t118.5 -77t79 -117.5t28.5 -160l-2 -363v-10q0 -74 21 -102.5t88 -28.5h16v-217q-81 0 -139.5 5.5t-110 20.5t-83.5 40t-51.5 65t-22.5 96q-69 -110 -201 -172t-299 -65
q-172 -4 -264 82.5t-92 214.5q0 72 31.5 141t90.5 125.5t153.5 89.5t209.5 29l215 -4q21 -2 47.5 -0.5t49.5 5.5t40 19t19 39q0 84 -72 122t-188 38q-114 0 -237.5 -31.5t-188.5 -71.5zM922 500q-58 -44 -160 -41l-205 2q-88 1 -140 -41t-52 -96q0 -48 43 -80t124 -29
q55 3 117 21t123.5 49.5t103.5 84t46 115.5v15z" />
    <glyph glyph-name="aacute" unicode="&#xe1;" horiz-adv-x="1374" 
d="M526 1278l230 235l92 -104l-268 -190zM236 788l-68 220q88 55 227 90t281 35q85 0 160 -13.5t144 -44t118.5 -77t79 -117.5t28.5 -160l-2 -363v-10q0 -74 21 -102.5t88 -28.5h16v-217q-81 0 -139.5 5.5t-110 20.5t-83.5 40t-51.5 65t-22.5 96q-69 -110 -201 -172
t-299 -65q-172 -4 -264 82.5t-92 214.5q0 72 31.5 141t90.5 125.5t153.5 89.5t209.5 29l215 -4q21 -2 47.5 -0.5t49.5 5.5t40 19t19 39q0 84 -72 122t-188 38q-114 0 -237.5 -31.5t-188.5 -71.5zM922 500q-58 -44 -160 -41l-205 2q-88 1 -140 -41t-52 -96q0 -48 43 -80
t124 -29q55 3 117 21t123.5 49.5t103.5 84t46 115.5v15z" />
    <glyph glyph-name="acircumflex" unicode="&#xe2;" horiz-adv-x="1374" 
d="M602 1239h-110l139 225h110l142 -225h-111l-86 133zM236 788l-68 220q88 55 227 90t281 35q85 0 160 -13.5t144 -44t118.5 -77t79 -117.5t28.5 -160l-2 -363v-10q0 -74 21 -102.5t88 -28.5h16v-217q-81 0 -139.5 5.5t-110 20.5t-83.5 40t-51.5 65t-22.5 96
q-69 -110 -201 -172t-299 -65q-172 -4 -264 82.5t-92 214.5q0 72 31.5 141t90.5 125.5t153.5 89.5t209.5 29l215 -4q21 -2 47.5 -0.5t49.5 5.5t40 19t19 39q0 84 -72 122t-188 38q-114 0 -237.5 -31.5t-188.5 -71.5zM922 500q-58 -44 -160 -41l-205 2q-88 1 -140 -41
t-52 -96q0 -48 43 -80t124 -29q55 3 117 21t123.5 49.5t103.5 84t46 115.5v15z" />
    <glyph glyph-name="atilde" unicode="&#xe3;" horiz-adv-x="1374" 
d="M500 1262l-45 81q26 26 42 40t48 29t65 15q42 0 87.5 -28.5t70.5 -28.5q43 0 109 55l43 -86q-29 -27 -70.5 -48t-79.5 -21q-30 0 -56 9t-41.5 19.5t-33.5 19.5t-33 9q-41 0 -106 -65zM236 788l-68 220q88 55 227 90t281 35q85 0 160 -13.5t144 -44t118.5 -77t79 -117.5
t28.5 -160l-2 -363v-10q0 -74 21 -102.5t88 -28.5h16v-217q-81 0 -139.5 5.5t-110 20.5t-83.5 40t-51.5 65t-22.5 96q-69 -110 -201 -172t-299 -65q-172 -4 -264 82.5t-92 214.5q0 72 31.5 141t90.5 125.5t153.5 89.5t209.5 29l215 -4q21 -2 47.5 -0.5t49.5 5.5t40 19t19 39
q0 84 -72 122t-188 38q-114 0 -237.5 -31.5t-188.5 -71.5zM922 500q-58 -44 -160 -41l-205 2q-88 1 -140 -41t-52 -96q0 -48 43 -80t124 -29q55 3 117 21t123.5 49.5t103.5 84t46 115.5v15z" />
    <glyph glyph-name="adieresis" unicode="&#xe4;" horiz-adv-x="1374" 
d="M496 1317q0 35 23.5 59.5t58.5 24.5q31 0 55 -24.5t24 -59.5q0 -31 -24 -55.5t-55 -24.5q-34 0 -58 24t-24 56zM717 1317q0 35 26 59.5t60 24.5q30 0 53 -24.5t23 -59.5q0 -31 -23.5 -55.5t-52.5 -24.5q-34 0 -60 24.5t-26 55.5zM236 788l-68 220q88 55 227 90t281 35
q85 0 160 -13.5t144 -44t118.5 -77t79 -117.5t28.5 -160l-2 -363v-10q0 -74 21 -102.5t88 -28.5h16v-217q-81 0 -139.5 5.5t-110 20.5t-83.5 40t-51.5 65t-22.5 96q-69 -110 -201 -172t-299 -65q-172 -4 -264 82.5t-92 214.5q0 72 31.5 141t90.5 125.5t153.5 89.5t209.5 29
l215 -4q21 -2 47.5 -0.5t49.5 5.5t40 19t19 39q0 84 -72 122t-188 38q-114 0 -237.5 -31.5t-188.5 -71.5zM922 500q-58 -44 -160 -41l-205 2q-88 1 -140 -41t-52 -96q0 -48 43 -80t124 -29q55 3 117 21t123.5 49.5t103.5 84t46 115.5v15z" />
    <glyph glyph-name="aring" unicode="&#xe5;" horiz-adv-x="1374" 
d="M688 1184q-86 0 -133 51t-47 121t47 121t133 51q83 0 129.5 -51t46.5 -121t-46.5 -121t-129.5 -51zM688 1436q-37 0 -57.5 -23t-20.5 -55t20.5 -55t57.5 -23q35 0 55.5 23.5t20.5 54.5t-20.5 54.5t-55.5 23.5zM236 788l-68 220q88 55 227 90t281 35q85 0 160 -13.5
t144 -44t118.5 -77t79 -117.5t28.5 -160l-2 -363v-10q0 -74 21 -102.5t88 -28.5h16v-217q-81 0 -139.5 5.5t-110 20.5t-83.5 40t-51.5 65t-22.5 96q-69 -110 -201 -172t-299 -65q-172 -4 -264 82.5t-92 214.5q0 72 31.5 141t90.5 125.5t153.5 89.5t209.5 29l215 -4
q21 -2 47.5 -0.5t49.5 5.5t40 19t19 39q0 84 -72 122t-188 38q-114 0 -237.5 -31.5t-188.5 -71.5zM922 500q-58 -44 -160 -41l-205 2q-88 1 -140 -41t-52 -96q0 -48 43 -80t124 -29q55 3 117 21t123.5 49.5t103.5 84t46 115.5v15z" />
    <glyph glyph-name="ae" unicode="&#xe6;" horiz-adv-x="2179" 
d="M236 788l-68 220q90 55 228 90t280 35q135 0 250.5 -37t185.5 -113q90 78 204.5 119t229.5 41q116 0 219 -42t181 -119t124.5 -193.5t47.5 -256.5l-912 3q8 -85 48 -155t117.5 -115.5t180.5 -45.5q215 0 328 158l193 -170q-93 -115 -233 -180.5t-296 -65.5
q-116 0 -227.5 39t-207.5 123t-144 199q-49 -152 -195 -239.5t-346 -92.5q-172 -4 -265 82.5t-93 214.5q0 72 31.5 141t90.5 125.5t153.5 89.5t209.5 29l215 -4q21 -2 47.5 -0.5t49.5 5.5t40 19t19 39q0 84 -72 122t-188 38q-114 0 -237.5 -31.5t-188.5 -71.5zM1231 715h610
q-32 91 -106 153t-179 62q-122 0 -204.5 -59t-120.5 -156zM922 500q-58 -44 -160 -41l-205 2q-88 1 -140 -41t-52 -96q0 -48 43 -80t124 -29q55 3 117.5 21.5t124.5 50.5t103.5 85t44.5 117v11z" />
    <glyph glyph-name="ccedilla" unicode="&#xe7;" horiz-adv-x="1302" 
d="M84 551q0 141 57 256.5t148.5 187t200.5 110t219 38.5q162 0 299.5 -63.5t228.5 -180.5l-203 -178q-112 156 -317 156q-84 0 -152.5 -28t-110.5 -74.5t-64.5 -104t-22.5 -119.5t22.5 -119t64.5 -103.5t110.5 -74t152.5 -27.5q203 0 317 156l203 -176
q-93 -114 -229.5 -179.5t-290.5 -66.5l-23 -49q50 -16 74.5 -50t24.5 -75q0 -53 -35 -92t-92 -39q-41 0 -81 15t-59 31l-20 15l47 84q17 -25 42.5 -40t49.5 -15q46 0 49 41q3 30 -28.5 57.5t-90.5 28.5l37 94q-80 12 -155.5 42t-143.5 80.5t-118.5 116.5t-80.5 155t-30 190z
" />
    <glyph glyph-name="egrave" unicode="&#xe8;" horiz-adv-x="1343" 
d="M510 1395l90 102l231 -235l-53 -60zM84 551q0 141 57 256.5t148.5 187t200.5 110t219 38.5q116 0 219 -42t181 -119t124.5 -193.5t48.5 -256.5l-911 3q8 -85 48 -155t117.5 -115.5t180.5 -45.5q214 0 327 158l193 -170q-93 -115 -233 -180.5t-297 -65.5q-88 0 -175 23.5
t-168 72.5t-143.5 117t-99.5 166t-37 211zM395 715h611q-32 90 -107 152.5t-180 62.5q-121 0 -203.5 -59t-120.5 -156z" />
    <glyph glyph-name="eacute" unicode="&#xe9;" horiz-adv-x="1343" 
d="M510 1278l229 235l92 -104l-268 -190zM84 551q0 141 57 256.5t148.5 187t200.5 110t219 38.5q116 0 219 -42t181 -119t124.5 -193.5t48.5 -256.5l-911 3q8 -85 48 -155t117.5 -115.5t180.5 -45.5q214 0 327 158l193 -170q-93 -115 -233 -180.5t-297 -65.5
q-88 0 -175 23.5t-168 72.5t-143.5 117t-99.5 166t-37 211zM395 715h611q-32 90 -107 152.5t-180 62.5q-121 0 -203.5 -59t-120.5 -156z" />
    <glyph glyph-name="ecircumflex" unicode="&#xea;" horiz-adv-x="1343" 
d="M586 1239h-111l139 225h111l141 -225h-110l-86 133zM84 551q0 141 57 256.5t148.5 187t200.5 110t219 38.5q116 0 219 -42t181 -119t124.5 -193.5t48.5 -256.5l-911 3q8 -85 48 -155t117.5 -115.5t180.5 -45.5q214 0 327 158l193 -170q-93 -115 -233 -180.5t-297 -65.5
q-88 0 -175 23.5t-168 72.5t-143.5 117t-99.5 166t-37 211zM395 715h611q-32 90 -107 152.5t-180 62.5q-121 0 -203.5 -59t-120.5 -156z" />
    <glyph glyph-name="edieresis" unicode="&#xeb;" horiz-adv-x="1343" 
d="M479 1317q0 35 23.5 59.5t58.5 24.5q31 0 55.5 -24.5t24.5 -59.5q0 -31 -24.5 -55.5t-55.5 -24.5q-34 0 -58 24t-24 56zM700 1317q0 35 26 59.5t60 24.5q30 0 53 -24.5t23 -59.5q0 -31 -23.5 -55.5t-52.5 -24.5q-34 0 -60 24.5t-26 55.5zM84 551q0 141 57 256.5
t148.5 187t200.5 110t219 38.5q116 0 219 -42t181 -119t124.5 -193.5t48.5 -256.5l-911 3q8 -85 48 -155t117.5 -115.5t180.5 -45.5q214 0 327 158l193 -170q-93 -115 -233 -180.5t-297 -65.5q-88 0 -175 23.5t-168 72.5t-143.5 117t-99.5 166t-37 211zM395 715h611
q-32 90 -107 152.5t-180 62.5q-121 0 -203.5 -59t-120.5 -156z" />
    <glyph glyph-name="igrave" unicode="&#xec;" horiz-adv-x="567" 
d="M123 1395l92 102l229 -235l-53 -60zM426 0h-285v1106h285v-1106z" />
    <glyph glyph-name="iacute" unicode="&#xed;" horiz-adv-x="567" 
d="M123 1278l229 235l92 -104l-268 -190zM426 0h-285v1106h285v-1106z" />
    <glyph glyph-name="icircumflex" unicode="&#xee;" horiz-adv-x="567" 
d="M199 1239h-111l139 225h113l139 -225h-110l-84 133zM426 0h-285v1106h285v-1106z" />
    <glyph glyph-name="idieresis" unicode="&#xef;" horiz-adv-x="567" 
d="M92 1317q0 35 23.5 59.5t58.5 24.5q32 0 57 -25t25 -59q0 -31 -25.5 -55.5t-56.5 -24.5q-34 0 -58 24t-24 56zM313 1317q0 35 26 59.5t60 24.5q30 0 53 -24.5t23 -59.5q0 -31 -23.5 -55.5t-52.5 -24.5q-34 0 -60 24.5t-26 55.5zM426 0h-285v1106h285v-1106z" />
    <glyph glyph-name="ntilde" unicode="&#xf1;" horiz-adv-x="1478" 
d="M553 1262l-47 81q30 29 43.5 40.5t46.5 27.5t66 16q42 0 87 -28.5t70 -28.5q43 0 109 55l43 -86q-26 -26 -69 -47.5t-81 -21.5q-49 0 -96.5 28.5t-67.5 28.5q-39 0 -104 -65zM424 0h-285v811q-2 37 -11.5 57.5t-37.5 20.5h-47v217h47q39 0 76 -3t84.5 -13.5t82.5 -28
t61.5 -50t29.5 -75.5q61 87 159.5 139.5t227.5 52.5q239 0 364 -120t125 -357v-303q0 -72 24 -101.5t93 -29.5h15l2 -217q-46 0 -78 1t-79 7t-80 15.5t-69.5 29t-59 46.5t-37.5 68t-15 93v297q0 181 -64 266.5t-221 85.5q-128 0 -217.5 -89t-89.5 -238v-582z" />
    <glyph glyph-name="ograve" unicode="&#xf2;" 
d="M561 1395l90 102l230 -235l-52 -60zM1358 555q0 -114 -38 -212t-101.5 -166t-146.5 -116.5t-172 -71t-179 -22.5t-179 22.5t-171.5 71t-145.5 116.5t-101 166t-38 212t38 211.5t101 165t145.5 116t171.5 71t179 22.5t179 -22.5t172 -71t146.5 -116t101.5 -165t38 -211.5z
M1073 555q0 78 -32 141.5t-83.5 102.5t-112.5 59.5t-124 20.5q-62 0 -123 -20.5t-112.5 -59.5t-83 -102.5t-31.5 -141.5q0 -79 31.5 -143t83 -103t112 -59.5t123.5 -20.5t124 20.5t112.5 59.5t83.5 103t32 143z" />
    <glyph glyph-name="oacute" unicode="&#xf3;" 
d="M561 1278l230 235l90 -104l-267 -190zM1358 555q0 -114 -38 -212t-101.5 -166t-146.5 -116.5t-172 -71t-179 -22.5t-179 22.5t-171.5 71t-145.5 116.5t-101 166t-38 212t38 211.5t101 165t145.5 116t171.5 71t179 22.5t179 -22.5t172 -71t146.5 -116t101.5 -165
t38 -211.5zM1073 555q0 78 -32 141.5t-83.5 102.5t-112.5 59.5t-124 20.5q-62 0 -123 -20.5t-112.5 -59.5t-83 -102.5t-31.5 -141.5q0 -79 31.5 -143t83 -103t112 -59.5t123.5 -20.5t124 20.5t112.5 59.5t83.5 103t32 143z" />
    <glyph glyph-name="ocircumflex" unicode="&#xf4;" 
d="M637 1239h-111l140 225h110l139 -225h-110l-84 133zM1358 555q0 -114 -38 -212t-101.5 -166t-146.5 -116.5t-172 -71t-179 -22.5t-179 22.5t-171.5 71t-145.5 116.5t-101 166t-38 212t38 211.5t101 165t145.5 116t171.5 71t179 22.5t179 -22.5t172 -71t146.5 -116
t101.5 -165t38 -211.5zM1073 555q0 78 -32 141.5t-83.5 102.5t-112.5 59.5t-124 20.5q-62 0 -123 -20.5t-112.5 -59.5t-83 -102.5t-31.5 -141.5q0 -79 31.5 -143t83 -103t112 -59.5t123.5 -20.5t124 20.5t112.5 59.5t83.5 103t32 143z" />
    <glyph glyph-name="otilde" unicode="&#xf5;" 
d="M535 1262l-48 81q29 27 44 40t47.5 28.5t64.5 15.5q42 0 88.5 -28.5t69.5 -28.5q42 0 108 55l45 -86q-28 -27 -70.5 -48t-80.5 -21q-48 0 -95.5 28.5t-66.5 28.5q-41 0 -106 -65zM1358 555q0 -114 -38 -212t-101.5 -166t-146.5 -116.5t-172 -71t-179 -22.5t-179 22.5
t-171.5 71t-145.5 116.5t-101 166t-38 212t38 211.5t101 165t145.5 116t171.5 71t179 22.5t179 -22.5t172 -71t146.5 -116t101.5 -165t38 -211.5zM1073 555q0 78 -32 141.5t-83.5 102.5t-112.5 59.5t-124 20.5q-62 0 -123 -20.5t-112.5 -59.5t-83 -102.5t-31.5 -141.5
q0 -79 31.5 -143t83 -103t112 -59.5t123.5 -20.5t124 20.5t112.5 59.5t83.5 103t32 143z" />
    <glyph glyph-name="odieresis" unicode="&#xf6;" 
d="M528 1317q0 35 24.5 59.5t59.5 24.5q31 0 55.5 -24.5t24.5 -59.5q0 -31 -24.5 -55.5t-55.5 -24.5q-35 0 -59.5 24.5t-24.5 55.5zM752 1317q0 35 26 59.5t60 24.5q29 0 52 -25t23 -59q0 -30 -23.5 -55t-51.5 -25q-34 0 -60 24.5t-26 55.5zM1358 555q0 -114 -38 -212
t-101.5 -166t-146.5 -116.5t-172 -71t-179 -22.5t-179 22.5t-171.5 71t-145.5 116.5t-101 166t-38 212t38 211.5t101 165t145.5 116t171.5 71t179 22.5t179 -22.5t172 -71t146.5 -116t101.5 -165t38 -211.5zM1073 555q0 78 -32 141.5t-83.5 102.5t-112.5 59.5t-124 20.5
q-62 0 -123 -20.5t-112.5 -59.5t-83 -102.5t-31.5 -141.5q0 -79 31.5 -143t83 -103t112 -59.5t123.5 -20.5t124 20.5t112.5 59.5t83.5 103t32 143z" />
    <glyph glyph-name="divide" unicode="&#xf7;" horiz-adv-x="931" 
d="M346 1055q0 51 35 85t86 34t85 -34t34 -85t-34 -86t-85 -35t-86 35t-35 86zM870 688v-76h-811v76h811zM346 207q0 51 35 85t86 34t85 -34t34 -85t-34 -86t-85 -35t-86 35t-35 86z" />
    <glyph glyph-name="oslash" unicode="&#xf8;" 
d="M1358 555q0 -114 -38 -212t-101.5 -166t-146.5 -116.5t-172 -71t-179 -22.5q-119 0 -234 41l-110 -170h-213l160 252q-109 76 -173.5 194.5t-64.5 270.5q0 114 38 211.5t101 165t145.5 116t171.5 71t179 22.5q132 0 248 -45l112 176h215l-168 -260q106 -78 168 -193.5
t62 -263.5zM473 322l348 544q-54 13 -100 13q-62 0 -123 -20.5t-112.5 -59.5t-83 -102.5t-31.5 -141.5q0 -144 102 -233zM1073 555q0 134 -92 223l-346 -538q53 -11 86 -11q63 0 124 20.5t112.5 59.5t83.5 103t32 143z" />
    <glyph glyph-name="ugrave" unicode="&#xf9;" 
d="M561 1395l90 102l230 -235l-52 -60zM135 457v649h285v-649q0 -123 79.5 -190.5t190.5 -67.5q76 0 143 30.5t111.5 95t44.5 150.5v631h283v-758q0 -74 20.5 -102.5t87.5 -28.5h15l2 -217q-184 0 -280.5 36t-119.5 134q-64 -97 -169 -149t-222 -52q-90 0 -173.5 31
t-150.5 90t-107 154t-40 213z" />
    <glyph glyph-name="uacute" unicode="&#xfa;" 
d="M561 1278l230 235l90 -104l-267 -190zM135 457v649h285v-649q0 -123 79.5 -190.5t190.5 -67.5q76 0 143 30.5t111.5 95t44.5 150.5v631h283v-758q0 -74 20.5 -102.5t87.5 -28.5h15l2 -217q-184 0 -280.5 36t-119.5 134q-64 -97 -169 -149t-222 -52q-90 0 -173.5 31
t-150.5 90t-107 154t-40 213z" />
    <glyph glyph-name="ucircumflex" unicode="&#xfb;" 
d="M637 1239h-111l140 225h110l139 -225h-110l-84 133zM135 457v649h285v-649q0 -123 79.5 -190.5t190.5 -67.5q76 0 143 30.5t111.5 95t44.5 150.5v631h283v-758q0 -74 20.5 -102.5t87.5 -28.5h15l2 -217q-184 0 -280.5 36t-119.5 134q-64 -97 -169 -149t-222 -52
q-90 0 -173.5 31t-150.5 90t-107 154t-40 213z" />
    <glyph glyph-name="udieresis" unicode="&#xfc;" 
d="M528 1317q0 35 24.5 59.5t59.5 24.5q31 0 55.5 -24.5t24.5 -59.5q0 -31 -24.5 -55.5t-55.5 -24.5q-35 0 -59.5 24.5t-24.5 55.5zM752 1317q0 35 26 59.5t60 24.5q29 0 52 -25t23 -59q0 -30 -23.5 -55t-51.5 -25q-34 0 -60 24.5t-26 55.5zM135 457v649h285v-649
q0 -123 79.5 -190.5t190.5 -67.5q76 0 143 30.5t111.5 95t44.5 150.5v631h283v-758q0 -74 20.5 -102.5t87.5 -28.5h15l2 -217q-184 0 -280.5 36t-119.5 134q-64 -97 -169 -149t-222 -52q-90 0 -173.5 31t-150.5 90t-107 154t-40 213z" />
    <glyph glyph-name="yacute" unicode="&#xfd;" horiz-adv-x="1427" 
d="M553 1278l229 235l90 -104l-266 -190zM147 457v649h283v-649q0 -126 79 -194t191 -68q115 0 203.5 70t95.5 194v647h285v-963q0 -317 -192.5 -487t-524.5 -170q-101 0 -218.5 30.5t-211.5 77.5l58 259q73 -49 184.5 -79t218.5 -30q113 0 192.5 27.5t124.5 80.5
t64.5 121.5t19.5 159.5v23q-66 -93 -167.5 -142t-215.5 -49q-89 0 -172 31.5t-150 91t-107 155t-40 214.5z" />
    <glyph glyph-name="thorn" unicode="&#xfe;" horiz-adv-x="1460" 
d="M1374 553q0 -108 -31.5 -203t-86 -163.5t-126 -118.5t-151.5 -74.5t-162 -24.5q-118 0 -221.5 52.5t-171.5 156.5v-485h-285v1638h285v-405q69 104 172 157.5t221 53.5q82 0 162.5 -25t151.5 -75t125.5 -118.5t86 -163.5t31.5 -202zM1087 553q0 84 -29 152.5t-77 111.5
t-107.5 66.5t-123.5 23.5q-63 0 -120 -22t-102.5 -64.5t-72.5 -111.5t-27 -156q0 -171 94.5 -263.5t227.5 -92.5q64 0 123.5 23.5t107.5 66.5t77 112.5t29 153.5z" />
    <glyph glyph-name="ydieresis" unicode="&#xff;" horiz-adv-x="1427" 
d="M520 1317q0 35 24.5 59.5t59.5 24.5q31 0 55.5 -24.5t24.5 -59.5q0 -31 -24.5 -55.5t-55.5 -24.5q-35 0 -59.5 24.5t-24.5 55.5zM743 1317q0 35 26 59.5t60 24.5q29 0 52.5 -25t23.5 -59q0 -30 -24 -55t-52 -25q-34 0 -60 24.5t-26 55.5zM147 457v649h283v-649
q0 -126 79 -194t191 -68q115 0 203.5 70t95.5 194v647h285v-963q0 -317 -192.5 -487t-524.5 -170q-101 0 -218.5 30.5t-211.5 77.5l58 259q73 -49 184.5 -79t218.5 -30q113 0 192.5 27.5t124.5 80.5t64.5 121.5t19.5 159.5v23q-66 -93 -167.5 -142t-215.5 -49
q-89 0 -172 31.5t-150 91t-107 155t-40 214.5z" />
    <glyph glyph-name="Dcroat" unicode="&#x110;" horiz-adv-x="1697" 
d="M145 1434h773q135 -2 249.5 -43t195.5 -110t138 -160.5t84 -193.5t27 -210t-27 -210t-84 -193.5t-138 -160.5t-195.5 -110t-249.5 -43h-773v694h-102v199h102v541zM905 1186h-469v-293h602v-199h-602v-444h469q98 0 177 40t128 106.5t75 149t26 171.5q0 90 -26 173
t-75 149.5t-128 106.5t-177 40z" />
    <glyph glyph-name="dcroat" unicode="&#x111;" horiz-adv-x="1458" 
d="M1032 1536h283v-111h182v-196h-182v-1229h-244l-33 184q-67 -107 -171.5 -161t-225.5 -54q-82 0 -162 24.5t-151.5 74.5t-126 118.5t-86 163.5t-31.5 203q0 107 31.5 202t86 163.5t125.5 118.5t151.5 75t162.5 25q118 0 220 -52t171 -155v299h-530v196h530v111zM371 553
q0 -84 29.5 -153.5t78 -112.5t108.5 -66.5t124 -23.5q62 0 118.5 22t102.5 64.5t73 112t27 157.5q0 87 -27 156t-73 111.5t-102.5 64.5t-118.5 22q-64 0 -124 -23.5t-108.5 -66.5t-78 -111.5t-29.5 -152.5z" />
    <glyph glyph-name="dotlessi" unicode="&#x131;" horiz-adv-x="567" 
d="M426 0h-285v1106h285v-1106z" />
    <glyph glyph-name="Lslash" unicode="&#x141;" horiz-adv-x="1368" 
d="M145 0v479l-102 -37l-63 174l165 62v756h291v-652l228 84l63 -176l-291 -106v-336h910v-248h-1201z" />
    <glyph glyph-name="lslash" unicode="&#x142;" horiz-adv-x="567" 
d="M141 0v455l-157 -66l-70 170l227 94v883h285v-764l156 64l71 -170l-227 -95v-571h-285z" />
    <glyph glyph-name="OE" unicode="&#x152;" horiz-adv-x="2498" 
d="M1341 248h936v-248h-1382q-82 0 -163 12.5t-161.5 40.5t-152 68.5t-133 99.5t-106 130.5t-70 165.5t-25.5 200q0 148 49 270t129 203.5t187 137.5t219.5 81t228.5 25h1368v-248h-924v-344h793v-248h-793v-346zM1053 276v881h-156q-74 0 -145 -14.5t-138.5 -47.5
t-118 -82.5t-81.5 -125.5t-31 -170t31 -170t81.5 -125.5t118 -83t138.5 -48t145 -14.5h156z" />
    <glyph glyph-name="oe" unicode="&#x153;" horiz-adv-x="2336" 
d="M2038 377l192 -170q-93 -115 -232.5 -180.5t-295.5 -65.5q-132 0 -262 54t-221 155q-92 -99 -224 -152t-268 -53q-90 0 -179 22.5t-172 71t-146.5 116t-101.5 165t-38 211.5t38 212t101.5 166t146.5 116.5t172 71t179 22.5q135 0 267.5 -53.5t224.5 -153.5
q91 101 221.5 156t263.5 55q116 0 219 -42t181 -119t124 -193.5t47 -256.5l-911 3q8 -85 48 -155t117.5 -115.5t180.5 -45.5q215 0 328 158zM1389 715h610q-32 91 -106 153t-179 62q-122 0 -204.5 -59t-120.5 -156zM1077 551q0 79 -31.5 143t-83 103t-112 59.5t-123.5 20.5
t-124 -20.5t-112.5 -59.5t-83.5 -103t-32 -143q0 -78 32 -141.5t83.5 -102.5t112.5 -59.5t124 -20.5q62 0 123 20.5t112.5 59.5t83 102.5t31.5 141.5z" />
    <glyph glyph-name="Scaron" unicode="&#x160;" horiz-adv-x="1519" 
d="M702 1546l-139 226h111l84 -134l86 134h110l-139 -226h-113zM1430 1264l-146 -234q-91 83 -244.5 133.5t-294.5 50.5q-126 0 -207 -46t-81 -140q0 -46 33.5 -78.5t90.5 -52t130.5 -34.5t155 -30t162.5 -34t154.5 -51t130.5 -76.5t90.5 -115.5t33.5 -163q0 -91 -35 -165
t-95.5 -124.5t-143.5 -85t-176.5 -50t-196.5 -15.5q-206 0 -402.5 60t-310.5 163l151 236q91 -90 264.5 -146.5t327.5 -56.5q84 0 149.5 18t108.5 59t43 101q0 48 -33.5 83t-90 56t-130 37t-154 31.5t-161.5 35t-154.5 51.5t-130 76.5t-90 115t-33.5 161.5t32 165.5
t87.5 124.5t132 84t162.5 49.5t182 15.5q191 0 380.5 -57t308.5 -152z" />
    <glyph glyph-name="scaron" unicode="&#x161;" horiz-adv-x="1333" 
d="M610 1219l-139 225h111l84 -133l84 133h110l-139 -225h-111zM1237 969l-127 -205q-76 61 -214.5 102t-262.5 41q-98 0 -158.5 -29.5t-60.5 -89.5q0 -31 28.5 -53t76.5 -35.5t110 -24.5t131 -23.5t137.5 -28.5t130.5 -43t110 -63t76.5 -93.5t28.5 -130.5q0 -89 -46 -157.5
t-124.5 -109t-176 -61t-208.5 -20.5q-179 0 -345 47t-259 129l133 211q71 -71 214.5 -114.5t281.5 -43.5q109 0 177 30.5t68 90.5q0 40 -35 66.5t-93 39.5t-131.5 26.5t-150 25t-150 37.5t-131.5 62t-93 100t-35 149q0 88 40.5 155.5t111 106.5t158 58.5t190.5 19.5
q166 0 331.5 -47.5t266.5 -124.5z" />
    <glyph glyph-name="Ydieresis" unicode="&#x178;" horiz-adv-x="1536" 
d="M575 1645q0 35 24 59.5t58 24.5q33 0 57.5 -24.5t24.5 -59.5q0 -31 -25 -55.5t-57 -24.5q-33 0 -57.5 24.5t-24.5 55.5zM799 1645q0 35 25 59.5t59 24.5q30 0 54 -25t24 -59q0 -31 -24.5 -55.5t-53.5 -24.5q-33 0 -58.5 24.5t-25.5 55.5zM23 1434h337l406 -619l408 619
h337l-600 -852v-582h-288v582z" />
    <glyph glyph-name="Zcaron" unicode="&#x17d;" horiz-adv-x="1370" 
d="M629 1546l-140 226h111l84 -134l86 134h111l-140 -226h-112zM1243 1186l-850 -938h918v-248h-1252v248l869 938h-850v248h1165v-248h-2h2z" />
    <glyph glyph-name="zcaron" unicode="&#x17e;" horiz-adv-x="1216" 
d="M551 1219l-139 225h110l86 -133l84 133h111l-139 -225h-113zM1118 868l-712 -630h765v-238h-1128v238l731 630h-694v238h1038v-238z" />
    <glyph glyph-name="circumflex" unicode="&#x2c6;" horiz-adv-x="430" 
d="M129 1239h-111l142 225h110l140 -225h-111l-84 133z" />
    <glyph glyph-name="caron" unicode="&#x2c7;" horiz-adv-x="430" 
d="M158 1219l-140 225h111l86 -133l84 133h111l-140 -225h-112z" />
    <glyph glyph-name="ring" unicode="&#x2da;" horiz-adv-x="425" 
d="M217 1184q-86 0 -133 51t-47 121t47 121t133 51q83 0 128.5 -51t45.5 -121t-45.5 -121t-128.5 -51zM215 1436q-37 0 -57.5 -23t-20.5 -55t20.5 -55t57.5 -23q35 0 55.5 23.5t20.5 54.5t-20.5 54.5t-55.5 23.5z" />
    <glyph glyph-name="tilde" unicode="&#x2dc;" horiz-adv-x="585" 
d="M106 1262l-47 81q29 27 44 40t48 28.5t66 15.5q42 0 87.5 -28.5t70.5 -28.5q42 0 108 55l43 -86q-29 -27 -70 -48t-79 -21q-30 0 -56 9t-41.5 19.5t-33.5 19.5t-33 9q-42 0 -107 -65z" />
    <glyph glyph-name="endash" unicode="&#x2013;" horiz-adv-x="851" 
d="M59 524v187h729v-187h-729z" />
    <glyph glyph-name="emdash" unicode="&#x2014;" horiz-adv-x="1318" 
d="M59 510v197h1198v-197h-1198z" />
    <glyph glyph-name="quoteleft" unicode="&#x2018;" horiz-adv-x="462" 
d="M403 1434l-114 -441h-230l195 441h149z" />
    <glyph glyph-name="quoteright" unicode="&#x2019;" horiz-adv-x="462" 
d="M59 993l115 441h229l-192 -441h-152z" />
    <glyph glyph-name="quotesinglbase" unicode="&#x201a;" horiz-adv-x="464" 
d="M59 -174l115 440h232l-195 -440h-152z" />
    <glyph glyph-name="quotedblleft" unicode="&#x201c;" horiz-adv-x="808" 
d="M406 1434l-115 -441h-232l195 441h152zM748 1434l-115 -441h-232l195 441h152z" />
    <glyph glyph-name="quotedblright" unicode="&#x201d;" horiz-adv-x="808" 
d="M401 993l117 441h230l-193 -441h-154zM59 993l117 441h230l-193 -441h-154z" />
    <glyph glyph-name="quotedblbase" unicode="&#x201e;" horiz-adv-x="798" 
d="M59 -174l115 440h232l-195 -440h-152zM393 -174l115 440h229l-194 -440h-150z" />
    <glyph glyph-name="dagger" unicode="&#x2020;" horiz-adv-x="839" 
d="M317 1434h203v-357h258v-203h-258v-1044h-203v1044h-258v203h258v357z" />
    <glyph glyph-name="bullet" unicode="&#x2022;" horiz-adv-x="493" 
d="M59 717q0 74 57 130t132 56q74 0 130 -56.5t56 -129.5q0 -76 -56 -132.5t-130 -56.5q-75 0 -132 56.5t-57 132.5z" />
    <glyph glyph-name="guilsinglleft" unicode="&#x2039;" horiz-adv-x="563" 
d="M59 672v90l445 571v-272l-273 -344l273 -344v-271z" />
    <glyph glyph-name="guilsinglright" unicode="&#x203a;" horiz-adv-x="563" 
d="M59 1333l445 -571v-90l-445 -570v271l273 344l-273 344v272z" />
    <glyph glyph-name="Euro" unicode="&#x20ac;" horiz-adv-x="1445" 
d="M23 954h231q25 85 67 160t105 140t140.5 111t178 72.5t213.5 26.5q234 0 428 -145l-135 -205q-49 43 -122 71.5t-156 28.5q-155 0 -264.5 -71t-167.5 -189h325v-168h-372q-5 -31 -5 -71q0 -41 5 -70h372v-168h-323q58 -116 167 -186t263 -70q170 0 278 98l135 -204
q-91 -75 -190.5 -110.5t-237.5 -35.5q-140 0 -259.5 39.5t-206 110t-146.5 161t-92 197.5h-231v168h200q-4 46 -4 72q0 23 4 69h-200v168z" />
    <glyph glyph-name="trademark" unicode="&#x2122;" horiz-adv-x="837" 
d="M504 1434l106 -193l107 193h69v-381h-84v190l-65 -119h-53l-66 119v-190h-82v381h68zM387 1358h-121v-305h-84v305h-123v76h328v-76z" />
    <glyph glyph-name="minus" unicode="&#x2212;" horiz-adv-x="985" 
d="M59 616v199h865v-199h-865z" />
    <glyph glyph-name="a.salt" horiz-adv-x="1458" 
d="M1032 1106h285v-1106h-246l-31 184q-68 -107 -172.5 -161t-224.5 -54q-103 0 -202 40t-179 112t-129 185t-49 247q0 133 49 246t129 185.5t179 112.5t202 40q117 0 219.5 -52.5t169.5 -154.5v176zM371 553q0 -84 29.5 -153.5t78 -112.5t108.5 -66.5t124 -23.5
q62 0 118.5 22t102.5 64.5t73 112t27 157.5q0 87 -27 156t-73 111.5t-102.5 64.5t-118.5 22q-64 0 -124 -23.5t-108.5 -66.5t-78 -111.5t-29.5 -152.5z" />
    <glyph glyph-name="d.salt" horiz-adv-x="1486" 
d="M84 553q0 133 49 246t129 185.5t179 112.5t202 40q117 0 219.5 -52.5t169.5 -154.5v606h283v-1188q0 -74 21 -102.5t89 -28.5h15v-217q-189 0 -285 38t-117 144q-67 -105 -171 -159t-224 -54q-103 0 -202 40t-179 112t-129 185t-49 247zM371 553q0 -84 29.5 -153.5
t78 -112.5t108.5 -66.5t124 -23.5q62 0 118.5 22t102.5 64.5t73 112t27 157.5q0 87 -27 156t-73 111.5t-102.5 64.5t-118.5 22q-64 0 -124 -23.5t-108.5 -66.5t-78 -111.5t-29.5 -152.5z" />
    <glyph glyph-name="g.salt" horiz-adv-x="1390" 
d="M1182 696q0 -101 -43.5 -183.5t-115.5 -134.5t-161.5 -80t-185.5 -28q-145 0 -262 60q-27 -10 -27 -37q0 -31 26.5 -50t71.5 -27t105 -13t127.5 -5.5t138.5 -6.5t138.5 -15t127.5 -32.5t105 -57t71.5 -89.5t26.5 -130q0 -90 -55 -163.5t-147 -119.5t-206.5 -71
t-238.5 -25q-122 0 -233 24.5t-201.5 72t-144.5 125t-54 175.5q0 128 160 203q-43 56 -43 139q0 65 35.5 118t85.5 85q-104 122 -101 289q0 101 43.5 183.5t115.5 134.5t161.5 80t185.5 28q169 0 303 -84q25 48 25 108q0 59 -23 115l252 -10q10 -39 10 -88q0 -148 -143 -244
q70 -107 70 -246zM422 707q0 -101 77.5 -158t182.5 -57q106 0 183 57t77 158t-77.5 158t-182.5 57q-106 0 -183 -57t-77 -158zM395 -14q-42 -12 -71 -36.5t-29 -58.5q0 -56 57.5 -96t143 -58t186.5 -18q94 0 176.5 16.5t136.5 50.5t54 79q0 39 -41.5 59.5t-115 26t-153 6.5
t-177.5 7t-167 22z" />
    <glyph glyph-name="h.salt" horiz-adv-x="1445" 
d="M426 0h-285v1536h285v-614q58 94 154.5 150t230.5 56q240 0 366 -120t126 -357v-651h-285v557q0 181 -64 266.5t-221 85.5q-130 0 -218.5 -87.5t-88.5 -239.5v-582z" />
    <glyph glyph-name="i.salt" horiz-adv-x="593" 
d="M127 1372q0 68 43 109t113 41q71 0 114 -41.5t43 -108.5q0 -66 -43.5 -106.5t-113.5 -40.5t-113 40.5t-43 106.5zM43 889v217h47q41 0 79 -3t87 -14t84 -30t59.5 -54.5t24.5 -82.5v-574q0 -74 20.5 -102.5t87.5 -28.5h15l2 -217q-84 0 -144.5 6t-112.5 22t-84 44
t-49.5 71.5t-17.5 104.5v545q0 96 -51 96h-47z" />
    <glyph glyph-name="j.salt" horiz-adv-x="534" 
d="M111 1372q0 67 43 108.5t114 41.5q70 0 113 -41t43 -109q0 -66 -43 -106.5t-113 -40.5t-113.5 40.5t-43.5 106.5zM129 -342v1448h283v-1448h-283z" />
    <glyph glyph-name="k.salt" horiz-adv-x="1495" 
d="M141 0v1485h285v-797l467 418h377l-471 -414l692 -692h-397l-500 510l-168 -150v-360h-285z" />
    <glyph glyph-name="l.salt" horiz-adv-x="595" 
d="M141 1536h285v-1188q0 -74 20.5 -102.5t88.5 -28.5h14l2 -217q-84 0 -144.5 6t-113 22t-84.5 44t-50 71.5t-18 104.5v1288z" />
    <glyph glyph-name="m.salt" horiz-adv-x="2031" 
d="M426 0h-285v1106h246l33 -156q115 178 323 178q295 0 383 -223q42 102 126.5 162.5t217.5 60.5q215 0 319.5 -118.5t104.5 -358.5v-651h-284v604q0 152 -48.5 228.5t-158.5 76.5q-100 0 -163 -71t-73 -201v-637l-284 2v602q0 151 -50 228t-161 77q-112 0 -179 -86
t-67 -241v-582z" />
    <glyph glyph-name="n.salt" horiz-adv-x="1441" 
d="M428 582l-2 -582h-285v1106h246l37 -174q61 89 160 142.5t229 53.5q240 0 366 -120t126 -357v-651h-287v557q0 181 -63.5 266.5t-221.5 85.5q-128 0 -217 -89.5t-88 -237.5z" />
    <glyph glyph-name="p.salt" horiz-adv-x="1462" 
d="M1376 553q0 -108 -31.5 -203t-86 -163.5t-126 -118.5t-151.5 -74.5t-162 -24.5q-118 0 -221.5 52.5t-171.5 156.5v-649h-285v1577h246l33 -193q67 111 172.5 167.5t226.5 56.5q82 0 162.5 -25t151.5 -75t125.5 -118.5t86 -163.5t31.5 -202zM1090 553q0 84 -29 152.5
t-77 111.5t-108 66.5t-124 23.5q-63 0 -120 -22t-102.5 -64.5t-72.5 -111.5t-27 -156q0 -171 94.5 -263.5t227.5 -92.5q64 0 124 23.5t108 66.5t77 112.5t29 153.5z" />
    <glyph glyph-name="r.salt" horiz-adv-x="1036" 
d="M426 600v-600h-285v1106h246l37 -193q137 209 352 209q101 0 215 -51l-67 -221q-56 20 -129 20q-65 0 -129.5 -17.5t-118.5 -50t-87.5 -85.5t-33.5 -117z" />
    <glyph glyph-name="u.salt" horiz-adv-x="1415" 
d="M137 457v649h283v-649q0 -123 79.5 -190.5t190.5 -67.5q76 0 143 30.5t111.5 95t44.5 150.5v631h283v-1106h-283v158q-66 -91 -167.5 -140t-213.5 -49q-90 0 -173.5 31t-150.5 90t-107 154t-40 213z" />
    <glyph glyph-name="y.salt" horiz-adv-x="1449" 
d="M1401 1106l-529 -1102q-108 -231 -258.5 -369.5t-312.5 -138.5q-91 0 -178.5 29.5t-132.5 60.5l73 234q30 -19 93.5 -42.5t117.5 -23.5q155 0 306 226h-13l-542 1126h311l377 -860l377 860h311z" />
    </font>
</defs>
</svg>
