<?xml version="1.0" standalone="no"?>
<!DOCTYPE svg PUBLIC "-//W3C//DTD SVG 1.1//EN" "http://www.w3.org/Graphics/SVG/1.1/DTD/svg11.dtd" >
<svg xmlns="http://www.w3.org/2000/svg" xmlns:xlink="http://www.w3.org/1999/xlink" version="1.1">
<metadata>
Created by FontForge 20201107 at Thu Nov 20 10:53:22 2025
 By 
Copyright (c) 2020 by Sarid Ezra. All rights reserved.
</metadata>
<defs>
<font id="Ezra-ExtraBold" horiz-adv-x="1742" >
  <font-face 
    font-family="Ezra ExtBd"
    font-weight="800"
    font-stretch="normal"
    units-per-em="2048"
    panose-1="0 0 0 0 0 0 0 0 0 0"
    ascent="1536"
    descent="-512"
    x-height="1106"
    cap-height="1434"
    bbox="-178 -537 2437 1890"
    underline-thickness="102"
    underline-position="-255"
    unicode-range="U+000D-FB01"
  />
<missing-glyph horiz-adv-x="1024" 
 />
    <glyph glyph-name="fi" unicode="fi" horiz-adv-x="1540" 
d="M1411 0h-389v829h-430v-829h-389v829h-195v242l215 33q-80 92 -80 190q0 93 85 164.5t217.5 107.5t285.5 36q136 0 260 -28.5t229 -93.5t156 -159l-291 -158q-64 71 -155.5 105.5t-186.5 34.5q-97 0 -165 -30.5t-68 -74.5q0 -31 22 -58.5t56 -33.5h823v-1106z" />
    <glyph glyph-name=".notdef" horiz-adv-x="1024" 
 />
    <glyph glyph-name="uni0000" horiz-adv-x="0" 
 />
    <glyph glyph-name="uni0000" horiz-adv-x="0" 
 />
    <glyph glyph-name="uni000D" unicode="&#xd;" horiz-adv-x="512" 
 />
    <glyph glyph-name="space" unicode=" " horiz-adv-x="458" 
 />
    <glyph glyph-name="exclam" unicode="!" horiz-adv-x="501" 
d="M133 506l-78 928h396l-78 -928h-240zM45 172q0 82 56.5 137.5t138.5 55.5t137 -55.5t55 -137.5t-55.5 -139.5t-136.5 -57.5q-82 0 -138.5 57.5t-56.5 139.5z" />
    <glyph glyph-name="quotedbl" unicode="&#x22;" horiz-adv-x="878" 
d="M37 942l90 508h291l-176 -508h-205zM453 942l90 508h291l-177 -508h-204z" />
    <glyph glyph-name="numbersign" unicode="#" horiz-adv-x="1730" 
d="M649 0l189 365h-277l-188 -365h-291l190 365h-227v239h352l101 195h-338v239h463l206 396h287l-205 -396h277l207 396h291l-207 -396h176v-239h-301l-101 -195h285v-239l-410 -3l-190 -362h-289zM686 604h277l102 195h-277z" />
    <glyph glyph-name="dollar" unicode="$" horiz-adv-x="1525" 
d="M700 1536h185v-147q160 -19 311.5 -70.5t257.5 -124.5l-170 -299q-71 60 -178.5 104t-220.5 64v-227q66 -14 113 -25.5t110.5 -31.5t108 -42.5t92 -57t76.5 -74.5t48 -95.5t19 -120.5q0 -102 -45 -181t-125 -127.5t-179.5 -75.5t-217.5 -32v-100h-185v104
q-175 15 -340 67.5t-274 129.5l170 315q73 -63 194 -111t250 -71v230q-62 14 -109 27t-106.5 34t-102.5 44t-87.5 57.5t-72 74.5t-45 94t-17.5 117q0 104 43 183.5t118.5 127.5t170.5 73t208 28v139zM700 874v199q-68 -5 -107.5 -28.5t-39.5 -65.5q0 -36 37.5 -60t109.5 -45
zM885 494v-203q78 2 124 23.5t46 62.5q0 40 -43.5 67.5t-126.5 49.5z" />
    <glyph glyph-name="percent" unicode="%" horiz-adv-x="1763" 
d="M471 879q-154 0 -240 90t-86 213t86 212t240 89q155 0 242.5 -90t87.5 -213t-87.5 -212t-242.5 -89zM1378 1434h318l-1315 -1434h-318zM471 1300q-59 0 -92 -36t-33 -84t33 -83.5t92 -35.5q61 0 96 35.5t35 83.5t-35 84t-96 36zM1309 0q-154 0 -240 90t-86 213t86 212
t240 89q155 0 242 -90t87 -213t-87 -212t-242 -89zM1309 434q-65 0 -102.5 -40t-37.5 -93t37.5 -92t102.5 -39q67 0 105 39t38 92t-38 93t-105 40z" />
    <glyph glyph-name="ampersand" unicode="&#x26;" horiz-adv-x="1710" 
d="M1702 0l-377 -66q-53 49 -133 127q-215 -149 -498 -149q-127 0 -242.5 34t-205.5 96t-143.5 158.5t-53.5 213.5q0 76 27.5 142.5t68.5 114t106 92.5t122.5 74.5t136.5 63.5q-86 169 -86 287q0 93 62.5 162.5t155.5 102t200 32.5q103 0 190.5 -31t146 -100t58.5 -164
q0 -69 -22.5 -128t-64.5 -105t-91 -81.5t-113 -68.5q95 -127 215 -256q34 96 31 205l328 -4q3 -267 -115 -463q74 -75 148 -147t111 -107zM801 1030q131 70 131 150q0 47 -26 72.5t-62 25.5q-35 0 -61.5 -26t-26.5 -74q0 -60 45 -148zM655 672q-106 -50 -163.5 -103
t-57.5 -123q0 -89 81 -141.5t200 -52.5q128 0 237 59q-185 205 -297 361z" />
    <glyph glyph-name="quotesingle" unicode="'" horiz-adv-x="438" 
d="M125 1450h291l-174 -508h-205z" />
    <glyph glyph-name="parenleft" unicode="(" horiz-adv-x="618" 
d="M350 -82q-148 113 -226.5 321.5t-78.5 450.5t78.5 451.5t226.5 322.5l223 -73q-113 -101 -173 -292t-60 -411t60 -408.5t173 -287.5z" />
    <glyph glyph-name="parenright" unicode=")" horiz-adv-x="616" 
d="M266 -82l-221 74q113 99 173.5 288t60.5 408q0 220 -60.5 411t-173.5 292l221 73q147 -113 226 -323t79 -451t-79 -450t-226 -322z" />
    <glyph glyph-name="asterisk" unicode="*" horiz-adv-x="661" 
d="M557 1370l59 -182l-159 -23l104 -112l-149 -115l-82 147l-80 -143l-152 113l101 108l-154 19l53 188l150 -67l-17 131h191l-14 -129z" />
    <glyph glyph-name="plus" unicode="+" horiz-adv-x="1017" 
d="M45 594v248h324v280h278v-280h324v-248h-324v-305h-278v305h-324z" />
    <glyph glyph-name="comma" unicode="," horiz-adv-x="667" 
d="M-31 -270l264 567h379l-385 -567h-258z" />
    <glyph glyph-name="hyphen" unicode="-" horiz-adv-x="1148" 
d="M45 594v248h1057v-248h-1057z" />
    <glyph glyph-name="period" unicode="." horiz-adv-x="514" 
d="M63 172q0 82 56.5 137.5t138.5 55.5q83 0 138 -55.5t55 -137.5q0 -83 -55 -140t-138 -57q-82 0 -138.5 57.5t-56.5 139.5z" />
    <glyph glyph-name="slash" unicode="/" horiz-adv-x="1282" 
d="M965 1434h270l-918 -1434h-272z" />
    <glyph glyph-name="zero" unicode="0" horiz-adv-x="1546" 
d="M70 717q0 147 39.5 272.5t107 214t157.5 151t191.5 92.5t208.5 30t208.5 -29.5t191.5 -92t157 -151t106.5 -214t39.5 -273.5t-39.5 -273.5t-106.5 -214t-157 -151t-191.5 -92t-208.5 -29.5t-208.5 30t-191.5 92.5t-157.5 151t-107 214t-39.5 272.5zM428 717
q0 -92 29.5 -166.5t79 -121t110.5 -71t127 -24.5t127.5 24.5t110.5 71t78.5 121t29.5 166.5q0 93 -29.5 168t-78.5 121.5t-110 71t-128 24.5q-66 0 -127 -24.5t-110.5 -71t-79 -121.5t-29.5 -168z" />
    <glyph glyph-name="one" unicode="1" horiz-adv-x="882" 
d="M500 1456h250v-1456h-398v971l-153 -125l-170 207z" />
    <glyph glyph-name="two" unicode="2" horiz-adv-x="1234" 
d="M780 1034q0 54 -49 84.5t-125 30.5q-106 0 -216.5 -56.5t-178.5 -164.5l-150 327q77 113 220 172.5t307 59.5q86 0 167 -16.5t152 -51.5t124.5 -84.5t84.5 -120t31 -153.5q0 -79 -24.5 -147.5t-68 -121.5t-97 -99.5t-118 -90.5t-124.5 -84t-122.5 -90t-105.5 -100h697
v-328h-1135q0 124 25 230t67.5 181.5t97 139t115.5 109t121.5 84.5t115 72.5t97 65.5t67.5 70.5t25 81.5z" />
    <glyph glyph-name="three" unicode="3" horiz-adv-x="1366" 
d="M483 662h-26l2 247q180 -1 269 48t89 116q0 44 -39 76.5t-100 32.5q-228 0 -379 -191l-160 228q96 126 232.5 187.5t281.5 61.5q132 0 241 -33t178.5 -88t107 -124t37.5 -144q0 -79 -43 -153t-127 -133q122 -67 184.5 -163.5t62.5 -203.5q0 -89 -44.5 -171t-127 -147.5
t-212.5 -105t-289 -39.5q-112 0 -216 30.5t-199 99t-157 169.5l141 285q158 -225 451 -225q117 0 188.5 46t71.5 109q0 75 -106 130t-312 55z" />
    <glyph glyph-name="four" unicode="4" horiz-adv-x="1386" 
d="M1358 264h-213v-264l-400 -2v266h-716v328l835 848l281 -6v-842h213v-328zM418 592h327v332z" />
    <glyph glyph-name="five" unicode="5" horiz-adv-x="1370" 
d="M360 594l-241 18l104 822h953v-328h-635l-23 -172q86 12 168 12q148 0 268 -40.5t194 -109t113 -153.5t39 -178q0 -77 -26 -151t-81 -140.5t-132 -116t-186 -79t-236 -29.5q-118 0 -224 33t-198 107.5t-147 184.5l276 158q29 -65 107.5 -98t169.5 -33q137 0 216 56.5
t79 131.5q0 70 -72.5 121.5t-202.5 51.5q-159 0 -283 -68z" />
    <glyph glyph-name="six" unicode="6" horiz-adv-x="1439" 
d="M737 -31q-130 0 -240 41t-187.5 112t-132.5 165t-81 200.5t-26 219.5q0 114 27 223.5t82.5 206t134 169.5t189.5 115.5t240 42.5q92 0 182.5 -20.5t154 -49t116.5 -60t78.5 -52t30.5 -27.5l-162 -229q-7 9 -54 37t-144.5 60t-194.5 32q-126 0 -211.5 -81.5t-118.5 -207.5
q130 92 350 92q145 0 261.5 -40.5t188.5 -108.5t110 -152.5t38 -177.5q0 -77 -25 -150t-77 -138.5t-125.5 -114.5t-177.5 -78t-226 -29zM770 655q-144 0 -214.5 -39t-70.5 -98q0 -64 73.5 -118t178.5 -54q121 0 190.5 50t69.5 116q0 60 -59 101.5t-168 41.5z" />
    <glyph glyph-name="seven" unicode="7" horiz-adv-x="1273" 
d="M156 0l581 1106h-708v328h1216v-56l-649 -1378h-440z" />
    <glyph glyph-name="eight" unicode="8" horiz-adv-x="1449" 
d="M174 1087q0 171 152 276t401 105q247 0 399 -105.5t152 -275.5q0 -97 -52 -174t-149 -127q156 -52 242 -149.5t86 -228.5q0 -197 -186.5 -318t-491.5 -121t-491.5 121t-186.5 318q0 130 86 228t240 150q-97 50 -149 127t-52 174zM725 922q104 0 162.5 39.5t58.5 93.5
t-57.5 92.5t-163.5 38.5q-108 0 -166.5 -38.5t-58.5 -92.5t59.5 -93.5t165.5 -39.5zM725 297q130 0 204.5 51t74.5 119t-73.5 118t-205.5 50t-205.5 -50t-73.5 -118t74.5 -119t204.5 -51z" />
    <glyph glyph-name="nine" unicode="9" horiz-adv-x="1437" 
d="M700 1464q130 0 240.5 -41t188 -111.5t132.5 -165t81 -200.5t26 -219q0 -114 -27 -223.5t-83 -206.5t-134.5 -170t-189.5 -115.5t-240 -42.5q-92 0 -182 20.5t-154 49t-116.5 60t-78 52t-30.5 27.5l160 230q4 -4 22.5 -16.5t57 -32.5t83.5 -37t108 -30t124 -13
q126 0 211.5 81t118.5 207q-130 -92 -350 -92q-145 0 -261.5 40.5t-188.5 108.5t-110 152.5t-38 177.5q0 96 40.5 186t116.5 163t199 117t274 44zM668 778q144 0 214 39t70 98q0 64 -74.5 118t-177.5 54q-121 0 -190.5 -49.5t-69.5 -115.5q0 -60 59.5 -102t168.5 -42z" />
    <glyph glyph-name="colon" unicode=":" horiz-adv-x="460" 
d="M45 969q0 81 56.5 136.5t138.5 55.5t137 -55t55 -137q0 -83 -55 -140t-137 -57t-138.5 57t-56.5 140zM47 172q0 81 57.5 137t139.5 56t137 -55.5t55 -137.5t-55.5 -139.5t-136.5 -57.5q-82 0 -139.5 57.5t-57.5 139.5z" />
    <glyph glyph-name="semicolon" unicode=";" horiz-adv-x="702" 
d="M201 948q0 83 56 139t138 56t137.5 -56t55.5 -139q0 -82 -55.5 -138t-137.5 -56t-138 56t-56 138zM47 -199l232 496h378l-354 -496h-256z" />
    <glyph glyph-name="less" unicode="&#x3c;" horiz-adv-x="679" 
d="M635 487v-299l-590 426v181l590 426v-297l-320 -219z" />
    <glyph glyph-name="equal" unicode="=" horiz-adv-x="925" 
d="M45 743v252h834v-252h-834zM45 365v249h834v-249h-834z" />
    <glyph glyph-name="greater" unicode="&#x3e;" horiz-adv-x="679" 
d="M635 795v-181l-590 -426v299l317 218l-317 219v297z" />
    <glyph glyph-name="question" unicode="?" horiz-adv-x="1114" 
d="M696 1055q0 54 -32 82t-86 28q-75 0 -164 -53t-156 -149l-209 241q83 121 233.5 187.5t313.5 66.5q94 0 177 -24t149 -70.5t104.5 -123t38.5 -173.5q0 -69 -21.5 -125.5t-57 -93t-80.5 -68.5t-92 -54t-92 -48t-80.5 -52t-57 -64.5t-21.5 -86.5h-203q0 89 18 160t47.5 115
t65.5 78t72 58t66 47t48.5 53.5t18.5 68.5zM283 172q0 82 56 137.5t138 55.5t137.5 -55.5t55.5 -137.5q0 -83 -55.5 -140t-137.5 -57t-138 57t-56 140z" />
    <glyph glyph-name="at" unicode="@" horiz-adv-x="1478" 
d="M829 995h168v-241q0 -35 0.5 -54.5t2.5 -55.5t6.5 -57.5t14 -49t22 -43t33 -26.5t46.5 -11q66 0 106 63t40 158q0 63 -17.5 126t-58 125t-98.5 109.5t-147 77t-197 29.5q-129 0 -234 -44.5t-169.5 -118.5t-99 -165t-34.5 -190t34.5 -190.5t99 -165.5t169.5 -118t234 -44
q176 0 311 110l94 -131q-183 -133 -405 -133q-170 0 -307 57.5t-222.5 153t-130.5 214t-45 247.5q0 102 28 199t86 182.5t140 150t198 102t253 37.5q135 0 249.5 -37t193 -98.5t133.5 -142t80.5 -165.5t25.5 -171q0 -156 -82 -261.5t-228 -105.5q-150 0 -221 91
q-76 -125 -227 -125q-84 0 -144.5 50t-88 126.5t-27.5 167.5q0 98 31.5 185t98 145.5t156.5 58.5q68 0 129 -33v12zM827 739q-13 58 -47.5 91.5t-79.5 33.5q-56 0 -87 -68t-31 -161q0 -80 25.5 -139.5t68.5 -59.5q121 0 151 303z" />
    <glyph glyph-name="A" unicode="A" 
d="M8 0l662 1454h405l660 -1454h-422l-90 197h-703l-90 -197h-422zM670 524h403l-201 445z" />
    <glyph glyph-name="B" unicode="B" horiz-adv-x="1570" 
d="M1059 0h-928v1434h801q106 0 191.5 -36.5t139 -97t81.5 -135t28 -155.5q0 -131 -67 -238q91 -64 137.5 -159t46.5 -199q0 -80 -28 -153.5t-80.5 -132t-135.5 -93.5t-186 -35zM528 870h314q65 0 102 40.5t37 95.5t-37 94t-102 39h-314v-269zM528 319h441q65 0 102 39.5
t37 92.5q0 55 -37 94t-102 39h-441v-265z" />
    <glyph glyph-name="C" unicode="C" horiz-adv-x="1607" 
d="M70 717q0 146 47.5 272.5t126.5 215.5t181.5 153t213.5 94.5t221 30.5q217 0 391.5 -82.5t290.5 -233.5l-282 -262q-64 83 -171 142t-212 59q-96 0 -174 -33t-126.5 -88.5t-74 -124t-25.5 -143.5q0 -74 25.5 -142t74 -123.5t126.5 -88.5t174 -33q71 0 131.5 17t107 50
t78.5 64.5t66 75.5l282 -263q-121 -152 -295.5 -237.5t-388.5 -85.5q-110 0 -221 30.5t-213 94.5t-181 153t-126 215.5t-47 272.5z" />
    <glyph glyph-name="D" unicode="D" horiz-adv-x="1744" 
d="M131 1434h825q173 -2 313 -64t227 -164t133 -227.5t46 -261.5t-46 -261.5t-133 -227.5t-227 -164t-313 -64h-825v1434zM944 1106h-416v-776h416q102 0 176.5 57.5t109 143.5t34.5 186q0 101 -34.5 187.5t-109 144t-176.5 57.5z" />
    <glyph glyph-name="E" unicode="E" horiz-adv-x="1456" 
d="M131 0v1434h1266v-328h-869v-225h734v-328h-734v-225h883v-328h-1280z" />
    <glyph glyph-name="F" unicode="F" horiz-adv-x="1404" 
d="M131 0v1434h1266v-328h-869v-297h734v-328h-734v-481h-397z" />
    <glyph glyph-name="G" unicode="G" horiz-adv-x="1644" 
d="M1530 782v-782h-146l-71 104q-186 -153 -455 -153q-110 0 -221 30.5t-213 94.5t-181 153t-126 215.5t-47 272.5t47.5 272.5t126.5 215.5t181.5 153t213.5 94.5t221 30.5q217 0 391.5 -82.5t290.5 -233.5l-285 -262q-64 83 -169.5 142t-210.5 59q-96 0 -174 -33
t-126.5 -88.5t-74 -124t-25.5 -143.5q0 -74 25.5 -142t74 -123.5t126.5 -88.5t174 -33q139 0 203 62t71 159h-313v231h692z" />
    <glyph glyph-name="H" unicode="H" horiz-adv-x="1748" 
d="M131 0v1434h397v-553h693v553h397v-1434h-397v553h-693v-553h-397z" />
    <glyph glyph-name="I" unicode="I" horiz-adv-x="661" 
d="M131 0v1434h397v-1434h-397z" />
    <glyph glyph-name="J" unicode="J" horiz-adv-x="1173" 
d="M27 90l106 361q60 -51 134 -80t143 -29q103 0 169 62.5t66 187.5v842h395v-955q0 -110 -35 -200t-93 -149.5t-136 -99.5t-161.5 -57.5t-172.5 -17.5q-130 0 -242.5 36.5t-172.5 98.5z" />
    <glyph glyph-name="K" unicode="K" horiz-adv-x="1650" 
d="M1133 0l-476 547l-129 -125v-422h-397v1434h397v-521l545 521h500l-651 -631l718 -803h-507z" />
    <glyph glyph-name="L" unicode="L" horiz-adv-x="1390" 
d="M131 0v1434h397v-1106h854v-328h-1251z" />
    <glyph glyph-name="M" unicode="M" horiz-adv-x="2058" 
d="M954 0l-426 758v-758h-397v1434h397l500 -899l502 899h397v-1434h-397v758l-426 -758h-150z" />
    <glyph glyph-name="N" unicode="N" horiz-adv-x="1847" 
d="M131 0v1434h397l791 -928v928h397v-1434h-397l-791 928v-928h-397z" />
    <glyph glyph-name="O" unicode="O" horiz-adv-x="1775" 
d="M1700 717q0 -149 -48.5 -277t-129.5 -216.5t-187 -151t-219.5 -92t-228.5 -29.5t-228.5 29.5t-219.5 92t-187 151t-129.5 216.5t-48.5 277t48.5 277t129.5 216.5t187 151t219.5 92t228.5 29.5t228.5 -29.5t219.5 -92t187 -151t129.5 -216.5t48.5 -277zM1294 717
q0 93 -37 169.5t-96.5 123t-130.5 71.5t-143 25q-73 0 -144 -25t-131 -71.5t-97.5 -123t-37.5 -169.5t37.5 -169.5t97.5 -123t131 -71.5t144 -25q72 0 143 25t130.5 71.5t96.5 123t37 169.5z" />
    <glyph glyph-name="P" unicode="P" horiz-adv-x="1415" 
d="M131 0v1434h766q113 0 204.5 -40t148 -107t86.5 -150.5t30 -173.5t-30 -173.5t-86.5 -151.5t-148 -108.5t-204.5 -40.5h-369v-489h-397zM528 819h326q61 0 95 42t34 100q0 59 -34 102t-95 43h-326v-287z" />
    <glyph glyph-name="Q" unicode="Q" horiz-adv-x="1773" 
d="M1319 -195l-139 195q-143 -49 -293 -49q-115 0 -228.5 29.5t-219.5 92t-187 151t-129.5 216.5t-48.5 277t48.5 277t129.5 216.5t187 151t219.5 92t228.5 29.5t228.5 -29.5t219.5 -92t187 -151t129.5 -216.5t48.5 -277q0 -348 -252 -565l125 -177zM1294 717
q0 93 -37 169.5t-96.5 123t-130.5 71.5t-143 25q-73 0 -144 -25t-131 -71.5t-97.5 -123t-37.5 -169.5t37.5 -169.5t97.5 -123t131 -71.5t144 -25q19 0 59 4l-92 133l254 170l109 -154q77 93 77 236z" />
    <glyph glyph-name="R" unicode="R" horiz-adv-x="1619" 
d="M1114 0l-346 516h-240v-516h-397v1434h864q91 0 168 -26t131 -70t92.5 -102.5t57 -124.5t18.5 -136q0 -137 -70 -253t-200 -169l420 -553h-498zM528 844h361q77 0 119.5 38.5t42.5 92.5t-42.5 92.5t-119.5 38.5h-361v-262z" />
    <glyph glyph-name="S" unicode="S" horiz-adv-x="1607" 
d="M1542 1260l-186 -324q-107 90 -276 144.5t-306 54.5q-89 0 -142.5 -26.5t-53.5 -80.5q0 -38 41.5 -65.5t109 -43t154 -35t176.5 -38.5t176.5 -55.5t154 -84.5t109 -127.5t41.5 -181.5q0 -93 -36.5 -168.5t-99 -126.5t-149 -85.5t-184 -50t-207.5 -15.5q-220 0 -440 59.5
t-361 157.5l187 338q115 -94 312.5 -156.5t346.5 -62.5q87 0 140 24.5t53 73.5q0 44 -53 74.5t-137.5 51.5t-186.5 42.5t-204.5 57t-187 85.5t-137.5 137t-53 203q0 115 49.5 201.5t136.5 137.5t195.5 75.5t237.5 24.5q206 0 419.5 -59t360.5 -156z" />
    <glyph glyph-name="T" unicode="T" horiz-adv-x="1587" 
d="M8 1434h1575v-328h-590v-1106h-397v1106h-588v328z" />
    <glyph glyph-name="U" unicode="U" horiz-adv-x="1714" 
d="M131 596v838h397v-838q0 -130 97.5 -203.5t230.5 -73.5t230.5 73.5t97.5 203.5v838h397v-838q0 -126 -40.5 -233t-110.5 -182.5t-162.5 -129t-197 -79t-214.5 -25.5t-214.5 25.5t-197 79t-162.5 129t-110.5 182.5t-40.5 233z" />
    <glyph glyph-name="V" unicode="V" horiz-adv-x="1744" 
d="M1075 -20h-405l-662 1454h422l442 -969l441 969h422z" />
    <glyph glyph-name="W" unicode="W" horiz-adv-x="2371" 
d="M868 -20h-315l-545 1454h412l311 -887l324 887h262l321 -887l314 887h411l-544 -1454h-316l-317 847z" />
    <glyph glyph-name="X" unicode="X" horiz-adv-x="1632" 
d="M1624 0h-510l-299 408l-299 -408h-508l563 739l-508 695h467l285 -375l287 375h465l-508 -695z" />
    <glyph glyph-name="Y" unicode="Y" horiz-adv-x="1622" 
d="M8 1434h463l340 -539l338 539h463l-602 -863v-571h-398v571z" />
    <glyph glyph-name="Z" unicode="Z" horiz-adv-x="1404" 
d="M1292 1106l-792 -778h860v-328h-1315v328l813 778h-795v328h1229v-328z" />
    <glyph glyph-name="bracketleft" unicode="[" horiz-adv-x="534" 
d="M45 -119v1553h444l-2 -152l-184 -14v-1221l184 -14l2 -152h-444z" />
    <glyph glyph-name="backslash" unicode="\" horiz-adv-x="1271" 
d="M45 1434h262l920 -1434h-262z" />
    <glyph glyph-name="bracketright" unicode="]" horiz-adv-x="540" 
d="M489 1434v-1553h-444v152l186 14v1221l-186 14v152h444z" />
    <glyph glyph-name="asciicircum" unicode="^" horiz-adv-x="876" 
d="M55 883l320 551h141l322 -551h-258l-134 268l-135 -268h-256z" />
    <glyph glyph-name="underscore" unicode="_" horiz-adv-x="1271" 
d="M45 -27v217h1182v-217h-1182z" />
    <glyph glyph-name="grave" unicode="`" horiz-adv-x="370" 
d="M6 1401l111 127l248 -250l-68 -76z" />
    <glyph glyph-name="a" unicode="a" horiz-adv-x="1372" 
d="M215 715l-72 293q89 56 237.5 92.5t299.5 36.5q88 0 165.5 -13.5t149 -45t122.5 -79t81 -121t29 -165.5l-2 -299v-4q0 -76 17.5 -103.5t84.5 -27.5h14v-279q-81 0 -137.5 2t-114.5 8.5t-96.5 19t-71.5 32.5t-52 50t-27 70q-59 -92 -172 -141.5t-271 -50.5
q-168 -1 -258 86t-90 215q0 75 33 146.5t94 130t160 92t219 28.5l145 -4q127 -9 134 55v9q0 77 -154 77q-114 0 -262.5 -37.5t-204.5 -72.5zM836 455q-53 -35 -136 -35h-131q-48 1 -75 -20t-27 -50t27.5 -48.5t78.5 -18.5q35 1 71.5 7.5t82.5 23t76.5 52t32.5 85.5v4z" />
    <glyph glyph-name="b" unicode="b" horiz-adv-x="1505" 
d="M127 0v1536h389v-582q67 90 163.5 136.5t205.5 46.5q81 0 160 -25t149.5 -75t124.5 -118.5t85.5 -163.5t31.5 -202q0 -108 -31.5 -203t-85.5 -163.5t-124.5 -118.5t-149.5 -74.5t-160 -24.5q-114 0 -214 49.5t-167 147.5l-33 -166h-344zM1042 553q0 129 -81 203.5
t-189 74.5q-105 0 -180.5 -72.5t-75.5 -205.5q0 -134 75.5 -207.5t180.5 -73.5q108 0 189 75.5t81 205.5z" />
    <glyph glyph-name="c" unicode="c" horiz-adv-x="1282" 
d="M70 551q0 113 37.5 211t99.5 167t143 118.5t169 73.5t175 24q170 0 308.5 -64.5t228.5 -181.5l-273 -242q-50 64 -108.5 95.5t-142.5 31.5q-120 0 -187 -70t-67 -165t67 -164.5t187 -69.5q89 0 144.5 32.5t106.5 98.5l273 -239q-95 -118 -233.5 -185t-305.5 -67
q-87 0 -174.5 24t-168.5 74t-143 119t-99 167.5t-37 211.5z" />
    <glyph glyph-name="d" unicode="d" horiz-adv-x="1505" 
d="M989 1536h387v-1536h-342l-33 166q-67 -98 -167 -147.5t-213 -49.5q-81 0 -160 24.5t-149.5 74.5t-124.5 118.5t-85.5 163.5t-31.5 203q0 107 31.5 202t85.5 163.5t124.5 118.5t149.5 75t160 25q107 0 204 -46.5t164 -136.5v582zM463 553q0 -131 80.5 -206t189.5 -75
q105 0 180.5 73.5t75.5 207.5q0 133 -75.5 205.5t-180.5 72.5q-109 0 -189.5 -74.5t-80.5 -203.5z" />
    <glyph glyph-name="e" unicode="e" horiz-adv-x="1329" 
d="M70 551q0 113 37.5 211t99.5 167t143 118.5t169 73.5t175 24q116 0 220 -41t187 -118.5t132 -202t49 -279.5l-817 2q20 -89 83 -146t159 -57q168 0 268 131l256 -227q-95 -118 -233.5 -185t-305.5 -67q-87 0 -174.5 24t-168.5 74t-143 119t-99 167.5t-37 211.5zM487 731
h424q-67 141 -198 141q-79 0 -137 -38.5t-89 -102.5z" />
    <glyph glyph-name="f" unicode="f" horiz-adv-x="1036" 
d="M203 0v829h-195v242l215 33q-80 92 -80 190q0 83 60.5 147t156 96t205.5 32q148 0 274 -60t187 -178l-213 -182q-34 48 -99.5 80.5t-121.5 32.5q-82 0 -82 -64q0 -30 22 -57.5t56 -34.5h407v-277h-403v-829h-389z" />
    <glyph glyph-name="g" unicode="g" horiz-adv-x="1503" 
d="M1098 1106h278v-985q0 -126 -44.5 -231t-121.5 -178.5t-182.5 -125t-226 -76t-252.5 -24.5q-101 0 -217.5 30t-212.5 78l57 355q74 -55 192 -87t238 -32q107 0 191 27.5t138 90.5t54 156v46q-67 -90 -163.5 -135.5t-204.5 -45.5q-81 0 -160 24.5t-149.5 74.5
t-124.5 118.5t-85.5 163.5t-31.5 203q0 107 31.5 202t85.5 163.5t124.5 118.5t149.5 75t160 25q109 0 206 -47t164 -138zM463 553q0 -131 80.5 -206t189.5 -75q48 0 92 17t80.5 49t59 84.5t24.5 118.5v24q-4 127 -79 196.5t-177 69.5q-109 0 -189.5 -74.5t-80.5 -203.5z" />
    <glyph glyph-name="h" unicode="h" horiz-adv-x="1519" 
d="M516 0h-389v1536h389v-602q58 87 150 140.5t219 53.5q243 0 358 -118t115 -359v-243q0 -72 23.5 -102t91.5 -30h16v-276q-14 0 -50.5 -1t-58.5 -1q-44 0 -80 2t-80.5 8t-78.5 17t-68 31t-56 47t-36 67t-14 90v297q1 148 -50.5 216.5t-156.5 68.5q-100 0 -172 -85.5
t-72 -230.5v-526z" />
    <glyph glyph-name="i" unicode="i" horiz-adv-x="589" 
d="M96 1393q0 83 55 133.5t144 50.5t143 -50.5t54 -133.5t-54 -133t-143 -50q-90 0 -144.5 50t-54.5 133zM487 0h-387v1106h387v-1106z" />
    <glyph glyph-name="j" unicode="j" horiz-adv-x="712" 
d="M205 1393q0 83 54.5 133.5t143.5 50.5t144 -50.5t55 -133.5t-54.5 -133t-144.5 -50q-89 0 -143.5 50t-54.5 133zM-178 -434l72 330q68 -35 137 -35q76 0 125 50.5t49 168.5v1026h389v-1065q0 -115 -32.5 -206.5t-85.5 -150t-124 -97t-143 -54.5t-148 -16q-149 0 -239 49z
" />
    <glyph glyph-name="k" unicode="k" horiz-adv-x="1447" 
d="M127 0v1520h389v-711l326 297h504l-512 -459q72 5 134.5 -25t110.5 -76t97 -93t116.5 -80.5t145.5 -32.5v-360q-111 0 -206.5 27t-161.5 69t-123 93t-100.5 100.5t-83 89.5t-81.5 61.5t-86 15.5l-80 -74v-362h-389z" />
    <glyph glyph-name="l" unicode="l" horiz-adv-x="643" 
d="M127 0v1536h389v-1536h-389z" />
    <glyph glyph-name="m" unicode="m" horiz-adv-x="2134" 
d="M514 0h-389v727q0 23 -1 35.5t-5 30.5t-15 27t-28 9h-47v277h47h67q38 0 69.5 -1.5t73.5 -6t75.5 -14.5t65.5 -25t53.5 -39.5t29.5 -56.5q106 165 293 165q307 0 401 -204q79 204 320 204q233 0 340.5 -117.5t107.5 -359.5v-243q0 -72 24.5 -102t92.5 -30h14l2 -276
q-14 0 -50 -1t-58 -1q-44 0 -80 2t-80.5 8t-78.5 17t-68.5 31t-56.5 47t-36 67t-14 90v313q0 140 -40 204.5t-126 64.5q-82 0 -120.5 -69.5t-43.5 -205.5v-567h-389v573q0 139 -43 204t-131 65t-132 -81.5t-42 -234.5h-2v-526z" />
    <glyph glyph-name="n" unicode="n" horiz-adv-x="1519" 
d="M514 0h-389v727q0 23 -1 35.5t-5 30.5t-15 27t-28 9h-47v277h47h67q50 0 90 -2.5t94 -12t90.5 -26.5t64.5 -49.5t32 -77.5q60 85 153 137.5t218 52.5q242 0 356.5 -118t114.5 -359v-243q0 -72 24.5 -102t92.5 -30h14l2 -276q-14 0 -50.5 -1t-58.5 -1q-44 0 -80 2t-80.5 8
t-78.5 17t-68 31t-56 47t-36 67t-14 90v297q0 148 -51.5 216.5t-155.5 68.5q-100 0 -172.5 -86.5t-71.5 -229.5h-2v-526z" />
    <glyph glyph-name="o" unicode="o" horiz-adv-x="1429" 
d="M1360 557q0 -115 -38.5 -213.5t-103 -166.5t-148.5 -116.5t-174 -71t-181 -22.5t-181 22.5t-173.5 71t-147.5 116.5t-102.5 166.5t-38.5 213.5q0 114 38.5 212t102.5 166t147.5 116.5t173.5 71t181 22.5t181 -22.5t174 -71t148.5 -116.5t103 -166t38.5 -212zM969 557
q0 106 -78 166.5t-176 60.5t-176 -60.5t-78 -166.5q0 -73 40 -127t96 -78t118 -24t118 24t96 78t40 127z" />
    <glyph glyph-name="p" unicode="p" horiz-adv-x="1505" 
d="M1436 553q0 -108 -31.5 -203t-85.5 -163.5t-124.5 -118.5t-149.5 -74.5t-160 -24.5q-109 0 -206.5 45.5t-164.5 135.5v-648h-389v1225q0 23 -1 35.5t-5 30.5t-15 27t-28 9h-47v277h47h63q49 0 87.5 -2t91.5 -11t90 -25t66.5 -46.5t37.5 -71.5q67 92 165 139.5t208 47.5
q81 0 160 -25t149.5 -75t124.5 -118.5t85.5 -163.5t31.5 -202zM1042 553q0 129 -81 203.5t-189 74.5q-105 0 -180.5 -72.5t-75.5 -205.5q0 -134 75.5 -207.5t180.5 -73.5q108 0 189 75.5t81 205.5z" />
    <glyph glyph-name="q" unicode="q" horiz-adv-x="1505" 
d="M1053 1106h323v-1536h-387v577q-67 -88 -163.5 -133t-204.5 -45q-81 0 -160 24.5t-149.5 74.5t-124.5 118.5t-85.5 163.5t-31.5 203q0 107 31.5 202t85.5 163.5t124.5 118.5t149.5 75t160 25q109 0 206 -47t164 -138zM463 553q0 -131 80.5 -206t189.5 -75
q105 0 180.5 73.5t75.5 207.5q0 133 -75.5 205.5t-180.5 72.5q-109 0 -189.5 -74.5t-80.5 -203.5z" />
    <glyph glyph-name="r" unicode="r" horiz-adv-x="1153" 
d="M514 0h-389v727q0 23 -1 35.5t-5 30.5t-15 27t-28 9h-47v277h47h65q42 0 76.5 -2t81 -7.5t81.5 -18t67.5 -32t49.5 -51.5t17 -73q129 200 342 200q125 0 266 -69l-90 -289q-79 29 -174 29q-64 0 -123.5 -14.5t-110 -43.5t-80.5 -79t-30 -115v-541z" />
    <glyph glyph-name="s" unicode="s" horiz-adv-x="1359" 
d="M1286 971l-160 -281q-90 63 -236 106.5t-255 43.5q-127 0 -127 -60q0 -25 43 -42.5t111 -30.5t151 -28.5t166 -44t151 -69t111 -110.5t43 -162t-45 -161.5t-124.5 -110t-177 -60.5t-212.5 -20q-181 0 -360.5 46.5t-294.5 123.5l155 297q92 -75 251 -123.5t282 -48.5
q135 0 135 57q0 25 -26 42t-70 28t-100.5 20t-119.5 22t-126 30t-119.5 47t-100.5 70.5t-70 104t-26 142.5q0 91 40.5 159t112 107.5t160 58.5t193.5 19q172 0 348.5 -47t296.5 -125z" />
    <glyph glyph-name="t" unicode="t" horiz-adv-x="1101" 
d="M348 1352l240 2v-248h430l2 -275h-432v-380q0 -35 4.5 -60t19 -53.5t47.5 -43.5t84 -15q143 0 244 116l84 -284q-65 -73 -176.5 -119.5t-214.5 -46.5q-81 0 -150 12t-131.5 40.5t-105.5 72.5t-68.5 112.5t-25.5 155.5v491h-191v277h191z" />
    <glyph glyph-name="u" unicode="u" horiz-adv-x="1464" 
d="M121 457v649h389v-649q0 -86 53 -131t131 -45q90 0 160 56t70 150v619h389v-696q0 -76 18 -103.5t84 -27.5h17v-279q-79 0 -134 2t-112.5 7.5t-95.5 17t-72 29.5t-54 45.5t-30 64.5q-61 -95 -159.5 -146t-207.5 -51q-85 0 -164 31.5t-142.5 90.5t-101.5 154t-38 212z" />
    <glyph glyph-name="v" unicode="v" horiz-adv-x="1460" 
d="M934 -20h-408l-518 1126h424l297 -758l299 758h424z" />
    <glyph glyph-name="w" unicode="w" horiz-adv-x="1933" 
d="M760 -20h-318l-434 1126h410l219 -614l199 614h260l198 -610l219 610h412l-436 -1126h-318l-204 546z" />
    <glyph glyph-name="x" unicode="x" horiz-adv-x="1417" 
d="M1407 0h-498l-202 256l-201 -256h-498l457 563l-428 543h465l205 -248l202 248h465l-426 -543z" />
    <glyph glyph-name="y" unicode="y" horiz-adv-x="1449" 
d="M129 457v649h389v-649q0 -87 53 -132.5t131 -45.5q90 0 160 57t70 151v619h389v-985q0 -157 -59 -280t-164 -199.5t-243.5 -116t-303.5 -39.5q-100 0 -217.5 30.5t-212.5 77.5l57 355q71 -54 189.5 -86.5t236.5 -32.5q169 0 249.5 68.5t80.5 205.5v50
q-63 -90 -159 -137.5t-202 -47.5q-85 0 -163 31t-141.5 90t-101.5 154t-38 213z" />
    <glyph glyph-name="z" unicode="z" horiz-adv-x="1216" 
d="M1126 795l-610 -484h670v-311h-1157v311l626 484h-602v311h1073v-311z" />
    <glyph glyph-name="braceleft" unicode="{" horiz-adv-x="626" 
d="M45 766q113 -7 155 36.5t42 129.5q0 38 -10.5 125t-10.5 131q0 47 7.5 83.5t29.5 72.5t58.5 59.5t97.5 38t143 14.5l25 -166q-85 0 -115.5 -43.5t-30.5 -126.5q0 -26 4 -89t4 -95q0 -180 -98 -264q98 -84 98 -264q0 -32 -4 -95t-4 -90q0 -83 30.5 -126.5t115.5 -43.5
l-25 -166q-82 0 -142.5 14.5t-96.5 38t-58 59t-29.5 72t-7.5 83.5q0 44 9.5 132t9.5 126q0 86 -42 129.5t-155 36.5v188z" />
    <glyph glyph-name="bar" unicode="|" horiz-adv-x="327" 
d="M45 -188v1622h238v-1622h-238z" />
    <glyph glyph-name="braceright" unicode="}" horiz-adv-x="626" 
d="M582 766v-188q-113 7 -155 -36.5t-42 -129.5q0 -38 9 -126t9 -132q0 -59 -13 -103t-47.5 -83.5t-103 -60t-169.5 -20.5l-25 166q84 0 113.5 43.5t29.5 126.5q0 26 -3 88.5t-3 96.5q0 84 20.5 150t76.5 114q-97 82 -97 260q0 34 4 97.5t4 90.5q0 84 -30 127t-115 43
l25 166q101 0 169.5 -21t103 -60.5t47.5 -83.5t13 -103q0 -44 -9 -131.5t-9 -124.5q0 -87 42 -130t155 -36z" />
    <glyph glyph-name="asciitilde" unicode="~" horiz-adv-x="991" 
d="M244 498l-199 123q75 144 141.5 204t130.5 60q45 0 98 -27.5t103.5 -54.5t89.5 -27q76 0 144 109l194 -121q-141 -240 -282 -240q-46 0 -99 23.5t-101.5 47t-82.5 23.5q-78 0 -137 -120z" />
    <glyph glyph-name="exclamdown" unicode="&#xa1;" horiz-adv-x="428" 
d="M408 848q0 -81 -57.5 -137t-137.5 -56q-83 0 -138 55.5t-55 137.5q0 84 55 140t138 56q80 0 137.5 -57t57.5 -139zM334 514l78 -928h-398l78 928h242z" />
    <glyph glyph-name="cent" unicode="&#xa2;" horiz-adv-x="1198" 
d="M502 1376l270 -10v-156q182 -35 377 -200l-217 -193q-78 81 -160 123v-569q100 49 189 151l184 -223q-193 -160 -373 -197v-139l-270 8v140q-150 32 -257.5 117t-157.5 195t-50 234q0 123 50.5 233t158 195t256.5 117v174zM502 381v551q-89 -40 -136 -115t-47 -162
t47 -161.5t136 -112.5z" />
    <glyph glyph-name="sterling" unicode="&#xa3;" horiz-adv-x="1222" 
d="M1059 1440l-2 -281q-60 0 -108.5 -20.5t-80.5 -51t-60 -82.5t-44.5 -98.5t-36.5 -115.5h219l2 -246h-295q-60 -164 -151 -250h676v-295h-1123v195q162 112 254 350h-262l-2 246h340q59 218 103 313q91 196 254 275q129 61 317 61z" />
    <glyph glyph-name="yen" unicode="&#xa5;" horiz-adv-x="1619" 
d="M391 498v217h119l-502 719h463l338 -539l340 539h463l-502 -719h115v-217h-217v-113h217v-217h-217v-168h-398v168h-219v217h219v113h-219z" />
    <glyph glyph-name="dieresis" unicode="&#xa8;" horiz-adv-x="464" 
d="M10 1327q0 41 29 69.5t70 28.5q37 0 65.5 -28.5t28.5 -69.5q0 -38 -28.5 -66t-65.5 -28q-41 0 -70 28t-29 66zM262 1327q0 41 30 69.5t70 28.5q35 0 63 -29t28 -69q0 -37 -28.5 -65.5t-62.5 -28.5q-40 0 -70 28t-30 66z" />
    <glyph glyph-name="copyright" unicode="&#xa9;" horiz-adv-x="1302" 
d="M37 707q0 166 82.5 307t224 223t307.5 82t307 -82.5t222.5 -224t81.5 -307.5q0 -124 -48.5 -238t-130.5 -196t-196 -130.5t-238 -48.5q-166 0 -307 82.5t-223 224.5t-82 308zM135 705q0 -105 41 -200.5t110.5 -164.5t165 -109.5t199.5 -40.5q139 0 257 70t186.5 189
t68.5 258t-69 257t-187.5 186.5t-257.5 68.5q-138 0 -255.5 -70t-186.5 -188t-72 -256zM858 518l55 -72q-129 -104 -262 -104q-158 0 -269.5 113t-111.5 270q0 158 113 269.5t270 111.5q132 0 262 -105l-61 -67q-99 80 -203 80q-120 0 -204.5 -85.5t-84.5 -205.5
t85.5 -204.5t205.5 -84.5q96 0 205 84z" />
    <glyph glyph-name="guillemotleft" unicode="&#xab;" horiz-adv-x="940" 
d="M414 668v108l483 621v-355l-254 -321l254 -320v-354zM45 664v106l483 623v-355l-252 -321l252 -322v-352z" />
    <glyph glyph-name="registered" unicode="&#xae;" horiz-adv-x="700" 
d="M39 1200q0 126 90.5 214.5t218.5 88.5q124 0 213.5 -89.5t89.5 -213.5q0 -127 -88 -218t-215 -91q-130 0 -219.5 90.5t-89.5 218.5zM92 1200q0 -103 75.5 -179.5t180.5 -76.5q103 0 177.5 77t74.5 179q0 103 -74.5 178.5t-177.5 75.5q-106 0 -181 -75t-75 -179zM358 1165
l111 -133h-63l-105 129h-20v-129h-50v348h107q53 -2 87 -31.5t34 -76.5q0 -40 -28.5 -69.5t-72.5 -37.5zM281 1341v-135h36q95 0 95 66q0 69 -93 69h-38z" />
    <glyph glyph-name="degree" unicode="&#xb0;" horiz-adv-x="716" 
d="M367 793q-102 0 -176 49t-108 123t-34 161q0 86 34 160.5t108 124t176 49.5q149 0 233 -98.5t84 -233.5q0 -64 -20.5 -123.5t-58.5 -107t-100 -76t-138 -28.5zM367 1284q-56 0 -87.5 -47t-31.5 -111q0 -65 31 -111t88 -46q55 0 85.5 46t30.5 111q0 64 -30.5 111t-85.5 47
z" />
    <glyph glyph-name="plusminus" unicode="&#xb1;" horiz-adv-x="1026" 
d="M373 1278h280v-303h326v-250h-326v-291h-280v291h-328v250h328v303zM49 0v250h926v-250h-926z" />
    <glyph glyph-name="acute" unicode="&#xb4;" horiz-adv-x="368" 
d="M6 1290l248 250l111 -127l-291 -196z" />
    <glyph glyph-name="periodcentered" unicode="&#xb7;" horiz-adv-x="477" 
d="M403 723q0 -70 -48 -117t-117 -47q-71 0 -118.5 47t-47.5 117q0 71 48 119.5t118 48.5q69 0 117 -49t48 -119z" />
    <glyph glyph-name="cedilla" unicode="&#xb8;" horiz-adv-x="344" 
d="M162 63l129 -38l-58 -121q95 -39 95 -131q0 -57 -39.5 -99.5t-104.5 -42.5q-44 0 -89 16t-68 32l-23 16l59 104q35 -57 89 -57q20 0 34 10t17 25q8 30 -25 59t-96 29z" />
    <glyph glyph-name="guillemotright" unicode="&#xbb;" horiz-adv-x="980" 
d="M45 1393l481 -623v-106l-481 -623v354l252 322l-252 321v355zM449 1393l483 -623v-106l-483 -621v352l253 322l-253 321v355z" />
    <glyph glyph-name="questiondown" unicode="&#xbf;" horiz-adv-x="1103" 
d="M827 950q0 -81 -57 -136.5t-137 -55.5q-83 0 -138 55t-55 137q0 83 55 140t138 57q80 0 137 -57.5t57 -139.5zM412 68q0 -54 32 -82.5t88 -28.5q75 0 163.5 52.5t156.5 150.5l209 -244q-84 -119 -234 -185.5t-313 -66.5q-94 0 -177 24t-149 70.5t-104.5 123t-38.5 173.5
q0 62 17 113t46 87t66.5 65.5t79 52.5t83 44t79 43.5t66.5 48t46 60.5t17 78h203q0 -89 -18 -160t-47.5 -114.5t-65.5 -77.5t-72 -58.5t-66 -47t-48.5 -53t-18.5 -68.5z" />
    <glyph glyph-name="Agrave" unicode="&#xc0;" 
d="M692 1729l111 126l248 -249l-68 -76zM8 0l662 1454h405l660 -1454h-422l-90 197h-703l-90 -197h-422zM670 524h403l-201 445z" />
    <glyph glyph-name="Aacute" unicode="&#xc1;" 
d="M692 1618l248 250l111 -127l-291 -197zM8 0l662 1454h405l660 -1454h-422l-90 197h-703l-90 -197h-422zM670 524h403l-201 445z" />
    <glyph glyph-name="Acircumflex" unicode="&#xc2;" 
d="M793 1567h-142l158 245h125l158 -245h-144l-78 135zM8 0l662 1454h405l660 -1454h-422l-90 197h-703l-90 -197h-422zM670 524h403l-201 445z" />
    <glyph glyph-name="Atilde" unicode="&#xc3;" 
d="M682 1597l-61 105q29 29 48 45t54.5 32.5t71.5 16.5q30 0 55 -9t38 -19.5t29.5 -19.5t32.5 -9q39 0 115 63l57 -108q-32 -30 -79.5 -55t-88.5 -25q-34 0 -61 9t-41 19.5t-29.5 19.5t-29.5 9q-34 0 -111 -74zM8 0l662 1454h405l660 -1454h-422l-90 197h-703l-90 -197h-422
zM670 524h403l-201 445z" />
    <glyph glyph-name="Adieresis" unicode="&#xc4;" 
d="M651 1655q0 41 28 69.5t69 28.5q38 0 67 -29t29 -69q0 -38 -29.5 -66t-66.5 -28q-41 0 -69 27.5t-28 66.5zM901 1655q0 41 30 69.5t70 28.5q35 0 63 -29t28 -69q0 -37 -28 -65.5t-63 -28.5q-40 0 -70 28t-30 66zM8 0l662 1454h405l660 -1454h-422l-90 197h-703l-90 -197
h-422zM670 524h403l-201 445z" />
    <glyph glyph-name="Aring" unicode="&#xc5;" 
d="M874 1501q-95 0 -148.5 58.5t-53.5 136.5q0 79 53 136.5t149 57.5q93 0 146 -58t53 -136q0 -79 -53 -137t-146 -58zM874 1774q-36 0 -56.5 -23t-20.5 -53q0 -31 20.5 -53.5t56.5 -22.5q34 0 53 22.5t19 53.5q0 30 -19.5 53t-52.5 23zM8 0l662 1454h405l660 -1454h-422
l-90 197h-703l-90 -197h-422zM670 524h403l-201 445z" />
    <glyph glyph-name="AE" unicode="&#xc6;" horiz-adv-x="2482" 
d="M8 0l1061 1434h1356v-328h-869v-225h734v-328h-734v-225h881v-328h-1278v197h-573l-152 -197h-426zM840 524h319v416z" />
    <glyph glyph-name="Ccedilla" unicode="&#xc7;" horiz-adv-x="1607" 
d="M70 717q0 146 47.5 272.5t126.5 215.5t181.5 153t213.5 94.5t221 30.5q217 0 391.5 -82.5t290.5 -233.5l-282 -262q-64 83 -171 142t-212 59q-96 0 -174 -33t-126.5 -88.5t-74 -124t-25.5 -143.5q0 -74 25.5 -142t74 -123.5t126.5 -88.5t174 -33q71 0 131 17t106.5 50
t78 64.5t64.5 75.5l285 -263q-116 -146 -281 -231t-368 -92l-23 -47q95 -39 95 -131q0 -57 -39.5 -99.5t-104.5 -42.5q-44 0 -89 16t-68 32l-23 16l59 104q35 -57 88 -57q20 0 34.5 10t17.5 25q8 30 -25 59t-96 29l37 92q-103 13 -200.5 51t-186 104t-155 152t-105.5 203
t-39 250z" />
    <glyph glyph-name="Egrave" unicode="&#xc8;" horiz-adv-x="1456" 
d="M547 1729l112 126l248 -249l-67 -76zM131 0v1434h1266v-328h-869v-225h734v-328h-734v-225h881v-328h-1278z" />
    <glyph glyph-name="Eacute" unicode="&#xc9;" horiz-adv-x="1456" 
d="M547 1618l250 250l110 -127l-293 -197zM131 0v1434h1266v-328h-869v-225h734v-328h-734v-225h881v-328h-1278z" />
    <glyph glyph-name="Ecircumflex" unicode="&#xca;" horiz-adv-x="1456" 
d="M649 1567h-141l156 245h127l157 -245h-143l-78 135zM131 0v1434h1266v-328h-869v-225h734v-328h-734v-225h881v-328h-1278z" />
    <glyph glyph-name="Edieresis" unicode="&#xcb;" horiz-adv-x="1456" 
d="M506 1655q0 41 28.5 69.5t69.5 28.5q37 0 65.5 -28.5t28.5 -69.5q0 -38 -28.5 -66t-65.5 -28q-41 0 -69.5 27.5t-28.5 66.5zM758 1655q0 41 30 69.5t70 28.5q35 0 62.5 -29t27.5 -69q0 -38 -28 -66t-62 -28q-40 0 -70 28t-30 66zM131 0v1434h1266v-328h-869v-225h734
v-328h-734v-225h881v-328h-1278z" />
    <glyph glyph-name="Igrave" unicode="&#xcc;" horiz-adv-x="661" 
d="M150 1729l112 126l248 -249l-68 -76zM131 0v1434h397v-1434h-397z" />
    <glyph glyph-name="Iacute" unicode="&#xcd;" horiz-adv-x="661" 
d="M150 1618l249 250l111 -127l-293 -197zM131 0v1434h397v-1434h-397z" />
    <glyph glyph-name="Icircumflex" unicode="&#xce;" horiz-adv-x="661" 
d="M252 1567h-143l157 245h127l158 -245h-143l-78 135zM131 0v1434h397v-1434h-397z" />
    <glyph glyph-name="Idieresis" unicode="&#xcf;" horiz-adv-x="661" 
d="M109 1655q0 41 28.5 69.5t69.5 28.5q37 0 65.5 -28.5t28.5 -69.5q0 -38 -28.5 -66t-65.5 -28q-41 0 -69.5 27.5t-28.5 66.5zM360 1655q0 41 30.5 69.5t70.5 28.5q35 0 62.5 -29t27.5 -69q0 -38 -28 -66t-62 -28q-40 0 -70.5 28t-30.5 66zM131 0v1434h397v-1434h-397z" />
    <glyph glyph-name="Eth" unicode="&#xd0;" horiz-adv-x="1744" 
d="M131 1434h825q173 -2 313 -64t227 -164t133 -227.5t46 -261.5t-46 -261.5t-133 -227.5t-227 -164t-313 -64h-825v651h-102v250h102v533zM944 1106h-416v-205h557v-250h-557v-321h416q102 0 176.5 57.5t109 143.5t34.5 186q0 101 -34.5 187.5t-109 144t-176.5 57.5z" />
    <glyph glyph-name="Ntilde" unicode="&#xd1;" horiz-adv-x="1847" 
d="M733 1597l-61 105q31 30 49.5 45.5t54 32t70.5 16.5q30 0 55 -9t38 -19.5t29.5 -19.5t32.5 -9q41 0 117 63l56 -108q-32 -30 -79.5 -55t-88.5 -25q-34 0 -61.5 9t-41.5 19.5t-29.5 19.5t-29.5 9q-34 0 -111 -74zM131 0v1434h397l791 -928v928h397v-1434h-397l-791 928
v-928h-397z" />
    <glyph glyph-name="Ograve" unicode="&#xd2;" horiz-adv-x="1775" 
d="M709 1729l110 126l248 -249l-68 -76zM1700 717q0 -149 -48.5 -277t-129.5 -216.5t-187 -151t-219.5 -92t-228.5 -29.5t-228.5 29.5t-219.5 92t-187 151t-129.5 216.5t-48.5 277t48.5 277t129.5 216.5t187 151t219.5 92t228.5 29.5t228.5 -29.5t219.5 -92t187 -151
t129.5 -216.5t48.5 -277zM1294 717q0 93 -37 169.5t-96.5 123t-130.5 71.5t-143 25q-73 0 -144 -25t-131 -71.5t-97.5 -123t-37.5 -169.5t37.5 -169.5t97.5 -123t131 -71.5t144 -25q72 0 143 25t130.5 71.5t96.5 123t37 169.5z" />
    <glyph glyph-name="Oacute" unicode="&#xd3;" horiz-adv-x="1775" 
d="M709 1618l247 250l111 -127l-291 -197zM1700 717q0 -149 -48.5 -277t-129.5 -216.5t-187 -151t-219.5 -92t-228.5 -29.5t-228.5 29.5t-219.5 92t-187 151t-129.5 216.5t-48.5 277t48.5 277t129.5 216.5t187 151t219.5 92t228.5 29.5t228.5 -29.5t219.5 -92t187 -151
t129.5 -216.5t48.5 -277zM1294 717q0 93 -37 169.5t-96.5 123t-130.5 71.5t-143 25q-73 0 -144 -25t-131 -71.5t-97.5 -123t-37.5 -169.5t37.5 -169.5t97.5 -123t131 -71.5t144 -25q72 0 143 25t130.5 71.5t96.5 123t37 169.5z" />
    <glyph glyph-name="Ocircumflex" unicode="&#xd4;" horiz-adv-x="1775" 
d="M809 1567h-141l157 245h125l158 -245h-143l-78 135zM1700 717q0 -149 -48.5 -277t-129.5 -216.5t-187 -151t-219.5 -92t-228.5 -29.5t-228.5 29.5t-219.5 92t-187 151t-129.5 216.5t-48.5 277t48.5 277t129.5 216.5t187 151t219.5 92t228.5 29.5t228.5 -29.5t219.5 -92
t187 -151t129.5 -216.5t48.5 -277zM1294 717q0 93 -37 169.5t-96.5 123t-130.5 71.5t-143 25q-73 0 -144 -25t-131 -71.5t-97.5 -123t-37.5 -169.5t37.5 -169.5t97.5 -123t131 -71.5t144 -25q72 0 143 25t130.5 71.5t96.5 123t37 169.5z" />
    <glyph glyph-name="Otilde" unicode="&#xd5;" horiz-adv-x="1775" 
d="M698 1597l-61 105q29 29 48 45t54.5 32.5t71.5 16.5q30 0 55 -9t38.5 -19.5t30 -19.5t32.5 -9q38 0 114 63l58 -108q-32 -30 -79.5 -55t-88.5 -25q-34 0 -61.5 9t-41.5 19.5t-29.5 19.5t-29.5 9q-37 0 -111 -74zM1700 717q0 -149 -48.5 -277t-129.5 -216.5t-187 -151
t-219.5 -92t-228.5 -29.5t-228.5 29.5t-219.5 92t-187 151t-129.5 216.5t-48.5 277t48.5 277t129.5 216.5t187 151t219.5 92t228.5 29.5t228.5 -29.5t219.5 -92t187 -151t129.5 -216.5t48.5 -277zM1294 717q0 93 -37 169.5t-96.5 123t-130.5 71.5t-143 25q-73 0 -144 -25
t-131 -71.5t-97.5 -123t-37.5 -169.5t37.5 -169.5t97.5 -123t131 -71.5t144 -25q72 0 143 25t130.5 71.5t96.5 123t37 169.5z" />
    <glyph glyph-name="Odieresis" unicode="&#xd6;" horiz-adv-x="1775" 
d="M668 1655q0 41 27.5 69.5t68.5 28.5q38 0 67 -29t29 -69q0 -38 -29.5 -66t-66.5 -28q-41 0 -68.5 27.5t-27.5 66.5zM918 1655q0 41 30 69.5t70 28.5q35 0 62.5 -29t27.5 -69q0 -38 -28 -66t-62 -28q-40 0 -70 28t-30 66zM1700 717q0 -149 -48.5 -277t-129.5 -216.5
t-187 -151t-219.5 -92t-228.5 -29.5t-228.5 29.5t-219.5 92t-187 151t-129.5 216.5t-48.5 277t48.5 277t129.5 216.5t187 151t219.5 92t228.5 29.5t228.5 -29.5t219.5 -92t187 -151t129.5 -216.5t48.5 -277zM1294 717q0 93 -37 169.5t-96.5 123t-130.5 71.5t-143 25
q-73 0 -144 -25t-131 -71.5t-97.5 -123t-37.5 -169.5t37.5 -169.5t97.5 -123t131 -71.5t144 -25q72 0 143 25t130.5 71.5t96.5 123t37 169.5z" />
    <glyph glyph-name="multiply" unicode="&#xd7;" horiz-adv-x="954" 
d="M49 924l199 178l227 -205l238 213l194 -182l-233 -211l231 -209l-205 -174l-225 205l-235 -213l-195 182l231 209z" />
    <glyph glyph-name="Oslash" unicode="&#xd8;" horiz-adv-x="1775" 
d="M1700 717q0 -149 -48.5 -277t-129.5 -216.5t-187 -151t-219.5 -92t-228.5 -29.5q-169 0 -318 57l-6 -8h-270l76 119q-137 101 -216 252t-79 346q0 149 48.5 277t129.5 216.5t187 151t219.5 92t228.5 29.5q168 0 317 -60l6 11h273l-76 -119q135 -101 214 -252t79 -346z
M582 453l411 639q-52 14 -106 14q-73 0 -144 -25t-131 -71.5t-97.5 -123t-37.5 -169.5q0 -156 105 -264zM1294 717q0 159 -102 264l-410 -641q52 -12 105 -12q72 0 143 25t130.5 71.5t96.5 123t37 169.5z" />
    <glyph glyph-name="Ugrave" unicode="&#xd9;" horiz-adv-x="1714" 
d="M676 1729l112 126l248 -249l-67 -76zM131 596v838h397v-838q0 -130 97.5 -203.5t230.5 -73.5t230.5 73.5t97.5 203.5v838h397v-838q0 -126 -40.5 -233t-110.5 -182.5t-162.5 -129t-197 -79t-214.5 -25.5t-214.5 25.5t-197 79t-162.5 129t-110.5 182.5t-40.5 233z" />
    <glyph glyph-name="Uacute" unicode="&#xda;" horiz-adv-x="1714" 
d="M676 1618l250 250l110 -127l-293 -197zM131 596v838h397v-838q0 -130 97.5 -203.5t230.5 -73.5t230.5 73.5t97.5 203.5v838h397v-838q0 -126 -40.5 -233t-110.5 -182.5t-162.5 -129t-197 -79t-214.5 -25.5t-214.5 25.5t-197 79t-162.5 129t-110.5 182.5t-40.5 233z" />
    <glyph glyph-name="Ucircumflex" unicode="&#xdb;" horiz-adv-x="1714" 
d="M778 1567h-143l158 245h127l157 -245h-143l-78 135zM131 596v838h397v-838q0 -130 97.5 -203.5t230.5 -73.5t230.5 73.5t97.5 203.5v838h397v-838q0 -126 -40.5 -233t-110.5 -182.5t-162.5 -129t-197 -79t-214.5 -25.5t-214.5 25.5t-197 79t-162.5 129t-110.5 182.5
t-40.5 233z" />
    <glyph glyph-name="Udieresis" unicode="&#xdc;" horiz-adv-x="1714" 
d="M635 1655q0 41 28.5 69.5t69.5 28.5q37 0 65.5 -28.5t28.5 -69.5q0 -38 -28.5 -66t-65.5 -28q-41 0 -69.5 27.5t-28.5 66.5zM887 1655q0 41 30 69.5t70 28.5q35 0 62.5 -29t27.5 -69q0 -38 -28 -66t-62 -28q-40 0 -70 28t-30 66zM131 596v838h397v-838
q0 -130 97.5 -203.5t230.5 -73.5t230.5 73.5t97.5 203.5v838h397v-838q0 -126 -40.5 -233t-110.5 -182.5t-162.5 -129t-197 -79t-214.5 -25.5t-214.5 25.5t-197 79t-162.5 129t-110.5 182.5t-40.5 233z" />
    <glyph glyph-name="Yacute" unicode="&#xdd;" horiz-adv-x="1622" 
d="M631 1618l248 250l112 -127l-293 -197zM8 1434h463l338 -539l340 539h463l-602 -863v-571h-400v571z" />
    <glyph glyph-name="Thorn" unicode="&#xde;" horiz-adv-x="1456" 
d="M131 0v1434h397v-246h381q115 0 207.5 -40t149.5 -107t87.5 -150.5t30.5 -173.5t-30.5 -173.5t-87.5 -150.5t-149.5 -107t-207.5 -40h-381v-246h-397zM528 573h338q64 0 99.5 42.5t35.5 101.5q0 58 -35.5 100.5t-99.5 42.5h-338v-287z" />
    <glyph glyph-name="germandbls" unicode="&#xdf;" horiz-adv-x="1488" 
d="M492 0h-398v1004q0 97 31.5 178.5t85 138t125.5 96t152 58t165 18.5q104 0 201 -28.5t175 -81.5t124.5 -135.5t46.5 -182.5q0 -55 -17 -99t-41.5 -70t-49 -48t-41.5 -44.5t-17 -47.5q0 -19 23.5 -35.5t61 -32.5t83 -34.5t91 -46.5t83 -63t61 -89.5t23.5 -120.5
q0 -93 -38 -168t-102.5 -121.5t-144 -71t-167.5 -24.5q-132 0 -248.5 53.5t-179.5 151.5l186 211q26 -30 72.5 -49t91.5 -19q41 0 66.5 18.5t25.5 57.5q0 42 -39 75.5t-94.5 58.5t-111.5 52.5t-95 71.5t-39 102q0 48 18.5 87t45 65.5t53 50.5t45 55.5t18.5 67.5
q0 76 -46 122t-109 46q-72 0 -125.5 -64t-53.5 -184z" />
    <glyph glyph-name="agrave" unicode="&#xe0;" horiz-adv-x="1372" 
d="M506 1401l110 127l250 -250l-69 -76zM215 715l-72 293q89 56 237.5 92.5t299.5 36.5q88 0 165.5 -13.5t149 -45t122.5 -79t81 -121t29 -165.5l-2 -303q0 -76 17.5 -103.5t84.5 -27.5h14v-279q-82 0 -138 2t-114.5 8.5t-96.5 19t-71.5 32.5t-52 50t-26.5 70
q-59 -92 -172 -141.5t-271 -50.5q-168 -1 -259 86.5t-91 214.5q0 75 33.5 146.5t94.5 130t160.5 92t219.5 28.5l145 -4q130 -9 134 57v7q0 77 -154 77q-114 0 -262.5 -37.5t-204.5 -72.5zM836 455q-53 -35 -136 -35h-131q-48 1 -75 -20t-27 -50t27.5 -48.5t78.5 -18.5
q35 1 71 7.5t82 22t76.5 50t33.5 83.5v9z" />
    <glyph glyph-name="aacute" unicode="&#xe1;" horiz-adv-x="1372" 
d="M506 1290l248 250l112 -127l-293 -196zM215 715l-72 293q89 56 237.5 92.5t299.5 36.5q88 0 165.5 -13.5t149 -45t122.5 -79t81 -121t29 -165.5l-2 -303q0 -76 17.5 -103.5t84.5 -27.5h14v-279q-82 0 -138 2t-114.5 8.5t-96.5 19t-71.5 32.5t-52 50t-26.5 70
q-59 -92 -172 -141.5t-271 -50.5q-168 -1 -259 86.5t-91 214.5q0 75 33.5 146.5t94.5 130t160.5 92t219.5 28.5l145 -4q130 -9 134 57v7q0 77 -154 77q-114 0 -262.5 -37.5t-204.5 -72.5zM836 455q-53 -35 -136 -35h-131q-48 1 -75 -20t-27 -50t27.5 -48.5t78.5 -18.5
q35 1 71 7.5t82 22t76.5 50t33.5 83.5v9z" />
    <glyph glyph-name="acircumflex" unicode="&#xe2;" horiz-adv-x="1372" 
d="M608 1239h-143l158 246h127l155 -246h-141l-78 135zM215 715l-72 293q89 56 237.5 92.5t299.5 36.5q88 0 165.5 -13.5t149 -45t122.5 -79t81 -121t29 -165.5l-2 -303q0 -76 17.5 -103.5t84.5 -27.5h14v-279q-82 0 -138 2t-114.5 8.5t-96.5 19t-71.5 32.5t-52 50t-26.5 70
q-59 -92 -172 -141.5t-271 -50.5q-168 -1 -259 86.5t-91 214.5q0 75 33.5 146.5t94.5 130t160.5 92t219.5 28.5l145 -4q130 -9 134 57v7q0 77 -154 77q-114 0 -262.5 -37.5t-204.5 -72.5zM836 455q-53 -35 -136 -35h-131q-48 1 -75 -20t-27 -50t27.5 -48.5t78.5 -18.5
q35 1 71 7.5t82 22t76.5 50t33.5 83.5v9z" />
    <glyph glyph-name="atilde" unicode="&#xe3;" horiz-adv-x="1372" 
d="M496 1270l-62 104q31 30 49.5 45.5t54 32t70.5 16.5q30 0 55 -9t38.5 -19.5t30 -19.5t32.5 -9q39 0 117 64l55 -109q-32 -30 -79.5 -55t-88.5 -25q-34 0 -61.5 9t-41.5 19.5t-29.5 19.5t-29.5 9q-34 0 -110 -73zM215 715l-72 293q89 56 237.5 92.5t299.5 36.5
q88 0 165.5 -13.5t149 -45t122.5 -79t81 -121t29 -165.5l-2 -303q0 -76 17.5 -103.5t84.5 -27.5h14v-279q-82 0 -138 2t-114.5 8.5t-96.5 19t-71.5 32.5t-52 50t-26.5 70q-59 -92 -172 -141.5t-271 -50.5q-168 -1 -259 86.5t-91 214.5q0 75 33.5 146.5t94.5 130t160.5 92
t219.5 28.5l145 -4q130 -9 134 57v7q0 77 -154 77q-114 0 -262.5 -37.5t-204.5 -72.5zM836 455q-53 -35 -136 -35h-131q-48 1 -75 -20t-27 -50t27.5 -48.5t78.5 -18.5q35 1 71 7.5t82 22t76.5 50t33.5 83.5v9z" />
    <glyph glyph-name="adieresis" unicode="&#xe4;" horiz-adv-x="1372" 
d="M465 1327q0 41 28 69.5t68 28.5q38 0 67 -29t29 -69q0 -38 -29.5 -66t-66.5 -28q-40 0 -68 28t-28 66zM715 1327q0 41 30 69.5t70 28.5q35 0 63.5 -29t28.5 -69q0 -37 -28.5 -65.5t-63.5 -28.5q-40 0 -70 28t-30 66zM215 715l-72 293q89 56 237.5 92.5t299.5 36.5
q88 0 165.5 -13.5t149 -45t122.5 -79t81 -121t29 -165.5l-2 -303q0 -76 17.5 -103.5t84.5 -27.5h14v-279q-82 0 -138 2t-114.5 8.5t-96.5 19t-71.5 32.5t-52 50t-26.5 70q-59 -92 -172 -141.5t-271 -50.5q-168 -1 -259 86.5t-91 214.5q0 75 33.5 146.5t94.5 130t160.5 92
t219.5 28.5l145 -4q130 -9 134 57v7q0 77 -154 77q-114 0 -262.5 -37.5t-204.5 -72.5zM836 455q-53 -35 -136 -35h-131q-48 1 -75 -20t-27 -50t27.5 -48.5t78.5 -18.5q35 1 71 7.5t82 22t76.5 50t33.5 83.5v9z" />
    <glyph glyph-name="aring" unicode="&#xe5;" horiz-adv-x="1372" 
d="M688 1190q-96 0 -149.5 57.5t-53.5 136.5q0 78 54 136.5t149 58.5q93 0 145 -58.5t52 -136.5q0 -79 -52 -136.5t-145 -57.5zM686 1460q-36 0 -56 -23t-20 -53q0 -31 20 -53t56 -22q35 0 54.5 22t19.5 53q0 30 -19.5 53t-54.5 23zM215 715l-72 293q89 56 237.5 92.5
t299.5 36.5q88 0 165.5 -13.5t149 -45t122.5 -79t81 -121t29 -165.5l-2 -303q0 -76 17.5 -103.5t84.5 -27.5h14v-279q-82 0 -138 2t-114.5 8.5t-96.5 19t-71.5 32.5t-52 50t-26.5 70q-59 -92 -172 -141.5t-271 -50.5q-168 -1 -259 86.5t-91 214.5q0 75 33.5 146.5t94.5 130
t160.5 92t219.5 28.5l145 -4q130 -9 134 57v7q0 77 -154 77q-114 0 -262.5 -37.5t-204.5 -72.5zM836 455q-53 -35 -136 -35h-131q-48 1 -75 -20t-27 -50t27.5 -48.5t78.5 -18.5q35 1 71 7.5t82 22t76.5 50t33.5 83.5v9z" />
    <glyph glyph-name="ae" unicode="&#xe6;" horiz-adv-x="2095" 
d="M215 715l-72 293q91 56 238.5 92.5t298.5 36.5q259 0 403 -111q172 119 377 119q116 0 220 -41t187.5 -118.5t132.5 -202t50 -279.5l-819 2q22 -89 84 -146t158 -57q168 0 268 131l256 -227q-95 -118 -233.5 -185t-305.5 -67q-112 0 -220.5 37.5t-203 117.5t-145.5 189
q-34 -147 -161 -227.5t-329 -81.5q-168 -1 -259 86.5t-91 214.5q0 75 33.5 146.5t94.5 130t160.5 92t219.5 28.5l145 -4q127 -9 134 57v7q0 77 -154 77q-114 0 -262.5 -37.5t-204.5 -72.5zM1253 731h424q-67 141 -198 141q-79 0 -137 -38.5t-89 -102.5zM836 455
q-53 -35 -136 -35h-131q-48 1 -75 -20t-27 -50t27.5 -48.5t78.5 -18.5q35 1 71 7.5t82 22t76.5 50t33.5 83.5v9z" />
    <glyph glyph-name="ccedilla" unicode="&#xe7;" horiz-adv-x="1282" 
d="M70 551q0 113 37.5 211t99.5 167t143 118.5t169 73.5t175 24q169 0 306.5 -64.5t228.5 -181.5l-273 -242q-50 64 -107.5 95.5t-141.5 31.5q-120 0 -187 -70t-67 -165t67 -164.5t187 -69.5q89 0 144.5 32.5t104.5 98.5l275 -239q-91 -111 -218 -177t-282 -73l-22 -53
q45 -19 68.5 -55t23.5 -76q0 -57 -39.5 -99.5t-102.5 -42.5q-44 0 -89 16t-68 32l-23 16l60 104q35 -57 88 -57q20 0 34 10t17 25q7 30 -26 59t-97 29l41 98q-79 12 -154.5 42.5t-143 81.5t-118 117.5t-80.5 156t-30 190.5z" />
    <glyph glyph-name="egrave" unicode="&#xe8;" horiz-adv-x="1329" 
d="M483 1401l113 127l248 -250l-68 -76zM70 551q0 113 37.5 211t99.5 167t143 118.5t169 73.5t175 24q116 0 220 -41t187 -118.5t132 -202t49 -279.5l-817 2q20 -89 82 -146t160 -57q168 0 268 131l256 -227q-95 -118 -234 -185t-307 -67q-87 0 -174 24t-167.5 74
t-142.5 119t-99 167.5t-37 211.5zM487 731h424q-67 141 -200 141q-78 0 -135.5 -38.5t-88.5 -102.5z" />
    <glyph glyph-name="eacute" unicode="&#xe9;" horiz-adv-x="1329" 
d="M483 1290l250 250l111 -127l-293 -196zM70 551q0 113 37.5 211t99.5 167t143 118.5t169 73.5t175 24q116 0 220 -41t187 -118.5t132 -202t49 -279.5l-817 2q20 -89 82 -146t160 -57q168 0 268 131l256 -227q-95 -118 -234 -185t-307 -67q-87 0 -174 24t-167.5 74
t-142.5 119t-99 167.5t-37 211.5zM487 731h424q-67 141 -200 141q-78 0 -135.5 -38.5t-88.5 -102.5z" />
    <glyph glyph-name="ecircumflex" unicode="&#xea;" horiz-adv-x="1329" 
d="M586 1239h-142l156 246h127l158 -246h-144l-77 135zM70 551q0 113 37.5 211t99.5 167t143 118.5t169 73.5t175 24q116 0 220 -41t187 -118.5t132 -202t49 -279.5l-817 2q20 -89 82 -146t160 -57q168 0 268 131l256 -227q-95 -118 -234 -185t-307 -67q-87 0 -174 24
t-167.5 74t-142.5 119t-99 167.5t-37 211.5zM487 731h424q-67 141 -200 141q-78 0 -135.5 -38.5t-88.5 -102.5z" />
    <glyph glyph-name="edieresis" unicode="&#xeb;" horiz-adv-x="1329" 
d="M442 1327q0 41 29 69.5t70 28.5q37 0 65.5 -28.5t28.5 -69.5q0 -38 -28.5 -66t-65.5 -28q-41 0 -70 28t-29 66zM694 1327q0 41 30.5 69.5t70.5 28.5q35 0 62.5 -29t27.5 -69q0 -38 -28 -66t-62 -28q-40 0 -70.5 28t-30.5 66zM70 551q0 113 37.5 211t99.5 167t143 118.5
t169 73.5t175 24q116 0 220 -41t187 -118.5t132 -202t49 -279.5l-817 2q20 -89 82 -146t160 -57q168 0 268 131l256 -227q-95 -118 -234 -185t-307 -67q-87 0 -174 24t-167.5 74t-142.5 119t-99 167.5t-37 211.5zM487 731h424q-67 141 -200 141q-78 0 -135.5 -38.5
t-88.5 -102.5z" />
    <glyph glyph-name="igrave" unicode="&#xec;" horiz-adv-x="643" 
d="M141 1401l111 127l250 -250l-68 -76zM516 0h-389v1106h389v-1106z" />
    <glyph glyph-name="iacute" unicode="&#xed;" horiz-adv-x="643" 
d="M141 1290l248 250l113 -127l-293 -196zM516 0h-389v1106h389v-1106z" />
    <glyph glyph-name="icircumflex" unicode="&#xee;" horiz-adv-x="643" 
d="M244 1239h-144l158 246h127l156 -246h-142l-77 135zM516 0h-389v1106h389v-1106z" />
    <glyph glyph-name="idieresis" unicode="&#xef;" horiz-adv-x="643" 
d="M100 1327q0 41 28.5 69.5t68.5 28.5q39 0 67.5 -28.5t28.5 -69.5q0 -38 -29 -66t-67 -28q-40 0 -68.5 28t-28.5 66zM352 1327q0 40 30 69t69 29q36 0 64 -29t28 -69q0 -38 -28 -66t-64 -28q-39 0 -69 28t-30 66zM516 0h-389v1106h389v-1106z" />
    <glyph glyph-name="ntilde" unicode="&#xf1;" horiz-adv-x="1519" 
d="M569 1270l-61 104q32 31 49.5 45.5t53 31.5t71.5 17q30 0 55 -9t38.5 -19.5t30 -19.5t32.5 -9q36 0 114 64l58 -109q-32 -30 -79.5 -55t-88.5 -25q-34 0 -61.5 9t-41.5 19.5t-29.5 19.5t-29.5 9q-35 0 -111 -73zM514 0h-389v727q0 23 -1 35.5t-5 30.5t-15 27t-28 9h-47
v277h47h67q50 0 90 -2.5t94 -12t90.5 -26.5t64.5 -49.5t32 -77.5q60 85 153 137.5t218 52.5q242 0 356.5 -118t114.5 -359v-243q0 -72 24.5 -102t92.5 -30h14l2 -276q-14 0 -50.5 -1t-58.5 -1q-44 0 -80 2t-80.5 8t-78.5 17t-68 31t-56 47t-36 67t-14 90v297
q0 148 -51.5 216.5t-155.5 68.5q-100 0 -172.5 -86.5t-71.5 -229.5h-2v-526z" />
    <glyph glyph-name="ograve" unicode="&#xf2;" horiz-adv-x="1429" 
d="M535 1401l110 127l250 -250l-70 -76zM1360 557q0 -115 -38.5 -213.5t-103 -166.5t-148.5 -116.5t-174 -71t-181 -22.5t-181 22.5t-173.5 71t-147.5 116.5t-102.5 166.5t-38.5 213.5q0 114 38.5 212t102.5 166t147.5 116.5t173.5 71t181 22.5t181 -22.5t174 -71
t148.5 -116.5t103 -166t38.5 -212zM969 557q0 106 -78 166.5t-176 60.5t-176 -60.5t-78 -166.5q0 -73 40 -127t96 -78t118 -24t118 24t96 78t40 127z" />
    <glyph glyph-name="oacute" unicode="&#xf3;" horiz-adv-x="1429" 
d="M535 1290l247 250l113 -127l-293 -196zM1360 557q0 -115 -38.5 -213.5t-103 -166.5t-148.5 -116.5t-174 -71t-181 -22.5t-181 22.5t-173.5 71t-147.5 116.5t-102.5 166.5t-38.5 213.5q0 114 38.5 212t102.5 166t147.5 116.5t173.5 71t181 22.5t181 -22.5t174 -71
t148.5 -116.5t103 -166t38.5 -212zM969 557q0 106 -78 166.5t-176 60.5t-176 -60.5t-78 -166.5q0 -73 40 -127t96 -78t118 -24t118 24t96 78t40 127z" />
    <glyph glyph-name="ocircumflex" unicode="&#xf4;" horiz-adv-x="1429" 
d="M637 1239h-143l157 246h125l158 -246h-141l-78 135zM1360 557q0 -115 -38.5 -213.5t-103 -166.5t-148.5 -116.5t-174 -71t-181 -22.5t-181 22.5t-173.5 71t-147.5 116.5t-102.5 166.5t-38.5 213.5q0 114 38.5 212t102.5 166t147.5 116.5t173.5 71t181 22.5t181 -22.5
t174 -71t148.5 -116.5t103 -166t38.5 -212zM969 557q0 106 -78 166.5t-176 60.5t-176 -60.5t-78 -166.5q0 -73 40 -127t96 -78t118 -24t118 24t96 78t40 127z" />
    <glyph glyph-name="otilde" unicode="&#xf5;" horiz-adv-x="1429" 
d="M524 1270l-61 104q31 30 49.5 45.5t54 32t70.5 16.5q30 0 55 -9t38.5 -19.5t30 -19.5t32.5 -9q38 0 116 64l56 -109q-32 -30 -79.5 -55t-88.5 -25q-34 0 -61.5 9t-41.5 19.5t-29.5 19.5t-29.5 9q-35 0 -111 -73zM1360 557q0 -115 -38.5 -213.5t-103 -166.5t-148.5 -116.5
t-174 -71t-181 -22.5t-181 22.5t-173.5 71t-147.5 116.5t-102.5 166.5t-38.5 213.5q0 114 38.5 212t102.5 166t147.5 116.5t173.5 71t181 22.5t181 -22.5t174 -71t148.5 -116.5t103 -166t38.5 -212zM969 557q0 106 -78 166.5t-176 60.5t-176 -60.5t-78 -166.5q0 -73 40 -127
t96 -78t118 -24t118 24t96 78t40 127z" />
    <glyph glyph-name="odieresis" unicode="&#xf6;" horiz-adv-x="1429" 
d="M494 1327q0 41 28 69.5t68 28.5q38 0 67 -29t29 -69q0 -38 -29.5 -66t-66.5 -28q-40 0 -68 28t-28 66zM743 1327q0 41 30.5 69.5t70.5 28.5q35 0 63.5 -29t28.5 -69q0 -37 -28.5 -65.5t-63.5 -28.5q-40 0 -70.5 28t-30.5 66zM1360 557q0 -115 -38.5 -213.5t-103 -166.5
t-148.5 -116.5t-174 -71t-181 -22.5t-181 22.5t-173.5 71t-147.5 116.5t-102.5 166.5t-38.5 213.5q0 114 38.5 212t102.5 166t147.5 116.5t173.5 71t181 22.5t181 -22.5t174 -71t148.5 -116.5t103 -166t38.5 -212zM969 557q0 106 -78 166.5t-176 60.5t-176 -60.5t-78 -166.5
q0 -73 40 -127t96 -78t118 -24t118 24t96 78t40 127z" />
    <glyph glyph-name="divide" unicode="&#xf7;" horiz-adv-x="925" 
d="M319 1040q0 61 42 102.5t104 41.5q60 0 101.5 -41.5t41.5 -102.5q0 -60 -41.5 -102.5t-101.5 -42.5q-61 0 -103.5 42.5t-42.5 102.5zM45 756h836v-207h-836v207zM319 227q0 61 42 102.5t104 41.5q60 0 101.5 -41.5t41.5 -102.5q0 -60 -41.5 -102.5t-101.5 -42.5
q-61 0 -103.5 42.5t-42.5 102.5z" />
    <glyph glyph-name="oslash" unicode="&#xf8;" horiz-adv-x="1429" 
d="M1360 557q0 -115 -38.5 -213.5t-103 -166.5t-148.5 -116.5t-174 -71t-181 -22.5q-120 0 -221 35l-105 -160h-270l170 264q-101 78 -159 191.5t-58 259.5q0 114 38.5 212t102.5 166t147.5 116.5t173.5 71t181 22.5q114 0 217 -33l106 164h271l-172 -268q223 -167 223 -451
zM498 432l225 352q-107 0 -184.5 -61.5t-77.5 -165.5q0 -69 37 -125zM969 557q0 72 -39 127l-228 -356q110 0 188.5 60.5t78.5 168.5z" />
    <glyph glyph-name="ugrave" unicode="&#xf9;" horiz-adv-x="1464" 
d="M551 1401l113 127l247 -250l-67 -76zM121 457v649h389v-649q0 -86 53 -131t131 -45q90 0 160 56t70 150v619h389v-696q0 -76 18 -103.5t84 -27.5h15l2 -279q-79 0 -134 2t-112.5 7.5t-95.5 17t-72 29.5t-54 45.5t-30 64.5q-61 -95 -159.5 -146t-207.5 -51
q-85 0 -164 31.5t-142.5 90.5t-101.5 154t-38 212z" />
    <glyph glyph-name="uacute" unicode="&#xfa;" horiz-adv-x="1464" 
d="M551 1290l250 250l110 -127l-293 -196zM121 457v649h389v-649q0 -86 53 -131t131 -45q90 0 160 56t70 150v619h389v-696q0 -76 18 -103.5t84 -27.5h15l2 -279q-79 0 -134 2t-112.5 7.5t-95.5 17t-72 29.5t-54 45.5t-30 64.5q-61 -95 -159.5 -146t-207.5 -51
q-85 0 -164 31.5t-142.5 90.5t-101.5 154t-38 212z" />
    <glyph glyph-name="ucircumflex" unicode="&#xfb;" horiz-adv-x="1464" 
d="M653 1239h-143l158 246h127l157 -246h-143l-78 135zM121 457v649h389v-649q0 -86 53 -131t131 -45q90 0 160 56t70 150v619h389v-696q0 -76 18 -103.5t84 -27.5h15l2 -279q-79 0 -134 2t-112.5 7.5t-95.5 17t-72 29.5t-54 45.5t-30 64.5q-61 -95 -159.5 -146t-207.5 -51
q-85 0 -164 31.5t-142.5 90.5t-101.5 154t-38 212z" />
    <glyph glyph-name="udieresis" unicode="&#xfc;" horiz-adv-x="1464" 
d="M510 1327q0 41 28.5 69.5t69.5 28.5q37 0 65.5 -28.5t28.5 -69.5q0 -38 -28.5 -66t-65.5 -28q-41 0 -69.5 27.5t-28.5 66.5zM762 1327q0 41 30 69.5t70 28.5q35 0 62.5 -29t27.5 -69q0 -38 -28 -66t-62 -28q-40 0 -70 28t-30 66zM121 457v649h389v-649q0 -86 53 -131
t131 -45q90 0 160 56t70 150v619h389v-696q0 -76 18 -103.5t84 -27.5h15l2 -279q-79 0 -134 2t-112.5 7.5t-95.5 17t-72 29.5t-54 45.5t-30 64.5q-61 -95 -159.5 -146t-207.5 -51q-85 0 -164 31.5t-142.5 90.5t-101.5 154t-38 212z" />
    <glyph glyph-name="yacute" unicode="&#xfd;" horiz-adv-x="1449" 
d="M545 1290l248 250l112 -127l-293 -196zM129 457v649h389v-649q0 -87 53 -132.5t131 -45.5q90 0 160 57t70 151v619h389v-985q0 -157 -59 -280t-164 -199.5t-243.5 -116t-303.5 -39.5q-100 0 -217.5 30.5t-212.5 77.5l57 355q71 -54 189.5 -86.5t236.5 -32.5
q169 0 249.5 68.5t80.5 205.5v50q-63 -90 -159 -137.5t-202 -47.5q-85 0 -163 31t-141.5 90t-101.5 154t-38 213z" />
    <glyph glyph-name="thorn" unicode="&#xfe;" horiz-adv-x="1505" 
d="M1436 553q0 -108 -31.5 -203t-85.5 -163.5t-124.5 -118.5t-149.5 -74.5t-160 -24.5q-109 0 -206.5 45.5t-164.5 135.5v-457l-389 2v1636h389v-377q67 90 164.5 136.5t206.5 46.5q81 0 160 -25t149.5 -75t124.5 -118.5t85.5 -163.5t31.5 -202zM1042 553q0 129 -81 203.5
t-189 74.5q-105 0 -180.5 -72.5t-75.5 -205.5q0 -134 75.5 -207.5t180.5 -73.5q108 0 189 75.5t81 205.5z" />
    <glyph glyph-name="ydieresis" unicode="&#xff;" horiz-adv-x="1449" 
d="M504 1327q0 41 28 69.5t68 28.5q38 0 67 -29t29 -69q0 -38 -29.5 -66t-66.5 -28q-40 0 -68 28t-28 66zM754 1327q0 41 30 69.5t70 28.5q35 0 63.5 -29t28.5 -69q0 -37 -28.5 -65.5t-63.5 -28.5q-40 0 -70 28t-30 66zM129 457v649h389v-649q0 -87 53 -132.5t131 -45.5
q90 0 160 57t70 151v619h389v-985q0 -157 -59 -280t-164 -199.5t-243.5 -116t-303.5 -39.5q-100 0 -217.5 30.5t-212.5 77.5l57 355q71 -54 189.5 -86.5t236.5 -32.5q169 0 249.5 68.5t80.5 205.5v50q-63 -90 -159 -137.5t-202 -47.5q-85 0 -163 31t-141.5 90t-101.5 154
t-38 213z" />
    <glyph glyph-name="Dcroat" unicode="&#x110;" horiz-adv-x="1744" 
d="M131 1434h825q173 -2 313 -64t227 -164t133 -227.5t46 -261.5t-46 -261.5t-133 -227.5t-227 -164t-313 -64h-825v653h-102v248h102v533zM944 1106h-416v-205h557v-248h-557v-323h416q102 0 176.5 57.5t109 143.5t34.5 186q0 101 -34.5 187.5t-109 144t-176.5 57.5z" />
    <glyph glyph-name="dcroat" unicode="&#x111;" horiz-adv-x="1505" 
d="M989 1536h387v-78h187v-250h-187v-1208h-342l-33 166q-67 -98 -167 -147.5t-213 -49.5q-81 0 -160 24.5t-149.5 74.5t-124.5 118.5t-85.5 163.5t-31.5 203q0 107 31.5 202t85.5 163.5t124.5 118.5t149.5 75t160 25q107 0 204 -46.5t164 -136.5v254h-483v250h483v78z
M463 553q0 -131 80.5 -206t189.5 -75q105 0 180.5 73.5t75.5 207.5q0 133 -75.5 205.5t-180.5 72.5q-109 0 -189.5 -74.5t-80.5 -203.5z" />
    <glyph glyph-name="dotlessi" unicode="&#x131;" horiz-adv-x="643" 
d="M516 0h-389v1106h389v-1106z" />
    <glyph glyph-name="Lslash" unicode="&#x141;" horiz-adv-x="1390" 
d="M131 0v479l-82 -28l-74 225l156 51v707h397v-578l166 55l74 -225l-240 -78v-280h854v-328h-1251z" />
    <glyph glyph-name="lslash" unicode="&#x142;" horiz-adv-x="643" 
d="M127 0v428l-129 -41l-72 225l201 62v862h389v-739l129 43l72 -226l-201 -63v-551h-389z" />
    <glyph glyph-name="OE" unicode="&#x152;" horiz-adv-x="2512" 
d="M1425 328h881v-328h-1417q-97 0 -192 18t-187.5 53.5t-171.5 94.5t-139.5 136t-94.5 183.5t-34 231.5q0 149 49.5 272t130.5 204t188.5 136.5t221 80t231.5 24.5h1403v-328h-869v-225h734v-328h-734v-225zM1028 379v676l-137 2q-61 0 -117.5 -10t-112 -35t-96 -62.5
t-65.5 -97.5t-25 -135t25 -135t65.5 -97.5t96 -62t112 -34.5t117.5 -9h137z" />
    <glyph glyph-name="oe" unicode="&#x153;" horiz-adv-x="2234" 
d="M1880 434l256 -227q-95 -118 -234 -185t-307 -67q-113 0 -227 42t-203 120q-91 -76 -209 -116t-237 -40q-91 0 -181 22.5t-173.5 71t-147.5 116.5t-102.5 166.5t-38.5 213.5q0 114 38.5 212t102.5 166t147.5 116.5t173.5 71t181 22.5q119 0 237 -40t209 -116
q91 78 205 120t227 42q93 0 178.5 -25t160.5 -77.5t130.5 -127.5t87.5 -180.5t33 -230.5l-817 2q20 -89 82 -146t160 -57q168 0 268 131zM1393 731h424q-71 141 -201 141q-154 0 -223 -141zM973 551q0 106 -78 166.5t-176 60.5t-176 -60.5t-78 -166.5q0 -73 40 -127t96 -78
t118 -24t118 24t96 78t40 127z" />
    <glyph glyph-name="Scaron" unicode="&#x160;" horiz-adv-x="1607" 
d="M739 1542l-155 246h141l78 -135l78 135h143l-158 -246h-127zM1542 1260l-186 -324q-107 90 -276 144.5t-306 54.5q-89 0 -142.5 -26.5t-53.5 -80.5q0 -38 41.5 -65.5t109 -43t154 -35t176.5 -38.5t176.5 -55.5t154 -84.5t109 -127.5t41.5 -181.5q0 -93 -36.5 -168.5
t-99 -126.5t-149 -85.5t-184 -50t-207.5 -15.5q-220 0 -440 59.5t-361 157.5l187 338q115 -94 312.5 -156.5t346.5 -62.5q87 0 140 24.5t53 73.5q0 44 -53 74.5t-137.5 51.5t-186.5 42.5t-204.5 57t-187 85.5t-137.5 137t-53 203q0 115 49.5 201.5t136.5 137.5t195.5 75.5
t237.5 24.5q206 0 419.5 -59t360.5 -156z" />
    <glyph glyph-name="scaron" unicode="&#x161;" horiz-adv-x="1359" 
d="M616 1214l-157 246h143l78 -135l78 135h141l-156 -246h-127zM1286 971l-160 -281q-90 63 -236 106.5t-255 43.5q-127 0 -127 -60q0 -25 43 -42.5t111 -30.5t151 -28.5t166 -44t151 -69t111 -110.5t43 -162t-45 -161.5t-124.5 -110t-177 -60.5t-212.5 -20
q-181 0 -360.5 46.5t-294.5 123.5l155 297q93 -75 251 -123.5t282 -48.5q133 0 133 57q0 25 -26 42t-69.5 28t-100.5 20t-119.5 22t-125 30t-119.5 47t-100.5 70.5t-69.5 104t-26 142.5q0 91 40.5 159t112 107.5t160 58.5t193.5 19q172 0 348.5 -47t296.5 -125z" />
    <glyph glyph-name="Ydieresis" unicode="&#x178;" horiz-adv-x="1622" 
d="M590 1655q0 41 28.5 69.5t69.5 28.5q37 0 65.5 -28.5t28.5 -69.5q0 -38 -28.5 -66t-65.5 -28q-41 0 -69.5 27.5t-28.5 66.5zM842 1655q0 41 30 69.5t70 28.5q35 0 62.5 -29t27.5 -69q0 -38 -28 -66t-62 -28q-40 0 -70 28t-30 66zM8 1434h463l338 -539l340 539h463
l-602 -863v-571h-400v571z" />
    <glyph glyph-name="Zcaron" unicode="&#x17d;" horiz-adv-x="1404" 
d="M639 1542l-158 246h144l77 -135l78 135h142l-156 -246h-127zM1290 1106l-790 -778h860v-328h-1315v328l813 778h-795v328h1227v-328z" />
    <glyph glyph-name="zcaron" unicode="&#x17e;" horiz-adv-x="1216" 
d="M545 1214l-158 246h143l78 -135l78 135h141l-157 -246h-125zM1126 795l-610 -484h670v-311h-1157v311l626 484h-602v311h1073v-311z" />
    <glyph glyph-name="circumflex" unicode="&#x2c6;" horiz-adv-x="450" 
d="M147 1239h-143l158 246h125l157 -246h-141l-78 135z" />
    <glyph glyph-name="caron" unicode="&#x2c7;" horiz-adv-x="450" 
d="M162 1214l-158 246h143l78 -135l78 135h141l-157 -246h-125z" />
    <glyph glyph-name="ring" unicode="&#x2da;" horiz-adv-x="440" 
d="M225 1190q-95 0 -148.5 58t-53.5 136q0 80 53 137.5t149 57.5q93 0 145 -58.5t52 -136.5q0 -79 -52 -136.5t-145 -57.5zM223 1460q-36 0 -57 -23t-21 -53q0 -31 21 -53t57 -22q35 0 54.5 22t19.5 53q0 30 -19.5 53t-54.5 23z" />
    <glyph glyph-name="tilde" unicode="&#x2dc;" horiz-adv-x="591" 
d="M106 1270l-61 104q32 31 49.5 45.5t53 31.5t71.5 17q30 0 55 -9t38.5 -19.5t30 -19.5t32.5 -9q36 0 114 64l58 -109q-32 -30 -79.5 -55t-88.5 -25q-34 0 -61.5 9t-41.5 19.5t-29.5 19.5t-29.5 9q-35 0 -111 -73z" />
    <glyph glyph-name="endash" unicode="&#x2013;" horiz-adv-x="849" 
d="M45 504v235h758v-235h-758z" />
    <glyph glyph-name="emdash" unicode="&#x2014;" horiz-adv-x="1298" 
d="M45 489v248h1208v-248h-1208z" />
    <glyph glyph-name="quoteleft" unicode="&#x2018;" horiz-adv-x="501" 
d="M457 1434l-125 -482h-287l211 482h201z" />
    <glyph glyph-name="quoteright" unicode="&#x2019;" horiz-adv-x="501" 
d="M45 952l125 482h287l-211 -482h-201z" />
    <glyph glyph-name="quotesinglbase" unicode="&#x201a;" horiz-adv-x="503" 
d="M45 -166l125 481h289l-213 -481h-201z" />
    <glyph glyph-name="quotedblleft" unicode="&#x201c;" horiz-adv-x="903" 
d="M461 1434l-129 -482h-287l211 482h205zM858 1434l-129 -482h-287l211 482h205z" />
    <glyph glyph-name="quotedblright" unicode="&#x201d;" horiz-adv-x="903" 
d="M442 952l127 482h289l-211 -482h-205zM45 952l129 482h287l-211 -482h-205z" />
    <glyph glyph-name="quotedblbase" unicode="&#x201e;" horiz-adv-x="894" 
d="M45 -166l125 481h289l-213 -481h-201zM436 -166l125 481h289l-213 -481h-201z" />
    <glyph glyph-name="dagger" unicode="&#x2020;" horiz-adv-x="837" 
d="M293 1434h252v-342h248v-252h-248v-1002h-252v1002h-248v252h248v342z" />
    <glyph glyph-name="bullet" unicode="&#x2022;" horiz-adv-x="505" 
d="M45 717q0 82 62.5 145.5t146.5 63.5q83 0 146 -63.5t63 -145.5q0 -84 -62.5 -146.5t-146.5 -62.5q-85 0 -147 62t-62 147z" />
    <glyph glyph-name="guilsinglleft" unicode="&#x2039;" horiz-adv-x="573" 
d="M45 664v106l483 623v-355l-252 -321l252 -322v-352z" />
    <glyph glyph-name="guilsinglright" unicode="&#x203a;" horiz-adv-x="573" 
d="M45 1393l483 -623v-106l-483 -621v352l252 322l-252 321v355z" />
    <glyph glyph-name="Euro" unicode="&#x20ac;" horiz-adv-x="1415" 
d="M8 971h236q33 105 93 192.5t145.5 155.5t204 106.5t257.5 38.5q234 0 428 -145l-170 -266q-102 86 -235 86q-219 0 -336 -168h248v-197h-318q-5 -44 -2 -100h320v-197h-254q52 -82 138.5 -130t203.5 -48q144 0 235 82l170 -266q-93 -75 -192.5 -110.5t-235.5 -35.5
q-141 0 -260.5 39.5t-206 110t-146 161t-91.5 197.5h-232v197h197v43q0 39 2 57h-199v197z" />
    <glyph glyph-name="trademark" unicode="&#x2122;" horiz-adv-x="839" 
d="M518 1434l103 -183l102 183h80v-392h-96v168l-54 -96h-63l-55 96v-168h-95v392h78zM387 1346h-123v-304h-96v304h-123v88h342v-88z" />
    <glyph glyph-name="minus" unicode="&#x2212;" horiz-adv-x="1015" 
d="M45 592v250h926v-250h-926z" />
    <glyph glyph-name="a.salt" horiz-adv-x="1505" 
d="M989 1106h387v-1106h-342l-33 166q-67 -98 -167 -147.5t-213 -49.5q-81 0 -160 24.5t-149.5 74.5t-124.5 118.5t-85.5 163.5t-31.5 203q0 107 31.5 202t85.5 163.5t124.5 118.5t149.5 75t160 25q107 0 204 -46.5t164 -136.5v152zM463 553q0 -131 80.5 -206t189.5 -75
q105 0 180.5 73.5t75.5 207.5q0 133 -75.5 205.5t-180.5 72.5q-109 0 -189.5 -74.5t-80.5 -203.5z" />
    <glyph glyph-name="d.salt" horiz-adv-x="1525" 
d="M70 553q0 107 31.5 202t85.5 163.5t124.5 118.5t149.5 75t160 25q108 0 204.5 -45.5t163.5 -135.5v580h387v-1126q0 -75 18.5 -103t84.5 -28h14l2 -279q-78 0 -133 2t-111.5 8t-95 17t-72.5 28.5t-54.5 44t-31.5 62.5q-67 -96 -165.5 -144.5t-210.5 -48.5
q-81 0 -160 24.5t-149.5 74.5t-124.5 118.5t-85.5 163.5t-31.5 203zM463 553q0 -131 80.5 -206t189.5 -75q105 0 180.5 73.5t75.5 207.5q0 133 -75.5 205.5t-180.5 72.5q-109 0 -189.5 -74.5t-80.5 -203.5z" />
    <glyph glyph-name="g.salt" horiz-adv-x="1392" 
d="M1200 696q0 -101 -44 -183.5t-117 -134.5t-163.5 -80t-187.5 -28q-134 0 -239 47q-7 -7 -7 -18q0 -32 31 -49.5t83 -22.5t119 -5.5t142 -2.5t149.5 -8.5t141.5 -28.5t119 -58t83 -101.5t31 -155.5q0 -95 -57 -173t-152 -127.5t-212.5 -76.5t-243.5 -27q-125 0 -238.5 26
t-205.5 76.5t-146.5 133t-54.5 186.5q0 121 143 191q-22 49 -22 114q0 75 38 140.5t93 109.5q-95 113 -95 279q0 101 43.5 183.5t116.5 134.5t163 80t187 28q142 0 258 -58q21 54 21 103q0 61 -29 115l338 -37q8 -36 8 -74q0 -146 -168 -248q74 -112 74 -250zM504 707
q0 -71 56.5 -110.5t133.5 -39.5q78 0 134.5 39.5t56.5 110.5q0 72 -56.5 111.5t-134.5 39.5q-77 0 -133.5 -39.5t-56.5 -111.5zM385 -66q-23 -13 -23 -36q0 -66 95 -102t223 -36q115 0 199 28t84 77q0 30 -45 40.5t-132 10.5q-23 0 -73.5 -1t-77.5 -1q-152 0 -250 20z" />
    <glyph glyph-name="h.salt" horiz-adv-x="1484" 
d="M516 0h-389v1536h389v-602q58 87 150 140.5t219 53.5q243 0 358 -118t115 -359v-651h-391v557q0 148 -51.5 216.5t-155.5 68.5q-100 0 -172 -85.5t-72 -230.5v-526z" />
    <glyph glyph-name="i.salt" horiz-adv-x="663" 
d="M123 1393q0 83 55 133.5t144 50.5t142.5 -50.5t53.5 -133.5t-53.5 -133t-142.5 -50q-90 0 -144.5 50t-54.5 133zM29 829v277h47h65q42 0 76.5 -2t81 -7.5t81.5 -18t67.5 -32t49.5 -51.5t17 -73v-512q0 -76 18 -103.5t84 -27.5h15l2 -279q-90 0 -151.5 3t-124 11
t-101 24.5t-70 43t-45.5 65.5t-14 93v512q-4 77 -51 77h-47z" />
    <glyph glyph-name="j.salt" horiz-adv-x="587" 
d="M96 1393q0 83 55 133.5t144 50.5t143 -50.5t54 -133.5t-54 -133t-143 -50q-90 0 -144.5 50t-54.5 133zM100 -387v1493h389v-1493h-389z" />
    <glyph glyph-name="k.salt" horiz-adv-x="1570" 
d="M127 0v1520h389v-711l326 297h504l-453 -406l688 -700h-537l-432 451l-96 -89v-362h-389z" />
    <glyph glyph-name="l.salt" horiz-adv-x="663" 
d="M127 1536h389v-1126q0 -76 17.5 -103.5t84.5 -27.5h15v-279q-90 0 -151.5 3t-124 11t-101 24.5t-70 43t-45.5 65.5t-14 93v1296z" />
    <glyph glyph-name="m.salt" horiz-adv-x="2097" 
d="M516 0h-389v1106h344l35 -152q46 78 122 126t177 48q307 0 401 -204q79 204 320 204q233 0 340.5 -117.5t107.5 -359.5v-651h-389v573q0 140 -40 204.5t-126 64.5q-82 0 -120.5 -69.5t-43.5 -205.5v-567h-389v573q0 139 -43 204t-131 65t-132 -81.5t-42 -234.5h-2v-526z
" />
    <glyph glyph-name="n.salt" horiz-adv-x="1480" 
d="M518 526h-2v-526h-389v1106h344l39 -176q60 88 154.5 143t222.5 55q242 0 356.5 -118t114.5 -359v-651h-389v557q0 148 -51.5 216.5t-155.5 68.5q-100 0 -172.5 -86.5t-71.5 -229.5z" />
    <glyph glyph-name="p.salt" horiz-adv-x="1507" 
d="M1438 553q0 -108 -31.5 -203t-85.5 -163.5t-124.5 -118.5t-149.5 -74.5t-160 -24.5q-109 0 -206.5 45.5t-164.5 135.5v-648h-389v1604h344l33 -170q67 99 168 150t215 51q81 0 160 -25t149.5 -75t124.5 -118.5t85.5 -163.5t31.5 -202zM1044 553q0 129 -81 203.5
t-189 74.5q-105 0 -180.5 -72.5t-75.5 -205.5q0 -134 75.5 -207.5t180.5 -73.5q108 0 189 75.5t81 205.5z" />
    <glyph glyph-name="r.salt" horiz-adv-x="1155" 
d="M516 541v-541h-389v1106h344l41 -191q131 207 346 207q125 0 266 -69l-90 -289q-79 29 -174 29q-64 0 -123.5 -14.5t-110 -43.5t-80.5 -79t-30 -115z" />
    <glyph glyph-name="u.salt" horiz-adv-x="1441" 
d="M121 457v649h389v-649q0 -86 53 -131t131 -45q90 0 160 56t70 150v619h389v-1106h-389v152q-61 -88 -157 -135.5t-200 -47.5q-85 0 -164 31.5t-142.5 90.5t-101.5 154t-38 212z" />
    <glyph glyph-name="y.salt" horiz-adv-x="1488" 
d="M1454 1106l-514 -1118q-109 -240 -272 -366t-336 -126q-107 0 -210 30.5t-147 61.5l76 320q25 -18 101 -43t135 -25q143 0 262 140h-19l-518 1126h424l297 -756l297 756h424z" />
    </font>
</defs>
</svg>
