<svg xmlns="http://www.w3.org/2000/svg" xmlns:xlink="http://www.w3.org/1999/xlink" width="100%" height="100%" version="1.1" viewBox="0 0 250 250" xml:space="preserve" style="fill-rule:evenodd;clip-rule:evenodd;stroke-linejoin:round;stroke-miterlimit:2"><g id="Dark-Alt"><path d="M250,62.5L250,187.5C250,221.995 221.995,250 187.5,250L62.5,250C28.005,250 0,221.995 0,187.5L0,62.5C0,28.005 28.005,0 62.5,0L187.5,0C221.995,0 250,28.005 250,62.5Z" style="fill:#141413"/><g><path d="M170.81,191.69C177.09,186.38 175.745,179.816 174.583,176.899C173.528,174.25 172.079,174.231 172.079,174.231C172.079,174.231 169.423,173.764 170.81,175.651C172.167,177.497 170.599,182.447 166.62,182.88C160.09,183.59 154.33,175.18 145.11,169.83C138.45,166.37 130.45,166.68 124.52,172.18C118.59,166.37 111.28,167.19 106.15,170.24C98.37,174.83 90.82,183.18 84.54,182.67C80.4,182.4 79.236,177.428 80.78,175.52C81.922,174.109 79.748,174.231 79.748,174.231C79.748,174.231 77.315,173.811 75.82,176.14C72.54,181.25 73.23,188.73 81.99,193.71C88.34,197.44 96.2,196.78 99.01,196.43C109.67,195.24 117.93,190.88 124.33,184.86C130.21,191.33 139.73,196.2 153.37,196.75C159.6,196.97 166.18,195.94 170.81,191.69Z" transform="matrix(1.491035,0,0,1.491035,-62.431377,-111.176107)" style="fill:#d97757;fill-rule:nonzero"/></g><g><path d="M175.2,127.7C167.73,125.96 160.48,125.29 152.73,125.29C143.29,125.29 136.88,127.46 131.05,128.89C127.7,129.74 123.83,130.01 120.18,128.89C113.87,126.81 107.45,125.48 98.05,125.29C89.95,125.09 83.05,126.17 74,128.21C73.38,128.36 73.31,128.6 73.31,129.27L73.31,134.6C73.31,136.16 73.8,136.69 74.66,136.99C76.21,137.64 77.03,138.89 77.75,143.95C79.07,152.04 80.17,156.76 84.35,159.38C88.73,162.16 93.62,162.57 97.97,162.37C108.76,161.83 115.95,155.54 120.15,142.3C121.15,138.78 122.33,137.79 124.53,137.72C126.96,137.79 127.92,139.25 129,143.2C132.72,155.94 139.21,162.25 150.23,162.34C157.15,162.34 163.67,160.77 166.89,156.8C169.75,153.34 170.85,148.16 171.79,141.39C172.28,138.33 173.32,137.04 174.54,136.76C175.62,136.47 175.72,135.77 175.72,134.44L175.72,129.14C175.72,128.35 175.65,127.83 175.2,127.7ZM115.98,142.64C113.38,152.79 108.15,158.6 97.33,158.6C88.65,158.6 85.39,155.23 83.94,150.69C82.21,145.21 81,134.66 85.72,131.81C88.96,130.04 93.46,129.59 98.14,129.59C104.25,129.59 110.82,130.51 113.97,132.72C117.26,135.01 116.88,139.19 115.98,142.64ZM166.2,150.37C164.26,155.92 159.86,158.45 151.12,158.45C141.65,158.45 136.76,153.45 133.54,143.89C131.88,138.06 132.67,132.65 139.95,130.6C143.64,129.57 147.78,129.38 151.5,129.45C156.19,129.57 161.05,130.04 163.76,131.33C168.92,133.79 168.56,142.95 166.2,150.37Z" transform="matrix(2.033768,0,0,2.033768,-128.23467,-186.989467)" style="fill:#d97757;fill-rule:nonzero"/></g></g></svg>